<svg width="2615" height="512" viewBox="0 0 2615 512" fill="none" xmlns="http://www.w3.org/2000/svg">
<path d="M771.75 326.625C763.417 333.792 754.083 339.292 743.75 343.125C733.417 346.958 722.708 348.875 711.625 348.875C703.125 348.875 694.917 347.75 687 345.5C679.167 343.333 671.792 340.25 664.875 336.25C658.042 332.167 651.792 327.292 646.125 321.625C640.458 315.958 635.583 309.708 631.5 302.875C627.5 295.958 624.375 288.583 622.125 280.75C619.958 272.833 618.875 264.625 618.875 256.125C618.875 247.625 619.958 239.417 622.125 231.5C624.375 223.583 627.5 216.208 631.5 209.375C635.583 202.458 640.458 196.167 646.125 190.5C651.792 184.833 658.042 180 664.875 176C671.792 171.917 679.167 168.792 687 166.625C694.917 164.375 703.125 163.25 711.625 163.25C722.708 163.25 733.417 165.167 743.75 169C754.083 172.75 763.417 178.25 771.75 185.5L752.75 216.75C747.5 211.083 741.292 206.75 734.125 203.75C726.958 200.667 719.458 199.125 711.625 199.125C703.708 199.125 696.292 200.625 689.375 203.625C682.458 206.625 676.417 210.708 671.25 215.875C666.083 220.958 662 227 659 234C656 240.917 654.5 248.292 654.5 256.125C654.5 263.958 656 271.333 659 278.25C662 285.083 666.083 291.083 671.25 296.25C676.417 301.417 682.458 305.5 689.375 308.5C696.292 311.5 703.708 313 711.625 313C719.458 313 726.958 311.5 734.125 308.5C741.292 305.417 747.5 301.042 752.75 295.375L771.75 326.625ZM913.625 276.875C913.625 286.875 911.833 296.208 908.25 304.875C904.667 313.458 899.792 320.917 893.625 327.25C887.458 333.5 880.208 338.458 871.875 342.125C863.625 345.708 854.75 347.5 845.25 347.5C835.833 347.5 826.958 345.708 818.625 342.125C810.375 338.458 803.125 333.5 796.875 327.25C790.708 320.917 785.833 313.458 782.25 304.875C778.667 296.208 776.875 286.875 776.875 276.875C776.875 266.708 778.667 257.292 782.25 248.625C785.833 239.958 790.708 232.5 796.875 226.25C803.125 219.917 810.375 214.958 818.625 211.375C826.958 207.792 835.833 206 845.25 206C854.75 206 863.625 207.708 871.875 211.125C880.208 214.458 887.458 219.25 893.625 225.5C899.792 231.667 904.667 239.125 908.25 247.875C911.833 256.542 913.625 266.208 913.625 276.875ZM879.25 276.875C879.25 271.375 878.333 266.417 876.5 262C874.75 257.5 872.333 253.667 869.25 250.5C866.167 247.25 862.542 244.792 858.375 243.125C854.292 241.375 849.917 240.5 845.25 240.5C840.583 240.5 836.167 241.375 832 243.125C827.917 244.792 824.333 247.25 821.25 250.5C818.25 253.667 815.875 257.5 814.125 262C812.375 266.417 811.5 271.375 811.5 276.875C811.5 282.042 812.375 286.833 814.125 291.25C815.875 295.667 818.25 299.5 821.25 302.75C824.333 306 827.917 308.583 832 310.5C836.167 312.333 840.583 313.25 845.25 313.25C849.917 313.25 854.292 312.375 858.375 310.625C862.542 308.875 866.167 306.417 869.25 303.25C872.333 300.083 874.75 296.25 876.5 291.75C878.333 287.25 879.25 282.292 879.25 276.875ZM1061.88 345H1053.62L1040.38 326.625C1037.12 329.542 1033.67 332.292 1030 334.875C1026.42 337.375 1022.62 339.583 1018.62 341.5C1014.62 343.333 1010.5 344.792 1006.25 345.875C1002.08 346.958 997.833 347.5 993.5 347.5C984.083 347.5 975.208 345.75 966.875 342.25C958.625 338.667 951.375 333.75 945.125 327.5C938.958 321.167 934.083 313.708 930.5 305.125C926.917 296.458 925.125 287.042 925.125 276.875C925.125 266.792 926.917 257.417 930.5 248.75C934.083 240.083 938.958 232.583 945.125 226.25C951.375 219.917 958.625 214.958 966.875 211.375C975.208 207.792 984.083 206 993.5 206C996.5 206 999.583 206.25 1002.75 206.75C1006 207.25 1009.12 208.083 1012.12 209.25C1015.21 210.333 1018.08 211.792 1020.75 213.625C1023.42 215.458 1025.67 217.708 1027.5 220.375V157.875H1061.88V345ZM1027.5 276.875C1027.5 272.208 1026.58 267.708 1024.75 263.375C1023 258.958 1020.58 255.083 1017.5 251.75C1014.42 248.333 1010.79 245.625 1006.62 243.625C1002.54 241.542 998.167 240.5 993.5 240.5C988.833 240.5 984.417 241.333 980.25 243C976.167 244.667 972.583 247.083 969.5 250.25C966.5 253.333 964.125 257.125 962.375 261.625C960.625 266.125 959.75 271.208 959.75 276.875C959.75 281.792 960.625 286.458 962.375 290.875C964.125 295.292 966.5 299.167 969.5 302.5C972.583 305.833 976.167 308.458 980.25 310.375C984.417 312.292 988.833 313.25 993.5 313.25C998.167 313.25 1002.54 312.25 1006.62 310.25C1010.79 308.167 1014.42 305.458 1017.5 302.125C1020.58 298.708 1023 294.833 1024.75 290.5C1026.58 286.083 1027.5 281.542 1027.5 276.875ZM1141.25 312.25C1142.58 312.667 1143.92 312.958 1145.25 313.125C1146.58 313.208 1147.92 313.25 1149.25 313.25C1152.58 313.25 1155.79 312.792 1158.88 311.875C1161.96 310.958 1164.83 309.667 1167.5 308C1170.25 306.25 1172.67 304.167 1174.75 301.75C1176.92 299.25 1178.67 296.5 1180 293.5L1205 318.625C1201.83 323.125 1198.17 327.167 1194 330.75C1189.92 334.333 1185.46 337.375 1180.62 339.875C1175.88 342.375 1170.83 344.25 1165.5 345.5C1160.25 346.833 1154.83 347.5 1149.25 347.5C1139.83 347.5 1130.96 345.75 1122.62 342.25C1114.38 338.75 1107.12 333.875 1100.88 327.625C1094.71 321.375 1089.83 313.958 1086.25 305.375C1082.67 296.708 1080.88 287.208 1080.88 276.875C1080.88 266.292 1082.67 256.625 1086.25 247.875C1089.83 239.125 1094.71 231.667 1100.88 225.5C1107.12 219.333 1114.38 214.542 1122.62 211.125C1130.96 207.708 1139.83 206 1149.25 206C1154.83 206 1160.29 206.667 1165.62 208C1170.96 209.333 1176 211.25 1180.75 213.75C1185.58 216.25 1190.08 219.333 1194.25 223C1198.42 226.583 1202.08 230.625 1205.25 235.125L1141.25 312.25ZM1158.75 241.875C1157.17 241.292 1155.58 240.917 1154 240.75C1152.5 240.583 1150.92 240.5 1149.25 240.5C1144.58 240.5 1140.17 241.375 1136 243.125C1131.92 244.792 1128.33 247.208 1125.25 250.375C1122.25 253.542 1119.88 257.375 1118.12 261.875C1116.38 266.292 1115.5 271.292 1115.5 276.875C1115.5 278.125 1115.54 279.542 1115.62 281.125C1115.79 282.708 1116 284.333 1116.25 286C1116.58 287.583 1116.96 289.125 1117.38 290.625C1117.79 292.125 1118.33 293.458 1119 294.625L1158.75 241.875ZM1423.62 276.875C1423.62 286.875 1421.83 296.208 1418.25 304.875C1414.67 313.458 1409.79 320.917 1403.62 327.25C1397.46 333.5 1390.21 338.458 1381.88 342.125C1373.62 345.708 1364.75 347.5 1355.25 347.5C1345.83 347.5 1336.96 345.708 1328.62 342.125C1320.38 338.458 1313.12 333.5 1306.88 327.25C1300.71 320.917 1295.83 313.458 1292.25 304.875C1288.67 296.208 1286.88 286.875 1286.88 276.875C1286.88 266.708 1288.67 257.292 1292.25 248.625C1295.83 239.958 1300.71 232.5 1306.88 226.25C1313.12 219.917 1320.38 214.958 1328.62 211.375C1336.96 207.792 1345.83 206 1355.25 206C1364.75 206 1373.62 207.708 1381.88 211.125C1390.21 214.458 1397.46 219.25 1403.62 225.5C1409.79 231.667 1414.67 239.125 1418.25 247.875C1421.83 256.542 1423.62 266.208 1423.62 276.875ZM1389.25 276.875C1389.25 271.375 1388.33 266.417 1386.5 262C1384.75 257.5 1382.33 253.667 1379.25 250.5C1376.17 247.25 1372.54 244.792 1368.38 243.125C1364.29 241.375 1359.92 240.5 1355.25 240.5C1350.58 240.5 1346.17 241.375 1342 243.125C1337.92 244.792 1334.33 247.25 1331.25 250.5C1328.25 253.667 1325.88 257.5 1324.12 262C1322.38 266.417 1321.5 271.375 1321.5 276.875C1321.5 282.042 1322.38 286.833 1324.12 291.25C1325.88 295.667 1328.25 299.5 1331.25 302.75C1334.33 306 1337.92 308.583 1342 310.5C1346.17 312.333 1350.58 313.25 1355.25 313.25C1359.92 313.25 1364.29 312.375 1368.38 310.625C1372.54 308.875 1376.17 306.417 1379.25 303.25C1382.33 300.083 1384.75 296.25 1386.5 291.75C1388.33 287.25 1389.25 282.292 1389.25 276.875ZM1484.38 345H1450.25V245.125H1433.62V211.125H1450.25V204.75C1450.25 196.5 1451.79 188.75 1454.88 181.5C1458.04 174.25 1462.33 167.958 1467.75 162.625C1473.25 157.208 1479.62 152.958 1486.88 149.875C1494.12 146.708 1501.88 145.125 1510.12 145.125H1535.75V179.125H1510.12C1506.46 179.125 1503.04 179.792 1499.88 181.125C1496.79 182.375 1494.08 184.167 1491.75 186.5C1489.5 188.75 1487.71 191.458 1486.38 194.625C1485.04 197.708 1484.38 201.083 1484.38 204.75V211.125H1526.25V245.125H1484.38V345ZM1761 326.625C1752.67 333.792 1743.33 339.292 1733 343.125C1722.67 346.958 1711.96 348.875 1700.88 348.875C1692.38 348.875 1684.17 347.75 1676.25 345.5C1668.42 343.333 1661.04 340.25 1654.12 336.25C1647.29 332.167 1641.04 327.292 1635.38 321.625C1629.71 315.958 1624.83 309.708 1620.75 302.875C1616.75 295.958 1613.62 288.583 1611.38 280.75C1609.21 272.833 1608.12 264.625 1608.12 256.125C1608.12 247.625 1609.21 239.417 1611.38 231.5C1613.62 223.583 1616.75 216.208 1620.75 209.375C1624.83 202.458 1629.71 196.167 1635.38 190.5C1641.04 184.833 1647.29 180 1654.12 176C1661.04 171.917 1668.42 168.792 1676.25 166.625C1684.17 164.375 1692.38 163.25 1700.88 163.25C1711.96 163.25 1722.67 165.167 1733 169C1743.33 172.75 1752.67 178.25 1761 185.5L1742 216.75C1736.75 211.083 1730.54 206.75 1723.38 203.75C1716.21 200.667 1708.71 199.125 1700.88 199.125C1692.96 199.125 1685.54 200.625 1678.62 203.625C1671.71 206.625 1665.67 210.708 1660.5 215.875C1655.33 220.958 1651.25 227 1648.25 234C1645.25 240.917 1643.75 248.292 1643.75 256.125C1643.75 263.958 1645.25 271.333 1648.25 278.25C1651.25 285.083 1655.33 291.083 1660.5 296.25C1665.67 301.417 1671.71 305.5 1678.62 308.5C1685.54 311.5 1692.96 313 1700.88 313C1708.71 313 1716.21 311.5 1723.38 308.5C1730.54 305.417 1736.75 301.042 1742 295.375L1761 326.625ZM1902.88 276.875C1902.88 286.875 1901.08 296.208 1897.5 304.875C1893.92 313.458 1889.04 320.917 1882.88 327.25C1876.71 333.5 1869.46 338.458 1861.12 342.125C1852.88 345.708 1844 347.5 1834.5 347.5C1825.08 347.5 1816.21 345.708 1807.88 342.125C1799.62 338.458 1792.38 333.5 1786.12 327.25C1779.96 320.917 1775.08 313.458 1771.5 304.875C1767.92 296.208 1766.12 286.875 1766.12 276.875C1766.12 266.708 1767.92 257.292 1771.5 248.625C1775.08 239.958 1779.96 232.5 1786.12 226.25C1792.38 219.917 1799.62 214.958 1807.88 211.375C1816.21 207.792 1825.08 206 1834.5 206C1844 206 1852.88 207.708 1861.12 211.125C1869.46 214.458 1876.71 219.25 1882.88 225.5C1889.04 231.667 1893.92 239.125 1897.5 247.875C1901.08 256.542 1902.88 266.208 1902.88 276.875ZM1868.5 276.875C1868.5 271.375 1867.58 266.417 1865.75 262C1864 257.5 1861.58 253.667 1858.5 250.5C1855.42 247.25 1851.79 244.792 1847.62 243.125C1843.54 241.375 1839.17 240.5 1834.5 240.5C1829.83 240.5 1825.42 241.375 1821.25 243.125C1817.17 244.792 1813.58 247.25 1810.5 250.5C1807.5 253.667 1805.12 257.5 1803.38 262C1801.62 266.417 1800.75 271.375 1800.75 276.875C1800.75 282.042 1801.62 286.833 1803.38 291.25C1805.12 295.667 1807.5 299.5 1810.5 302.75C1813.58 306 1817.17 308.583 1821.25 310.5C1825.42 312.333 1829.83 313.25 1834.5 313.25C1839.17 313.25 1843.54 312.375 1847.62 310.625C1851.79 308.875 1855.42 306.417 1858.5 303.25C1861.58 300.083 1864 296.25 1865.75 291.75C1867.58 287.25 1868.5 282.292 1868.5 276.875ZM1955.88 345H1921.75V211.125H1930L1941.25 224.125C1946.75 219.125 1952.96 215.292 1959.88 212.625C1966.88 209.875 1974.17 208.5 1981.75 208.5C1989.92 208.5 1997.62 210.083 2004.88 213.25C2012.12 216.333 2018.46 220.625 2023.88 226.125C2029.29 231.542 2033.54 237.917 2036.62 245.25C2039.79 252.5 2041.38 260.25 2041.38 268.5V345H2007.25V268.5C2007.25 265 2006.58 261.708 2005.25 258.625C2003.92 255.458 2002.08 252.708 1999.75 250.375C1997.42 248.042 1994.71 246.208 1991.62 244.875C1988.54 243.542 1985.25 242.875 1981.75 242.875C1978.17 242.875 1974.79 243.542 1971.62 244.875C1968.46 246.208 1965.71 248.042 1963.38 250.375C1961.04 252.708 1959.21 255.458 1957.88 258.625C1956.54 261.708 1955.88 265 1955.88 268.5V345ZM2195.12 345H2186.88L2173.62 326.625C2170.38 329.542 2166.92 332.292 2163.25 334.875C2159.67 337.375 2155.88 339.583 2151.88 341.5C2147.88 343.333 2143.75 344.792 2139.5 345.875C2135.33 346.958 2131.08 347.5 2126.75 347.5C2117.33 347.5 2108.46 345.75 2100.12 342.25C2091.88 338.667 2084.62 333.75 2078.38 327.5C2072.21 321.167 2067.33 313.708 2063.75 305.125C2060.17 296.458 2058.38 287.042 2058.38 276.875C2058.38 266.792 2060.17 257.417 2063.75 248.75C2067.33 240.083 2072.21 232.583 2078.38 226.25C2084.62 219.917 2091.88 214.958 2100.12 211.375C2108.46 207.792 2117.33 206 2126.75 206C2129.75 206 2132.83 206.25 2136 206.75C2139.25 207.25 2142.38 208.083 2145.38 209.25C2148.46 210.333 2151.33 211.792 2154 213.625C2156.67 215.458 2158.92 217.708 2160.75 220.375V157.875H2195.12V345ZM2160.75 276.875C2160.75 272.208 2159.83 267.708 2158 263.375C2156.25 258.958 2153.83 255.083 2150.75 251.75C2147.67 248.333 2144.04 245.625 2139.88 243.625C2135.79 241.542 2131.42 240.5 2126.75 240.5C2122.08 240.5 2117.67 241.333 2113.5 243C2109.42 244.667 2105.83 247.083 2102.75 250.25C2099.75 253.333 2097.38 257.125 2095.62 261.625C2093.88 266.125 2093 271.208 2093 276.875C2093 281.792 2093.88 286.458 2095.62 290.875C2097.38 295.292 2099.75 299.167 2102.75 302.5C2105.83 305.833 2109.42 308.458 2113.5 310.375C2117.67 312.292 2122.08 313.25 2126.75 313.25C2131.42 313.25 2135.79 312.25 2139.88 310.25C2144.04 308.167 2147.67 305.458 2150.75 302.125C2153.83 298.708 2156.25 294.833 2158 290.5C2159.83 286.083 2160.75 281.542 2160.75 276.875ZM2319.62 329.375C2316.88 331.875 2313.92 334.25 2310.75 336.5C2307.67 338.667 2304.42 340.583 2301 342.25C2297.58 343.833 2294.04 345.083 2290.38 346C2286.79 347 2283.12 347.5 2279.38 347.5C2271.12 347.5 2263.38 346.042 2256.12 343.125C2248.88 340.208 2242.5 336.083 2237 330.75C2231.58 325.333 2227.29 318.792 2224.12 311.125C2221.04 303.375 2219.5 294.708 2219.5 285.125V211.125H2253.5V285.125C2253.5 289.625 2254.17 293.667 2255.5 297.25C2256.92 300.75 2258.79 303.708 2261.12 306.125C2263.46 308.542 2266.17 310.375 2269.25 311.625C2272.42 312.875 2275.79 313.5 2279.38 313.5C2282.88 313.5 2286.17 312.708 2289.25 311.125C2292.42 309.458 2295.17 307.292 2297.5 304.625C2299.83 301.958 2301.67 298.958 2303 295.625C2304.33 292.208 2305 288.708 2305 285.125V211.125H2339.12V345H2330.88L2319.62 329.375ZM2482.25 237.75L2457.25 262.875C2456 259.375 2454.29 256.25 2452.12 253.5C2449.96 250.667 2447.5 248.292 2444.75 246.375C2442.08 244.458 2439.17 243 2436 242C2432.83 241 2429.58 240.5 2426.25 240.5C2421.58 240.5 2417.17 241.458 2413 243.375C2408.92 245.292 2405.33 248 2402.25 251.5C2399.25 254.917 2396.88 259 2395.12 263.75C2393.38 268.5 2392.5 273.75 2392.5 279.5C2392.5 284.167 2393.38 288.542 2395.12 292.625C2396.88 296.708 2399.25 300.292 2402.25 303.375C2405.33 306.458 2408.92 308.875 2413 310.625C2417.17 312.375 2421.58 313.25 2426.25 313.25C2429.58 313.25 2432.79 312.792 2435.88 311.875C2438.96 310.958 2441.83 309.667 2444.5 308C2447.25 306.25 2449.67 304.167 2451.75 301.75C2453.92 299.25 2455.67 296.5 2457 293.5L2482 318.625C2478.83 323.125 2475.17 327.167 2471 330.75C2466.92 334.333 2462.46 337.375 2457.62 339.875C2452.88 342.375 2447.83 344.25 2442.5 345.5C2437.25 346.833 2431.83 347.5 2426.25 347.5C2416.83 347.5 2407.96 345.75 2399.62 342.25C2391.38 338.667 2384.12 333.792 2377.88 327.625C2371.71 321.458 2366.83 314.25 2363.25 306C2359.67 297.75 2357.88 288.917 2357.88 279.5C2357.88 269.25 2359.67 259.667 2363.25 250.75C2366.83 241.833 2371.71 234.083 2377.88 227.5C2384.12 220.833 2391.38 215.583 2399.62 211.75C2407.96 207.917 2416.83 206 2426.25 206C2431.83 206 2437.29 206.708 2442.62 208.125C2448.04 209.542 2453.17 211.625 2458 214.375C2462.92 217.042 2467.42 220.333 2471.5 224.25C2475.67 228.167 2479.25 232.667 2482.25 237.75ZM2566.12 345C2557.88 345 2550.12 343.458 2542.88 340.375C2535.62 337.208 2529.25 332.917 2523.75 327.5C2518.33 322 2514.04 315.625 2510.88 308.375C2507.79 301.125 2506.25 293.375 2506.25 285.125V245.375H2489.62V211.375H2506.25V157.875H2540.25V211.375H2592V245.375H2540.25V285.125C2540.25 288.708 2540.92 292.083 2542.25 295.25C2543.58 298.333 2545.42 301.042 2547.75 303.375C2550.08 305.708 2552.83 307.583 2556 309C2559.17 310.333 2562.54 311 2566.12 311H2592V345H2566.12Z" fill="#F38BA8"/>
<path d="M771.75 326.625L776.966 332.69C779.934 330.138 780.619 325.813 778.586 322.469L771.75 326.625ZM743.75 343.125L740.968 335.624L743.75 343.125ZM687 345.5L689.187 337.805C689.169 337.8 689.151 337.795 689.133 337.79L687 345.5ZM664.875 336.25L660.771 343.117C660.804 343.137 660.837 343.156 660.87 343.175L664.875 336.25ZM631.5 302.875L624.575 306.88C624.594 306.913 624.613 306.946 624.633 306.979L631.5 302.875ZM622.125 280.75L614.409 282.862C614.418 282.894 614.427 282.926 614.436 282.959L622.125 280.75ZM622.125 231.5L614.43 229.313C614.423 229.338 614.416 229.363 614.409 229.388L622.125 231.5ZM631.5 209.375L624.611 205.308C624.606 205.316 624.601 205.325 624.596 205.334L631.5 209.375ZM664.875 176L668.916 182.904C668.925 182.899 668.934 182.894 668.942 182.889L664.875 176ZM687 166.625L689.133 174.335C689.151 174.33 689.169 174.325 689.187 174.32L687 166.625ZM743.75 169L740.968 176.501C740.985 176.507 741.003 176.514 741.021 176.52L743.75 169ZM771.75 185.5L778.586 189.656C780.61 186.326 779.941 182.022 777.001 179.464L771.75 185.5ZM752.75 216.75L746.882 222.187C748.587 224.027 751.056 224.961 753.553 224.71C756.049 224.458 758.282 223.05 759.586 220.906L752.75 216.75ZM734.125 203.75L730.963 211.099C730.987 211.109 731.012 211.119 731.036 211.13L734.125 203.75ZM671.25 215.875L676.861 221.578C676.876 221.562 676.892 221.547 676.907 221.532L671.25 215.875ZM659 234L666.339 237.183C666.344 237.173 666.349 237.162 666.353 237.151L659 234ZM659 278.25L651.661 281.433C651.665 281.444 651.67 281.455 651.675 281.466L659 278.25ZM671.25 296.25L665.593 301.907L671.25 296.25ZM734.125 308.5L737.214 315.88C737.238 315.869 737.263 315.859 737.287 315.849L734.125 308.5ZM752.75 295.375L759.586 291.219C758.282 289.075 756.049 287.667 753.553 287.415C751.056 287.164 748.587 288.098 746.882 289.938L752.75 295.375ZM766.534 320.56C758.922 327.105 750.413 332.12 740.968 335.624L746.532 350.626C757.753 346.463 767.911 340.478 776.966 332.69L766.534 320.56ZM740.968 335.624C731.53 339.126 721.764 340.875 711.625 340.875V356.875C723.653 356.875 735.304 354.791 746.532 350.626L740.968 335.624ZM711.625 340.875C703.84 340.875 696.369 339.846 689.187 337.805L684.813 353.195C693.464 355.654 702.41 356.875 711.625 356.875V340.875ZM689.133 337.79C681.943 335.801 675.198 332.979 668.88 329.325L660.87 343.175C668.385 347.521 676.39 350.866 684.867 353.21L689.133 337.79ZM668.979 329.383C662.715 325.64 656.986 321.172 651.782 315.968L640.468 327.282C646.598 333.411 653.369 338.694 660.771 343.117L668.979 329.383ZM651.782 315.968C646.578 310.764 642.11 305.035 638.367 298.771L624.633 306.979C629.056 314.381 634.339 321.152 640.468 327.282L651.782 315.968ZM638.425 298.87C634.759 292.53 631.887 285.76 629.814 278.541L614.436 282.959C616.863 291.407 620.241 299.387 624.575 306.88L638.425 298.87ZM629.841 278.638C627.87 271.434 626.875 263.937 626.875 256.125H610.875C610.875 265.313 612.047 274.233 614.409 282.862L629.841 278.638ZM626.875 256.125C626.875 248.313 627.87 240.816 629.841 233.612L614.409 229.388C612.047 238.017 610.875 246.937 610.875 256.125H626.875ZM629.82 233.687C631.893 226.394 634.758 219.645 638.404 213.416L624.596 205.334C620.242 212.772 616.857 220.773 614.43 229.313L629.82 233.687ZM638.389 213.442C642.131 207.104 646.592 201.346 651.782 196.157L640.468 184.843C634.324 190.987 629.036 197.813 624.611 205.308L638.389 213.442ZM651.782 196.157C656.971 190.967 662.68 186.555 668.916 182.904L660.834 169.096C653.404 173.445 646.612 178.699 640.468 184.843L651.782 196.157ZM668.942 182.889C675.246 179.168 681.969 176.317 689.133 174.335L684.867 158.915C676.364 161.266 668.338 164.666 660.808 169.111L668.942 182.889ZM689.187 174.32C696.369 172.279 703.84 171.25 711.625 171.25V155.25C702.41 155.25 693.464 156.471 684.813 158.93L689.187 174.32ZM711.625 171.25C721.764 171.25 731.53 172.999 740.968 176.501L746.532 161.499C735.304 157.334 723.653 155.25 711.625 155.25V171.25ZM741.021 176.52C750.425 179.933 758.904 184.928 766.499 191.536L777.001 179.464C767.929 171.572 757.742 165.567 746.479 161.48L741.021 176.52ZM764.914 181.344L745.914 212.594L759.586 220.906L778.586 189.656L764.914 181.344ZM758.618 211.313C752.587 204.803 745.429 199.809 737.214 196.37L731.036 211.13C737.154 213.691 742.413 217.364 746.882 222.187L758.618 211.313ZM737.287 196.401C729.117 192.886 720.541 191.125 711.625 191.125V207.125C718.376 207.125 724.8 208.447 730.963 211.099L737.287 196.401ZM711.625 191.125C702.669 191.125 694.163 192.828 686.192 196.286L692.558 210.964C698.42 208.422 704.748 207.125 711.625 207.125V191.125ZM686.192 196.286C678.382 199.673 671.494 204.317 665.593 210.218L676.907 221.532C681.339 217.099 686.535 213.577 692.558 210.964L686.192 196.286ZM665.639 210.172C659.694 216.021 655.035 222.942 651.647 230.849L666.353 237.151C668.965 231.058 672.472 225.895 676.861 221.578L665.639 210.172ZM651.661 230.817C648.208 238.777 646.5 247.24 646.5 256.125H662.5C662.5 249.343 663.792 243.056 666.339 237.183L651.661 230.817ZM646.5 256.125C646.5 265.01 648.208 273.473 651.661 281.433L666.339 275.067C663.792 269.194 662.5 262.907 662.5 256.125H646.5ZM651.675 281.466C655.066 289.19 659.708 296.022 665.593 301.907L676.907 290.593C672.458 286.145 668.934 280.977 666.325 275.034L651.675 281.466ZM665.593 301.907C671.494 307.808 678.382 312.452 686.192 315.839L692.558 301.161C686.535 298.548 681.339 295.026 676.907 290.593L665.593 301.907ZM686.192 315.839C694.163 319.297 702.669 321 711.625 321V305C704.748 305 698.42 303.703 692.558 301.161L686.192 315.839ZM711.625 321C720.51 321 729.061 319.293 737.214 315.88L731.036 301.12C724.856 303.707 718.407 305 711.625 305V321ZM737.287 315.849C745.469 312.329 752.602 307.306 758.618 300.812L746.882 289.938C742.398 294.777 737.115 298.505 730.963 301.151L737.287 315.849ZM745.914 299.531L764.914 330.781L778.586 322.469L759.586 291.219L745.914 299.531ZM908.25 304.875L915.632 307.957C915.636 307.949 915.64 307.94 915.643 307.932L908.25 304.875ZM893.625 327.25L899.32 332.869C899.332 332.856 899.344 332.844 899.357 332.831L893.625 327.25ZM871.875 342.125L875.062 349.463C875.074 349.458 875.085 349.453 875.097 349.448L871.875 342.125ZM818.625 342.125L815.376 349.435C815.405 349.449 815.435 349.462 815.465 349.474L818.625 342.125ZM796.875 327.25L791.143 332.831C791.168 332.856 791.193 332.882 791.218 332.907L796.875 327.25ZM782.25 304.875L774.857 307.932C774.86 307.94 774.864 307.949 774.868 307.957L782.25 304.875ZM782.25 248.625L774.857 245.568L782.25 248.625ZM796.875 226.25L791.181 220.631L791.18 220.631L796.875 226.25ZM818.625 211.375L815.465 204.026C815.456 204.03 815.447 204.033 815.438 204.037L818.625 211.375ZM871.875 211.125L868.814 218.516C868.844 218.529 868.874 218.541 868.904 218.553L871.875 211.125ZM893.625 225.5L887.93 231.119C887.943 231.132 887.955 231.144 887.968 231.157L893.625 225.5ZM908.25 247.875L900.847 250.907C900.85 250.915 900.854 250.923 900.857 250.932L908.25 247.875ZM876.5 262L869.044 264.9C869.066 264.956 869.088 265.011 869.111 265.067L876.5 262ZM869.25 250.5L863.446 256.006C863.47 256.031 863.494 256.056 863.518 256.081L869.25 250.5ZM858.375 243.125L855.224 250.478C855.283 250.504 855.343 250.529 855.404 250.553L858.375 243.125ZM832 243.125L835.023 250.532C835.048 250.522 835.073 250.511 835.098 250.501L832 243.125ZM821.25 250.5L815.446 244.994L815.442 244.998L821.25 250.5ZM814.125 262L821.562 264.947C821.569 264.931 821.575 264.915 821.581 264.9L814.125 262ZM821.25 302.75L815.372 308.176C815.396 308.203 815.421 308.23 815.446 308.256L821.25 302.75ZM832 310.5L828.601 317.742C828.66 317.769 828.719 317.796 828.778 317.823L832 310.5ZM858.375 310.625L855.277 303.249C855.259 303.257 855.241 303.264 855.224 303.272L858.375 310.625ZM876.5 291.75L869.091 288.732C869.075 288.771 869.059 288.811 869.044 288.85L876.5 291.75ZM905.625 276.875C905.625 285.897 904.014 294.184 900.857 301.818L915.643 307.932C919.653 298.233 921.625 287.853 921.625 276.875H905.625ZM900.868 301.793C897.652 309.496 893.321 316.095 887.893 321.669L899.357 332.831C906.262 325.739 911.682 317.421 915.632 307.957L900.868 301.793ZM887.93 321.631C882.499 327.136 876.097 331.527 868.653 334.802L875.097 349.448C884.32 345.389 892.418 339.864 899.32 332.869L887.93 321.631ZM868.688 334.787C861.5 337.909 853.716 339.5 845.25 339.5V355.5C855.784 355.5 865.75 353.507 875.062 349.463L868.688 334.787ZM845.25 339.5C836.878 339.5 829.082 337.913 821.785 334.776L815.465 349.474C824.835 353.503 834.789 355.5 845.25 355.5V339.5ZM821.874 334.815C814.502 331.538 808.073 327.134 802.532 321.593L791.218 332.907C798.177 339.866 806.248 345.379 815.376 349.435L821.874 334.815ZM802.607 321.669C797.179 316.095 792.848 309.496 789.632 301.793L774.868 307.957C778.818 317.421 784.238 325.739 791.143 332.831L802.607 321.669ZM789.643 301.818C786.486 294.184 784.875 285.897 784.875 276.875H768.875C768.875 287.853 770.847 298.233 774.857 307.932L789.643 301.818ZM784.875 276.875C784.875 267.668 786.493 259.3 789.643 251.682L774.857 245.568C770.84 255.283 768.875 265.748 768.875 276.875H784.875ZM789.643 251.682C792.858 243.905 797.178 237.333 802.57 231.869L791.18 220.631C784.239 227.667 778.808 236.012 774.857 245.568L789.643 251.682ZM802.569 231.869C808.093 226.272 814.489 221.893 821.812 218.713L815.438 204.037C806.261 208.023 798.157 213.562 791.181 220.631L802.569 231.869ZM821.785 218.724C829.082 215.587 836.878 214 845.25 214V198C834.789 198 824.835 199.997 815.465 204.026L821.785 218.724ZM845.25 214C853.768 214 861.595 215.527 868.814 218.516L874.936 203.734C865.655 199.89 855.732 198 845.25 198V214ZM868.904 218.553C876.238 221.486 882.555 225.671 887.93 231.119L899.32 219.881C892.362 212.829 884.179 207.43 874.846 203.697L868.904 218.553ZM887.968 231.157C893.323 236.512 897.631 243.056 900.847 250.907L915.653 244.843C911.702 235.194 906.26 226.822 899.282 219.843L887.968 231.157ZM900.857 250.932C903.988 258.505 905.625 267.114 905.625 276.875H921.625C921.625 265.303 919.678 254.578 915.643 244.818L900.857 250.932ZM887.25 276.875C887.25 270.479 886.182 264.457 883.889 258.933L869.111 265.067C870.485 268.377 871.25 272.271 871.25 276.875H887.25ZM883.956 259.1C881.853 253.693 878.881 248.923 874.982 244.919L863.518 256.081C865.786 258.41 867.647 261.307 869.044 264.9L883.956 259.1ZM875.054 244.994C871.174 240.905 866.583 237.792 861.346 235.697L855.404 250.553C858.501 251.792 861.159 253.595 863.446 256.006L875.054 244.994ZM861.526 235.772C856.397 233.574 850.944 232.5 845.25 232.5V248.5C848.889 248.5 852.186 249.176 855.224 250.478L861.526 235.772ZM845.25 232.5C839.555 232.5 834.082 233.574 828.902 235.749L835.098 250.501C838.252 249.176 841.612 248.5 845.25 248.5V232.5ZM828.977 235.718C823.825 237.821 819.298 240.934 815.446 244.994L827.054 256.006C829.368 253.566 832.008 251.762 835.023 250.532L828.977 235.718ZM815.442 244.998C811.657 248.994 808.754 253.738 806.669 259.1L821.581 264.9C822.996 261.262 824.843 258.34 827.058 256.002L815.442 244.998ZM806.688 259.053C804.512 264.543 803.5 270.523 803.5 276.875H819.5C819.5 272.227 820.238 268.29 821.562 264.947L806.688 259.053ZM803.5 276.875C803.5 282.962 804.535 288.763 806.688 294.197L821.562 288.303C820.215 284.904 819.5 281.121 819.5 276.875H803.5ZM806.688 294.197C808.773 299.461 811.656 304.151 815.372 308.176L827.128 297.324C824.844 294.849 822.977 291.873 821.562 288.303L806.688 294.197ZM815.446 308.256C819.221 312.235 823.621 315.405 828.601 317.742L835.399 303.258C832.212 301.762 829.446 299.765 827.054 297.244L815.446 308.256ZM828.778 317.823C833.986 320.114 839.503 321.25 845.25 321.25V305.25C841.664 305.25 838.347 304.553 835.222 303.177L828.778 317.823ZM845.25 321.25C850.944 321.25 856.397 320.176 861.526 317.978L855.224 303.272C852.186 304.574 848.889 305.25 845.25 305.25V321.25ZM861.473 318.001C866.606 315.845 871.133 312.784 874.982 308.831L863.518 297.669C861.201 300.049 858.477 301.905 855.277 303.249L861.473 318.001ZM874.982 308.831C878.881 304.827 881.853 300.057 883.956 294.65L869.044 288.85C867.647 292.443 865.786 295.34 863.518 297.669L874.982 308.831ZM883.909 294.768C886.175 289.206 887.25 283.208 887.25 276.875H871.25C871.25 281.375 870.492 285.294 869.091 288.732L883.909 294.768ZM1061.88 345V353C1066.29 353 1069.88 349.418 1069.88 345H1061.88ZM1053.62 345L1047.14 349.679C1048.64 351.764 1051.05 353 1053.62 353V345ZM1040.38 326.625L1046.86 321.946C1045.54 320.105 1043.49 318.914 1041.23 318.671C1038.98 318.428 1036.72 319.155 1035.03 320.671L1040.38 326.625ZM1030 334.875L1034.58 341.436C1034.59 341.429 1034.6 341.422 1034.61 341.415L1030 334.875ZM1018.62 341.5L1021.96 348.773C1022 348.754 1022.04 348.734 1022.08 348.715L1018.62 341.5ZM1006.25 345.875L1004.27 338.123C1004.26 338.126 1004.25 338.129 1004.24 338.132L1006.25 345.875ZM966.875 342.25L963.688 349.588C963.718 349.601 963.747 349.613 963.777 349.626L966.875 342.25ZM945.125 327.5L939.393 333.081C939.418 333.106 939.443 333.132 939.468 333.157L945.125 327.5ZM930.5 305.125L923.107 308.182C923.11 308.19 923.114 308.199 923.118 308.207L930.5 305.125ZM930.5 248.75L923.107 245.693L930.5 248.75ZM945.125 226.25L939.431 220.631C939.418 220.643 939.406 220.656 939.393 220.669L945.125 226.25ZM966.875 211.375L963.715 204.026C963.706 204.03 963.697 204.033 963.688 204.037L966.875 211.375ZM1002.75 206.75L1001.5 214.652C1001.51 214.654 1001.52 214.655 1001.53 214.657L1002.75 206.75ZM1012.12 209.25L1009.23 216.706C1009.31 216.738 1009.39 216.768 1009.47 216.798L1012.12 209.25ZM1027.5 220.375L1020.91 224.907C1022.89 227.795 1026.53 229.054 1029.87 228.015C1033.22 226.976 1035.5 223.879 1035.5 220.375H1027.5ZM1027.5 157.875V149.875C1023.08 149.875 1019.5 153.457 1019.5 157.875H1027.5ZM1061.88 157.875H1069.88C1069.88 153.457 1066.29 149.875 1061.88 149.875V157.875ZM1024.75 263.375L1017.31 266.322C1017.34 266.379 1017.36 266.436 1017.38 266.492L1024.75 263.375ZM1017.5 251.75L1011.56 257.11C1011.58 257.134 1011.6 257.158 1011.63 257.182L1017.5 251.75ZM1006.62 243.625L1002.99 250.751C1003.05 250.78 1003.1 250.809 1003.16 250.837L1006.62 243.625ZM980.25 243L977.279 235.572C977.261 235.579 977.244 235.586 977.227 235.593L980.25 243ZM969.5 250.25L963.768 244.669L963.766 244.671L969.5 250.25ZM969.5 302.5L963.554 307.852C963.578 307.879 963.603 307.906 963.627 307.932L969.5 302.5ZM980.25 310.375L976.851 317.617C976.869 317.626 976.888 317.634 976.907 317.643L980.25 310.375ZM1006.62 310.25L1010.14 317.435C1010.16 317.425 1010.18 317.415 1010.2 317.405L1006.62 310.25ZM1017.5 302.125L1023.37 307.557C1023.4 307.533 1023.42 307.509 1023.44 307.485L1017.5 302.125ZM1024.75 290.5L1017.36 287.433C1017.35 287.457 1017.34 287.48 1017.33 287.504L1024.75 290.5ZM1061.88 337H1053.62V353H1061.88V337ZM1060.11 340.321L1046.86 321.946L1033.89 331.304L1047.14 349.679L1060.11 340.321ZM1035.03 320.671C1032.02 323.373 1028.81 325.928 1025.39 328.335L1034.61 341.415C1038.52 338.656 1042.23 335.711 1045.72 332.579L1035.03 320.671ZM1025.42 328.314C1022.2 330.562 1018.78 332.553 1015.17 334.285L1022.08 348.715C1026.47 346.614 1030.63 344.188 1034.58 341.436L1025.42 328.314ZM1015.29 334.227C1011.73 335.861 1008.06 337.159 1004.27 338.123L1008.23 353.627C1012.94 352.425 1017.52 350.806 1021.96 348.773L1015.29 334.227ZM1004.24 338.132C1000.73 339.044 997.159 339.5 993.5 339.5V355.5C998.508 355.5 1003.43 354.873 1008.26 353.618L1004.24 338.132ZM993.5 339.5C985.102 339.5 977.284 337.945 969.973 334.874L963.777 349.626C973.132 353.555 983.065 355.5 993.5 355.5V339.5ZM970.062 334.912C962.717 331.722 956.309 327.37 950.782 321.843L939.468 333.157C946.441 340.13 954.533 345.611 963.688 349.588L970.062 334.912ZM950.857 321.919C945.429 316.345 941.098 309.746 937.882 302.043L923.118 308.207C927.068 317.671 932.488 325.989 939.393 333.081L950.857 321.919ZM937.893 302.068C934.743 294.45 933.125 286.082 933.125 276.875H917.125C917.125 288.002 919.09 298.467 923.107 308.182L937.893 302.068ZM933.125 276.875C933.125 267.761 934.74 259.433 937.893 251.807L923.107 245.693C919.094 255.4 917.125 265.822 917.125 276.875H933.125ZM937.893 251.807C941.112 244.021 945.442 237.392 950.857 231.831L939.393 220.669C932.475 227.774 927.055 236.145 923.107 245.693L937.893 251.807ZM950.819 231.869C956.343 226.272 962.739 221.893 970.062 218.713L963.688 204.037C954.511 208.023 946.407 213.562 939.431 220.631L950.819 231.869ZM970.035 218.724C977.332 215.587 985.128 214 993.5 214V198C983.039 198 973.085 199.997 963.715 204.026L970.035 218.724ZM993.5 214C996.055 214 998.72 214.213 1001.5 214.652L1004 198.848C1000.45 198.287 996.945 198 993.5 198V214ZM1001.53 214.657C1004.22 215.07 1006.78 215.755 1009.23 216.706L1015.02 201.794C1011.47 200.412 1007.78 199.43 1003.97 198.843L1001.53 214.657ZM1009.47 216.798C1011.9 217.649 1014.14 218.788 1016.22 220.217L1025.28 207.033C1022.03 204.795 1018.52 203.017 1014.78 201.702L1009.47 216.798ZM1016.22 220.217C1018.08 221.496 1019.63 223.048 1020.91 224.907L1034.09 215.843C1031.7 212.369 1028.76 209.421 1025.28 207.033L1016.22 220.217ZM1035.5 220.375V157.875H1019.5V220.375H1035.5ZM1027.5 165.875H1061.88V149.875H1027.5V165.875ZM1053.88 157.875V345H1069.88V157.875H1053.88ZM1035.5 276.875C1035.5 271.128 1034.36 265.569 1032.12 260.258L1017.38 266.492C1018.8 269.848 1019.5 273.288 1019.5 276.875H1035.5ZM1032.19 260.428C1030.09 255.137 1027.16 250.409 1023.37 246.318L1011.63 257.182C1014.01 259.758 1015.91 262.78 1017.31 266.322L1032.19 260.428ZM1023.44 246.39C1019.66 242.197 1015.19 238.861 1010.09 236.413L1003.16 250.837C1006.4 252.389 1009.18 254.469 1011.56 257.11L1023.44 246.39ZM1010.26 236.499C1005.03 233.83 999.407 232.5 993.5 232.5V248.5C996.926 248.5 1000.05 249.253 1002.99 250.751L1010.26 236.499ZM993.5 232.5C987.857 232.5 982.428 233.512 977.279 235.572L983.221 250.428C986.405 249.154 989.81 248.5 993.5 248.5V232.5ZM977.227 235.593C972.122 237.677 967.618 240.716 963.768 244.669L975.232 255.831C977.549 253.451 980.211 251.657 983.273 250.407L977.227 235.593ZM963.766 244.671C959.932 248.612 957.01 253.348 954.919 258.725L969.831 264.525C971.24 260.902 973.068 258.055 975.234 255.829L963.766 244.671ZM954.919 258.725C952.753 264.295 951.75 270.386 951.75 276.875H967.75C967.75 272.031 968.497 267.955 969.831 264.525L954.919 258.725ZM951.75 276.875C951.75 282.765 952.803 288.434 954.938 293.822L969.812 287.928C968.447 284.482 967.75 280.819 967.75 276.875H951.75ZM954.938 293.822C957.017 299.069 959.881 303.771 963.554 307.852L975.446 297.148C973.119 294.563 971.233 291.514 969.812 287.928L954.938 293.822ZM963.627 307.932C967.406 312.017 971.828 315.259 976.851 317.617L983.649 303.133C980.506 301.658 977.761 299.649 975.373 297.068L963.627 307.932ZM976.907 317.643C982.141 320.051 987.7 321.25 993.5 321.25V305.25C989.967 305.25 986.693 304.533 983.593 303.107L976.907 317.643ZM993.5 321.25C999.353 321.25 1004.94 319.985 1010.14 317.435L1003.11 303.065C1000.15 304.515 996.98 305.25 993.5 305.25V321.25ZM1010.2 317.405C1015.21 314.902 1019.62 311.617 1023.37 307.557L1011.63 296.693C1009.22 299.3 1006.37 301.431 1003.05 303.095L1010.2 317.405ZM1023.44 307.485C1027.16 303.362 1030.07 298.684 1032.17 293.496L1017.33 287.504C1015.93 290.983 1014.01 294.055 1011.56 296.765L1023.44 307.485ZM1032.14 293.567C1034.37 288.203 1035.5 282.621 1035.5 276.875H1019.5C1019.5 280.463 1018.8 283.964 1017.36 287.433L1032.14 293.567ZM1141.25 312.25L1135.09 307.141C1133.39 309.194 1132.82 311.961 1133.58 314.519C1134.34 317.078 1136.32 319.09 1138.86 319.886L1141.25 312.25ZM1145.25 313.125L1144.26 321.063C1144.42 321.084 1144.59 321.099 1144.75 321.109L1145.25 313.125ZM1167.5 308L1171.74 314.784C1171.76 314.772 1171.78 314.761 1171.8 314.749L1167.5 308ZM1174.75 301.75L1168.7 296.511C1168.7 296.516 1168.7 296.521 1168.69 296.526L1174.75 301.75ZM1180 293.5L1185.67 287.857C1183.81 285.986 1181.14 285.154 1178.55 285.633C1175.95 286.111 1173.76 287.839 1172.69 290.251L1180 293.5ZM1205 318.625L1211.54 323.229C1213.78 320.054 1213.41 315.734 1210.67 312.982L1205 318.625ZM1194 330.75L1188.78 324.685C1188.76 324.702 1188.74 324.719 1188.72 324.737L1194 330.75ZM1180.62 339.875L1176.95 332.769C1176.93 332.778 1176.92 332.787 1176.9 332.796L1180.62 339.875ZM1165.5 345.5L1163.67 337.711C1163.63 337.722 1163.58 337.734 1163.53 337.746L1165.5 345.5ZM1122.62 342.25L1119.5 349.615C1119.51 349.618 1119.52 349.622 1119.53 349.626L1122.62 342.25ZM1100.88 327.625L1095.18 333.244C1095.19 333.257 1095.21 333.269 1095.22 333.282L1100.88 327.625ZM1086.25 305.375L1078.86 308.432C1078.86 308.44 1078.86 308.449 1078.87 308.457L1086.25 305.375ZM1100.88 225.5L1095.26 219.805C1095.24 219.818 1095.23 219.83 1095.22 219.843L1100.88 225.5ZM1122.62 211.125L1119.59 203.723C1119.58 203.727 1119.57 203.73 1119.56 203.734L1122.62 211.125ZM1180.75 213.75L1177.02 220.829C1177.04 220.838 1177.06 220.847 1177.07 220.856L1180.75 213.75ZM1194.25 223L1188.96 229.006C1188.99 229.026 1189.01 229.046 1189.03 229.065L1194.25 223ZM1205.25 235.125L1211.41 240.234C1213.71 237.454 1213.87 233.475 1211.79 230.521L1205.25 235.125ZM1158.75 241.875L1165.14 246.69C1166.66 244.668 1167.14 242.046 1166.43 239.618C1165.71 237.19 1163.89 235.243 1161.52 234.368L1158.75 241.875ZM1154 240.75L1153.12 248.701C1153.13 248.703 1153.15 248.704 1153.16 248.706L1154 240.75ZM1136 243.125L1139.02 250.532C1139.05 250.522 1139.07 250.511 1139.1 250.501L1136 243.125ZM1125.25 250.375L1119.52 244.794C1119.49 244.82 1119.47 244.847 1119.44 244.873L1125.25 250.375ZM1118.12 261.875L1125.56 264.822C1125.57 264.806 1125.57 264.79 1125.58 264.775L1118.12 261.875ZM1115.62 281.125L1107.64 281.545C1107.64 281.685 1107.65 281.824 1107.67 281.962L1115.62 281.125ZM1116.25 286L1108.34 287.187C1108.36 287.341 1108.39 287.495 1108.42 287.648L1116.25 286ZM1119 294.625L1112.05 298.594C1113.39 300.93 1115.81 302.439 1118.49 302.609C1121.18 302.779 1123.77 301.588 1125.39 299.44L1119 294.625ZM1138.86 319.886C1140.63 320.439 1142.43 320.835 1144.26 321.063L1146.24 305.187C1145.4 305.081 1144.53 304.894 1143.64 304.614L1138.86 319.886ZM1144.75 321.109C1146.25 321.203 1147.75 321.25 1149.25 321.25V305.25C1148.08 305.25 1146.92 305.214 1145.75 305.141L1144.75 321.109ZM1149.25 321.25C1153.33 321.25 1157.3 320.688 1161.15 319.543L1156.6 304.207C1154.28 304.896 1151.84 305.25 1149.25 305.25V321.25ZM1161.15 319.543C1164.91 318.426 1168.45 316.841 1171.74 314.784L1163.26 301.216C1161.22 302.492 1159 303.491 1156.6 304.207L1161.15 319.543ZM1171.8 314.749C1175.19 312.589 1178.2 309.995 1180.81 306.974L1168.69 296.526C1167.13 298.338 1165.31 299.911 1163.2 301.251L1171.8 314.749ZM1180.8 306.989C1183.48 303.897 1185.65 300.477 1187.31 296.749L1172.69 290.251C1171.68 292.523 1170.36 294.603 1168.7 296.511L1180.8 306.989ZM1174.33 299.143L1199.33 324.268L1210.67 312.982L1185.67 287.857L1174.33 299.143ZM1198.46 314.021C1195.67 317.982 1192.45 321.532 1188.78 324.685L1199.22 336.815C1203.88 332.801 1208 328.268 1211.54 323.229L1198.46 314.021ZM1188.72 324.737C1185.13 327.892 1181.21 330.567 1176.95 332.769L1184.3 346.981C1189.71 344.183 1194.71 340.775 1199.28 336.763L1188.72 324.737ZM1176.9 332.796C1172.76 334.973 1168.36 336.613 1163.67 337.711L1167.33 353.289C1173.31 351.887 1178.99 349.777 1184.35 346.954L1176.9 332.796ZM1163.53 337.746C1158.94 338.911 1154.19 339.5 1149.25 339.5V355.5C1155.48 355.5 1161.56 354.756 1167.47 353.254L1163.53 337.746ZM1149.25 339.5C1140.85 339.5 1133.03 337.945 1125.72 334.874L1119.53 349.626C1128.88 353.555 1138.81 355.5 1149.25 355.5V339.5ZM1125.75 334.885C1118.43 331.781 1112.04 327.481 1106.53 321.968L1095.22 333.282C1102.21 340.269 1110.32 345.719 1119.5 349.615L1125.75 334.885ZM1106.57 322.006C1101.16 316.529 1096.84 309.987 1093.63 302.293L1078.87 308.457C1082.82 317.929 1088.25 326.221 1095.18 333.244L1106.57 322.006ZM1093.64 302.318C1090.5 294.715 1088.88 286.267 1088.88 276.875H1072.88C1072.88 288.15 1074.83 298.701 1078.86 308.432L1093.64 302.318ZM1088.88 276.875C1088.88 267.208 1090.51 258.586 1093.65 250.907L1078.85 244.843C1074.83 254.664 1072.88 265.376 1072.88 276.875H1088.88ZM1093.65 250.907C1096.87 243.056 1101.18 236.512 1106.53 231.157L1095.22 219.843C1088.24 226.822 1082.8 235.194 1078.85 244.843L1093.65 250.907ZM1106.49 231.195C1112 225.766 1118.37 221.545 1125.69 218.516L1119.56 203.734C1110.38 207.539 1102.25 212.901 1095.26 219.805L1106.49 231.195ZM1125.66 218.527C1132.99 215.523 1140.83 214 1149.25 214V198C1138.84 198 1128.93 199.894 1119.59 203.723L1125.66 218.527ZM1149.25 214C1154.19 214 1159 214.589 1163.68 215.761L1167.57 200.239C1161.59 198.744 1155.48 198 1149.25 198V214ZM1163.68 215.761C1168.41 216.943 1172.85 218.634 1177.02 220.829L1184.48 206.671C1179.15 203.866 1173.5 201.724 1167.57 200.239L1163.68 215.761ZM1177.07 220.856C1181.32 223.05 1185.28 225.761 1188.96 229.006L1199.54 216.994C1194.89 212.905 1189.85 209.45 1184.43 206.644L1177.07 220.856ZM1189.03 229.065C1192.7 232.218 1195.92 235.768 1198.71 239.729L1211.79 230.521C1208.25 225.482 1204.13 220.949 1199.47 216.935L1189.03 229.065ZM1199.09 230.016L1135.09 307.141L1147.41 317.359L1211.41 240.234L1199.09 230.016ZM1161.52 234.368C1159.35 233.57 1157.12 233.034 1154.84 232.794L1153.16 248.706C1154.05 248.799 1154.99 249.014 1155.98 249.382L1161.52 234.368ZM1154.88 232.799C1153.06 232.597 1151.18 232.5 1149.25 232.5V248.5C1150.65 248.5 1151.94 248.57 1153.12 248.701L1154.88 232.799ZM1149.25 232.5C1143.55 232.5 1138.08 233.574 1132.9 235.749L1139.1 250.501C1142.25 249.176 1145.61 248.5 1149.25 248.5V232.5ZM1132.98 235.718C1127.87 237.802 1123.37 240.841 1119.52 244.794L1130.98 255.956C1133.3 253.576 1135.96 251.782 1139.02 250.532L1132.98 235.718ZM1119.44 244.873C1115.66 248.869 1112.75 253.613 1110.67 258.975L1125.58 264.775C1127 261.137 1128.84 258.215 1131.06 255.877L1119.44 244.873ZM1110.69 258.928C1108.51 264.432 1107.5 270.456 1107.5 276.875H1123.5C1123.5 272.127 1124.24 268.152 1125.56 264.822L1110.69 258.928ZM1107.5 276.875C1107.5 278.296 1107.55 279.857 1107.64 281.545L1123.61 280.705C1123.54 279.226 1123.5 277.954 1123.5 276.875H1107.5ZM1107.67 281.962C1107.85 283.669 1108.07 285.411 1108.34 287.187L1124.16 284.813C1123.93 283.256 1123.73 281.748 1123.58 280.288L1107.67 281.962ZM1108.42 287.648C1108.79 289.391 1109.2 291.097 1109.67 292.766L1125.08 288.484C1124.71 287.153 1124.38 285.776 1124.08 284.352L1108.42 287.648ZM1109.67 292.766C1110.23 294.806 1111.01 296.77 1112.05 298.594L1125.95 290.656C1125.66 290.147 1125.35 289.444 1125.08 288.484L1109.67 292.766ZM1125.39 299.44L1165.14 246.69L1152.36 237.06L1112.61 289.81L1125.39 299.44ZM1418.25 304.875L1425.63 307.957C1425.64 307.949 1425.64 307.94 1425.64 307.932L1418.25 304.875ZM1403.62 327.25L1409.32 332.869C1409.33 332.856 1409.34 332.844 1409.36 332.831L1403.62 327.25ZM1381.88 342.125L1385.06 349.463C1385.07 349.458 1385.09 349.453 1385.1 349.448L1381.88 342.125ZM1328.62 342.125L1325.38 349.435C1325.41 349.449 1325.44 349.462 1325.46 349.474L1328.62 342.125ZM1306.88 327.25L1301.14 332.831C1301.17 332.856 1301.19 332.882 1301.22 332.907L1306.88 327.25ZM1292.25 304.875L1284.86 307.932C1284.86 307.94 1284.86 307.949 1284.87 307.957L1292.25 304.875ZM1292.25 248.625L1284.86 245.568L1292.25 248.625ZM1306.88 226.25L1301.18 220.631L1301.18 220.631L1306.88 226.25ZM1328.62 211.375L1325.46 204.026C1325.46 204.03 1325.45 204.033 1325.44 204.037L1328.62 211.375ZM1381.88 211.125L1378.81 218.516C1378.84 218.529 1378.87 218.541 1378.9 218.553L1381.88 211.125ZM1403.62 225.5L1397.93 231.119C1397.94 231.132 1397.96 231.144 1397.97 231.157L1403.62 225.5ZM1418.25 247.875L1410.85 250.907C1410.85 250.915 1410.85 250.923 1410.86 250.932L1418.25 247.875ZM1386.5 262L1379.04 264.9C1379.07 264.956 1379.09 265.011 1379.11 265.067L1386.5 262ZM1379.25 250.5L1373.45 256.006C1373.47 256.031 1373.49 256.056 1373.52 256.081L1379.25 250.5ZM1368.38 243.125L1365.22 250.478C1365.28 250.504 1365.34 250.529 1365.4 250.553L1368.38 243.125ZM1342 243.125L1345.02 250.532C1345.05 250.522 1345.07 250.511 1345.1 250.501L1342 243.125ZM1331.25 250.5L1325.45 244.994L1325.44 244.998L1331.25 250.5ZM1324.12 262L1331.56 264.947C1331.57 264.931 1331.57 264.915 1331.58 264.9L1324.12 262ZM1331.25 302.75L1325.37 308.176C1325.4 308.203 1325.42 308.23 1325.45 308.256L1331.25 302.75ZM1342 310.5L1338.6 317.742C1338.66 317.769 1338.72 317.796 1338.78 317.823L1342 310.5ZM1368.38 310.625L1365.28 303.249C1365.26 303.257 1365.24 303.264 1365.22 303.272L1368.38 310.625ZM1386.5 291.75L1379.09 288.732C1379.08 288.771 1379.06 288.811 1379.04 288.85L1386.5 291.75ZM1415.62 276.875C1415.62 285.897 1414.01 294.184 1410.86 301.818L1425.64 307.932C1429.65 298.233 1431.62 287.853 1431.62 276.875H1415.62ZM1410.87 301.793C1407.65 309.496 1403.32 316.095 1397.89 321.669L1409.36 332.831C1416.26 325.739 1421.68 317.421 1425.63 307.957L1410.87 301.793ZM1397.93 321.631C1392.5 327.136 1386.1 331.527 1378.65 334.802L1385.1 349.448C1394.32 345.389 1402.42 339.864 1409.32 332.869L1397.93 321.631ZM1378.69 334.787C1371.5 337.909 1363.72 339.5 1355.25 339.5V355.5C1365.78 355.5 1375.75 353.507 1385.06 349.463L1378.69 334.787ZM1355.25 339.5C1346.88 339.5 1339.08 337.913 1331.79 334.776L1325.46 349.474C1334.83 353.503 1344.79 355.5 1355.25 355.5V339.5ZM1331.87 334.815C1324.5 331.538 1318.07 327.134 1312.53 321.593L1301.22 332.907C1308.18 339.866 1316.25 345.379 1325.38 349.435L1331.87 334.815ZM1312.61 321.669C1307.18 316.095 1302.85 309.496 1299.63 301.793L1284.87 307.957C1288.82 317.421 1294.24 325.739 1301.14 332.831L1312.61 321.669ZM1299.64 301.818C1296.49 294.184 1294.88 285.897 1294.88 276.875H1278.88C1278.88 287.853 1280.85 298.233 1284.86 307.932L1299.64 301.818ZM1294.88 276.875C1294.88 267.668 1296.49 259.3 1299.64 251.682L1284.86 245.568C1280.84 255.283 1278.88 265.748 1278.88 276.875H1294.88ZM1299.64 251.682C1302.86 243.905 1307.18 237.333 1312.57 231.869L1301.18 220.631C1294.24 227.667 1288.81 236.012 1284.86 245.568L1299.64 251.682ZM1312.57 231.869C1318.09 226.272 1324.49 221.893 1331.81 218.713L1325.44 204.037C1316.26 208.023 1308.16 213.562 1301.18 220.631L1312.57 231.869ZM1331.79 218.724C1339.08 215.587 1346.88 214 1355.25 214V198C1344.79 198 1334.83 199.997 1325.46 204.026L1331.79 218.724ZM1355.25 214C1363.77 214 1371.6 215.527 1378.81 218.516L1384.94 203.734C1375.65 199.89 1365.73 198 1355.25 198V214ZM1378.9 218.553C1386.24 221.486 1392.55 225.671 1397.93 231.119L1409.32 219.881C1402.36 212.829 1394.18 207.43 1384.85 203.697L1378.9 218.553ZM1397.97 231.157C1403.32 236.512 1407.63 243.056 1410.85 250.907L1425.65 244.843C1421.7 235.194 1416.26 226.822 1409.28 219.843L1397.97 231.157ZM1410.86 250.932C1413.99 258.505 1415.62 267.114 1415.62 276.875H1431.62C1431.62 265.303 1429.68 254.578 1425.64 244.818L1410.86 250.932ZM1397.25 276.875C1397.25 270.479 1396.18 264.457 1393.89 258.933L1379.11 265.067C1380.49 268.377 1381.25 272.271 1381.25 276.875H1397.25ZM1393.96 259.1C1391.85 253.693 1388.88 248.923 1384.98 244.919L1373.52 256.081C1375.79 258.41 1377.65 261.307 1379.04 264.9L1393.96 259.1ZM1385.05 244.994C1381.17 240.905 1376.58 237.792 1371.35 235.697L1365.4 250.553C1368.5 251.792 1371.16 253.595 1373.45 256.006L1385.05 244.994ZM1371.53 235.772C1366.4 233.574 1360.94 232.5 1355.25 232.5V248.5C1358.89 248.5 1362.19 249.176 1365.22 250.478L1371.53 235.772ZM1355.25 232.5C1349.55 232.5 1344.08 233.574 1338.9 235.749L1345.1 250.501C1348.25 249.176 1351.61 248.5 1355.25 248.5V232.5ZM1338.98 235.718C1333.83 237.821 1329.3 240.934 1325.45 244.994L1337.05 256.006C1339.37 253.566 1342.01 251.762 1345.02 250.532L1338.98 235.718ZM1325.44 244.998C1321.66 248.994 1318.75 253.738 1316.67 259.1L1331.58 264.9C1333 261.262 1334.84 258.34 1337.06 256.002L1325.44 244.998ZM1316.69 259.053C1314.51 264.543 1313.5 270.523 1313.5 276.875H1329.5C1329.5 272.227 1330.24 268.29 1331.56 264.947L1316.69 259.053ZM1313.5 276.875C1313.5 282.962 1314.53 288.763 1316.69 294.197L1331.56 288.303C1330.22 284.904 1329.5 281.121 1329.5 276.875H1313.5ZM1316.69 294.197C1318.77 299.461 1321.66 304.151 1325.37 308.176L1337.13 297.324C1334.84 294.849 1332.98 291.873 1331.56 288.303L1316.69 294.197ZM1325.45 308.256C1329.22 312.235 1333.62 315.405 1338.6 317.742L1345.4 303.258C1342.21 301.762 1339.45 299.765 1337.05 297.244L1325.45 308.256ZM1338.78 317.823C1343.99 320.114 1349.5 321.25 1355.25 321.25V305.25C1351.66 305.25 1348.35 304.553 1345.22 303.177L1338.78 317.823ZM1355.25 321.25C1360.94 321.25 1366.4 320.176 1371.53 317.978L1365.22 303.272C1362.19 304.574 1358.89 305.25 1355.25 305.25V321.25ZM1371.47 318.001C1376.61 315.845 1381.13 312.784 1384.98 308.831L1373.52 297.669C1371.2 300.049 1368.48 301.905 1365.28 303.249L1371.47 318.001ZM1384.98 308.831C1388.88 304.827 1391.85 300.057 1393.96 294.65L1379.04 288.85C1377.65 292.443 1375.79 295.34 1373.52 297.669L1384.98 308.831ZM1393.91 294.768C1396.17 289.206 1397.25 283.208 1397.25 276.875H1381.25C1381.25 281.375 1380.49 285.294 1379.09 288.732L1393.91 294.768ZM1484.38 345V353C1488.79 353 1492.38 349.418 1492.38 345H1484.38ZM1450.25 345H1442.25C1442.25 349.418 1445.83 353 1450.25 353V345ZM1450.25 245.125H1458.25C1458.25 240.707 1454.67 237.125 1450.25 237.125V245.125ZM1433.62 245.125H1425.62C1425.62 249.543 1429.21 253.125 1433.62 253.125V245.125ZM1433.62 211.125V203.125C1429.21 203.125 1425.62 206.707 1425.62 211.125H1433.62ZM1450.25 211.125V219.125C1454.67 219.125 1458.25 215.543 1458.25 211.125H1450.25ZM1454.88 181.5L1447.54 178.298C1447.53 178.322 1447.52 178.345 1447.51 178.369L1454.88 181.5ZM1467.75 162.625L1473.36 168.326L1473.36 168.325L1467.75 162.625ZM1486.88 149.875L1490.01 157.237C1490.03 157.227 1490.05 157.217 1490.08 157.206L1486.88 149.875ZM1535.75 145.125H1543.75C1543.75 140.707 1540.17 137.125 1535.75 137.125V145.125ZM1535.75 179.125V187.125C1540.17 187.125 1543.75 183.543 1543.75 179.125H1535.75ZM1499.88 181.125L1502.88 188.539C1502.91 188.526 1502.95 188.512 1502.98 188.498L1499.88 181.125ZM1491.75 186.5L1497.41 192.157L1491.75 186.5ZM1486.38 194.625L1493.72 197.8C1493.73 197.777 1493.74 197.753 1493.75 197.729L1486.38 194.625ZM1484.38 211.125H1476.38C1476.38 215.543 1479.96 219.125 1484.38 219.125V211.125ZM1526.25 211.125H1534.25C1534.25 206.707 1530.67 203.125 1526.25 203.125V211.125ZM1526.25 245.125V253.125C1530.67 253.125 1534.25 249.543 1534.25 245.125H1526.25ZM1484.38 245.125V237.125C1479.96 237.125 1476.38 240.707 1476.38 245.125H1484.38ZM1484.38 337H1450.25V353H1484.38V337ZM1458.25 345V245.125H1442.25V345H1458.25ZM1450.25 237.125H1433.62V253.125H1450.25V237.125ZM1441.62 245.125V211.125H1425.62V245.125H1441.62ZM1433.62 219.125H1450.25V203.125H1433.62V219.125ZM1458.25 211.125V204.75H1442.25V211.125H1458.25ZM1458.25 204.75C1458.25 197.524 1459.59 190.844 1462.24 184.631L1447.51 178.369C1443.99 186.656 1442.25 195.476 1442.25 204.75H1458.25ZM1462.21 184.702C1464.98 178.348 1468.7 172.914 1473.36 168.326L1462.14 156.924C1455.96 163.003 1451.1 170.152 1447.54 178.298L1462.21 184.702ZM1473.36 168.325C1478.13 163.628 1483.66 159.935 1490.01 157.237L1483.74 142.513C1475.59 145.981 1468.37 150.789 1462.14 156.925L1473.36 168.325ZM1490.08 157.206C1496.27 154.5 1502.93 153.125 1510.12 153.125V137.125C1500.82 137.125 1491.98 138.917 1483.67 142.544L1490.08 157.206ZM1510.12 153.125H1535.75V137.125H1510.12V153.125ZM1527.75 145.125V179.125H1543.75V145.125H1527.75ZM1535.75 171.125H1510.12V187.125H1535.75V171.125ZM1510.12 171.125C1505.46 171.125 1500.98 171.978 1496.77 173.752L1502.98 188.498C1505.1 187.606 1507.45 187.125 1510.12 187.125V171.125ZM1496.87 173.711C1492.8 175.36 1489.19 177.746 1486.09 180.843L1497.41 192.157C1498.98 190.587 1500.78 189.39 1502.88 188.539L1496.87 173.711ZM1486.09 180.843C1483.05 183.882 1480.7 187.477 1479 191.521L1493.75 197.729C1494.71 195.44 1495.95 193.618 1497.41 192.157L1486.09 180.843ZM1479.03 191.45C1477.23 195.624 1476.38 200.092 1476.38 204.75H1492.38C1492.38 202.075 1492.86 199.793 1493.72 197.8L1479.03 191.45ZM1476.38 204.75V211.125H1492.38V204.75H1476.38ZM1484.38 219.125H1526.25V203.125H1484.38V219.125ZM1518.25 211.125V245.125H1534.25V211.125H1518.25ZM1526.25 237.125H1484.38V253.125H1526.25V237.125ZM1476.38 245.125V345H1492.38V245.125H1476.38ZM1761 326.625L1766.22 332.69C1769.18 330.138 1769.87 325.813 1767.84 322.469L1761 326.625ZM1733 343.125L1730.22 335.624L1733 343.125ZM1676.25 345.5L1678.44 337.805C1678.42 337.8 1678.4 337.795 1678.38 337.79L1676.25 345.5ZM1654.12 336.25L1650.02 343.117C1650.05 343.137 1650.09 343.156 1650.12 343.175L1654.12 336.25ZM1620.75 302.875L1613.82 306.88C1613.84 306.913 1613.86 306.946 1613.88 306.979L1620.75 302.875ZM1611.38 280.75L1603.66 282.862C1603.67 282.894 1603.68 282.926 1603.69 282.959L1611.38 280.75ZM1611.38 231.5L1603.68 229.313C1603.67 229.338 1603.67 229.363 1603.66 229.388L1611.38 231.5ZM1620.75 209.375L1613.86 205.308C1613.86 205.316 1613.85 205.325 1613.85 205.334L1620.75 209.375ZM1654.12 176L1658.17 182.904C1658.17 182.899 1658.18 182.894 1658.19 182.889L1654.12 176ZM1676.25 166.625L1678.38 174.335C1678.4 174.33 1678.42 174.325 1678.44 174.32L1676.25 166.625ZM1733 169L1730.22 176.501C1730.24 176.507 1730.25 176.514 1730.27 176.52L1733 169ZM1761 185.5L1767.84 189.656C1769.86 186.326 1769.19 182.022 1766.25 179.464L1761 185.5ZM1742 216.75L1736.13 222.187C1737.84 224.027 1740.31 224.961 1742.8 224.71C1745.3 224.458 1747.53 223.05 1748.84 220.906L1742 216.75ZM1723.38 203.75L1720.21 211.099C1720.24 211.109 1720.26 211.119 1720.29 211.13L1723.38 203.75ZM1660.5 215.875L1666.11 221.578C1666.13 221.562 1666.14 221.547 1666.16 221.532L1660.5 215.875ZM1648.25 234L1655.59 237.183C1655.59 237.173 1655.6 237.162 1655.6 237.151L1648.25 234ZM1648.25 278.25L1640.91 281.433C1640.92 281.444 1640.92 281.455 1640.92 281.466L1648.25 278.25ZM1660.5 296.25L1654.84 301.907L1660.5 296.25ZM1723.38 308.5L1726.46 315.88C1726.49 315.869 1726.51 315.859 1726.54 315.849L1723.38 308.5ZM1742 295.375L1748.84 291.219C1747.53 289.075 1745.3 287.667 1742.8 287.415C1740.31 287.164 1737.84 288.098 1736.13 289.938L1742 295.375ZM1755.78 320.56C1748.17 327.105 1739.66 332.12 1730.22 335.624L1735.78 350.626C1747 346.463 1757.16 340.478 1766.22 332.69L1755.78 320.56ZM1730.22 335.624C1720.78 339.126 1711.01 340.875 1700.88 340.875V356.875C1712.9 356.875 1724.55 354.791 1735.78 350.626L1730.22 335.624ZM1700.88 340.875C1693.09 340.875 1685.62 339.846 1678.44 337.805L1674.06 353.195C1682.71 355.654 1691.66 356.875 1700.88 356.875V340.875ZM1678.38 337.79C1671.19 335.801 1664.45 332.979 1658.13 329.325L1650.12 343.175C1657.64 347.521 1665.64 350.866 1674.12 353.21L1678.38 337.79ZM1658.23 329.383C1651.96 325.64 1646.24 321.172 1641.03 315.968L1629.72 327.282C1635.85 333.411 1642.62 338.694 1650.02 343.117L1658.23 329.383ZM1641.03 315.968C1635.83 310.764 1631.36 305.035 1627.62 298.771L1613.88 306.979C1618.31 314.381 1623.59 321.152 1629.72 327.282L1641.03 315.968ZM1627.68 298.87C1624.01 292.53 1621.14 285.76 1619.06 278.541L1603.69 282.959C1606.11 291.407 1609.49 299.387 1613.82 306.88L1627.68 298.87ZM1619.09 278.638C1617.12 271.434 1616.12 263.937 1616.12 256.125H1600.12C1600.12 265.313 1601.3 274.233 1603.66 282.862L1619.09 278.638ZM1616.12 256.125C1616.12 248.313 1617.12 240.816 1619.09 233.612L1603.66 229.388C1601.3 238.017 1600.12 246.937 1600.12 256.125H1616.12ZM1619.07 233.687C1621.14 226.394 1624.01 219.645 1627.65 213.416L1613.85 205.334C1609.49 212.772 1606.11 220.773 1603.68 229.313L1619.07 233.687ZM1627.64 213.442C1631.38 207.104 1635.84 201.346 1641.03 196.157L1629.72 184.843C1623.57 190.987 1618.29 197.813 1613.86 205.308L1627.64 213.442ZM1641.03 196.157C1646.22 190.967 1651.93 186.555 1658.17 182.904L1650.08 169.096C1642.65 173.445 1635.86 178.699 1629.72 184.843L1641.03 196.157ZM1658.19 182.889C1664.5 179.168 1671.22 176.317 1678.38 174.335L1674.12 158.915C1665.61 161.266 1657.59 164.666 1650.06 169.111L1658.19 182.889ZM1678.44 174.32C1685.62 172.279 1693.09 171.25 1700.88 171.25V155.25C1691.66 155.25 1682.71 156.471 1674.06 158.93L1678.44 174.32ZM1700.88 171.25C1711.01 171.25 1720.78 172.999 1730.22 176.501L1735.78 161.499C1724.55 157.334 1712.9 155.25 1700.88 155.25V171.25ZM1730.27 176.52C1739.67 179.933 1748.15 184.928 1755.75 191.536L1766.25 179.464C1757.18 171.572 1746.99 165.567 1735.73 161.48L1730.27 176.52ZM1754.16 181.344L1735.16 212.594L1748.84 220.906L1767.84 189.656L1754.16 181.344ZM1747.87 211.313C1741.84 204.803 1734.68 199.809 1726.46 196.37L1720.29 211.13C1726.4 213.691 1731.66 217.364 1736.13 222.187L1747.87 211.313ZM1726.54 196.401C1718.37 192.886 1709.79 191.125 1700.88 191.125V207.125C1707.63 207.125 1714.05 208.447 1720.21 211.099L1726.54 196.401ZM1700.88 191.125C1691.92 191.125 1683.41 192.828 1675.44 196.286L1681.81 210.964C1687.67 208.422 1694 207.125 1700.88 207.125V191.125ZM1675.44 196.286C1667.63 199.673 1660.74 204.317 1654.84 210.218L1666.16 221.532C1670.59 217.099 1675.78 213.577 1681.81 210.964L1675.44 196.286ZM1654.89 210.172C1648.94 216.021 1644.29 222.942 1640.9 230.849L1655.6 237.151C1658.21 231.058 1661.72 225.895 1666.11 221.578L1654.89 210.172ZM1640.91 230.817C1637.46 238.777 1635.75 247.24 1635.75 256.125H1651.75C1651.75 249.343 1653.04 243.056 1655.59 237.183L1640.91 230.817ZM1635.75 256.125C1635.75 265.01 1637.46 273.473 1640.91 281.433L1655.59 275.067C1653.04 269.194 1651.75 262.907 1651.75 256.125H1635.75ZM1640.92 281.466C1644.32 289.19 1648.96 296.022 1654.84 301.907L1666.16 290.593C1661.71 286.145 1658.18 280.977 1655.58 275.034L1640.92 281.466ZM1654.84 301.907C1660.74 307.808 1667.63 312.452 1675.44 315.839L1681.81 301.161C1675.78 298.548 1670.59 295.026 1666.16 290.593L1654.84 301.907ZM1675.44 315.839C1683.41 319.297 1691.92 321 1700.88 321V305C1694 305 1687.67 303.703 1681.81 301.161L1675.44 315.839ZM1700.88 321C1709.76 321 1718.31 319.293 1726.46 315.88L1720.29 301.12C1714.11 303.707 1707.66 305 1700.88 305V321ZM1726.54 315.849C1734.72 312.329 1741.85 307.306 1747.87 300.812L1736.13 289.938C1731.65 294.777 1726.36 298.505 1720.21 301.151L1726.54 315.849ZM1735.16 299.531L1754.16 330.781L1767.84 322.469L1748.84 291.219L1735.16 299.531ZM1897.5 304.875L1904.88 307.957C1904.89 307.949 1904.89 307.94 1904.89 307.932L1897.5 304.875ZM1882.88 327.25L1888.57 332.869C1888.58 332.856 1888.59 332.844 1888.61 332.831L1882.88 327.25ZM1861.12 342.125L1864.31 349.463C1864.32 349.458 1864.34 349.453 1864.35 349.448L1861.12 342.125ZM1807.88 342.125L1804.63 349.435C1804.66 349.449 1804.69 349.462 1804.71 349.474L1807.88 342.125ZM1786.12 327.25L1780.39 332.831C1780.42 332.856 1780.44 332.882 1780.47 332.907L1786.12 327.25ZM1771.5 304.875L1764.11 307.932C1764.11 307.94 1764.11 307.949 1764.12 307.957L1771.5 304.875ZM1771.5 248.625L1764.11 245.568L1771.5 248.625ZM1786.12 226.25L1780.43 220.631L1780.43 220.631L1786.12 226.25ZM1807.88 211.375L1804.71 204.026C1804.71 204.03 1804.7 204.033 1804.69 204.037L1807.88 211.375ZM1861.12 211.125L1858.06 218.516C1858.09 218.529 1858.12 218.541 1858.15 218.553L1861.12 211.125ZM1882.88 225.5L1877.18 231.119C1877.19 231.132 1877.21 231.144 1877.22 231.157L1882.88 225.5ZM1897.5 247.875L1890.1 250.907C1890.1 250.915 1890.1 250.923 1890.11 250.932L1897.5 247.875ZM1865.75 262L1858.29 264.9C1858.32 264.956 1858.34 265.011 1858.36 265.067L1865.75 262ZM1858.5 250.5L1852.7 256.006C1852.72 256.031 1852.74 256.056 1852.77 256.081L1858.5 250.5ZM1847.62 243.125L1844.47 250.478C1844.53 250.504 1844.59 250.529 1844.65 250.553L1847.62 243.125ZM1821.25 243.125L1824.27 250.532C1824.3 250.522 1824.32 250.511 1824.35 250.501L1821.25 243.125ZM1810.5 250.5L1804.7 244.994L1804.69 244.998L1810.5 250.5ZM1803.38 262L1810.81 264.947C1810.82 264.931 1810.82 264.915 1810.83 264.9L1803.38 262ZM1810.5 302.75L1804.62 308.176C1804.65 308.203 1804.67 308.23 1804.7 308.256L1810.5 302.75ZM1821.25 310.5L1817.85 317.742C1817.91 317.769 1817.97 317.796 1818.03 317.823L1821.25 310.5ZM1847.62 310.625L1844.53 303.249C1844.51 303.257 1844.49 303.264 1844.47 303.272L1847.62 310.625ZM1865.75 291.75L1858.34 288.732C1858.33 288.771 1858.31 288.811 1858.29 288.85L1865.75 291.75ZM1894.88 276.875C1894.88 285.897 1893.26 294.184 1890.11 301.818L1904.89 307.932C1908.9 298.233 1910.88 287.853 1910.88 276.875H1894.88ZM1890.12 301.793C1886.9 309.496 1882.57 316.095 1877.14 321.669L1888.61 332.831C1895.51 325.739 1900.93 317.421 1904.88 307.957L1890.12 301.793ZM1877.18 321.631C1871.75 327.136 1865.35 331.527 1857.9 334.802L1864.35 349.448C1873.57 345.389 1881.67 339.864 1888.57 332.869L1877.18 321.631ZM1857.94 334.787C1850.75 337.909 1842.97 339.5 1834.5 339.5V355.5C1845.03 355.5 1855 353.507 1864.31 349.463L1857.94 334.787ZM1834.5 339.5C1826.13 339.5 1818.33 337.913 1811.04 334.776L1804.71 349.474C1814.08 353.503 1824.04 355.5 1834.5 355.5V339.5ZM1811.12 334.815C1803.75 331.538 1797.32 327.134 1791.78 321.593L1780.47 332.907C1787.43 339.866 1795.5 345.379 1804.63 349.435L1811.12 334.815ZM1791.86 321.669C1786.43 316.095 1782.1 309.496 1778.88 301.793L1764.12 307.957C1768.07 317.421 1773.49 325.739 1780.39 332.831L1791.86 321.669ZM1778.89 301.818C1775.74 294.184 1774.12 285.897 1774.12 276.875H1758.12C1758.12 287.853 1760.1 298.233 1764.11 307.932L1778.89 301.818ZM1774.12 276.875C1774.12 267.668 1775.74 259.3 1778.89 251.682L1764.11 245.568C1760.09 255.283 1758.12 265.748 1758.12 276.875H1774.12ZM1778.89 251.682C1782.11 243.905 1786.43 237.333 1791.82 231.869L1780.43 220.631C1773.49 227.667 1768.06 236.012 1764.11 245.568L1778.89 251.682ZM1791.82 231.869C1797.34 226.272 1803.74 221.893 1811.06 218.713L1804.69 204.037C1795.51 208.023 1787.41 213.562 1780.43 220.631L1791.82 231.869ZM1811.04 218.724C1818.33 215.587 1826.13 214 1834.5 214V198C1824.04 198 1814.08 199.997 1804.71 204.026L1811.04 218.724ZM1834.5 214C1843.02 214 1850.85 215.527 1858.06 218.516L1864.19 203.734C1854.9 199.89 1844.98 198 1834.5 198V214ZM1858.15 218.553C1865.49 221.486 1871.8 225.671 1877.18 231.119L1888.57 219.881C1881.61 212.829 1873.43 207.43 1864.1 203.697L1858.15 218.553ZM1877.22 231.157C1882.57 236.512 1886.88 243.056 1890.1 250.907L1904.9 244.843C1900.95 235.194 1895.51 226.822 1888.53 219.843L1877.22 231.157ZM1890.11 250.932C1893.24 258.505 1894.88 267.114 1894.88 276.875H1910.88C1910.88 265.303 1908.93 254.578 1904.89 244.818L1890.11 250.932ZM1876.5 276.875C1876.5 270.479 1875.43 264.457 1873.14 258.933L1858.36 265.067C1859.74 268.377 1860.5 272.271 1860.5 276.875H1876.5ZM1873.21 259.1C1871.1 253.693 1868.13 248.923 1864.23 244.919L1852.77 256.081C1855.04 258.41 1856.9 261.307 1858.29 264.9L1873.21 259.1ZM1864.3 244.994C1860.42 240.905 1855.83 237.792 1850.6 235.697L1844.65 250.553C1847.75 251.792 1850.41 253.595 1852.7 256.006L1864.3 244.994ZM1850.78 235.772C1845.65 233.574 1840.19 232.5 1834.5 232.5V248.5C1838.14 248.5 1841.44 249.176 1844.47 250.478L1850.78 235.772ZM1834.5 232.5C1828.8 232.5 1823.33 233.574 1818.15 235.749L1824.35 250.501C1827.5 249.176 1830.86 248.5 1834.5 248.5V232.5ZM1818.23 235.718C1813.08 237.821 1808.55 240.934 1804.7 244.994L1816.3 256.006C1818.62 253.566 1821.26 251.762 1824.27 250.532L1818.23 235.718ZM1804.69 244.998C1800.91 248.994 1798 253.738 1795.92 259.1L1810.83 264.9C1812.25 261.262 1814.09 258.34 1816.31 256.002L1804.69 244.998ZM1795.94 259.053C1793.76 264.543 1792.75 270.523 1792.75 276.875H1808.75C1808.75 272.227 1809.49 268.29 1810.81 264.947L1795.94 259.053ZM1792.75 276.875C1792.75 282.962 1793.78 288.763 1795.94 294.197L1810.81 288.303C1809.47 284.904 1808.75 281.121 1808.75 276.875H1792.75ZM1795.94 294.197C1798.02 299.461 1800.91 304.151 1804.62 308.176L1816.38 297.324C1814.09 294.849 1812.23 291.873 1810.81 288.303L1795.94 294.197ZM1804.7 308.256C1808.47 312.235 1812.87 315.405 1817.85 317.742L1824.65 303.258C1821.46 301.762 1818.7 299.765 1816.3 297.244L1804.7 308.256ZM1818.03 317.823C1823.24 320.114 1828.75 321.25 1834.5 321.25V305.25C1830.91 305.25 1827.6 304.553 1824.47 303.177L1818.03 317.823ZM1834.5 321.25C1840.19 321.25 1845.65 320.176 1850.78 317.978L1844.47 303.272C1841.44 304.574 1838.14 305.25 1834.5 305.25V321.25ZM1850.72 318.001C1855.86 315.845 1860.38 312.784 1864.23 308.831L1852.77 297.669C1850.45 300.049 1847.73 301.905 1844.53 303.249L1850.72 318.001ZM1864.23 308.831C1868.13 304.827 1871.1 300.057 1873.21 294.65L1858.29 288.85C1856.9 292.443 1855.04 295.34 1852.77 297.669L1864.23 308.831ZM1873.16 294.768C1875.42 289.206 1876.5 283.208 1876.5 276.875H1860.5C1860.5 281.375 1859.74 285.294 1858.34 288.732L1873.16 294.768ZM1955.88 345V353C1960.29 353 1963.88 349.418 1963.88 345H1955.88ZM1921.75 345H1913.75C1913.75 349.418 1917.33 353 1921.75 353V345ZM1921.75 211.125V203.125C1917.33 203.125 1913.75 206.707 1913.75 211.125H1921.75ZM1930 211.125L1936.05 205.89C1934.53 204.134 1932.32 203.125 1930 203.125V211.125ZM1941.25 224.125L1935.2 229.36C1936.61 230.99 1938.62 231.982 1940.77 232.111C1942.92 232.24 1945.04 231.495 1946.63 230.045L1941.25 224.125ZM1959.88 212.625L1962.75 220.089C1962.77 220.083 1962.78 220.077 1962.8 220.071L1959.88 212.625ZM2004.88 213.25L2001.67 220.581C2001.7 220.592 2001.72 220.602 2001.74 220.612L2004.88 213.25ZM2023.88 226.125L2018.18 231.739C2018.19 231.753 2018.2 231.767 2018.22 231.782L2023.88 226.125ZM2036.62 245.25L2029.25 248.351C2029.26 248.385 2029.28 248.418 2029.29 248.452L2036.62 245.25ZM2041.38 345V353C2045.79 353 2049.38 349.418 2049.38 345H2041.38ZM2007.25 345H1999.25C1999.25 349.418 2002.83 353 2007.25 353V345ZM2005.25 258.625L1997.88 261.729C1997.89 261.753 1997.9 261.777 1997.91 261.8L2005.25 258.625ZM1971.62 244.875L1968.52 237.502L1971.62 244.875ZM1957.88 258.625L1965.22 261.8C1965.23 261.777 1965.24 261.753 1965.25 261.729L1957.88 258.625ZM1955.88 337H1921.75V353H1955.88V337ZM1929.75 345V211.125H1913.75V345H1929.75ZM1921.75 219.125H1930V203.125H1921.75V219.125ZM1923.95 216.36L1935.2 229.36L1947.3 218.89L1936.05 205.89L1923.95 216.36ZM1946.63 230.045C1951.4 225.708 1956.76 222.399 1962.75 220.089L1957 205.161C1949.16 208.184 1942.1 212.542 1935.87 218.205L1946.63 230.045ZM1962.8 220.071C1968.86 217.69 1975.16 216.5 1981.75 216.5V200.5C1973.17 200.5 1964.89 202.06 1956.95 205.179L1962.8 220.071ZM1981.75 216.5C1988.85 216.5 1995.47 217.87 2001.67 220.581L2008.08 205.919C1999.78 202.297 1990.98 200.5 1981.75 200.5V216.5ZM2001.74 220.612C2008.05 223.295 2013.51 226.999 2018.18 231.739L2029.57 220.511C2023.41 214.251 2016.2 209.372 2008.01 205.888L2001.74 220.612ZM2018.22 231.782C2022.87 236.438 2026.55 241.935 2029.25 248.351L2044 242.149C2040.53 233.898 2035.71 226.646 2029.53 220.468L2018.22 231.782ZM2029.29 248.452C2032 254.649 2033.38 261.304 2033.38 268.5H2049.38C2049.38 259.196 2047.58 250.351 2043.96 242.048L2029.29 248.452ZM2033.38 268.5V345H2049.38V268.5H2033.38ZM2041.38 337H2007.25V353H2041.38V337ZM2015.25 345V268.5H1999.25V345H2015.25ZM2015.25 268.5C2015.25 263.955 2014.38 259.578 2012.59 255.45L1997.91 261.8C1998.79 263.839 1999.25 266.045 1999.25 268.5H2015.25ZM2012.62 255.521C2010.91 251.44 2008.5 247.813 2005.41 244.718L1994.09 256.032C1995.66 257.603 1996.93 259.477 1997.88 261.729L2012.62 255.521ZM2005.41 244.718C2002.35 241.658 1998.79 239.259 1994.8 237.532L1988.45 252.218C1990.62 253.158 1992.49 254.425 1994.09 256.032L2005.41 244.718ZM1994.8 237.532C1990.67 235.747 1986.3 234.875 1981.75 234.875V250.875C1984.2 250.875 1986.41 251.336 1988.45 252.218L1994.8 237.532ZM1981.75 234.875C1977.15 234.875 1972.71 235.737 1968.52 237.502L1974.73 252.248C1976.87 251.346 1979.19 250.875 1981.75 250.875V234.875ZM1968.52 237.502C1964.44 239.22 1960.81 241.623 1957.72 244.718L1969.03 256.032C1970.6 254.46 1972.48 253.197 1974.73 252.248L1968.52 237.502ZM1957.72 244.718C1954.62 247.813 1952.22 251.44 1950.5 255.521L1965.25 261.729C1966.2 259.477 1967.46 257.603 1969.03 256.032L1957.72 244.718ZM1950.53 255.45C1948.75 259.578 1947.88 263.955 1947.88 268.5H1963.88C1963.88 266.045 1964.34 263.839 1965.22 261.8L1950.53 255.45ZM1947.88 268.5V345H1963.88V268.5H1947.88ZM2195.12 345V353C2199.54 353 2203.12 349.418 2203.12 345H2195.12ZM2186.88 345L2180.39 349.679C2181.89 351.764 2184.3 353 2186.88 353V345ZM2173.62 326.625L2180.11 321.946C2178.79 320.105 2176.74 318.914 2174.48 318.671C2172.23 318.428 2169.97 319.155 2168.28 320.671L2173.62 326.625ZM2163.25 334.875L2167.83 341.436C2167.84 341.429 2167.85 341.422 2167.86 341.415L2163.25 334.875ZM2151.88 341.5L2155.21 348.773C2155.25 348.754 2155.29 348.734 2155.33 348.715L2151.88 341.5ZM2139.5 345.875L2137.52 338.123C2137.51 338.126 2137.5 338.129 2137.49 338.132L2139.5 345.875ZM2100.12 342.25L2096.94 349.588C2096.97 349.601 2097 349.613 2097.03 349.626L2100.12 342.25ZM2078.38 327.5L2072.64 333.081C2072.67 333.106 2072.69 333.132 2072.72 333.157L2078.38 327.5ZM2063.75 305.125L2056.36 308.182C2056.36 308.19 2056.36 308.199 2056.37 308.207L2063.75 305.125ZM2063.75 248.75L2056.36 245.693L2063.75 248.75ZM2078.38 226.25L2072.68 220.631C2072.67 220.643 2072.66 220.656 2072.64 220.669L2078.38 226.25ZM2100.12 211.375L2096.96 204.026C2096.96 204.03 2096.95 204.033 2096.94 204.037L2100.12 211.375ZM2136 206.75L2134.75 214.652C2134.76 214.654 2134.77 214.655 2134.78 214.657L2136 206.75ZM2145.38 209.25L2142.48 216.706C2142.56 216.738 2142.64 216.768 2142.72 216.798L2145.38 209.25ZM2160.75 220.375L2154.16 224.907C2156.14 227.795 2159.78 229.054 2163.12 228.015C2166.47 226.976 2168.75 223.879 2168.75 220.375H2160.75ZM2160.75 157.875V149.875C2156.33 149.875 2152.75 153.457 2152.75 157.875H2160.75ZM2195.12 157.875H2203.12C2203.12 153.457 2199.54 149.875 2195.12 149.875V157.875ZM2158 263.375L2150.56 266.322C2150.59 266.379 2150.61 266.436 2150.63 266.492L2158 263.375ZM2150.75 251.75L2144.81 257.11C2144.83 257.134 2144.85 257.158 2144.88 257.182L2150.75 251.75ZM2139.88 243.625L2136.24 250.751C2136.3 250.78 2136.35 250.809 2136.41 250.837L2139.88 243.625ZM2113.5 243L2110.53 235.572C2110.51 235.579 2110.49 235.586 2110.48 235.593L2113.5 243ZM2102.75 250.25L2097.02 244.669L2097.02 244.671L2102.75 250.25ZM2102.75 302.5L2096.8 307.852C2096.83 307.879 2096.85 307.906 2096.88 307.932L2102.75 302.5ZM2113.5 310.375L2110.1 317.617C2110.12 317.626 2110.14 317.634 2110.16 317.643L2113.5 310.375ZM2139.88 310.25L2143.39 317.435C2143.41 317.425 2143.43 317.415 2143.45 317.405L2139.88 310.25ZM2150.75 302.125L2156.62 307.557C2156.65 307.533 2156.67 307.509 2156.69 307.485L2150.75 302.125ZM2158 290.5L2150.61 287.433C2150.6 287.457 2150.59 287.48 2150.58 287.504L2158 290.5ZM2195.12 337H2186.88V353H2195.12V337ZM2193.36 340.321L2180.11 321.946L2167.14 331.304L2180.39 349.679L2193.36 340.321ZM2168.28 320.671C2165.27 323.373 2162.06 325.928 2158.64 328.335L2167.86 341.415C2171.77 338.656 2175.48 335.711 2178.97 332.579L2168.28 320.671ZM2158.67 328.314C2155.45 330.562 2152.03 332.553 2148.42 334.285L2155.33 348.715C2159.72 346.614 2163.88 344.188 2167.83 341.436L2158.67 328.314ZM2148.54 334.227C2144.98 335.861 2141.31 337.159 2137.52 338.123L2141.48 353.627C2146.19 352.425 2150.77 350.806 2155.21 348.773L2148.54 334.227ZM2137.49 338.132C2133.98 339.044 2130.41 339.5 2126.75 339.5V355.5C2131.76 355.5 2136.68 354.873 2141.51 353.618L2137.49 338.132ZM2126.75 339.5C2118.35 339.5 2110.53 337.945 2103.22 334.874L2097.03 349.626C2106.38 353.555 2116.31 355.5 2126.75 355.5V339.5ZM2103.31 334.912C2095.97 331.722 2089.56 327.37 2084.03 321.843L2072.72 333.157C2079.69 340.13 2087.78 345.611 2096.94 349.588L2103.31 334.912ZM2084.11 321.919C2078.68 316.345 2074.35 309.746 2071.13 302.043L2056.37 308.207C2060.32 317.671 2065.74 325.989 2072.64 333.081L2084.11 321.919ZM2071.14 302.068C2067.99 294.45 2066.38 286.082 2066.38 276.875H2050.38C2050.38 288.002 2052.34 298.467 2056.36 308.182L2071.14 302.068ZM2066.38 276.875C2066.38 267.761 2067.99 259.433 2071.14 251.807L2056.36 245.693C2052.34 255.4 2050.38 265.822 2050.38 276.875H2066.38ZM2071.14 251.807C2074.36 244.021 2078.69 237.392 2084.11 231.831L2072.64 220.669C2065.73 227.774 2060.3 236.145 2056.36 245.693L2071.14 251.807ZM2084.07 231.869C2089.59 226.272 2095.99 221.893 2103.31 218.713L2096.94 204.037C2087.76 208.023 2079.66 213.562 2072.68 220.631L2084.07 231.869ZM2103.29 218.724C2110.58 215.587 2118.38 214 2126.75 214V198C2116.29 198 2106.33 199.997 2096.96 204.026L2103.29 218.724ZM2126.75 214C2129.3 214 2131.97 214.213 2134.75 214.652L2137.25 198.848C2133.7 198.287 2130.2 198 2126.75 198V214ZM2134.78 214.657C2137.47 215.07 2140.03 215.755 2142.48 216.706L2148.27 201.794C2144.72 200.412 2141.03 199.43 2137.22 198.843L2134.78 214.657ZM2142.72 216.798C2145.15 217.649 2147.39 218.788 2149.47 220.217L2158.53 207.033C2155.28 204.795 2151.77 203.017 2148.03 201.702L2142.72 216.798ZM2149.47 220.217C2151.33 221.496 2152.88 223.048 2154.16 224.907L2167.34 215.843C2164.95 212.369 2162.01 209.421 2158.53 207.033L2149.47 220.217ZM2168.75 220.375V157.875H2152.75V220.375H2168.75ZM2160.75 165.875H2195.12V149.875H2160.75V165.875ZM2187.12 157.875V345H2203.12V157.875H2187.12ZM2168.75 276.875C2168.75 271.128 2167.61 265.569 2165.37 260.258L2150.63 266.492C2152.05 269.848 2152.75 273.288 2152.75 276.875H2168.75ZM2165.44 260.428C2163.34 255.137 2160.41 250.409 2156.62 246.318L2144.88 257.182C2147.26 259.758 2149.16 262.78 2150.56 266.322L2165.44 260.428ZM2156.69 246.39C2152.91 242.197 2148.44 238.861 2143.34 236.413L2136.41 250.837C2139.65 252.389 2142.43 254.469 2144.81 257.11L2156.69 246.39ZM2143.51 236.499C2138.28 233.83 2132.66 232.5 2126.75 232.5V248.5C2130.18 248.5 2133.3 249.253 2136.24 250.751L2143.51 236.499ZM2126.75 232.5C2121.11 232.5 2115.68 233.512 2110.53 235.572L2116.47 250.428C2119.66 249.154 2123.06 248.5 2126.75 248.5V232.5ZM2110.48 235.593C2105.37 237.677 2100.87 240.716 2097.02 244.669L2108.48 255.831C2110.8 253.451 2113.46 251.657 2116.52 250.407L2110.48 235.593ZM2097.02 244.671C2093.18 248.612 2090.26 253.348 2088.17 258.725L2103.08 264.525C2104.49 260.902 2106.32 258.055 2108.48 255.829L2097.02 244.671ZM2088.17 258.725C2086 264.295 2085 270.386 2085 276.875H2101C2101 272.031 2101.75 267.955 2103.08 264.525L2088.17 258.725ZM2085 276.875C2085 282.765 2086.05 288.434 2088.19 293.822L2103.06 287.928C2101.7 284.482 2101 280.819 2101 276.875H2085ZM2088.19 293.822C2090.27 299.069 2093.13 303.771 2096.8 307.852L2108.7 297.148C2106.37 294.563 2104.48 291.514 2103.06 287.928L2088.19 293.822ZM2096.88 307.932C2100.66 312.017 2105.08 315.259 2110.1 317.617L2116.9 303.133C2113.76 301.658 2111.01 299.649 2108.62 297.068L2096.88 307.932ZM2110.16 317.643C2115.39 320.051 2120.95 321.25 2126.75 321.25V305.25C2123.22 305.25 2119.94 304.533 2116.84 303.107L2110.16 317.643ZM2126.75 321.25C2132.6 321.25 2138.19 319.985 2143.39 317.435L2136.36 303.065C2133.4 304.515 2130.23 305.25 2126.75 305.25V321.25ZM2143.45 317.405C2148.46 314.902 2152.87 311.617 2156.62 307.557L2144.88 296.693C2142.47 299.3 2139.62 301.431 2136.3 303.095L2143.45 317.405ZM2156.69 307.485C2160.41 303.362 2163.32 298.684 2165.42 293.496L2150.58 287.504C2149.18 290.983 2147.26 294.055 2144.81 296.765L2156.69 307.485ZM2165.39 293.567C2167.62 288.203 2168.75 282.621 2168.75 276.875H2152.75C2152.75 280.463 2152.05 283.964 2150.61 287.433L2165.39 293.567ZM2319.62 329.375L2326.12 324.701C2324.79 322.85 2322.73 321.656 2320.46 321.419C2318.19 321.181 2315.93 321.922 2314.24 323.455L2319.62 329.375ZM2310.75 336.5L2315.35 343.046C2315.36 343.038 2315.37 343.03 2315.38 343.021L2310.75 336.5ZM2301 342.25L2304.36 349.508C2304.41 349.486 2304.46 349.463 2304.51 349.44L2301 342.25ZM2290.38 346L2288.43 338.239C2288.36 338.256 2288.29 338.275 2288.22 338.294L2290.38 346ZM2237 330.75L2231.34 336.407C2231.37 336.436 2231.4 336.465 2231.43 336.493L2237 330.75ZM2224.12 311.125L2216.69 314.082C2216.7 314.115 2216.72 314.147 2216.73 314.179L2224.12 311.125ZM2219.5 211.125V203.125C2215.08 203.125 2211.5 206.707 2211.5 211.125H2219.5ZM2253.5 211.125H2261.5C2261.5 206.707 2257.92 203.125 2253.5 203.125V211.125ZM2255.5 297.25L2248 300.04C2248.03 300.111 2248.06 300.181 2248.08 300.252L2255.5 297.25ZM2269.25 311.625L2266.24 319.039C2266.27 319.048 2266.29 319.057 2266.31 319.066L2269.25 311.625ZM2289.25 311.125L2292.9 318.242C2292.93 318.229 2292.95 318.217 2292.98 318.204L2289.25 311.125ZM2303 295.625L2310.43 298.596C2310.44 298.575 2310.44 298.554 2310.45 298.533L2303 295.625ZM2305 211.125V203.125C2300.58 203.125 2297 206.707 2297 211.125H2305ZM2339.12 211.125H2347.12C2347.12 206.707 2343.54 203.125 2339.12 203.125V211.125ZM2339.12 345V353C2343.54 353 2347.12 349.418 2347.12 345H2339.12ZM2330.88 345L2324.38 349.674C2325.89 351.762 2328.3 353 2330.88 353V345ZM2314.24 323.455C2311.74 325.731 2309.03 327.906 2306.12 329.979L2315.38 343.021C2318.8 340.594 2322.01 338.019 2325.01 335.295L2314.24 323.455ZM2306.15 329.954C2303.42 331.876 2300.53 333.577 2297.49 335.06L2304.51 349.44C2308.3 347.589 2311.92 345.458 2315.35 343.046L2306.15 329.954ZM2297.64 334.992C2294.68 336.362 2291.61 337.444 2288.43 338.239L2292.32 353.761C2296.47 352.723 2300.49 351.305 2304.36 349.508L2297.64 334.992ZM2288.22 338.294C2285.35 339.097 2282.4 339.5 2279.38 339.5V355.5C2283.85 355.5 2288.24 354.903 2292.53 353.706L2288.22 338.294ZM2279.38 339.5C2272.09 339.5 2265.36 338.217 2259.11 335.703L2253.14 350.547C2261.39 353.866 2270.16 355.5 2279.38 355.5V339.5ZM2259.11 335.703C2252.8 333.165 2247.31 329.604 2242.57 325.007L2231.43 336.493C2237.69 342.563 2244.95 347.251 2253.14 350.547L2259.11 335.703ZM2242.66 325.093C2238.04 320.481 2234.32 314.845 2231.52 308.071L2216.73 314.179C2220.27 322.738 2225.12 330.186 2231.34 336.407L2242.66 325.093ZM2231.56 308.168C2228.9 301.488 2227.5 293.845 2227.5 285.125H2211.5C2211.5 295.572 2213.18 305.262 2216.69 314.082L2231.56 308.168ZM2227.5 285.125V211.125H2211.5V285.125H2227.5ZM2219.5 219.125H2253.5V203.125H2219.5V219.125ZM2245.5 211.125V285.125H2261.5V211.125H2245.5ZM2245.5 285.125C2245.5 290.412 2246.28 295.421 2248 300.04L2263 294.46C2262.05 291.912 2261.5 288.838 2261.5 285.125H2245.5ZM2248.08 300.252C2249.84 304.584 2252.24 308.442 2255.37 311.682L2266.88 300.568C2265.34 298.975 2264 296.916 2262.92 294.248L2248.08 300.252ZM2255.37 311.682C2258.47 314.895 2262.11 317.365 2266.24 319.039L2272.26 304.211C2270.22 303.385 2268.44 302.189 2266.88 300.568L2255.37 311.682ZM2266.31 319.066C2270.46 320.705 2274.84 321.5 2279.38 321.5V305.5C2276.74 305.5 2274.37 305.045 2272.19 304.184L2266.31 319.066ZM2279.38 321.5C2284.13 321.5 2288.68 320.411 2292.9 318.242L2285.6 304.008C2283.65 305.005 2281.62 305.5 2279.38 305.5V321.5ZM2292.98 318.204C2297 316.085 2300.53 313.307 2303.52 309.893L2291.48 299.357C2289.8 301.277 2287.83 302.832 2285.52 304.046L2292.98 318.204ZM2303.52 309.893C2306.46 306.537 2308.76 302.758 2310.43 298.596L2295.57 292.654C2294.57 295.159 2293.21 297.38 2291.48 299.357L2303.52 309.893ZM2310.45 298.533C2312.14 294.212 2313 289.727 2313 285.125H2297C2297 287.69 2296.53 290.205 2295.55 292.717L2310.45 298.533ZM2313 285.125V211.125H2297V285.125H2313ZM2305 219.125H2339.12V203.125H2305V219.125ZM2331.12 211.125V345H2347.12V211.125H2331.12ZM2339.12 337H2330.88V353H2339.12V337ZM2337.37 340.326L2326.12 324.701L2313.13 334.049L2324.38 349.674L2337.37 340.326ZM2482.25 237.75L2487.92 243.393C2490.49 240.811 2490.99 236.82 2489.14 233.684L2482.25 237.75ZM2457.25 262.875L2449.72 265.566C2450.64 268.152 2452.82 270.083 2455.5 270.682C2458.18 271.281 2460.98 270.464 2462.92 268.518L2457.25 262.875ZM2452.12 253.5L2445.77 258.36C2445.79 258.39 2445.82 258.421 2445.84 258.451L2452.12 253.5ZM2444.75 246.375L2440.08 252.871C2440.11 252.894 2440.14 252.916 2440.18 252.938L2444.75 246.375ZM2413 243.375L2409.66 236.107C2409.64 236.116 2409.62 236.124 2409.6 236.133L2413 243.375ZM2402.25 251.5L2396.25 246.212L2396.24 246.222L2402.25 251.5ZM2402.25 303.375L2396.52 308.954C2396.54 308.98 2396.57 309.006 2396.59 309.032L2402.25 303.375ZM2413 310.625L2409.85 317.978C2409.87 317.986 2409.88 317.993 2409.9 318.001L2413 310.625ZM2444.5 308L2448.74 314.784C2448.76 314.772 2448.78 314.761 2448.8 314.749L2444.5 308ZM2451.75 301.75L2445.7 296.511C2445.7 296.516 2445.7 296.521 2445.69 296.526L2451.75 301.75ZM2457 293.5L2462.67 287.857C2460.81 285.986 2458.14 285.154 2455.55 285.633C2452.95 286.111 2450.76 287.839 2449.69 290.251L2457 293.5ZM2482 318.625L2488.54 323.229C2490.78 320.054 2490.41 315.734 2487.67 312.982L2482 318.625ZM2471 330.75L2465.78 324.685C2465.76 324.702 2465.74 324.719 2465.72 324.737L2471 330.75ZM2457.62 339.875L2453.95 332.769C2453.93 332.778 2453.92 332.787 2453.9 332.796L2457.62 339.875ZM2442.5 345.5L2440.67 337.711C2440.63 337.722 2440.58 337.734 2440.53 337.746L2442.5 345.5ZM2399.62 342.25L2396.44 349.588C2396.47 349.601 2396.5 349.613 2396.53 349.626L2399.62 342.25ZM2377.88 327.625L2372.22 333.282C2372.23 333.295 2372.24 333.307 2372.26 333.32L2377.88 327.625ZM2363.25 306L2370.59 302.813L2363.25 306ZM2363.25 250.75L2355.83 247.767L2363.25 250.75ZM2377.88 227.5L2372.04 222.028L2372.04 222.031L2377.88 227.5ZM2399.62 211.75L2396.28 204.482C2396.27 204.486 2396.26 204.491 2396.25 204.495L2399.62 211.75ZM2442.62 208.125L2440.57 215.857C2440.58 215.859 2440.59 215.862 2440.6 215.865L2442.62 208.125ZM2458 214.375L2454.04 221.328C2454.09 221.355 2454.14 221.381 2454.19 221.407L2458 214.375ZM2471.5 224.25L2465.96 230.023C2465.98 230.042 2466 230.061 2466.02 230.079L2471.5 224.25ZM2476.58 232.107L2451.58 257.232L2462.92 268.518L2487.92 243.393L2476.58 232.107ZM2464.78 260.184C2463.26 255.919 2461.14 252.021 2458.41 248.549L2445.84 258.451C2447.44 260.479 2448.74 262.831 2449.72 265.566L2464.78 260.184ZM2458.48 248.64C2455.84 245.193 2452.79 242.23 2449.32 239.812L2440.18 252.938C2442.21 254.353 2444.07 256.141 2445.77 258.36L2458.48 248.64ZM2449.42 239.879C2446.06 237.462 2442.38 235.624 2438.41 234.371L2433.59 249.629C2435.96 250.376 2438.11 251.455 2440.08 252.871L2449.42 239.879ZM2438.41 234.371C2434.46 233.124 2430.4 232.5 2426.25 232.5V248.5C2428.77 248.5 2431.21 248.876 2433.59 249.629L2438.41 234.371ZM2426.25 232.5C2420.45 232.5 2414.89 233.699 2409.66 236.107L2416.34 250.643C2419.44 249.217 2422.72 248.5 2426.25 248.5V232.5ZM2409.6 236.133C2404.49 238.532 2400.03 241.918 2396.25 246.212L2408.25 256.788C2410.64 254.082 2413.34 252.052 2416.4 250.617L2409.6 236.133ZM2396.24 246.222C2392.52 250.456 2389.67 255.416 2387.62 260.984L2402.63 266.516C2404.08 262.584 2405.98 259.377 2408.26 256.778L2396.24 246.222ZM2387.62 260.984C2385.5 266.732 2384.5 272.933 2384.5 279.5H2400.5C2400.5 274.567 2401.25 270.268 2402.63 266.516L2387.62 260.984ZM2384.5 279.5C2384.5 285.194 2385.57 290.647 2387.77 295.776L2402.48 289.474C2401.18 286.436 2400.5 283.139 2400.5 279.5H2384.5ZM2387.77 295.776C2389.9 300.731 2392.81 305.144 2396.52 308.954L2407.98 297.796C2405.69 295.439 2403.85 292.685 2402.48 289.474L2387.77 295.776ZM2396.59 309.032C2400.41 312.849 2404.85 315.835 2409.85 317.978L2416.15 303.272C2412.99 301.915 2410.26 300.068 2407.91 297.718L2396.59 309.032ZM2409.9 318.001C2415.08 320.176 2420.55 321.25 2426.25 321.25V305.25C2422.61 305.25 2419.25 304.574 2416.1 303.249L2409.9 318.001ZM2426.25 321.25C2430.33 321.25 2434.3 320.688 2438.15 319.543L2433.6 304.207C2431.28 304.896 2428.84 305.25 2426.25 305.25V321.25ZM2438.15 319.543C2441.91 318.426 2445.45 316.841 2448.74 314.784L2440.26 301.216C2438.22 302.492 2436 303.491 2433.6 304.207L2438.15 319.543ZM2448.8 314.749C2452.19 312.589 2455.2 309.995 2457.81 306.974L2445.69 296.526C2444.13 298.338 2442.31 299.911 2440.2 301.251L2448.8 314.749ZM2457.8 306.989C2460.48 303.897 2462.65 300.477 2464.31 296.749L2449.69 290.251C2448.68 292.523 2447.36 294.603 2445.7 296.511L2457.8 306.989ZM2451.33 299.143L2476.33 324.268L2487.67 312.982L2462.67 287.857L2451.33 299.143ZM2475.46 314.021C2472.67 317.982 2469.45 321.532 2465.78 324.685L2476.22 336.815C2480.88 332.801 2485 328.268 2488.54 323.229L2475.46 314.021ZM2465.72 324.737C2462.13 327.892 2458.21 330.567 2453.95 332.769L2461.3 346.981C2466.71 344.183 2471.71 340.775 2476.28 336.763L2465.72 324.737ZM2453.9 332.796C2449.76 334.973 2445.36 336.613 2440.67 337.711L2444.33 353.289C2450.31 351.887 2455.99 349.777 2461.35 346.954L2453.9 332.796ZM2440.53 337.746C2435.94 338.911 2431.19 339.5 2426.25 339.5V355.5C2432.48 355.5 2438.56 354.756 2444.47 353.254L2440.53 337.746ZM2426.25 339.5C2417.85 339.5 2410.03 337.945 2402.72 334.874L2396.53 349.626C2405.88 353.555 2415.81 355.5 2426.25 355.5V339.5ZM2402.81 334.912C2395.44 331.712 2389.02 327.387 2383.49 321.93L2372.26 333.32C2379.23 340.196 2387.31 345.621 2396.44 349.588L2402.81 334.912ZM2383.53 321.968C2378.1 316.534 2373.78 310.171 2370.59 302.813L2355.91 309.187C2359.88 318.329 2365.32 326.382 2372.22 333.282L2383.53 321.968ZM2370.59 302.813C2367.46 295.616 2365.88 287.873 2365.88 279.5H2349.88C2349.88 289.961 2351.87 299.884 2355.91 309.187L2370.59 302.813ZM2365.88 279.5C2365.88 270.203 2367.5 261.64 2370.67 253.733L2355.83 247.767C2351.84 257.694 2349.88 268.297 2349.88 279.5H2365.88ZM2370.67 253.733C2373.91 245.675 2378.27 238.783 2383.71 232.969L2372.04 222.031C2365.15 229.384 2359.76 237.991 2355.83 247.767L2370.67 253.733ZM2383.71 232.972C2389.26 227.048 2395.68 222.405 2403 219.005L2396.25 204.495C2387.07 208.762 2378.99 214.619 2372.04 222.028L2383.71 232.972ZM2402.97 219.018C2410.22 215.68 2417.96 214 2426.25 214V198C2415.71 198 2405.69 200.153 2396.28 204.482L2402.97 219.018ZM2426.25 214C2431.15 214 2435.92 214.62 2440.57 215.857L2444.68 200.393C2438.67 198.796 2432.52 198 2426.25 198V214ZM2440.6 215.865C2445.35 217.106 2449.82 218.926 2454.04 221.328L2461.96 207.422C2456.51 204.324 2450.74 201.977 2444.65 200.385L2440.6 215.865ZM2454.19 221.407C2458.47 223.729 2462.39 226.596 2465.96 230.023L2477.04 218.477C2472.44 214.071 2467.37 210.354 2461.81 207.343L2454.19 221.407ZM2466.02 230.079C2469.62 233.461 2472.73 237.363 2475.36 241.816L2489.14 233.684C2485.77 227.97 2481.71 222.872 2476.98 218.421L2466.02 230.079ZM2542.88 340.375L2539.67 347.706C2539.7 347.717 2539.72 347.727 2539.74 347.737L2542.88 340.375ZM2523.75 327.5L2518.05 333.114C2518.08 333.143 2518.11 333.171 2518.14 333.2L2523.75 327.5ZM2510.88 308.375L2503.51 311.506C2503.52 311.53 2503.53 311.553 2503.54 311.577L2510.88 308.375ZM2506.25 245.375H2514.25C2514.25 240.957 2510.67 237.375 2506.25 237.375V245.375ZM2489.62 245.375H2481.62C2481.62 249.793 2485.21 253.375 2489.62 253.375V245.375ZM2489.62 211.375V203.375C2485.21 203.375 2481.62 206.957 2481.62 211.375H2489.62ZM2506.25 211.375V219.375C2510.67 219.375 2514.25 215.793 2514.25 211.375H2506.25ZM2506.25 157.875V149.875C2501.83 149.875 2498.25 153.457 2498.25 157.875H2506.25ZM2540.25 157.875H2548.25C2548.25 153.457 2544.67 149.875 2540.25 149.875V157.875ZM2540.25 211.375H2532.25C2532.25 215.793 2535.83 219.375 2540.25 219.375V211.375ZM2592 211.375H2600C2600 206.957 2596.42 203.375 2592 203.375V211.375ZM2592 245.375V253.375C2596.42 253.375 2600 249.793 2600 245.375H2592ZM2540.25 245.375V237.375C2535.83 237.375 2532.25 240.957 2532.25 245.375H2540.25ZM2542.25 295.25L2534.88 298.354C2534.89 298.378 2534.9 298.402 2534.91 298.425L2542.25 295.25ZM2547.75 303.375L2553.41 297.718L2547.75 303.375ZM2556 309L2552.73 316.303C2552.79 316.327 2552.84 316.35 2552.9 316.373L2556 309ZM2592 311H2600C2600 306.582 2596.42 303 2592 303V311ZM2592 345V353C2596.42 353 2600 349.418 2600 345H2592ZM2566.12 337C2558.9 337 2552.22 335.656 2546.01 333.013L2539.74 347.737C2548.03 351.261 2556.85 353 2566.12 353V337ZM2546.08 333.044C2539.7 330.259 2534.15 326.513 2529.36 321.8L2518.14 333.2C2524.35 339.32 2531.55 344.158 2539.67 347.706L2546.08 333.044ZM2529.45 321.886C2524.74 317.101 2520.99 311.549 2518.21 305.173L2503.54 311.577C2507.09 319.701 2511.93 326.899 2518.05 333.114L2529.45 321.886ZM2518.24 305.244C2515.59 299.031 2514.25 292.351 2514.25 285.125H2498.25C2498.25 294.399 2499.99 303.219 2503.51 311.506L2518.24 305.244ZM2514.25 285.125V245.375H2498.25V285.125H2514.25ZM2506.25 237.375H2489.62V253.375H2506.25V237.375ZM2497.62 245.375V211.375H2481.62V245.375H2497.62ZM2489.62 219.375H2506.25V203.375H2489.62V219.375ZM2514.25 211.375V157.875H2498.25V211.375H2514.25ZM2506.25 165.875H2540.25V149.875H2506.25V165.875ZM2532.25 157.875V211.375H2548.25V157.875H2532.25ZM2540.25 219.375H2592V203.375H2540.25V219.375ZM2584 211.375V245.375H2600V211.375H2584ZM2592 237.375H2540.25V253.375H2592V237.375ZM2532.25 245.375V285.125H2548.25V245.375H2532.25ZM2532.25 285.125C2532.25 289.728 2533.11 294.163 2534.88 298.354L2549.62 292.146C2548.72 290.004 2548.25 287.689 2548.25 285.125H2532.25ZM2534.91 298.425C2536.63 302.418 2539.03 305.972 2542.09 309.032L2553.41 297.718C2551.8 296.111 2550.53 294.249 2549.59 292.075L2534.91 298.425ZM2542.09 309.032C2545.15 312.09 2548.72 314.508 2552.73 316.303L2559.27 301.697C2556.94 300.658 2555.02 299.327 2553.41 297.718L2542.09 309.032ZM2552.9 316.373C2557.09 318.138 2561.52 319 2566.12 319V303C2563.56 303 2561.25 302.529 2559.1 301.627L2552.9 316.373ZM2566.12 319H2592V303H2566.12V319ZM2584 311V345H2600V311H2584ZM2592 337H2566.12V353H2592V337Z" fill="#11111B"/>
<path d="M457.237 271.437L256.225 470.518L55.2141 271.437C41.9596 258.534 31.5199 243.027 24.5523 225.892C17.5846 208.757 14.2399 190.365 14.7286 171.874C15.2174 153.383 19.5291 135.193 27.3922 118.45C35.2554 101.707 46.4997 86.7731 60.4173 74.5886C74.3349 62.4042 90.6243 53.2331 108.26 47.6526C125.896 42.0722 144.496 40.2033 162.889 42.1636C181.283 44.1239 199.071 49.871 215.134 59.043C231.198 68.215 245.188 80.6133 256.225 95.4573C267.31 80.7199 281.316 68.4288 297.369 59.3531C313.421 50.2773 331.174 44.6124 349.516 42.7127C367.859 40.813 386.396 42.7194 403.967 48.3127C421.539 53.906 437.767 63.0658 451.637 75.2189C465.506 87.3719 476.717 102.257 484.57 118.942C492.423 135.627 496.747 153.753 497.273 172.186C497.798 190.619 494.514 208.962 487.625 226.067C480.736 243.173 470.391 258.672 457.237 271.596" fill="#F38BA8"/>
<path d="M457.237 271.437L256.225 470.518L55.2141 271.437C41.9596 258.534 31.5199 243.027 24.5523 225.892C17.5846 208.757 14.2399 190.365 14.7286 171.874C15.2174 153.383 19.5291 135.193 27.3922 118.45C35.2554 101.707 46.4997 86.7731 60.4173 74.5886C74.3348 62.4042 90.6243 53.2331 108.26 47.6526C125.896 42.0722 144.496 40.2033 162.889 42.1636C181.283 44.1239 199.071 49.871 215.134 59.043C231.198 68.215 245.188 80.6133 256.225 95.4573C267.31 80.7199 281.316 68.4288 297.369 59.3531C313.421 50.2773 331.174 44.6124 349.516 42.7127C367.859 40.813 386.396 42.7194 403.967 48.3127C421.539 53.906 437.767 63.0658 451.637 75.2189C465.506 87.3719 476.717 102.257 484.57 118.942C492.423 135.627 496.747 153.753 497.273 172.186C497.798 190.619 494.514 208.962 487.625 226.067C480.736 243.173 470.391 258.672 457.237 271.596" stroke="#11111B" stroke-width="25" stroke-linecap="round" stroke-linejoin="round"/>
<path d="M256.22 95.2935L167.967 183.552C162.942 188.578 160.12 195.394 160.12 202.501C160.12 209.608 162.942 216.424 167.967 221.45L182.518 236.001C201.011 254.495 231.03 254.495 249.523 236.001L276.321 209.203C284.241 201.284 293.642 195.001 303.99 190.715C314.337 186.429 325.427 184.223 336.627 184.223C347.827 184.223 358.917 186.429 369.265 190.715C379.612 195.001 389.014 201.284 396.933 209.203L457.237 269.507M269.619 349.911L323.226 403.517L269.619 349.911ZM336.625 282.906L390.226 336.512L336.625 282.906Z" fill="#F38BA8"/>
<path d="M256.22 95.2935L167.967 183.552C162.942 188.578 160.12 195.394 160.12 202.501C160.12 209.608 162.942 216.424 167.967 221.45L182.518 236.001C201.011 254.495 231.03 254.495 249.523 236.001L276.321 209.203C284.241 201.284 293.642 195.001 303.99 190.715C314.337 186.429 325.427 184.223 336.627 184.223C347.827 184.223 358.917 186.429 369.265 190.715C379.612 195.001 389.014 201.284 396.933 209.203L457.237 269.507M269.619 349.911L323.226 403.517M336.625 282.906L390.226 336.512" stroke="#11111B" stroke-width="25" stroke-linecap="round" stroke-linejoin="round"/>
<rect x="604" y="386" width="2003" height="41" rx="20.5" fill="#F38BA8" stroke="#11111B" stroke-width="16" stroke-linejoin="round"/>
</svg>
