<svg width="2184" height="512" viewBox="0 0 2184 512" fill="none" xmlns="http://www.w3.org/2000/svg">
<rect x="626" y="390" width="1550" height="41" rx="20.5" fill="#A6E3A1" stroke="#11111B" stroke-width="16" stroke-linejoin="round"/>
<path d="M793.75 330.625C785.417 337.792 776.083 343.292 765.75 347.125C755.417 350.958 744.708 352.875 733.625 352.875C725.125 352.875 716.917 351.75 709 349.5C701.167 347.333 693.792 344.25 686.875 340.25C680.042 336.167 673.792 331.292 668.125 325.625C662.458 319.958 657.583 313.708 653.5 306.875C649.5 299.958 646.375 292.583 644.125 284.75C641.958 276.833 640.875 268.625 640.875 260.125C640.875 251.625 641.958 243.417 644.125 235.5C646.375 227.583 649.5 220.208 653.5 213.375C657.583 206.458 662.458 200.167 668.125 194.5C673.792 188.833 680.042 184 686.875 180C693.792 175.917 701.167 172.792 709 170.625C716.917 168.375 725.125 167.25 733.625 167.25C744.708 167.25 755.417 169.167 765.75 173C776.083 176.75 785.417 182.25 793.75 189.5L774.75 220.75C769.5 215.083 763.292 210.75 756.125 207.75C748.958 204.667 741.458 203.125 733.625 203.125C725.708 203.125 718.292 204.625 711.375 207.625C704.458 210.625 698.417 214.708 693.25 219.875C688.083 224.958 684 231 681 238C678 244.917 676.5 252.292 676.5 260.125C676.5 267.958 678 275.333 681 282.25C684 289.083 688.083 295.083 693.25 300.25C698.417 305.417 704.458 309.5 711.375 312.5C718.292 315.5 725.708 317 733.625 317C741.458 317 748.958 315.5 756.125 312.5C763.292 309.417 769.5 305.042 774.75 299.375L793.75 330.625ZM935.625 280.875C935.625 290.875 933.833 300.208 930.25 308.875C926.667 317.458 921.792 324.917 915.625 331.25C909.458 337.5 902.208 342.458 893.875 346.125C885.625 349.708 876.75 351.5 867.25 351.5C857.833 351.5 848.958 349.708 840.625 346.125C832.375 342.458 825.125 337.5 818.875 331.25C812.708 324.917 807.833 317.458 804.25 308.875C800.667 300.208 798.875 290.875 798.875 280.875C798.875 270.708 800.667 261.292 804.25 252.625C807.833 243.958 812.708 236.5 818.875 230.25C825.125 223.917 832.375 218.958 840.625 215.375C848.958 211.792 857.833 210 867.25 210C876.75 210 885.625 211.708 893.875 215.125C902.208 218.458 909.458 223.25 915.625 229.5C921.792 235.667 926.667 243.125 930.25 251.875C933.833 260.542 935.625 270.208 935.625 280.875ZM901.25 280.875C901.25 275.375 900.333 270.417 898.5 266C896.75 261.5 894.333 257.667 891.25 254.5C888.167 251.25 884.542 248.792 880.375 247.125C876.292 245.375 871.917 244.5 867.25 244.5C862.583 244.5 858.167 245.375 854 247.125C849.917 248.792 846.333 251.25 843.25 254.5C840.25 257.667 837.875 261.5 836.125 266C834.375 270.417 833.5 275.375 833.5 280.875C833.5 286.042 834.375 290.833 836.125 295.25C837.875 299.667 840.25 303.5 843.25 306.75C846.333 310 849.917 312.583 854 314.5C858.167 316.333 862.583 317.25 867.25 317.25C871.917 317.25 876.292 316.375 880.375 314.625C884.542 312.875 888.167 310.417 891.25 307.25C894.333 304.083 896.75 300.25 898.5 295.75C900.333 291.25 901.25 286.292 901.25 280.875ZM988.625 349H954.5V215.125H962.75L974 228.125C979.5 223.125 985.708 219.292 992.625 216.625C999.625 213.875 1006.92 212.5 1014.5 212.5C1022.67 212.5 1030.38 214.083 1037.62 217.25C1044.88 220.333 1051.21 224.625 1056.62 230.125C1062.04 235.542 1066.29 241.917 1069.38 249.25C1072.54 256.5 1074.12 264.25 1074.12 272.5V349H1040V272.5C1040 269 1039.33 265.708 1038 262.625C1036.67 259.458 1034.83 256.708 1032.5 254.375C1030.17 252.042 1027.46 250.208 1024.38 248.875C1021.29 247.542 1018 246.875 1014.5 246.875C1010.92 246.875 1007.54 247.542 1004.38 248.875C1001.21 250.208 998.458 252.042 996.125 254.375C993.792 256.708 991.958 259.458 990.625 262.625C989.292 265.708 988.625 269 988.625 272.5V349ZM1163.88 349C1155.62 349 1147.88 347.458 1140.62 344.375C1133.38 341.208 1127 336.917 1121.5 331.5C1116.08 326 1111.79 319.625 1108.62 312.375C1105.54 305.125 1104 297.375 1104 289.125V249.375H1087.38V215.375H1104V161.875H1138V215.375H1189.75V249.375H1138V289.125C1138 292.708 1138.67 296.083 1140 299.25C1141.33 302.333 1143.17 305.042 1145.5 307.375C1147.83 309.708 1150.58 311.583 1153.75 313C1156.92 314.333 1160.29 315 1163.88 315H1189.75V349H1163.88ZM1243.12 349H1209V215.125H1217.25L1228.5 231C1234 226 1240.25 222.167 1247.25 219.5C1254.25 216.75 1261.5 215.375 1269 215.375H1299.12V249.375H1269C1265.42 249.375 1262.04 250.042 1258.88 251.375C1255.71 252.708 1252.96 254.542 1250.62 256.875C1248.29 259.208 1246.46 261.958 1245.12 265.125C1243.79 268.292 1243.12 271.667 1243.12 275.25V349ZM1355.25 178.75C1355.25 181.917 1354.62 184.875 1353.38 187.625C1352.21 190.375 1350.58 192.792 1348.5 194.875C1346.42 196.875 1343.96 198.5 1341.12 199.75C1338.38 200.917 1335.42 201.5 1332.25 201.5C1329.08 201.5 1326.08 200.917 1323.25 199.75C1320.5 198.5 1318.08 196.875 1316 194.875C1314 192.792 1312.38 190.375 1311.12 187.625C1309.96 184.875 1309.38 181.917 1309.38 178.75C1309.38 175.667 1309.96 172.75 1311.12 170C1312.38 167.167 1314 164.75 1316 162.75C1318.08 160.667 1320.5 159.042 1323.25 157.875C1326.08 156.625 1329.08 156 1332.25 156C1335.42 156 1338.38 156.625 1341.12 157.875C1343.96 159.042 1346.42 160.667 1348.5 162.75C1350.58 164.75 1352.21 167.167 1353.38 170C1354.62 172.75 1355.25 175.667 1355.25 178.75ZM1349.38 349H1315V215.125H1349.38V349ZM1509.5 280.875C1509.5 291.375 1507.71 300.958 1504.12 309.625C1500.54 318.292 1495.67 325.75 1489.5 332C1483.33 338.167 1476.08 342.958 1467.75 346.375C1459.5 349.792 1450.62 351.5 1441.12 351.5C1431.71 351.5 1422.83 349.75 1414.5 346.25C1406.25 342.75 1399 337.875 1392.75 331.625C1386.58 325.375 1381.71 317.958 1378.12 309.375C1374.54 300.708 1372.75 291.208 1372.75 280.875V161.875H1407V224.375C1408.83 222.042 1411.04 219.958 1413.62 218.125C1416.29 216.292 1419.12 214.792 1422.12 213.625C1425.21 212.458 1428.38 211.583 1431.62 211C1434.88 210.333 1438.04 210 1441.12 210C1450.62 210 1459.5 211.792 1467.75 215.375C1476.08 218.875 1483.33 223.792 1489.5 230.125C1495.67 236.458 1500.54 243.958 1504.12 252.625C1507.71 261.208 1509.5 270.625 1509.5 280.875ZM1475.12 280.875C1475.12 275.708 1474.21 270.917 1472.38 266.5C1470.62 262 1468.21 258.125 1465.12 254.875C1462.04 251.625 1458.42 249.083 1454.25 247.25C1450.17 245.417 1445.79 244.5 1441.12 244.5C1436.46 244.5 1432.04 245.542 1427.88 247.625C1423.79 249.625 1420.21 252.333 1417.12 255.75C1414.04 259.083 1411.62 262.958 1409.88 267.375C1408.12 271.708 1407.25 276.208 1407.25 280.875C1407.25 286.042 1408.12 290.833 1409.88 295.25C1411.62 299.667 1414.04 303.5 1417.12 306.75C1420.21 310 1423.79 312.583 1427.88 314.5C1432.04 316.333 1436.46 317.25 1441.12 317.25C1445.79 317.25 1450.17 316.333 1454.25 314.5C1458.42 312.583 1462.04 310 1465.12 306.75C1468.21 303.5 1470.62 299.667 1472.38 295.25C1474.21 290.833 1475.12 286.042 1475.12 280.875ZM1626.88 333.375C1624.12 335.875 1621.17 338.25 1618 340.5C1614.92 342.667 1611.67 344.583 1608.25 346.25C1604.83 347.833 1601.29 349.083 1597.62 350C1594.04 351 1590.38 351.5 1586.62 351.5C1578.38 351.5 1570.62 350.042 1563.38 347.125C1556.12 344.208 1549.75 340.083 1544.25 334.75C1538.83 329.333 1534.54 322.792 1531.38 315.125C1528.29 307.375 1526.75 298.708 1526.75 289.125V215.125H1560.75V289.125C1560.75 293.625 1561.42 297.667 1562.75 301.25C1564.17 304.75 1566.04 307.708 1568.38 310.125C1570.71 312.542 1573.42 314.375 1576.5 315.625C1579.67 316.875 1583.04 317.5 1586.62 317.5C1590.12 317.5 1593.42 316.708 1596.5 315.125C1599.67 313.458 1602.42 311.292 1604.75 308.625C1607.08 305.958 1608.92 302.958 1610.25 299.625C1611.58 296.208 1612.25 292.708 1612.25 289.125V215.125H1646.38V349H1638.12L1626.88 333.375ZM1712.75 178.75C1712.75 181.917 1712.12 184.875 1710.88 187.625C1709.71 190.375 1708.08 192.792 1706 194.875C1703.92 196.875 1701.46 198.5 1698.62 199.75C1695.88 200.917 1692.92 201.5 1689.75 201.5C1686.58 201.5 1683.58 200.917 1680.75 199.75C1678 198.5 1675.58 196.875 1673.5 194.875C1671.5 192.792 1669.88 190.375 1668.62 187.625C1667.46 184.875 1666.88 181.917 1666.88 178.75C1666.88 175.667 1667.46 172.75 1668.62 170C1669.88 167.167 1671.5 164.75 1673.5 162.75C1675.58 160.667 1678 159.042 1680.75 157.875C1683.58 156.625 1686.58 156 1689.75 156C1692.92 156 1695.88 156.625 1698.62 157.875C1701.46 159.042 1703.92 160.667 1706 162.75C1708.08 164.75 1709.71 167.167 1710.88 170C1712.12 172.75 1712.75 175.667 1712.75 178.75ZM1706.88 349H1672.5V215.125H1706.88V349ZM1767.12 349H1733V215.125H1741.25L1752.5 228.125C1758 223.125 1764.21 219.292 1771.12 216.625C1778.12 213.875 1785.42 212.5 1793 212.5C1801.17 212.5 1808.88 214.083 1816.12 217.25C1823.38 220.333 1829.71 224.625 1835.12 230.125C1840.54 235.542 1844.79 241.917 1847.88 249.25C1851.04 256.5 1852.62 264.25 1852.62 272.5V349H1818.5V272.5C1818.5 269 1817.83 265.708 1816.5 262.625C1815.17 259.458 1813.33 256.708 1811 254.375C1808.67 252.042 1805.96 250.208 1802.88 248.875C1799.79 247.542 1796.5 246.875 1793 246.875C1789.42 246.875 1786.04 247.542 1782.88 248.875C1779.71 250.208 1776.96 252.042 1774.62 254.375C1772.29 256.708 1770.46 259.458 1769.12 262.625C1767.79 265.708 1767.12 269 1767.12 272.5V349ZM2006.38 349H1998.12L1984.88 330.625C1981.62 333.542 1978.17 336.292 1974.5 338.875C1970.92 341.375 1967.12 343.583 1963.12 345.5C1959.12 347.333 1955 348.792 1950.75 349.875C1946.58 350.958 1942.33 351.5 1938 351.5C1928.58 351.5 1919.71 349.75 1911.38 346.25C1903.12 342.667 1895.88 337.75 1889.62 331.5C1883.46 325.167 1878.58 317.708 1875 309.125C1871.42 300.458 1869.62 291.042 1869.62 280.875C1869.62 270.792 1871.42 261.417 1875 252.75C1878.58 244.083 1883.46 236.583 1889.62 230.25C1895.88 223.917 1903.12 218.958 1911.38 215.375C1919.71 211.792 1928.58 210 1938 210C1941 210 1944.08 210.25 1947.25 210.75C1950.5 211.25 1953.62 212.083 1956.62 213.25C1959.71 214.333 1962.58 215.792 1965.25 217.625C1967.92 219.458 1970.17 221.708 1972 224.375V161.875H2006.38V349ZM1972 280.875C1972 276.208 1971.08 271.708 1969.25 267.375C1967.5 262.958 1965.08 259.083 1962 255.75C1958.92 252.333 1955.29 249.625 1951.12 247.625C1947.04 245.542 1942.67 244.5 1938 244.5C1933.33 244.5 1928.92 245.333 1924.75 247C1920.67 248.667 1917.08 251.083 1914 254.25C1911 257.333 1908.62 261.125 1906.88 265.625C1905.12 270.125 1904.25 275.208 1904.25 280.875C1904.25 285.792 1905.12 290.458 1906.88 294.875C1908.62 299.292 1911 303.167 1914 306.5C1917.08 309.833 1920.67 312.458 1924.75 314.375C1928.92 316.292 1933.33 317.25 1938 317.25C1942.67 317.25 1947.04 316.25 1951.12 314.25C1955.29 312.167 1958.92 309.458 1962 306.125C1965.08 302.708 1967.5 298.833 1969.25 294.5C1971.08 290.083 1972 285.542 1972 280.875ZM2161.88 280.875C2161.88 290.875 2160.08 300.208 2156.5 308.875C2152.92 317.458 2148.04 324.917 2141.88 331.25C2135.71 337.5 2128.46 342.458 2120.12 346.125C2111.88 349.708 2103 351.5 2093.5 351.5C2084.08 351.5 2075.21 349.708 2066.88 346.125C2058.62 342.458 2051.38 337.5 2045.12 331.25C2038.96 324.917 2034.08 317.458 2030.5 308.875C2026.92 300.208 2025.12 290.875 2025.12 280.875C2025.12 270.708 2026.92 261.292 2030.5 252.625C2034.08 243.958 2038.96 236.5 2045.12 230.25C2051.38 223.917 2058.62 218.958 2066.88 215.375C2075.21 211.792 2084.08 210 2093.5 210C2103 210 2111.88 211.708 2120.12 215.125C2128.46 218.458 2135.71 223.25 2141.88 229.5C2148.04 235.667 2152.92 243.125 2156.5 251.875C2160.08 260.542 2161.88 270.208 2161.88 280.875ZM2127.5 280.875C2127.5 275.375 2126.58 270.417 2124.75 266C2123 261.5 2120.58 257.667 2117.5 254.5C2114.42 251.25 2110.79 248.792 2106.62 247.125C2102.54 245.375 2098.17 244.5 2093.5 244.5C2088.83 244.5 2084.42 245.375 2080.25 247.125C2076.17 248.792 2072.58 251.25 2069.5 254.5C2066.5 257.667 2064.12 261.5 2062.38 266C2060.62 270.417 2059.75 275.375 2059.75 280.875C2059.75 286.042 2060.62 290.833 2062.38 295.25C2064.12 299.667 2066.5 303.5 2069.5 306.75C2072.58 310 2076.17 312.583 2080.25 314.5C2084.42 316.333 2088.83 317.25 2093.5 317.25C2098.17 317.25 2102.54 316.375 2106.62 314.625C2110.79 312.875 2114.42 310.417 2117.5 307.25C2120.58 304.083 2123 300.25 2124.75 295.75C2126.58 291.25 2127.5 286.292 2127.5 280.875Z" fill="#A6E3A1"/>
<path d="M793.75 330.625L798.966 336.69C801.934 334.138 802.619 329.813 800.586 326.469L793.75 330.625ZM765.75 347.125L762.968 339.624L765.75 347.125ZM709 349.5L711.187 341.805C711.169 341.8 711.151 341.795 711.133 341.79L709 349.5ZM686.875 340.25L682.771 347.117C682.804 347.137 682.837 347.156 682.87 347.175L686.875 340.25ZM653.5 306.875L646.575 310.88C646.594 310.913 646.613 310.946 646.633 310.979L653.5 306.875ZM644.125 284.75L636.409 286.862C636.418 286.894 636.427 286.926 636.436 286.959L644.125 284.75ZM644.125 235.5L636.43 233.313C636.423 233.338 636.416 233.363 636.409 233.388L644.125 235.5ZM653.5 213.375L646.611 209.308C646.606 209.316 646.601 209.325 646.596 209.334L653.5 213.375ZM686.875 180L690.916 186.904C690.925 186.899 690.934 186.894 690.942 186.889L686.875 180ZM709 170.625L711.133 178.335C711.151 178.33 711.169 178.325 711.187 178.32L709 170.625ZM765.75 173L762.968 180.501C762.985 180.507 763.003 180.514 763.021 180.52L765.75 173ZM793.75 189.5L800.586 193.656C802.61 190.326 801.941 186.022 799.001 183.464L793.75 189.5ZM774.75 220.75L768.882 226.187C770.587 228.027 773.056 228.961 775.553 228.71C778.049 228.458 780.282 227.05 781.586 224.906L774.75 220.75ZM756.125 207.75L752.963 215.099C752.987 215.109 753.012 215.119 753.036 215.13L756.125 207.75ZM693.25 219.875L698.861 225.578C698.876 225.562 698.892 225.547 698.907 225.532L693.25 219.875ZM681 238L688.339 241.183C688.344 241.173 688.349 241.162 688.353 241.151L681 238ZM681 282.25L673.661 285.433C673.665 285.444 673.67 285.455 673.675 285.466L681 282.25ZM693.25 300.25L687.593 305.907L693.25 300.25ZM756.125 312.5L759.214 319.88C759.238 319.869 759.263 319.859 759.287 319.849L756.125 312.5ZM774.75 299.375L781.586 295.219C780.282 293.075 778.049 291.667 775.553 291.415C773.056 291.164 770.587 292.098 768.882 293.938L774.75 299.375ZM788.534 324.56C780.922 331.105 772.413 336.12 762.968 339.624L768.532 354.626C779.753 350.463 789.911 344.478 798.966 336.69L788.534 324.56ZM762.968 339.624C753.53 343.126 743.764 344.875 733.625 344.875V360.875C745.653 360.875 757.304 358.791 768.532 354.626L762.968 339.624ZM733.625 344.875C725.84 344.875 718.369 343.846 711.187 341.805L706.813 357.195C715.464 359.654 724.41 360.875 733.625 360.875V344.875ZM711.133 341.79C703.943 339.801 697.198 336.979 690.88 333.325L682.87 347.175C690.385 351.521 698.39 354.866 706.867 357.21L711.133 341.79ZM690.979 333.383C684.715 329.64 678.986 325.172 673.782 319.968L662.468 331.282C668.598 337.411 675.369 342.694 682.771 347.117L690.979 333.383ZM673.782 319.968C668.578 314.764 664.11 309.035 660.367 302.771L646.633 310.979C651.056 318.381 656.339 325.152 662.468 331.282L673.782 319.968ZM660.425 302.87C656.759 296.53 653.887 289.76 651.814 282.541L636.436 286.959C638.863 295.407 642.241 303.387 646.575 310.88L660.425 302.87ZM651.841 282.638C649.87 275.434 648.875 267.937 648.875 260.125H632.875C632.875 269.313 634.047 278.233 636.409 286.862L651.841 282.638ZM648.875 260.125C648.875 252.313 649.87 244.816 651.841 237.612L636.409 233.388C634.047 242.017 632.875 250.937 632.875 260.125H648.875ZM651.82 237.687C653.893 230.394 656.758 223.645 660.404 217.416L646.596 209.334C642.242 216.772 638.857 224.773 636.43 233.313L651.82 237.687ZM660.389 217.442C664.131 211.104 668.592 205.346 673.782 200.157L662.468 188.843C656.324 194.987 651.036 201.813 646.611 209.308L660.389 217.442ZM673.782 200.157C678.971 194.967 684.68 190.555 690.916 186.904L682.834 173.096C675.404 177.445 668.612 182.699 662.468 188.843L673.782 200.157ZM690.942 186.889C697.246 183.168 703.969 180.317 711.133 178.335L706.867 162.915C698.364 165.266 690.338 168.666 682.808 173.111L690.942 186.889ZM711.187 178.32C718.369 176.279 725.84 175.25 733.625 175.25V159.25C724.41 159.25 715.464 160.471 706.813 162.93L711.187 178.32ZM733.625 175.25C743.764 175.25 753.53 176.999 762.968 180.501L768.532 165.499C757.304 161.334 745.653 159.25 733.625 159.25V175.25ZM763.021 180.52C772.425 183.933 780.904 188.928 788.499 195.536L799.001 183.464C789.929 175.572 779.742 169.567 768.479 165.48L763.021 180.52ZM786.914 185.344L767.914 216.594L781.586 224.906L800.586 193.656L786.914 185.344ZM780.618 215.313C774.587 208.803 767.429 203.809 759.214 200.37L753.036 215.13C759.154 217.691 764.413 221.364 768.882 226.187L780.618 215.313ZM759.287 200.401C751.117 196.886 742.541 195.125 733.625 195.125V211.125C740.376 211.125 746.8 212.447 752.963 215.099L759.287 200.401ZM733.625 195.125C724.669 195.125 716.163 196.828 708.192 200.286L714.558 214.964C720.42 212.422 726.748 211.125 733.625 211.125V195.125ZM708.192 200.286C700.382 203.673 693.494 208.317 687.593 214.218L698.907 225.532C703.339 221.099 708.535 217.577 714.558 214.964L708.192 200.286ZM687.639 214.172C681.694 220.021 677.035 226.942 673.647 234.849L688.353 241.151C690.965 235.058 694.472 229.895 698.861 225.578L687.639 214.172ZM673.661 234.817C670.208 242.777 668.5 251.24 668.5 260.125H684.5C684.5 253.343 685.792 247.056 688.339 241.183L673.661 234.817ZM668.5 260.125C668.5 269.01 670.208 277.473 673.661 285.433L688.339 279.067C685.792 273.194 684.5 266.907 684.5 260.125H668.5ZM673.675 285.466C677.066 293.19 681.708 300.022 687.593 305.907L698.907 294.593C694.458 290.145 690.934 284.977 688.325 279.034L673.675 285.466ZM687.593 305.907C693.494 311.808 700.382 316.452 708.192 319.839L714.558 305.161C708.535 302.548 703.339 299.026 698.907 294.593L687.593 305.907ZM708.192 319.839C716.163 323.297 724.669 325 733.625 325V309C726.748 309 720.42 307.703 714.558 305.161L708.192 319.839ZM733.625 325C742.51 325 751.061 323.293 759.214 319.88L753.036 305.12C746.856 307.707 740.407 309 733.625 309V325ZM759.287 319.849C767.469 316.329 774.602 311.306 780.618 304.812L768.882 293.938C764.398 298.777 759.115 302.505 752.963 305.151L759.287 319.849ZM767.914 303.531L786.914 334.781L800.586 326.469L781.586 295.219L767.914 303.531ZM930.25 308.875L937.632 311.957C937.636 311.949 937.64 311.94 937.643 311.932L930.25 308.875ZM915.625 331.25L921.32 336.869C921.332 336.856 921.344 336.844 921.357 336.831L915.625 331.25ZM893.875 346.125L897.062 353.463C897.074 353.458 897.085 353.453 897.097 353.448L893.875 346.125ZM840.625 346.125L837.376 353.435C837.405 353.449 837.435 353.462 837.465 353.474L840.625 346.125ZM818.875 331.25L813.143 336.831C813.168 336.856 813.193 336.882 813.218 336.907L818.875 331.25ZM804.25 308.875L796.857 311.932C796.86 311.94 796.864 311.949 796.868 311.957L804.25 308.875ZM804.25 252.625L796.857 249.568L804.25 252.625ZM818.875 230.25L813.181 224.631L813.18 224.631L818.875 230.25ZM840.625 215.375L837.465 208.026C837.456 208.03 837.447 208.033 837.438 208.037L840.625 215.375ZM893.875 215.125L890.814 222.516C890.844 222.529 890.874 222.541 890.904 222.553L893.875 215.125ZM915.625 229.5L909.93 235.119C909.943 235.132 909.955 235.144 909.968 235.157L915.625 229.5ZM930.25 251.875L922.847 254.907C922.85 254.915 922.854 254.923 922.857 254.932L930.25 251.875ZM898.5 266L891.044 268.9C891.066 268.956 891.088 269.011 891.111 269.067L898.5 266ZM891.25 254.5L885.446 260.006C885.47 260.031 885.494 260.056 885.518 260.081L891.25 254.5ZM880.375 247.125L877.224 254.478C877.283 254.504 877.343 254.529 877.404 254.553L880.375 247.125ZM854 247.125L857.023 254.532C857.048 254.522 857.073 254.511 857.098 254.501L854 247.125ZM843.25 254.5L837.446 248.994L837.442 248.998L843.25 254.5ZM836.125 266L843.562 268.947C843.569 268.931 843.575 268.915 843.581 268.9L836.125 266ZM843.25 306.75L837.372 312.176C837.396 312.203 837.421 312.23 837.446 312.256L843.25 306.75ZM854 314.5L850.601 321.742C850.66 321.769 850.719 321.796 850.778 321.823L854 314.5ZM880.375 314.625L877.277 307.249C877.259 307.257 877.241 307.264 877.224 307.272L880.375 314.625ZM898.5 295.75L891.091 292.732C891.075 292.771 891.059 292.811 891.044 292.85L898.5 295.75ZM927.625 280.875C927.625 289.897 926.014 298.184 922.857 305.818L937.643 311.932C941.653 302.233 943.625 291.853 943.625 280.875H927.625ZM922.868 305.793C919.652 313.496 915.321 320.095 909.893 325.669L921.357 336.831C928.262 329.739 933.682 321.421 937.632 311.957L922.868 305.793ZM909.93 325.631C904.499 331.136 898.097 335.527 890.653 338.802L897.097 353.448C906.32 349.389 914.418 343.864 921.32 336.869L909.93 325.631ZM890.688 338.787C883.5 341.909 875.716 343.5 867.25 343.5V359.5C877.784 359.5 887.75 357.507 897.062 353.463L890.688 338.787ZM867.25 343.5C858.878 343.5 851.082 341.913 843.785 338.776L837.465 353.474C846.835 357.503 856.789 359.5 867.25 359.5V343.5ZM843.874 338.815C836.502 335.538 830.073 331.134 824.532 325.593L813.218 336.907C820.177 343.866 828.248 349.379 837.376 353.435L843.874 338.815ZM824.607 325.669C819.179 320.095 814.848 313.496 811.632 305.793L796.868 311.957C800.818 321.421 806.238 329.739 813.143 336.831L824.607 325.669ZM811.643 305.818C808.486 298.184 806.875 289.897 806.875 280.875H790.875C790.875 291.853 792.847 302.233 796.857 311.932L811.643 305.818ZM806.875 280.875C806.875 271.668 808.493 263.3 811.643 255.682L796.857 249.568C792.84 259.283 790.875 269.748 790.875 280.875H806.875ZM811.643 255.682C814.858 247.905 819.178 241.333 824.57 235.869L813.18 224.631C806.239 231.667 800.808 240.012 796.857 249.568L811.643 255.682ZM824.569 235.869C830.093 230.272 836.489 225.893 843.812 222.713L837.438 208.037C828.261 212.023 820.157 217.562 813.181 224.631L824.569 235.869ZM843.785 222.724C851.082 219.587 858.878 218 867.25 218V202C856.789 202 846.835 203.997 837.465 208.026L843.785 222.724ZM867.25 218C875.768 218 883.595 219.527 890.814 222.516L896.936 207.734C887.655 203.89 877.732 202 867.25 202V218ZM890.904 222.553C898.238 225.486 904.555 229.671 909.93 235.119L921.32 223.881C914.362 216.829 906.179 211.43 896.846 207.697L890.904 222.553ZM909.968 235.157C915.323 240.512 919.631 247.056 922.847 254.907L937.653 248.843C933.702 239.194 928.26 230.822 921.282 223.843L909.968 235.157ZM922.857 254.932C925.988 262.505 927.625 271.114 927.625 280.875H943.625C943.625 269.303 941.678 258.578 937.643 248.818L922.857 254.932ZM909.25 280.875C909.25 274.479 908.182 268.457 905.889 262.933L891.111 269.067C892.485 272.377 893.25 276.271 893.25 280.875H909.25ZM905.956 263.1C903.853 257.693 900.881 252.923 896.982 248.919L885.518 260.081C887.786 262.41 889.647 265.307 891.044 268.9L905.956 263.1ZM897.054 248.994C893.174 244.905 888.583 241.792 883.346 239.697L877.404 254.553C880.501 255.792 883.159 257.595 885.446 260.006L897.054 248.994ZM883.526 239.772C878.397 237.574 872.944 236.5 867.25 236.5V252.5C870.889 252.5 874.186 253.176 877.224 254.478L883.526 239.772ZM867.25 236.5C861.555 236.5 856.082 237.574 850.902 239.749L857.098 254.501C860.252 253.176 863.612 252.5 867.25 252.5V236.5ZM850.977 239.718C845.825 241.821 841.298 244.934 837.446 248.994L849.054 260.006C851.368 257.566 854.008 255.762 857.023 254.532L850.977 239.718ZM837.442 248.998C833.657 252.994 830.754 257.738 828.669 263.1L843.581 268.9C844.996 265.262 846.843 262.34 849.058 260.002L837.442 248.998ZM828.688 263.053C826.512 268.543 825.5 274.523 825.5 280.875H841.5C841.5 276.227 842.238 272.29 843.562 268.947L828.688 263.053ZM825.5 280.875C825.5 286.962 826.535 292.763 828.688 298.197L843.562 292.303C842.215 288.904 841.5 285.121 841.5 280.875H825.5ZM828.688 298.197C830.773 303.461 833.656 308.151 837.372 312.176L849.128 301.324C846.844 298.849 844.977 295.873 843.562 292.303L828.688 298.197ZM837.446 312.256C841.221 316.235 845.621 319.405 850.601 321.742L857.399 307.258C854.212 305.762 851.446 303.765 849.054 301.244L837.446 312.256ZM850.778 321.823C855.986 324.114 861.503 325.25 867.25 325.25V309.25C863.664 309.25 860.347 308.553 857.222 307.177L850.778 321.823ZM867.25 325.25C872.944 325.25 878.397 324.176 883.526 321.978L877.224 307.272C874.186 308.574 870.889 309.25 867.25 309.25V325.25ZM883.473 322.001C888.606 319.845 893.133 316.784 896.982 312.831L885.518 301.669C883.201 304.049 880.477 305.905 877.277 307.249L883.473 322.001ZM896.982 312.831C900.881 308.827 903.853 304.057 905.956 298.65L891.044 292.85C889.647 296.443 887.786 299.34 885.518 301.669L896.982 312.831ZM905.909 298.768C908.175 293.206 909.25 287.208 909.25 280.875H893.25C893.25 285.375 892.492 289.294 891.091 292.732L905.909 298.768ZM988.625 349V357C993.043 357 996.625 353.418 996.625 349H988.625ZM954.5 349H946.5C946.5 353.418 950.082 357 954.5 357V349ZM954.5 215.125V207.125C950.082 207.125 946.5 210.707 946.5 215.125H954.5ZM962.75 215.125L968.799 209.89C967.28 208.134 965.072 207.125 962.75 207.125V215.125ZM974 228.125L967.951 233.36C969.361 234.99 971.37 235.982 973.522 236.111C975.674 236.24 977.786 235.495 979.381 234.045L974 228.125ZM992.625 216.625L995.503 224.089C995.519 224.083 995.534 224.077 995.55 224.071L992.625 216.625ZM1037.62 217.25L1034.42 224.581C1034.45 224.592 1034.47 224.602 1034.49 224.612L1037.62 217.25ZM1056.62 230.125L1050.93 235.739C1050.94 235.753 1050.95 235.767 1050.97 235.782L1056.62 230.125ZM1069.38 249.25L1062 252.351C1062.01 252.385 1062.03 252.418 1062.04 252.452L1069.38 249.25ZM1074.12 349V357C1078.54 357 1082.12 353.418 1082.12 349H1074.12ZM1040 349H1032C1032 353.418 1035.58 357 1040 357V349ZM1038 262.625L1030.63 265.729C1030.64 265.753 1030.65 265.777 1030.66 265.8L1038 262.625ZM1004.38 248.875L1001.27 241.502L1004.38 248.875ZM990.625 262.625L997.968 265.8C997.978 265.777 997.988 265.753 997.998 265.729L990.625 262.625ZM988.625 341H954.5V357H988.625V341ZM962.5 349V215.125H946.5V349H962.5ZM954.5 223.125H962.75V207.125H954.5V223.125ZM956.701 220.36L967.951 233.36L980.049 222.89L968.799 209.89L956.701 220.36ZM979.381 234.045C984.152 229.708 989.512 226.399 995.503 224.089L989.747 209.161C981.905 212.184 974.848 216.542 968.619 222.205L979.381 234.045ZM995.55 224.071C1001.61 221.69 1007.91 220.5 1014.5 220.5V204.5C1005.92 204.5 997.64 206.06 989.7 209.179L995.55 224.071ZM1014.5 220.5C1021.6 220.5 1028.22 221.87 1034.42 224.581L1040.83 209.919C1032.53 206.297 1023.73 204.5 1014.5 204.5V220.5ZM1034.49 224.612C1040.8 227.295 1046.26 230.999 1050.93 235.739L1062.32 224.511C1056.16 218.251 1048.95 213.372 1040.76 209.888L1034.49 224.612ZM1050.97 235.782C1055.62 240.438 1059.3 245.935 1062 252.351L1076.75 246.149C1073.28 237.898 1068.46 230.646 1062.28 224.468L1050.97 235.782ZM1062.04 252.452C1064.75 258.649 1066.12 265.304 1066.12 272.5H1082.12C1082.12 263.196 1080.33 254.351 1076.71 246.048L1062.04 252.452ZM1066.12 272.5V349H1082.12V272.5H1066.12ZM1074.12 341H1040V357H1074.12V341ZM1048 349V272.5H1032V349H1048ZM1048 272.5C1048 267.955 1047.13 263.578 1045.34 259.45L1030.66 265.8C1031.54 267.839 1032 270.045 1032 272.5H1048ZM1045.37 259.521C1043.66 255.44 1041.25 251.813 1038.16 248.718L1026.84 260.032C1028.41 261.603 1029.68 263.477 1030.63 265.729L1045.37 259.521ZM1038.16 248.718C1035.1 245.658 1031.54 243.259 1027.55 241.532L1021.2 256.218C1023.37 257.158 1025.24 258.425 1026.84 260.032L1038.16 248.718ZM1027.55 241.532C1023.42 239.747 1019.05 238.875 1014.5 238.875V254.875C1016.95 254.875 1019.16 255.336 1021.2 256.218L1027.55 241.532ZM1014.5 238.875C1009.9 238.875 1005.46 239.737 1001.27 241.502L1007.48 256.248C1009.62 255.346 1011.94 254.875 1014.5 254.875V238.875ZM1001.27 241.502C997.19 243.22 993.563 245.623 990.468 248.718L1001.78 260.032C1003.35 258.46 1005.23 257.197 1007.48 256.248L1001.27 241.502ZM990.468 248.718C987.373 251.813 984.97 255.44 983.252 259.521L997.998 265.729C998.947 263.477 1000.21 261.603 1001.78 260.032L990.468 248.718ZM983.282 259.45C981.497 263.578 980.625 267.955 980.625 272.5H996.625C996.625 270.045 997.086 267.839 997.968 265.8L983.282 259.45ZM980.625 272.5V349H996.625V272.5H980.625ZM1140.62 344.375L1137.42 351.706C1137.45 351.717 1137.47 351.727 1137.49 351.737L1140.62 344.375ZM1121.5 331.5L1115.8 337.114C1115.83 337.143 1115.86 337.171 1115.89 337.2L1121.5 331.5ZM1108.62 312.375L1101.26 315.506C1101.27 315.53 1101.28 315.553 1101.29 315.577L1108.62 312.375ZM1104 249.375H1112C1112 244.957 1108.42 241.375 1104 241.375V249.375ZM1087.38 249.375H1079.38C1079.38 253.793 1082.96 257.375 1087.38 257.375V249.375ZM1087.38 215.375V207.375C1082.96 207.375 1079.38 210.957 1079.38 215.375H1087.38ZM1104 215.375V223.375C1108.42 223.375 1112 219.793 1112 215.375H1104ZM1104 161.875V153.875C1099.58 153.875 1096 157.457 1096 161.875H1104ZM1138 161.875H1146C1146 157.457 1142.42 153.875 1138 153.875V161.875ZM1138 215.375H1130C1130 219.793 1133.58 223.375 1138 223.375V215.375ZM1189.75 215.375H1197.75C1197.75 210.957 1194.17 207.375 1189.75 207.375V215.375ZM1189.75 249.375V257.375C1194.17 257.375 1197.75 253.793 1197.75 249.375H1189.75ZM1138 249.375V241.375C1133.58 241.375 1130 244.957 1130 249.375H1138ZM1140 299.25L1132.63 302.354C1132.64 302.378 1132.65 302.402 1132.66 302.425L1140 299.25ZM1145.5 307.375L1151.16 301.718L1145.5 307.375ZM1153.75 313L1150.48 320.303C1150.54 320.327 1150.59 320.35 1150.65 320.373L1153.75 313ZM1189.75 315H1197.75C1197.75 310.582 1194.17 307 1189.75 307V315ZM1189.75 349V357C1194.17 357 1197.75 353.418 1197.75 349H1189.75ZM1163.88 341C1156.65 341 1149.97 339.656 1143.76 337.013L1137.49 351.737C1145.78 355.261 1154.6 357 1163.88 357V341ZM1143.83 337.044C1137.45 334.259 1131.9 330.513 1127.11 325.8L1115.89 337.2C1122.1 343.32 1129.3 348.158 1137.42 351.706L1143.83 337.044ZM1127.2 325.886C1122.49 321.101 1118.74 315.549 1115.96 309.173L1101.29 315.577C1104.84 323.701 1109.68 330.899 1115.8 337.114L1127.2 325.886ZM1115.99 309.244C1113.34 303.031 1112 296.351 1112 289.125H1096C1096 298.399 1097.74 307.219 1101.26 315.506L1115.99 309.244ZM1112 289.125V249.375H1096V289.125H1112ZM1104 241.375H1087.38V257.375H1104V241.375ZM1095.38 249.375V215.375H1079.38V249.375H1095.38ZM1087.38 223.375H1104V207.375H1087.38V223.375ZM1112 215.375V161.875H1096V215.375H1112ZM1104 169.875H1138V153.875H1104V169.875ZM1130 161.875V215.375H1146V161.875H1130ZM1138 223.375H1189.75V207.375H1138V223.375ZM1181.75 215.375V249.375H1197.75V215.375H1181.75ZM1189.75 241.375H1138V257.375H1189.75V241.375ZM1130 249.375V289.125H1146V249.375H1130ZM1130 289.125C1130 293.728 1130.86 298.163 1132.63 302.354L1147.37 296.146C1146.47 294.004 1146 291.689 1146 289.125H1130ZM1132.66 302.425C1134.38 306.418 1136.78 309.972 1139.84 313.032L1151.16 301.718C1149.55 300.111 1148.28 298.249 1147.34 296.075L1132.66 302.425ZM1139.84 313.032C1142.9 316.09 1146.47 318.508 1150.48 320.303L1157.02 305.697C1154.69 304.658 1152.77 303.327 1151.16 301.718L1139.84 313.032ZM1150.65 320.373C1154.84 322.138 1159.27 323 1163.88 323V307C1161.31 307 1159 306.529 1156.85 305.627L1150.65 320.373ZM1163.88 323H1189.75V307H1163.88V323ZM1181.75 315V349H1197.75V315H1181.75ZM1189.75 341H1163.88V357H1189.75V341ZM1243.12 349V357C1247.54 357 1251.12 353.418 1251.12 349H1243.12ZM1209 349H1201C1201 353.418 1204.58 357 1209 357V349ZM1209 215.125V207.125C1204.58 207.125 1201 210.707 1201 215.125H1209ZM1217.25 215.125L1223.78 210.499C1222.28 208.383 1219.84 207.125 1217.25 207.125V215.125ZM1228.5 231L1221.97 235.626C1223.3 237.494 1225.36 238.706 1227.64 238.953C1229.91 239.201 1232.19 238.46 1233.88 236.92L1228.5 231ZM1247.25 219.5L1250.1 226.976C1250.12 226.966 1250.15 226.956 1250.18 226.946L1247.25 219.5ZM1299.12 215.375H1307.12C1307.12 210.957 1303.54 207.375 1299.12 207.375V215.375ZM1299.12 249.375V257.375C1303.54 257.375 1307.12 253.793 1307.12 249.375H1299.12ZM1258.88 251.375L1255.77 244.002L1258.88 251.375ZM1243.12 341H1209V357H1243.12V341ZM1217 349V215.125H1201V349H1217ZM1209 223.125H1217.25V207.125H1209V223.125ZM1210.72 219.751L1221.97 235.626L1235.03 226.374L1223.78 210.499L1210.72 219.751ZM1233.88 236.92C1238.64 232.597 1244.02 229.289 1250.1 226.976L1244.4 212.024C1236.48 215.044 1229.36 219.403 1223.12 225.08L1233.88 236.92ZM1250.18 226.946C1256.25 224.561 1262.5 223.375 1269 223.375V207.375C1260.5 207.375 1252.25 208.939 1244.32 212.054L1250.18 226.946ZM1269 223.375H1299.12V207.375H1269V223.375ZM1291.12 215.375V249.375H1307.12V215.375H1291.12ZM1299.12 241.375H1269V257.375H1299.12V241.375ZM1269 241.375C1264.4 241.375 1259.96 242.237 1255.77 244.002L1261.98 258.748C1264.12 257.846 1266.44 257.375 1269 257.375V241.375ZM1255.77 244.002C1251.69 245.72 1248.06 248.123 1244.97 251.218L1256.28 262.532C1257.85 260.96 1259.73 259.697 1261.98 258.748L1255.77 244.002ZM1244.97 251.218C1241.87 254.313 1239.47 257.94 1237.75 262.021L1252.5 268.229C1253.45 265.977 1254.71 264.103 1256.28 262.532L1244.97 251.218ZM1237.75 262.021C1235.99 266.212 1235.12 270.647 1235.12 275.25H1251.12C1251.12 272.686 1251.6 270.371 1252.5 268.229L1237.75 262.021ZM1235.12 275.25V349H1251.12V275.25H1235.12ZM1353.38 187.625L1346.09 184.315C1346.06 184.376 1346.04 184.438 1346.01 184.501L1353.38 187.625ZM1348.5 194.875L1354.04 200.646C1354.08 200.608 1354.12 200.57 1354.16 200.532L1348.5 194.875ZM1341.12 199.75L1344.25 207.115C1344.28 207.1 1344.32 207.085 1344.35 207.069L1341.12 199.75ZM1323.25 199.75L1319.94 207.033C1320.03 207.073 1320.12 207.111 1320.2 207.147L1323.25 199.75ZM1316 194.875L1310.23 200.415C1310.3 200.494 1310.38 200.571 1310.46 200.646L1316 194.875ZM1311.12 187.625L1303.76 190.749C1303.79 190.812 1303.81 190.874 1303.84 190.935L1311.12 187.625ZM1311.12 170L1303.81 166.771C1303.79 166.806 1303.78 166.841 1303.76 166.876L1311.12 170ZM1316 162.75L1321.66 168.407L1316 162.75ZM1323.25 157.875L1326.37 165.24C1326.41 165.225 1326.44 165.21 1326.48 165.194L1323.25 157.875ZM1341.12 157.875L1337.81 165.158C1337.9 165.198 1337.99 165.236 1338.08 165.272L1341.12 157.875ZM1348.5 162.75L1342.84 168.407C1342.88 168.445 1342.92 168.483 1342.96 168.521L1348.5 162.75ZM1353.38 170L1345.98 173.046C1346.01 173.135 1346.05 173.223 1346.09 173.31L1353.38 170ZM1349.38 349V357C1353.79 357 1357.38 353.418 1357.38 349H1349.38ZM1315 349H1307C1307 353.418 1310.58 357 1315 357V349ZM1315 215.125V207.125C1310.58 207.125 1307 210.707 1307 215.125H1315ZM1349.38 215.125H1357.38C1357.38 210.707 1353.79 207.125 1349.38 207.125V215.125ZM1347.25 178.75C1347.25 180.831 1346.85 182.654 1346.09 184.315L1360.66 190.935C1362.4 187.096 1363.25 183.002 1363.25 178.75H1347.25ZM1346.01 184.501C1345.24 186.318 1344.19 187.872 1342.84 189.218L1354.16 200.532C1356.98 197.712 1359.18 194.432 1360.74 190.749L1346.01 184.501ZM1342.96 189.104C1341.6 190.411 1339.94 191.53 1337.9 192.431L1344.35 207.069C1347.98 205.47 1351.24 203.339 1354.04 200.646L1342.96 189.104ZM1338 192.385C1336.3 193.108 1334.41 193.5 1332.25 193.5V209.5C1336.42 209.5 1340.45 208.725 1344.25 207.115L1338 192.385ZM1332.25 193.5C1330.09 193.5 1328.13 193.108 1326.3 192.353L1320.2 207.147C1324.04 208.725 1328.07 209.5 1332.25 209.5V193.5ZM1326.56 192.467C1324.6 191.574 1322.94 190.449 1321.54 189.104L1310.46 200.646C1313.23 203.301 1316.4 205.426 1319.94 207.033L1326.56 192.467ZM1321.77 189.335C1320.43 187.934 1319.3 186.279 1318.41 184.315L1303.84 190.935C1305.45 194.471 1307.57 197.65 1310.23 200.415L1321.77 189.335ZM1318.49 184.501C1317.77 182.797 1317.38 180.909 1317.38 178.75H1301.38C1301.38 182.925 1302.15 186.953 1303.76 190.749L1318.49 184.501ZM1317.38 178.75C1317.38 176.705 1317.76 174.854 1318.49 173.124L1303.76 166.876C1302.16 170.646 1301.38 174.628 1301.38 178.75H1317.38ZM1318.44 173.229C1319.33 171.215 1320.42 169.644 1321.66 168.407L1310.34 157.093C1307.58 159.856 1305.42 163.119 1303.81 166.771L1318.44 173.229ZM1321.66 168.407C1323 167.06 1324.56 166.011 1326.37 165.24L1320.13 150.51C1316.44 152.073 1313.16 154.273 1310.34 157.093L1321.66 168.407ZM1326.48 165.194C1328.27 164.403 1330.17 164 1332.25 164V148C1328 148 1323.89 148.847 1320.02 150.556L1326.48 165.194ZM1332.25 164C1334.33 164 1336.15 164.403 1337.81 165.158L1344.44 150.592C1340.6 148.847 1336.5 148 1332.25 148V164ZM1338.08 165.272C1339.98 166.053 1341.54 167.1 1342.84 168.407L1354.16 157.093C1351.3 154.233 1347.94 152.03 1344.17 150.478L1338.08 165.272ZM1342.96 168.521C1344.19 169.705 1345.21 171.176 1345.98 173.046L1360.77 166.954C1359.21 163.157 1356.97 159.795 1354.04 156.979L1342.96 168.521ZM1346.09 173.31C1346.86 174.999 1347.25 176.784 1347.25 178.75H1363.25C1363.25 174.549 1362.39 170.501 1360.66 166.69L1346.09 173.31ZM1349.38 341H1315V357H1349.38V341ZM1323 349V215.125H1307V349H1323ZM1315 223.125H1349.38V207.125H1315V223.125ZM1341.38 215.125V349H1357.38V215.125H1341.38ZM1504.12 309.625L1496.73 306.568L1504.12 309.625ZM1489.5 332L1495.16 337.657C1495.17 337.644 1495.18 337.632 1495.19 337.619L1489.5 332ZM1467.75 346.375L1464.72 338.973C1464.71 338.977 1464.7 338.98 1464.69 338.984L1467.75 346.375ZM1414.5 346.25L1411.38 353.615C1411.38 353.618 1411.39 353.622 1411.4 353.626L1414.5 346.25ZM1392.75 331.625L1387.06 337.244C1387.07 337.257 1387.08 337.269 1387.09 337.282L1392.75 331.625ZM1378.12 309.375L1370.73 312.432C1370.74 312.44 1370.74 312.449 1370.74 312.457L1378.12 309.375ZM1372.75 161.875V153.875C1368.33 153.875 1364.75 157.457 1364.75 161.875H1372.75ZM1407 161.875H1415C1415 157.457 1411.42 153.875 1407 153.875V161.875ZM1407 224.375H1399C1399 227.785 1401.16 230.821 1404.39 231.936C1407.61 233.05 1411.18 231.999 1413.29 229.318L1407 224.375ZM1413.62 218.125L1409.09 211.533C1409.06 211.555 1409.03 211.578 1409 211.601L1413.62 218.125ZM1422.12 213.625L1419.29 206.143C1419.27 206.151 1419.25 206.16 1419.23 206.169L1422.12 213.625ZM1431.62 211L1433.04 218.874C1433.1 218.863 1433.17 218.85 1433.23 218.837L1431.62 211ZM1467.75 215.375L1464.56 222.713C1464.59 222.726 1464.62 222.738 1464.65 222.751L1467.75 215.375ZM1489.5 230.125L1495.23 224.544L1489.5 230.125ZM1504.12 252.625L1496.73 255.682C1496.74 255.69 1496.74 255.699 1496.74 255.707L1504.12 252.625ZM1472.38 266.5L1464.92 269.4C1464.94 269.456 1464.96 269.511 1464.99 269.567L1472.38 266.5ZM1454.25 247.25L1450.97 254.548C1450.99 254.556 1451.01 254.564 1451.03 254.573L1454.25 247.25ZM1427.88 247.625L1431.39 254.81C1431.41 254.8 1431.43 254.79 1431.45 254.78L1427.88 247.625ZM1417.12 255.75L1423 261.182C1423.02 261.158 1423.04 261.134 1423.06 261.11L1417.12 255.75ZM1409.88 267.375L1417.29 270.371C1417.3 270.354 1417.31 270.338 1417.31 270.322L1409.88 267.375ZM1427.88 314.5L1424.48 321.742C1424.53 321.769 1424.59 321.796 1424.65 321.823L1427.88 314.5ZM1454.25 314.5L1457.53 321.798C1457.55 321.788 1457.57 321.778 1457.59 321.768L1454.25 314.5ZM1472.38 295.25L1464.99 292.183C1464.97 292.223 1464.95 292.263 1464.94 292.303L1472.38 295.25ZM1501.5 280.875C1501.5 290.451 1499.87 298.98 1496.73 306.568L1511.52 312.682C1515.55 302.936 1517.5 292.299 1517.5 280.875H1501.5ZM1496.73 306.568C1493.52 314.345 1489.2 320.917 1483.81 326.381L1495.19 337.619C1502.14 330.583 1507.57 322.238 1511.52 312.682L1496.73 306.568ZM1483.84 326.343C1478.45 331.735 1472.1 335.945 1464.72 338.973L1470.78 353.777C1480.07 349.972 1488.22 344.598 1495.16 337.657L1483.84 326.343ZM1464.69 338.984C1457.47 341.973 1449.64 343.5 1441.12 343.5V359.5C1451.61 359.5 1461.53 357.61 1470.81 353.766L1464.69 338.984ZM1441.12 343.5C1432.73 343.5 1424.91 341.945 1417.6 338.874L1411.4 353.626C1420.76 357.555 1430.69 359.5 1441.12 359.5V343.5ZM1417.62 338.885C1410.31 335.781 1403.92 331.481 1398.41 325.968L1387.09 337.282C1394.08 344.269 1402.19 349.719 1411.38 353.615L1417.62 338.885ZM1398.44 326.006C1393.04 320.529 1388.72 313.987 1385.51 306.293L1370.74 312.457C1374.7 321.929 1380.13 330.221 1387.06 337.244L1398.44 326.006ZM1385.52 306.318C1382.37 298.715 1380.75 290.267 1380.75 280.875H1364.75C1364.75 292.15 1366.71 302.701 1370.73 312.432L1385.52 306.318ZM1380.75 280.875V161.875H1364.75V280.875H1380.75ZM1372.75 169.875H1407V153.875H1372.75V169.875ZM1399 161.875V224.375H1415V161.875H1399ZM1413.29 229.318C1414.62 227.628 1416.26 226.068 1418.25 224.649L1409 211.601C1405.83 213.849 1403.05 216.456 1400.71 219.432L1413.29 229.318ZM1418.16 224.717C1420.32 223.232 1422.6 222.023 1425.02 221.081L1419.23 206.169C1415.65 207.561 1412.27 209.351 1409.09 211.533L1418.16 224.717ZM1424.96 221.107C1427.58 220.115 1430.27 219.371 1433.04 218.874L1430.21 203.126C1426.48 203.796 1422.84 204.802 1419.29 206.143L1424.96 221.107ZM1433.23 218.837C1435.99 218.271 1438.62 218 1441.12 218V202C1437.46 202 1433.76 202.396 1430.02 203.163L1433.23 218.837ZM1441.12 218C1449.59 218 1457.37 219.591 1464.56 222.713L1470.94 208.037C1461.63 203.993 1451.66 202 1441.12 202V218ZM1464.65 222.751C1472.02 225.845 1478.37 230.159 1483.77 235.706L1495.23 224.544C1488.3 217.424 1480.15 211.905 1470.85 207.999L1464.65 222.751ZM1483.77 235.706C1489.18 241.267 1493.51 247.896 1496.73 255.682L1511.52 249.568C1507.57 240.02 1502.15 231.649 1495.23 224.544L1483.77 235.706ZM1496.74 255.707C1499.88 263.219 1501.5 271.575 1501.5 280.875H1517.5C1517.5 269.675 1515.54 259.198 1511.51 249.543L1496.74 255.707ZM1483.12 280.875C1483.12 274.741 1482.03 268.898 1479.76 263.433L1464.99 269.567C1466.38 272.936 1467.12 276.676 1467.12 280.875H1483.12ZM1479.83 263.6C1477.73 258.209 1474.78 253.429 1470.93 249.369L1459.32 260.381C1461.64 262.821 1463.52 265.791 1464.92 269.4L1479.83 263.6ZM1470.93 249.369C1467.1 245.335 1462.6 242.182 1457.47 239.927L1451.03 254.573C1454.24 255.985 1456.98 257.915 1459.32 260.381L1470.93 249.369ZM1457.53 239.952C1452.37 237.636 1446.87 236.5 1441.12 236.5V252.5C1444.71 252.5 1447.96 253.197 1450.97 254.548L1457.53 239.952ZM1441.12 236.5C1435.22 236.5 1429.58 237.83 1424.3 240.47L1431.45 254.78C1434.51 253.254 1437.7 252.5 1441.12 252.5V236.5ZM1424.36 240.44C1419.35 242.895 1414.94 246.226 1411.19 250.39L1423.06 261.11C1425.47 258.441 1428.24 256.355 1431.39 254.81L1424.36 240.44ZM1411.25 250.318C1407.47 254.409 1404.53 259.137 1402.44 264.428L1417.31 270.322C1418.72 266.78 1420.62 263.758 1423 261.182L1411.25 250.318ZM1402.46 264.379C1400.32 269.663 1399.25 275.18 1399.25 280.875H1415.25C1415.25 277.237 1415.93 273.753 1417.29 270.371L1402.46 264.379ZM1399.25 280.875C1399.25 286.962 1400.28 292.763 1402.44 298.197L1417.31 292.303C1415.97 288.904 1415.25 285.121 1415.25 280.875H1399.25ZM1402.44 298.197C1404.54 303.505 1407.49 308.221 1411.32 312.256L1422.93 301.244C1420.59 298.779 1418.71 295.828 1417.31 292.303L1402.44 298.197ZM1411.32 312.256C1415.1 316.235 1419.5 319.405 1424.48 321.742L1431.27 307.258C1428.09 305.762 1425.32 303.765 1422.93 301.244L1411.32 312.256ZM1424.65 321.823C1429.86 324.114 1435.38 325.25 1441.12 325.25V309.25C1437.54 309.25 1434.22 308.553 1431.1 307.177L1424.65 321.823ZM1441.12 325.25C1446.87 325.25 1452.37 324.114 1457.53 321.798L1450.97 307.202C1447.96 308.553 1444.71 309.25 1441.12 309.25V325.25ZM1457.59 321.768C1462.66 319.436 1467.13 316.262 1470.93 312.256L1459.32 301.244C1456.96 303.738 1454.17 305.73 1450.91 307.232L1457.59 321.768ZM1470.93 312.256C1474.76 308.221 1477.71 303.505 1479.81 298.197L1464.94 292.303C1463.54 295.828 1461.66 298.779 1459.32 301.244L1470.93 312.256ZM1479.76 298.317C1482.03 292.852 1483.12 287.009 1483.12 280.875H1467.12C1467.12 285.074 1466.38 288.814 1464.99 292.183L1479.76 298.317ZM1626.88 333.375L1633.37 328.701C1632.04 326.85 1629.98 325.656 1627.71 325.419C1625.44 325.181 1623.18 325.922 1621.49 327.455L1626.88 333.375ZM1618 340.5L1622.6 347.046C1622.61 347.038 1622.62 347.03 1622.63 347.021L1618 340.5ZM1608.25 346.25L1611.61 353.508C1611.66 353.486 1611.71 353.463 1611.76 353.44L1608.25 346.25ZM1597.62 350L1595.68 342.239C1595.61 342.256 1595.54 342.275 1595.47 342.294L1597.62 350ZM1544.25 334.75L1538.59 340.407C1538.62 340.436 1538.65 340.465 1538.68 340.493L1544.25 334.75ZM1531.38 315.125L1523.94 318.082C1523.95 318.115 1523.97 318.147 1523.98 318.179L1531.38 315.125ZM1526.75 215.125V207.125C1522.33 207.125 1518.75 210.707 1518.75 215.125H1526.75ZM1560.75 215.125H1568.75C1568.75 210.707 1565.17 207.125 1560.75 207.125V215.125ZM1562.75 301.25L1555.25 304.04C1555.28 304.111 1555.31 304.181 1555.33 304.252L1562.75 301.25ZM1576.5 315.625L1573.49 323.039C1573.52 323.048 1573.54 323.057 1573.56 323.066L1576.5 315.625ZM1596.5 315.125L1600.15 322.242C1600.18 322.229 1600.2 322.217 1600.23 322.204L1596.5 315.125ZM1610.25 299.625L1617.68 302.596C1617.69 302.575 1617.69 302.554 1617.7 302.533L1610.25 299.625ZM1612.25 215.125V207.125C1607.83 207.125 1604.25 210.707 1604.25 215.125H1612.25ZM1646.38 215.125H1654.38C1654.38 210.707 1650.79 207.125 1646.38 207.125V215.125ZM1646.38 349V357C1650.79 357 1654.38 353.418 1654.38 349H1646.38ZM1638.12 349L1631.63 353.674C1633.14 355.762 1635.55 357 1638.12 357V349ZM1621.49 327.455C1618.99 329.731 1616.28 331.906 1613.37 333.979L1622.63 347.021C1626.05 344.594 1629.26 342.019 1632.26 339.295L1621.49 327.455ZM1613.4 333.954C1610.67 335.876 1607.78 337.577 1604.74 339.06L1611.76 353.44C1615.55 351.589 1619.17 349.458 1622.6 347.046L1613.4 333.954ZM1604.89 338.992C1601.93 340.362 1598.86 341.444 1595.68 342.239L1599.57 357.761C1603.72 356.723 1607.74 355.305 1611.61 353.508L1604.89 338.992ZM1595.47 342.294C1592.6 343.097 1589.65 343.5 1586.62 343.5V359.5C1591.1 359.5 1595.49 358.903 1599.78 357.706L1595.47 342.294ZM1586.62 343.5C1579.34 343.5 1572.61 342.217 1566.36 339.703L1560.39 354.547C1568.64 357.866 1577.41 359.5 1586.62 359.5V343.5ZM1566.36 339.703C1560.05 337.165 1554.56 333.604 1549.82 329.007L1538.68 340.493C1544.94 346.563 1552.2 351.251 1560.39 354.547L1566.36 339.703ZM1549.91 329.093C1545.29 324.481 1541.57 318.845 1538.77 312.071L1523.98 318.179C1527.52 326.738 1532.37 334.186 1538.59 340.407L1549.91 329.093ZM1538.81 312.168C1536.15 305.488 1534.75 297.845 1534.75 289.125H1518.75C1518.75 299.572 1520.43 309.262 1523.94 318.082L1538.81 312.168ZM1534.75 289.125V215.125H1518.75V289.125H1534.75ZM1526.75 223.125H1560.75V207.125H1526.75V223.125ZM1552.75 215.125V289.125H1568.75V215.125H1552.75ZM1552.75 289.125C1552.75 294.412 1553.53 299.421 1555.25 304.04L1570.25 298.46C1569.3 295.912 1568.75 292.838 1568.75 289.125H1552.75ZM1555.33 304.252C1557.09 308.584 1559.49 312.442 1562.62 315.682L1574.13 304.568C1572.59 302.975 1571.25 300.916 1570.17 298.248L1555.33 304.252ZM1562.62 315.682C1565.72 318.895 1569.36 321.365 1573.49 323.039L1579.51 308.211C1577.47 307.385 1575.69 306.189 1574.13 304.568L1562.62 315.682ZM1573.56 323.066C1577.71 324.705 1582.09 325.5 1586.62 325.5V309.5C1583.99 309.5 1581.62 309.045 1579.44 308.184L1573.56 323.066ZM1586.62 325.5C1591.38 325.5 1595.93 324.411 1600.15 322.242L1592.85 308.008C1590.9 309.005 1588.87 309.5 1586.62 309.5V325.5ZM1600.23 322.204C1604.25 320.085 1607.78 317.307 1610.77 313.893L1598.73 303.357C1597.05 305.277 1595.08 306.832 1592.77 308.046L1600.23 322.204ZM1610.77 313.893C1613.71 310.537 1616.01 306.758 1617.68 302.596L1602.82 296.654C1601.82 299.159 1600.46 301.38 1598.73 303.357L1610.77 313.893ZM1617.7 302.533C1619.39 298.212 1620.25 293.727 1620.25 289.125H1604.25C1604.25 291.69 1603.78 294.205 1602.8 296.717L1617.7 302.533ZM1620.25 289.125V215.125H1604.25V289.125H1620.25ZM1612.25 223.125H1646.38V207.125H1612.25V223.125ZM1638.38 215.125V349H1654.38V215.125H1638.38ZM1646.38 341H1638.12V357H1646.38V341ZM1644.62 344.326L1633.37 328.701L1620.38 338.049L1631.63 353.674L1644.62 344.326ZM1710.88 187.625L1703.59 184.315C1703.56 184.376 1703.54 184.438 1703.51 184.501L1710.88 187.625ZM1706 194.875L1711.54 200.646C1711.58 200.608 1711.62 200.57 1711.66 200.532L1706 194.875ZM1698.62 199.75L1701.75 207.115C1701.78 207.1 1701.82 207.085 1701.85 207.069L1698.62 199.75ZM1680.75 199.75L1677.44 207.033C1677.53 207.073 1677.62 207.111 1677.7 207.147L1680.75 199.75ZM1673.5 194.875L1667.73 200.415C1667.8 200.494 1667.88 200.571 1667.96 200.646L1673.5 194.875ZM1668.62 187.625L1661.26 190.749C1661.29 190.812 1661.31 190.874 1661.34 190.935L1668.62 187.625ZM1668.62 170L1661.31 166.771C1661.29 166.806 1661.28 166.841 1661.26 166.876L1668.62 170ZM1673.5 162.75L1679.16 168.407L1673.5 162.75ZM1680.75 157.875L1683.87 165.24C1683.91 165.225 1683.94 165.21 1683.98 165.194L1680.75 157.875ZM1698.62 157.875L1695.31 165.158C1695.4 165.198 1695.49 165.236 1695.58 165.272L1698.62 157.875ZM1706 162.75L1700.34 168.407C1700.38 168.445 1700.42 168.483 1700.46 168.521L1706 162.75ZM1710.88 170L1703.48 173.046C1703.51 173.135 1703.55 173.223 1703.59 173.31L1710.88 170ZM1706.88 349V357C1711.29 357 1714.88 353.418 1714.88 349H1706.88ZM1672.5 349H1664.5C1664.5 353.418 1668.08 357 1672.5 357V349ZM1672.5 215.125V207.125C1668.08 207.125 1664.5 210.707 1664.5 215.125H1672.5ZM1706.88 215.125H1714.88C1714.88 210.707 1711.29 207.125 1706.88 207.125V215.125ZM1704.75 178.75C1704.75 180.831 1704.35 182.654 1703.59 184.315L1718.16 190.935C1719.9 187.096 1720.75 183.002 1720.75 178.75H1704.75ZM1703.51 184.501C1702.74 186.318 1701.69 187.872 1700.34 189.218L1711.66 200.532C1714.48 197.712 1716.68 194.432 1718.24 190.749L1703.51 184.501ZM1700.46 189.104C1699.1 190.411 1697.44 191.53 1695.4 192.431L1701.85 207.069C1705.48 205.47 1708.74 203.339 1711.54 200.646L1700.46 189.104ZM1695.5 192.385C1693.8 193.108 1691.91 193.5 1689.75 193.5V209.5C1693.92 209.5 1697.95 208.725 1701.75 207.115L1695.5 192.385ZM1689.75 193.5C1687.59 193.5 1685.63 193.108 1683.8 192.353L1677.7 207.147C1681.54 208.725 1685.57 209.5 1689.75 209.5V193.5ZM1684.06 192.467C1682.1 191.574 1680.44 190.449 1679.04 189.104L1667.96 200.646C1670.73 203.301 1673.9 205.426 1677.44 207.033L1684.06 192.467ZM1679.27 189.335C1677.93 187.934 1676.8 186.279 1675.91 184.315L1661.34 190.935C1662.95 194.471 1665.07 197.65 1667.73 200.415L1679.27 189.335ZM1675.99 184.501C1675.27 182.797 1674.88 180.909 1674.88 178.75H1658.88C1658.88 182.925 1659.65 186.953 1661.26 190.749L1675.99 184.501ZM1674.88 178.75C1674.88 176.705 1675.26 174.854 1675.99 173.124L1661.26 166.876C1659.66 170.646 1658.88 174.628 1658.88 178.75H1674.88ZM1675.94 173.229C1676.83 171.215 1677.92 169.644 1679.16 168.407L1667.84 157.093C1665.08 159.856 1662.92 163.119 1661.31 166.771L1675.94 173.229ZM1679.16 168.407C1680.5 167.06 1682.06 166.011 1683.87 165.24L1677.63 150.51C1673.94 152.073 1670.66 154.273 1667.84 157.093L1679.16 168.407ZM1683.98 165.194C1685.77 164.403 1687.67 164 1689.75 164V148C1685.5 148 1681.39 148.847 1677.52 150.556L1683.98 165.194ZM1689.75 164C1691.83 164 1693.65 164.403 1695.31 165.158L1701.94 150.592C1698.1 148.847 1694 148 1689.75 148V164ZM1695.58 165.272C1697.48 166.053 1699.04 167.1 1700.34 168.407L1711.66 157.093C1708.8 154.233 1705.44 152.03 1701.67 150.478L1695.58 165.272ZM1700.46 168.521C1701.69 169.705 1702.71 171.176 1703.48 173.046L1718.27 166.954C1716.71 163.157 1714.47 159.795 1711.54 156.979L1700.46 168.521ZM1703.59 173.31C1704.36 174.999 1704.75 176.784 1704.75 178.75H1720.75C1720.75 174.549 1719.89 170.501 1718.16 166.69L1703.59 173.31ZM1706.88 341H1672.5V357H1706.88V341ZM1680.5 349V215.125H1664.5V349H1680.5ZM1672.5 223.125H1706.88V207.125H1672.5V223.125ZM1698.88 215.125V349H1714.88V215.125H1698.88ZM1767.12 349V357C1771.54 357 1775.12 353.418 1775.12 349H1767.12ZM1733 349H1725C1725 353.418 1728.58 357 1733 357V349ZM1733 215.125V207.125C1728.58 207.125 1725 210.707 1725 215.125H1733ZM1741.25 215.125L1747.3 209.89C1745.78 208.134 1743.57 207.125 1741.25 207.125V215.125ZM1752.5 228.125L1746.45 233.36C1747.86 234.99 1749.87 235.982 1752.02 236.111C1754.17 236.24 1756.29 235.495 1757.88 234.045L1752.5 228.125ZM1771.12 216.625L1774 224.089C1774.02 224.083 1774.03 224.077 1774.05 224.071L1771.12 216.625ZM1816.12 217.25L1812.92 224.581C1812.95 224.592 1812.97 224.602 1812.99 224.612L1816.12 217.25ZM1835.12 230.125L1829.43 235.739C1829.44 235.753 1829.45 235.767 1829.47 235.782L1835.12 230.125ZM1847.88 249.25L1840.5 252.351C1840.51 252.385 1840.53 252.418 1840.54 252.452L1847.88 249.25ZM1852.62 349V357C1857.04 357 1860.62 353.418 1860.62 349H1852.62ZM1818.5 349H1810.5C1810.5 353.418 1814.08 357 1818.5 357V349ZM1816.5 262.625L1809.13 265.729C1809.14 265.753 1809.15 265.777 1809.16 265.8L1816.5 262.625ZM1782.88 248.875L1779.77 241.502L1782.88 248.875ZM1769.12 262.625L1776.47 265.8C1776.48 265.777 1776.49 265.753 1776.5 265.729L1769.12 262.625ZM1767.12 341H1733V357H1767.12V341ZM1741 349V215.125H1725V349H1741ZM1733 223.125H1741.25V207.125H1733V223.125ZM1735.2 220.36L1746.45 233.36L1758.55 222.89L1747.3 209.89L1735.2 220.36ZM1757.88 234.045C1762.65 229.708 1768.01 226.399 1774 224.089L1768.25 209.161C1760.41 212.184 1753.35 216.542 1747.12 222.205L1757.88 234.045ZM1774.05 224.071C1780.11 221.69 1786.41 220.5 1793 220.5V204.5C1784.42 204.5 1776.14 206.06 1768.2 209.179L1774.05 224.071ZM1793 220.5C1800.1 220.5 1806.72 221.87 1812.92 224.581L1819.33 209.919C1811.03 206.297 1802.23 204.5 1793 204.5V220.5ZM1812.99 224.612C1819.3 227.295 1824.76 230.999 1829.43 235.739L1840.82 224.511C1834.66 218.251 1827.45 213.372 1819.26 209.888L1812.99 224.612ZM1829.47 235.782C1834.12 240.438 1837.8 245.935 1840.5 252.351L1855.25 246.149C1851.78 237.898 1846.96 230.646 1840.78 224.468L1829.47 235.782ZM1840.54 252.452C1843.25 258.649 1844.62 265.304 1844.62 272.5H1860.62C1860.62 263.196 1858.83 254.351 1855.21 246.048L1840.54 252.452ZM1844.62 272.5V349H1860.62V272.5H1844.62ZM1852.62 341H1818.5V357H1852.62V341ZM1826.5 349V272.5H1810.5V349H1826.5ZM1826.5 272.5C1826.5 267.955 1825.63 263.578 1823.84 259.45L1809.16 265.8C1810.04 267.839 1810.5 270.045 1810.5 272.5H1826.5ZM1823.87 259.521C1822.16 255.44 1819.75 251.813 1816.66 248.718L1805.34 260.032C1806.91 261.603 1808.18 263.477 1809.13 265.729L1823.87 259.521ZM1816.66 248.718C1813.6 245.658 1810.04 243.259 1806.05 241.532L1799.7 256.218C1801.87 257.158 1803.74 258.425 1805.34 260.032L1816.66 248.718ZM1806.05 241.532C1801.92 239.747 1797.55 238.875 1793 238.875V254.875C1795.45 254.875 1797.66 255.336 1799.7 256.218L1806.05 241.532ZM1793 238.875C1788.4 238.875 1783.96 239.737 1779.77 241.502L1785.98 256.248C1788.12 255.346 1790.44 254.875 1793 254.875V238.875ZM1779.77 241.502C1775.69 243.22 1772.06 245.623 1768.97 248.718L1780.28 260.032C1781.85 258.46 1783.73 257.197 1785.98 256.248L1779.77 241.502ZM1768.97 248.718C1765.87 251.813 1763.47 255.44 1761.75 259.521L1776.5 265.729C1777.45 263.477 1778.71 261.603 1780.28 260.032L1768.97 248.718ZM1761.78 259.45C1760 263.578 1759.12 267.955 1759.12 272.5H1775.12C1775.12 270.045 1775.59 267.839 1776.47 265.8L1761.78 259.45ZM1759.12 272.5V349H1775.12V272.5H1759.12ZM2006.38 349V357C2010.79 357 2014.38 353.418 2014.38 349H2006.38ZM1998.12 349L1991.64 353.679C1993.14 355.764 1995.55 357 1998.12 357V349ZM1984.88 330.625L1991.36 325.946C1990.04 324.105 1987.99 322.914 1985.73 322.671C1983.48 322.428 1981.22 323.155 1979.53 324.671L1984.88 330.625ZM1974.5 338.875L1979.08 345.436C1979.09 345.429 1979.1 345.422 1979.11 345.415L1974.5 338.875ZM1963.12 345.5L1966.46 352.773C1966.5 352.754 1966.54 352.734 1966.58 352.715L1963.12 345.5ZM1950.75 349.875L1948.77 342.123C1948.76 342.126 1948.75 342.129 1948.74 342.132L1950.75 349.875ZM1911.38 346.25L1908.19 353.588C1908.22 353.601 1908.25 353.613 1908.28 353.626L1911.38 346.25ZM1889.62 331.5L1883.89 337.081C1883.92 337.106 1883.94 337.132 1883.97 337.157L1889.62 331.5ZM1875 309.125L1867.61 312.182C1867.61 312.19 1867.61 312.199 1867.62 312.207L1875 309.125ZM1875 252.75L1867.61 249.693L1875 252.75ZM1889.62 230.25L1883.93 224.631C1883.92 224.643 1883.91 224.656 1883.89 224.669L1889.62 230.25ZM1911.38 215.375L1908.21 208.026C1908.21 208.03 1908.2 208.033 1908.19 208.037L1911.38 215.375ZM1947.25 210.75L1946 218.652C1946.01 218.654 1946.02 218.655 1946.03 218.657L1947.25 210.75ZM1956.62 213.25L1953.73 220.706C1953.81 220.738 1953.89 220.768 1953.97 220.798L1956.62 213.25ZM1972 224.375L1965.41 228.907C1967.39 231.795 1971.03 233.054 1974.37 232.015C1977.72 230.976 1980 227.879 1980 224.375H1972ZM1972 161.875V153.875C1967.58 153.875 1964 157.457 1964 161.875H1972ZM2006.38 161.875H2014.38C2014.38 157.457 2010.79 153.875 2006.38 153.875V161.875ZM1969.25 267.375L1961.81 270.322C1961.84 270.379 1961.86 270.436 1961.88 270.492L1969.25 267.375ZM1962 255.75L1956.06 261.11C1956.08 261.134 1956.1 261.158 1956.13 261.182L1962 255.75ZM1951.12 247.625L1947.49 254.751C1947.55 254.78 1947.6 254.809 1947.66 254.837L1951.12 247.625ZM1924.75 247L1921.78 239.572C1921.76 239.579 1921.74 239.586 1921.73 239.593L1924.75 247ZM1914 254.25L1908.27 248.669L1908.27 248.671L1914 254.25ZM1914 306.5L1908.05 311.852C1908.08 311.879 1908.1 311.906 1908.13 311.932L1914 306.5ZM1924.75 314.375L1921.35 321.617C1921.37 321.626 1921.39 321.634 1921.41 321.643L1924.75 314.375ZM1951.12 314.25L1954.64 321.435C1954.66 321.425 1954.68 321.415 1954.7 321.405L1951.12 314.25ZM1962 306.125L1967.87 311.557C1967.9 311.533 1967.92 311.509 1967.94 311.485L1962 306.125ZM1969.25 294.5L1961.86 291.433C1961.85 291.457 1961.84 291.48 1961.83 291.504L1969.25 294.5ZM2006.38 341H1998.12V357H2006.38V341ZM2004.61 344.321L1991.36 325.946L1978.39 335.304L1991.64 353.679L2004.61 344.321ZM1979.53 324.671C1976.52 327.373 1973.31 329.928 1969.89 332.335L1979.11 345.415C1983.02 342.656 1986.73 339.711 1990.22 336.579L1979.53 324.671ZM1969.92 332.314C1966.7 334.562 1963.28 336.553 1959.67 338.285L1966.58 352.715C1970.97 350.614 1975.13 348.188 1979.08 345.436L1969.92 332.314ZM1959.79 338.227C1956.23 339.861 1952.56 341.159 1948.77 342.123L1952.73 357.627C1957.44 356.425 1962.02 354.806 1966.46 352.773L1959.79 338.227ZM1948.74 342.132C1945.23 343.044 1941.66 343.5 1938 343.5V359.5C1943.01 359.5 1947.93 358.873 1952.76 357.618L1948.74 342.132ZM1938 343.5C1929.6 343.5 1921.78 341.945 1914.47 338.874L1908.28 353.626C1917.63 357.555 1927.56 359.5 1938 359.5V343.5ZM1914.56 338.912C1907.22 335.722 1900.81 331.37 1895.28 325.843L1883.97 337.157C1890.94 344.13 1899.03 349.611 1908.19 353.588L1914.56 338.912ZM1895.36 325.919C1889.93 320.345 1885.6 313.746 1882.38 306.043L1867.62 312.207C1871.57 321.671 1876.99 329.989 1883.89 337.081L1895.36 325.919ZM1882.39 306.068C1879.24 298.45 1877.62 290.082 1877.62 280.875H1861.62C1861.62 292.002 1863.59 302.467 1867.61 312.182L1882.39 306.068ZM1877.62 280.875C1877.62 271.761 1879.24 263.433 1882.39 255.807L1867.61 249.693C1863.59 259.4 1861.62 269.822 1861.62 280.875H1877.62ZM1882.39 255.807C1885.61 248.021 1889.94 241.392 1895.36 235.831L1883.89 224.669C1876.98 231.774 1871.55 240.145 1867.61 249.693L1882.39 255.807ZM1895.32 235.869C1900.84 230.272 1907.24 225.893 1914.56 222.713L1908.19 208.037C1899.01 212.023 1890.91 217.562 1883.93 224.631L1895.32 235.869ZM1914.54 222.724C1921.83 219.587 1929.63 218 1938 218V202C1927.54 202 1917.58 203.997 1908.21 208.026L1914.54 222.724ZM1938 218C1940.55 218 1943.22 218.213 1946 218.652L1948.5 202.848C1944.95 202.287 1941.45 202 1938 202V218ZM1946.03 218.657C1948.72 219.07 1951.28 219.755 1953.73 220.706L1959.52 205.794C1955.97 204.412 1952.28 203.43 1948.47 202.843L1946.03 218.657ZM1953.97 220.798C1956.4 221.649 1958.64 222.788 1960.72 224.217L1969.78 211.033C1966.53 208.795 1963.02 207.017 1959.28 205.702L1953.97 220.798ZM1960.72 224.217C1962.58 225.496 1964.13 227.048 1965.41 228.907L1978.59 219.843C1976.2 216.369 1973.26 213.421 1969.78 211.033L1960.72 224.217ZM1980 224.375V161.875H1964V224.375H1980ZM1972 169.875H2006.38V153.875H1972V169.875ZM1998.38 161.875V349H2014.38V161.875H1998.38ZM1980 280.875C1980 275.128 1978.86 269.569 1976.62 264.258L1961.88 270.492C1963.3 273.848 1964 277.288 1964 280.875H1980ZM1976.69 264.428C1974.59 259.137 1971.66 254.409 1967.87 250.318L1956.13 261.182C1958.51 263.758 1960.41 266.78 1961.81 270.322L1976.69 264.428ZM1967.94 250.39C1964.16 246.197 1959.69 242.861 1954.59 240.413L1947.66 254.837C1950.9 256.389 1953.68 258.469 1956.06 261.11L1967.94 250.39ZM1954.76 240.499C1949.53 237.83 1943.91 236.5 1938 236.5V252.5C1941.43 252.5 1944.55 253.253 1947.49 254.751L1954.76 240.499ZM1938 236.5C1932.36 236.5 1926.93 237.512 1921.78 239.572L1927.72 254.428C1930.91 253.154 1934.31 252.5 1938 252.5V236.5ZM1921.73 239.593C1916.62 241.677 1912.12 244.716 1908.27 248.669L1919.73 259.831C1922.05 257.451 1924.71 255.657 1927.77 254.407L1921.73 239.593ZM1908.27 248.671C1904.43 252.612 1901.51 257.348 1899.42 262.725L1914.33 268.525C1915.74 264.902 1917.57 262.055 1919.73 259.829L1908.27 248.671ZM1899.42 262.725C1897.25 268.295 1896.25 274.386 1896.25 280.875H1912.25C1912.25 276.031 1913 271.955 1914.33 268.525L1899.42 262.725ZM1896.25 280.875C1896.25 286.765 1897.3 292.434 1899.44 297.822L1914.31 291.928C1912.95 288.482 1912.25 284.819 1912.25 280.875H1896.25ZM1899.44 297.822C1901.52 303.069 1904.38 307.771 1908.05 311.852L1919.95 301.148C1917.62 298.563 1915.73 295.514 1914.31 291.928L1899.44 297.822ZM1908.13 311.932C1911.91 316.017 1916.33 319.259 1921.35 321.617L1928.15 307.133C1925.01 305.658 1922.26 303.649 1919.87 301.068L1908.13 311.932ZM1921.41 321.643C1926.64 324.051 1932.2 325.25 1938 325.25V309.25C1934.47 309.25 1931.19 308.533 1928.09 307.107L1921.41 321.643ZM1938 325.25C1943.85 325.25 1949.44 323.985 1954.64 321.435L1947.61 307.065C1944.65 308.515 1941.48 309.25 1938 309.25V325.25ZM1954.7 321.405C1959.71 318.902 1964.12 315.617 1967.87 311.557L1956.13 300.693C1953.72 303.3 1950.87 305.431 1947.55 307.095L1954.7 321.405ZM1967.94 311.485C1971.66 307.362 1974.57 302.684 1976.67 297.496L1961.83 291.504C1960.43 294.983 1958.51 298.055 1956.06 300.765L1967.94 311.485ZM1976.64 297.567C1978.87 292.203 1980 286.621 1980 280.875H1964C1964 284.463 1963.3 287.964 1961.86 291.433L1976.64 297.567ZM2156.5 308.875L2163.88 311.957C2163.89 311.949 2163.89 311.94 2163.89 311.932L2156.5 308.875ZM2141.88 331.25L2147.57 336.869C2147.58 336.856 2147.59 336.844 2147.61 336.831L2141.88 331.25ZM2120.12 346.125L2123.31 353.463C2123.32 353.458 2123.34 353.453 2123.35 353.448L2120.12 346.125ZM2066.88 346.125L2063.63 353.435C2063.66 353.449 2063.69 353.462 2063.71 353.474L2066.88 346.125ZM2045.12 331.25L2039.39 336.831C2039.42 336.856 2039.44 336.882 2039.47 336.907L2045.12 331.25ZM2030.5 308.875L2023.11 311.932C2023.11 311.94 2023.11 311.949 2023.12 311.957L2030.5 308.875ZM2030.5 252.625L2023.11 249.568L2030.5 252.625ZM2045.12 230.25L2039.43 224.631L2039.43 224.631L2045.12 230.25ZM2066.88 215.375L2063.71 208.026C2063.71 208.03 2063.7 208.033 2063.69 208.037L2066.88 215.375ZM2120.12 215.125L2117.06 222.516C2117.09 222.529 2117.12 222.541 2117.15 222.553L2120.12 215.125ZM2141.88 229.5L2136.18 235.119C2136.19 235.132 2136.21 235.144 2136.22 235.157L2141.88 229.5ZM2156.5 251.875L2149.1 254.907C2149.1 254.915 2149.1 254.923 2149.11 254.932L2156.5 251.875ZM2124.75 266L2117.29 268.9C2117.32 268.956 2117.34 269.011 2117.36 269.067L2124.75 266ZM2117.5 254.5L2111.7 260.006C2111.72 260.031 2111.74 260.056 2111.77 260.081L2117.5 254.5ZM2106.62 247.125L2103.47 254.478C2103.53 254.504 2103.59 254.529 2103.65 254.553L2106.62 247.125ZM2080.25 247.125L2083.27 254.532C2083.3 254.522 2083.32 254.511 2083.35 254.501L2080.25 247.125ZM2069.5 254.5L2063.7 248.994L2063.69 248.998L2069.5 254.5ZM2062.38 266L2069.81 268.947C2069.82 268.931 2069.82 268.915 2069.83 268.9L2062.38 266ZM2069.5 306.75L2063.62 312.176C2063.65 312.203 2063.67 312.23 2063.7 312.256L2069.5 306.75ZM2080.25 314.5L2076.85 321.742C2076.91 321.769 2076.97 321.796 2077.03 321.823L2080.25 314.5ZM2106.62 314.625L2103.53 307.249C2103.51 307.257 2103.49 307.264 2103.47 307.272L2106.62 314.625ZM2124.75 295.75L2117.34 292.732C2117.33 292.771 2117.31 292.811 2117.29 292.85L2124.75 295.75ZM2153.88 280.875C2153.88 289.897 2152.26 298.184 2149.11 305.818L2163.89 311.932C2167.9 302.233 2169.88 291.853 2169.88 280.875H2153.88ZM2149.12 305.793C2145.9 313.496 2141.57 320.095 2136.14 325.669L2147.61 336.831C2154.51 329.739 2159.93 321.421 2163.88 311.957L2149.12 305.793ZM2136.18 325.631C2130.75 331.136 2124.35 335.527 2116.9 338.802L2123.35 353.448C2132.57 349.389 2140.67 343.864 2147.57 336.869L2136.18 325.631ZM2116.94 338.787C2109.75 341.909 2101.97 343.5 2093.5 343.5V359.5C2104.03 359.5 2114 357.507 2123.31 353.463L2116.94 338.787ZM2093.5 343.5C2085.13 343.5 2077.33 341.913 2070.04 338.776L2063.71 353.474C2073.08 357.503 2083.04 359.5 2093.5 359.5V343.5ZM2070.12 338.815C2062.75 335.538 2056.32 331.134 2050.78 325.593L2039.47 336.907C2046.43 343.866 2054.5 349.379 2063.63 353.435L2070.12 338.815ZM2050.86 325.669C2045.43 320.095 2041.1 313.496 2037.88 305.793L2023.12 311.957C2027.07 321.421 2032.49 329.739 2039.39 336.831L2050.86 325.669ZM2037.89 305.818C2034.74 298.184 2033.12 289.897 2033.12 280.875H2017.12C2017.12 291.853 2019.1 302.233 2023.11 311.932L2037.89 305.818ZM2033.12 280.875C2033.12 271.668 2034.74 263.3 2037.89 255.682L2023.11 249.568C2019.09 259.283 2017.12 269.748 2017.12 280.875H2033.12ZM2037.89 255.682C2041.11 247.905 2045.43 241.333 2050.82 235.869L2039.43 224.631C2032.49 231.667 2027.06 240.012 2023.11 249.568L2037.89 255.682ZM2050.82 235.869C2056.34 230.272 2062.74 225.893 2070.06 222.713L2063.69 208.037C2054.51 212.023 2046.41 217.562 2039.43 224.631L2050.82 235.869ZM2070.04 222.724C2077.33 219.587 2085.13 218 2093.5 218V202C2083.04 202 2073.08 203.997 2063.71 208.026L2070.04 222.724ZM2093.5 218C2102.02 218 2109.85 219.527 2117.06 222.516L2123.19 207.734C2113.9 203.89 2103.98 202 2093.5 202V218ZM2117.15 222.553C2124.49 225.486 2130.8 229.671 2136.18 235.119L2147.57 223.881C2140.61 216.829 2132.43 211.43 2123.1 207.697L2117.15 222.553ZM2136.22 235.157C2141.57 240.512 2145.88 247.056 2149.1 254.907L2163.9 248.843C2159.95 239.194 2154.51 230.822 2147.53 223.843L2136.22 235.157ZM2149.11 254.932C2152.24 262.505 2153.88 271.114 2153.88 280.875H2169.88C2169.88 269.303 2167.93 258.578 2163.89 248.818L2149.11 254.932ZM2135.5 280.875C2135.5 274.479 2134.43 268.457 2132.14 262.933L2117.36 269.067C2118.74 272.377 2119.5 276.271 2119.5 280.875H2135.5ZM2132.21 263.1C2130.1 257.693 2127.13 252.923 2123.23 248.919L2111.77 260.081C2114.04 262.41 2115.9 265.307 2117.29 268.9L2132.21 263.1ZM2123.3 248.994C2119.42 244.905 2114.83 241.792 2109.6 239.697L2103.65 254.553C2106.75 255.792 2109.41 257.595 2111.7 260.006L2123.3 248.994ZM2109.78 239.772C2104.65 237.574 2099.19 236.5 2093.5 236.5V252.5C2097.14 252.5 2100.44 253.176 2103.47 254.478L2109.78 239.772ZM2093.5 236.5C2087.8 236.5 2082.33 237.574 2077.15 239.749L2083.35 254.501C2086.5 253.176 2089.86 252.5 2093.5 252.5V236.5ZM2077.23 239.718C2072.08 241.821 2067.55 244.934 2063.7 248.994L2075.3 260.006C2077.62 257.566 2080.26 255.762 2083.27 254.532L2077.23 239.718ZM2063.69 248.998C2059.91 252.994 2057 257.738 2054.92 263.1L2069.83 268.9C2071.25 265.262 2073.09 262.34 2075.31 260.002L2063.69 248.998ZM2054.94 263.053C2052.76 268.543 2051.75 274.523 2051.75 280.875H2067.75C2067.75 276.227 2068.49 272.29 2069.81 268.947L2054.94 263.053ZM2051.75 280.875C2051.75 286.962 2052.78 292.763 2054.94 298.197L2069.81 292.303C2068.47 288.904 2067.75 285.121 2067.75 280.875H2051.75ZM2054.94 298.197C2057.02 303.461 2059.91 308.151 2063.62 312.176L2075.38 301.324C2073.09 298.849 2071.23 295.873 2069.81 292.303L2054.94 298.197ZM2063.7 312.256C2067.47 316.235 2071.87 319.405 2076.85 321.742L2083.65 307.258C2080.46 305.762 2077.7 303.765 2075.3 301.244L2063.7 312.256ZM2077.03 321.823C2082.24 324.114 2087.75 325.25 2093.5 325.25V309.25C2089.91 309.25 2086.6 308.553 2083.47 307.177L2077.03 321.823ZM2093.5 325.25C2099.19 325.25 2104.65 324.176 2109.78 321.978L2103.47 307.272C2100.44 308.574 2097.14 309.25 2093.5 309.25V325.25ZM2109.72 322.001C2114.86 319.845 2119.38 316.784 2123.23 312.831L2111.77 301.669C2109.45 304.049 2106.73 305.905 2103.53 307.249L2109.72 322.001ZM2123.23 312.831C2127.13 308.827 2130.1 304.057 2132.21 298.65L2117.29 292.85C2115.9 296.443 2114.04 299.34 2111.77 301.669L2123.23 312.831ZM2132.16 298.768C2134.42 293.206 2135.5 287.208 2135.5 280.875H2119.5C2119.5 285.375 2118.74 289.294 2117.34 292.732L2132.16 298.768Z" fill="#11111B"/>
<path opacity="0.986" fill-rule="evenodd" clip-rule="evenodd" d="M79 0C113 0 147 0 181 0C195.558 6.28181 200.891 17.1151 197 32.5C213.003 29.5807 224.169 35.414 230.5 50C233.666 65.0016 228.333 75.6683 214.5 82C214.992 86.9494 214.992 91.9494 214.5 97C213.033 100.258 211.867 103.592 211 107C228.335 112.994 243.335 122.661 256 136C268.585 122.544 283.585 112.877 301 107C300.133 103.592 298.967 100.258 297.5 97C297.008 91.9494 297.008 86.9494 297.5 82C283.667 75.6683 278.334 65.0016 281.5 50C287.831 35.414 298.997 29.5807 315 32.5C311.109 17.1151 316.442 6.28181 331 0C365 0 399 0 433 0C439.103 1.76898 444.769 4.60231 450 8.5C457.167 15.6667 464.333 22.8333 471.5 30C475.117 26.9419 479.284 25.1085 484 24.5C493.327 24.0002 502.661 23.8335 512 24C512 57.3333 512 90.6667 512 124C501.661 124.166 491.328 124 481 123.5C477.339 122.671 474.005 121.171 471 119C464.542 125.959 457.875 132.792 451 139.5C447.239 142.265 443.239 144.598 439 146.5C460.69 177.105 467.857 210.938 460.5 248C457.025 263.435 451.025 277.769 442.5 291C424.356 313.112 405.856 334.945 387 356.5C391.861 359.677 397.195 361.677 403 362.5C412.333 362.833 421.667 363.167 431 363.5C438.429 364.883 445.096 367.883 451 372.5C457.875 379.208 464.542 386.041 471 393C473.746 391.027 476.746 389.527 480 388.5C490.661 388 501.328 387.833 512 388C512 421.333 512 454.667 512 488C500.945 488.379 489.945 487.879 479 486.5C476.251 485.377 473.751 483.877 471.5 482C464.333 489.167 457.167 496.333 450 503.5C444.769 507.398 439.103 510.231 433 512C399 512 365 512 331 512C316.442 505.718 311.109 494.885 315 479.5C309.333 479.167 303.667 478.833 298 478.5C294.336 477.498 291.169 475.664 288.5 473C283.667 478.5 278.833 484 274 489.5C262 498.167 250 498.167 238 489.5C233.167 484 228.333 478.5 223.5 473C220.831 475.664 217.664 477.498 214 478.5C208.333 478.833 202.667 479.167 197 479.5C200.889 494.889 195.555 505.722 181 512C147 512 113 512 79 512C72.8975 510.231 67.2308 507.398 62 503.5C54.8333 496.333 47.6667 489.167 40.5 482C36.8827 485.058 32.716 486.891 28 487.5C18.6726 488 9.33928 488.166 0 488C0 454.667 0 421.333 0 388C10.3387 387.834 20.672 388 31 388.5C34.6612 389.329 37.9946 390.829 41 393C47.4579 386.041 54.1246 379.208 61 372.5C66.9044 367.883 73.571 364.883 81 363.5C90.3333 363.167 99.6667 362.833 109 362.5C114.805 361.677 120.139 359.677 125 356.5C106.144 334.945 87.6439 313.112 69.5 291C46.414 252.853 42.7473 212.853 58.5 171C62.5366 162.312 67.37 154.145 73 146.5C68.7608 144.598 64.7608 142.265 61 139.5C54.1246 132.792 47.4579 125.959 41 119C37.9946 121.171 34.6612 122.671 31 123.5C20.672 124 10.3387 124.166 0 124C0 90.6667 0 57.3333 0 24C11.0549 23.6209 22.0549 24.1209 33 25.5C35.7487 26.6227 38.2487 28.1227 40.5 30C47.6667 22.8333 54.8333 15.6667 62 8.5C67.2308 4.60231 72.8975 1.76898 79 0Z" fill="#11111B"/>
<path fill-rule="evenodd" clip-rule="evenodd" d="M116 33C115.011 38.4753 114.678 44.142 115 50C146 50 177 50 208 50C214.43 51.8616 216.263 55.8616 213.5 62C212.286 63.5488 210.786 64.7155 209 65.5C178.002 66 147.002 66.1666 116 66C115.011 71.4753 114.678 77.142 115 83C140.667 83 166.333 83 192 83C198.079 85.5757 199.579 89.9091 196.5 96C195.597 97.2014 194.431 98.0348 193 98.5C161.668 99 130.335 99.1666 99 99C99 104.667 99 110.333 99 116C111.005 115.833 123.005 116 135 116.5C149.946 120.765 157.112 130.599 156.5 146C155.149 147.51 153.482 148.51 151.5 149C141.394 144.03 131.227 139.197 121 134.5C108.109 132.399 95.1091 131.399 82 131.5C77.8847 130.277 74.218 128.277 71 125.5C64.1981 117.697 57.0314 110.197 49.5 103C48.8333 84 48.8333 65 49.5 46C56.969 37.53 64.8023 29.3634 73 21.5C75.3877 19.6395 78.0544 18.3061 81 17.5C113 16.8333 145 16.8333 177 17.5C183.811 22.83 183.477 27.83 176 32.5C156.003 33 136.003 33.1666 116 33Z" fill="#F5E0DC"/>
<path fill-rule="evenodd" clip-rule="evenodd" d="M320 83C345.667 83 371.333 83 397 83C397.322 77.142 396.989 71.4753 396 66C364.665 66.1666 333.332 66 302 65.5C294.852 59.1037 295.519 53.937 304 50C335 50 366 50 397 50C397.322 44.142 396.989 38.4753 396 33C375.664 33.1666 355.331 33 335 32.5C328.41 27.318 328.41 22.318 335 17.5C366.667 16.8333 398.333 16.8333 430 17.5C433.118 18.5587 436.118 19.8921 439 21.5C447.198 29.3634 455.031 37.53 462.5 46C463.167 65 463.167 84 462.5 103C454.969 110.197 447.802 117.697 441 125.5C437.558 128.554 433.558 130.554 429 131.5C419 131.833 409 132.167 399 132.5C396.333 133.167 393.667 133.833 391 134.5C380.773 139.197 370.606 144.03 360.5 149C356.341 148.178 354.508 145.678 355 141.5C356.799 129.359 363.465 121.026 375 116.5C387.662 116 400.329 115.833 413 116C413 110.333 413 104.667 413 99C381.665 99.1666 350.332 99 319 98.5C314.431 95.9586 312.931 92.1253 314.5 87C315.951 85.0359 317.784 83.7026 320 83Z" fill="#F5E0DC"/>
<path fill-rule="evenodd" clip-rule="evenodd" d="M27 42C23.6667 42 20.3333 42 17 42C17 63.6667 17 85.3333 17 107C16.0026 85.173 15.6693 63.173 16 41C19.8714 40.685 23.5381 41.0184 27 42Z" fill="#B4BEFE"/>
<path fill-rule="evenodd" clip-rule="evenodd" d="M27 42C29.2157 42.7026 31.049 44.0359 32.5 46C33.1667 64.6667 33.1667 83.3333 32.5 102C31.6667 104.167 30.1667 105.667 28 106.5C24.3484 106.999 20.6817 107.165 17 107C17 85.3333 17 63.6667 17 42C20.3333 42 23.6667 42 27 42Z" fill="#B4BEFE"/>
<path fill-rule="evenodd" clip-rule="evenodd" d="M485 42C488.333 42 491.667 42 495 42C495 63.6667 495 85.3333 495 107C490.986 107.166 486.986 106.999 483 106.5C481.451 105.286 480.285 103.786 479.5 102C478.833 83.3333 478.833 64.6667 479.5 46C480.951 44.0359 482.784 42.7026 485 42Z" fill="#F38BA8"/>
<path fill-rule="evenodd" clip-rule="evenodd" d="M485 42C488.462 41.0184 492.129 40.685 496 41C496.331 63.173 495.997 85.173 495 107C495 85.3333 495 63.6667 495 42C491.667 42 488.333 42 485 42Z" fill="#F38BA8"/>
<path fill-rule="evenodd" clip-rule="evenodd" d="M116 33C116 38.3333 116 43.6667 116 49C146.838 48.6685 177.505 49.0019 208 50C177 50 146 50 115 50C114.678 44.142 115.011 38.4753 116 33Z" fill="#F5E0DC"/>
<path fill-rule="evenodd" clip-rule="evenodd" d="M396 33C396.989 38.4753 397.322 44.142 397 50C366 50 335 50 304 50C334.495 49.0019 365.162 48.6685 396 49C396 43.6667 396 38.3333 396 33Z" fill="#F5E0DC"/>
<path fill-rule="evenodd" clip-rule="evenodd" d="M116 66C116 71.3333 116 76.6667 116 82C141.505 81.6689 166.839 82.0023 192 83C166.333 83 140.667 83 115 83C114.678 77.142 115.011 71.4753 116 66Z" fill="#F5E0DC"/>
<path fill-rule="evenodd" clip-rule="evenodd" d="M396 66C396.989 71.4753 397.322 77.142 397 83C371.333 83 345.667 83 320 83C345.161 82.0023 370.495 81.6689 396 82C396 76.6667 396 71.3333 396 66Z" fill="#F5E0DC"/>
<path fill-rule="evenodd" clip-rule="evenodd" d="M248 215C247.003 236.494 246.669 258.16 247 280C228 280 209 280 190 280C186.382 256.559 172.715 246.059 149 248.5C133.254 253.734 124.921 264.567 124 281C110.317 281.333 96.6503 280.999 82.9999 280C66.3213 252.252 61.8213 222.585 69.4999 191C73.8604 175.103 81.6938 161.269 92.9999 149.5C99.3332 148.833 105.667 148.833 112 149.5C123.558 153.945 134.892 158.945 146 164.5C166.809 165.013 175.643 154.846 172.5 134C170.596 127.692 167.762 121.859 164 116.5C197.556 114.907 225.389 126.74 247.5 152C248 161.994 248.166 171.994 248 182C256.085 181.599 264.085 182.099 272 183.5C283.608 192.724 283.942 202.391 273 212.5C271.254 212.971 269.587 213.638 268 214.5C261.342 215 254.675 215.166 248 215Z" fill="#A6E3A1"/>
<path fill-rule="evenodd" clip-rule="evenodd" d="M339 300C339 293.333 339 286.667 339 280C314.333 280 289.667 280 265 280C265 263.667 265 247.333 265 231C285.012 228.836 295.679 217.669 297 197.5C294.798 177.798 283.798 166.965 264 165C263.834 160.654 264.001 156.321 264.5 152C286.537 126.565 314.371 114.732 348 116.5C338.372 128.628 336.539 141.795 342.5 156C348.544 163.772 356.378 166.605 366 164.5C376.651 159.292 387.318 154.292 398 149.5C405 148.833 412 148.833 419 149.5C442.025 175.415 450.525 205.582 444.5 240C441.843 254.313 436.676 267.647 429 280C410.012 281 391.012 281.333 372 281C372.166 287.675 372 294.342 371.5 301C367.249 312.209 359.416 316.042 348 312.5C342.853 309.857 339.853 305.69 339 300Z" fill="#A6E3A1"/>
<path fill-rule="evenodd" clip-rule="evenodd" d="M405 160C406.871 160.359 408.371 161.359 409.5 163C411.877 166.588 414.377 170.088 417 173.5C412.756 176.744 408.256 179.578 403.5 182C400.5 178.495 397.667 174.829 395 171C398.355 167.313 401.689 163.647 405 160Z" fill="#11111B"/>
<path fill-rule="evenodd" clip-rule="evenodd" d="M428 204C428 205.333 428 206.667 428 208C426.709 207.763 425.709 208.096 425 209C420.643 209.086 416.31 209.42 412 210C411.815 204.93 411.148 199.93 410 195C414.988 193.498 419.988 192.331 425 191.5C426.231 195.591 427.231 199.757 428 204Z" fill="#11111B"/>
<path fill-rule="evenodd" clip-rule="evenodd" d="M428 204C428.951 205.419 429.284 207.085 429 209C427.667 209 426.333 209 425 209C425.709 208.096 426.709 207.763 428 208C428 206.667 428 205.333 428 204Z" fill="#A6E3A1"/>
<path fill-rule="evenodd" clip-rule="evenodd" d="M413 226C418.333 226 423.667 226 429 226C429.232 232.122 428.565 238.122 427 244C421.97 242.826 416.97 241.492 412 240C411.667 239.5 411.333 239 411 238.5C412.458 234.457 413.125 230.291 413 226Z" fill="#11111B"/>
<path fill-rule="evenodd" clip-rule="evenodd" d="M173 278C173 284.667 173 291.333 173 298C197.667 298 222.333 298 247 298C247 314.333 247 330.667 247 347C227.436 349.064 216.77 359.897 215 379.5C216.635 399.302 227.302 410.468 247 413C247.33 432.84 246.997 452.507 246 472C241.032 466.862 236.199 461.529 231.5 456C231.477 446.451 227.643 438.951 220 433.5C217.85 432.089 215.516 431.255 213 431C217.633 412.925 210.967 401.592 193 397C183.333 396.333 173.667 395.667 164 395C173.561 383.092 175.394 370.092 169.5 356C161.964 347.324 152.798 344.991 142 349C126.499 332.328 111.499 315.161 97 297.5C111.329 297 125.663 296.833 140 297C139.834 290.325 140 283.658 140.5 277C144.44 266.114 151.94 262.28 163 265.5C168.768 267.763 172.101 271.93 173 278Z" fill="#A6E3A1"/>
<path fill-rule="evenodd" clip-rule="evenodd" d="M248 215C248 237 248 259 248 281C228.493 281.33 209.159 280.997 190 280C209 280 228 280 247 280C246.669 258.16 247.003 236.494 248 215Z" fill="#A6E3A1"/>
<path fill-rule="evenodd" clip-rule="evenodd" d="M265 231C265 247.333 265 263.667 265 280C289.667 280 314.333 280 339 280C339 286.667 339 293.333 339 300C338.01 293.855 337.677 287.522 338 281C313.333 281 288.667 281 264 281C263.67 264.158 264.003 247.492 265 231Z" fill="#A6E3A1"/>
<path fill-rule="evenodd" clip-rule="evenodd" d="M173 278C173.99 284.145 174.323 290.478 174 297C198.667 297 223.333 297 248 297C248.33 313.842 247.997 330.508 247 347C247 330.667 247 314.333 247 298C222.333 298 197.667 298 173 298C173 291.333 173 284.667 173 278Z" fill="#A6E3A1"/>
<path fill-rule="evenodd" clip-rule="evenodd" d="M322 298C303 298 284 298 265 298C265.331 319.84 264.997 341.506 264 363C264 341 264 319 264 297C283.507 296.67 302.841 297.003 322 298Z" fill="#A6E3A1"/>
<path fill-rule="evenodd" clip-rule="evenodd" d="M348 395C337.667 395.667 327.333 396.333 317 397C300.464 402.739 294.464 414.072 299 431C287.035 434.827 280.868 443.161 280.5 456C275.467 461.862 270.301 467.529 265 473C265 447.333 265 421.667 265 396C258.333 396 251.667 396 245 396C236.251 394.077 231.585 388.577 231 379.5C232.009 371.489 236.343 366.155 244 363.5C250.658 363 257.325 362.834 264 363C264.997 341.506 265.331 319.84 265 298C284 298 303 298 322 298C326.807 324.237 342.14 334.071 368 327.5C381.047 321.584 387.714 311.417 388 297C397.006 296.834 406.006 297 415 297.5C400.501 315.161 385.501 332.328 370 349C355.926 344.119 345.759 348.453 339.5 362C337.769 374.286 340.603 385.286 348 395Z" fill="#A6E3A1"/>
<path fill-rule="evenodd" clip-rule="evenodd" d="M192 429C166.333 429 140.667 429 115 429C114.678 434.858 115.011 440.525 116 446C147.002 445.833 178.002 446 209 446.5C215.251 449.768 216.418 454.268 212.5 460C211.17 461.082 209.67 461.749 208 462C177 462 146 462 115 462C114.678 467.858 115.011 473.525 116 479C136.003 478.833 156.003 479 176 479.5C183.477 484.17 183.811 489.17 177 494.5C145 495.167 113 495.167 81 494.5C78.0544 493.694 75.3877 492.361 73 490.5C65.1355 482.97 57.6355 475.136 50.5 467C49.8333 447.333 49.8333 427.667 50.5 408C58.7208 399.779 66.8874 391.613 75 383.5C77.2173 382.225 79.5506 381.225 82 380.5C91.6667 380.167 101.333 379.833 111 379.5C115 378.5 119 377.5 123 376.5C132.561 372.136 142.061 367.636 151.5 363C156.727 364.849 158.394 368.515 156.5 374C153.917 383.585 148.084 390.418 139 394.5C125.727 395.925 112.394 396.425 99 396C99 401.667 99 407.333 99 413C130.335 412.833 161.668 413 193 413.5C198.035 416.513 199.202 420.68 196.5 426C195.371 427.641 193.871 428.641 192 429Z" fill="#F5E0DC"/>
<path fill-rule="evenodd" clip-rule="evenodd" d="M396 479C396.989 473.525 397.322 467.858 397 462C366 462 335 462 304 462C295.519 458.063 294.852 452.896 302 446.5C333.332 446 364.665 445.833 396 446C396.989 440.525 397.322 434.858 397 429C371.333 429 345.667 429 320 429C314.095 426.313 312.595 421.98 315.5 416C316.403 414.799 317.569 413.965 319 413.5C350.332 413 381.665 412.833 413 413C413 407.333 413 401.667 413 396C400.329 396.167 387.662 396 375 395.5C361.574 390.126 355.074 380.293 355.5 366C356.851 364.49 358.518 363.49 360.5 363C370.606 367.97 380.773 372.803 391 377.5C393.667 378.167 396.333 378.833 399 379.5C409 379.833 419 380.167 429 380.5C433.558 381.446 437.558 383.446 441 386.5C447.468 393.97 454.302 401.136 461.5 408C462.167 427.667 462.167 447.333 461.5 467C454.365 475.136 446.865 482.97 439 490.5C436.118 492.108 433.118 493.441 430 494.5C398.333 495.167 366.667 495.167 335 494.5C328.41 489.682 328.41 484.682 335 479.5C355.331 479 375.664 478.833 396 479Z" fill="#F5E0DC"/>
<path fill-rule="evenodd" clip-rule="evenodd" d="M164 395C173.667 395.667 183.333 396.333 193 397C182.978 397.332 172.978 396.999 163 396C163.124 395.393 163.457 395.06 164 395Z" fill="#A6E3A1"/>
<path fill-rule="evenodd" clip-rule="evenodd" d="M348 395C348.543 395.06 348.876 395.393 349 396C338.354 396.999 327.687 397.332 317 397C327.333 396.333 337.667 395.667 348 395Z" fill="#A6E3A1"/>
<path fill-rule="evenodd" clip-rule="evenodd" d="M245 396C251.667 396 258.333 396 265 396C265 421.667 265 447.333 265 473C264.001 448.408 263.667 423.075 264 397C257.478 397.323 251.145 396.99 245 396Z" fill="#A6E3A1"/>
<path fill-rule="evenodd" clip-rule="evenodd" d="M17 405C17 426.667 17 448.333 17 470C20.3333 470 23.6667 470 27 470C23.5381 470.982 19.8714 471.315 16 471C15.6693 448.827 16.0026 426.827 17 405Z" fill="#B4BEFE"/>
<path fill-rule="evenodd" clip-rule="evenodd" d="M17 405C20.6817 404.835 24.3484 405.001 28 405.5C30.1667 406.333 31.6667 407.833 32.5 410C33.1667 428.333 33.1667 446.667 32.5 465C31.4243 467.579 29.591 469.246 27 470C23.6667 470 20.3333 470 17 470C17 448.333 17 426.667 17 405Z" fill="#B4BEFE"/>
<path fill-rule="evenodd" clip-rule="evenodd" d="M495 405C495 426.667 495 448.333 495 470C491.667 470 488.333 470 485 470C482.409 469.246 480.576 467.579 479.5 465C478.833 446.667 478.833 428.333 479.5 410C480.285 408.214 481.451 406.714 483 405.5C486.986 405.001 490.986 404.834 495 405Z" fill="#F38BA8"/>
<path fill-rule="evenodd" clip-rule="evenodd" d="M495 405C495.997 426.827 496.331 448.827 496 471C492.129 471.315 488.462 470.982 485 470C488.333 470 491.667 470 495 470C495 448.333 495 426.667 495 405Z" fill="#F38BA8"/>
<path fill-rule="evenodd" clip-rule="evenodd" d="M247 413C248.163 433.163 248.329 453.496 247.5 474C246.783 473.456 246.283 472.789 246 472C246.997 452.507 247.33 432.84 247 413Z" fill="#A6E3A1"/>
<path fill-rule="evenodd" clip-rule="evenodd" d="M192 429C166.839 429.998 141.505 430.331 116 430C116 435.333 116 440.667 116 446C115.011 440.525 114.678 434.858 115 429C140.667 429 166.333 429 192 429Z" fill="#F5E0DC"/>
<path fill-rule="evenodd" clip-rule="evenodd" d="M320 429C345.667 429 371.333 429 397 429C397.322 434.858 396.989 440.525 396 446C396 440.667 396 435.333 396 430C370.495 430.331 345.161 429.998 320 429Z" fill="#F5E0DC"/>
<path fill-rule="evenodd" clip-rule="evenodd" d="M208 462C177.505 462.998 146.838 463.331 116 463C116 468.333 116 473.667 116 479C115.011 473.525 114.678 467.858 115 462C146 462 177 462 208 462Z" fill="#F5E0DC"/>
<path fill-rule="evenodd" clip-rule="evenodd" d="M304 462C335 462 366 462 397 462C397.322 467.858 396.989 473.525 396 479C396 473.667 396 468.333 396 463C365.162 463.331 334.495 462.998 304 462Z" fill="#F5E0DC"/>
</svg>
