<svg width="2162" height="512" viewBox="0 0 2162 512" fill="none" xmlns="http://www.w3.org/2000/svg">
<rect x="626" y="390" width="1383" height="41" rx="20.5" fill="#A6E3A1" stroke="#11111B" stroke-width="16" stroke-linejoin="round"/>
<rect x="2113" y="390" width="41" height="41" rx="20.5" fill="#A6E3A1" stroke="#11111B" stroke-width="16" stroke-linejoin="round"/>
<path d="M793.75 330.625C785.417 337.792 776.083 343.292 765.75 347.125C755.417 350.958 744.708 352.875 733.625 352.875C725.125 352.875 716.917 351.75 709 349.5C701.167 347.333 693.792 344.25 686.875 340.25C680.042 336.167 673.792 331.292 668.125 325.625C662.458 319.958 657.583 313.708 653.5 306.875C649.5 299.958 646.375 292.583 644.125 284.75C641.958 276.833 640.875 268.625 640.875 260.125C640.875 251.625 641.958 243.417 644.125 235.5C646.375 227.583 649.5 220.208 653.5 213.375C657.583 206.458 662.458 200.167 668.125 194.5C673.792 188.833 680.042 184 686.875 180C693.792 175.917 701.167 172.792 709 170.625C716.917 168.375 725.125 167.25 733.625 167.25C744.708 167.25 755.417 169.167 765.75 173C776.083 176.75 785.417 182.25 793.75 189.5L774.75 220.75C769.5 215.083 763.292 210.75 756.125 207.75C748.958 204.667 741.458 203.125 733.625 203.125C725.708 203.125 718.292 204.625 711.375 207.625C704.458 210.625 698.417 214.708 693.25 219.875C688.083 224.958 684 231 681 238C678 244.917 676.5 252.292 676.5 260.125C676.5 267.958 678 275.333 681 282.25C684 289.083 688.083 295.083 693.25 300.25C698.417 305.417 704.458 309.5 711.375 312.5C718.292 315.5 725.708 317 733.625 317C741.458 317 748.958 315.5 756.125 312.5C763.292 309.417 769.5 305.042 774.75 299.375L793.75 330.625ZM935.625 280.875C935.625 290.875 933.833 300.208 930.25 308.875C926.667 317.458 921.792 324.917 915.625 331.25C909.458 337.5 902.208 342.458 893.875 346.125C885.625 349.708 876.75 351.5 867.25 351.5C857.833 351.5 848.958 349.708 840.625 346.125C832.375 342.458 825.125 337.5 818.875 331.25C812.708 324.917 807.833 317.458 804.25 308.875C800.667 300.208 798.875 290.875 798.875 280.875C798.875 270.708 800.667 261.292 804.25 252.625C807.833 243.958 812.708 236.5 818.875 230.25C825.125 223.917 832.375 218.958 840.625 215.375C848.958 211.792 857.833 210 867.25 210C876.75 210 885.625 211.708 893.875 215.125C902.208 218.458 909.458 223.25 915.625 229.5C921.792 235.667 926.667 243.125 930.25 251.875C933.833 260.542 935.625 270.208 935.625 280.875ZM901.25 280.875C901.25 275.375 900.333 270.417 898.5 266C896.75 261.5 894.333 257.667 891.25 254.5C888.167 251.25 884.542 248.792 880.375 247.125C876.292 245.375 871.917 244.5 867.25 244.5C862.583 244.5 858.167 245.375 854 247.125C849.917 248.792 846.333 251.25 843.25 254.5C840.25 257.667 837.875 261.5 836.125 266C834.375 270.417 833.5 275.375 833.5 280.875C833.5 286.042 834.375 290.833 836.125 295.25C837.875 299.667 840.25 303.5 843.25 306.75C846.333 310 849.917 312.583 854 314.5C858.167 316.333 862.583 317.25 867.25 317.25C871.917 317.25 876.292 316.375 880.375 314.625C884.542 312.875 888.167 310.417 891.25 307.25C894.333 304.083 896.75 300.25 898.5 295.75C900.333 291.25 901.25 286.292 901.25 280.875ZM988.625 349H954.5V215.125H962.75L974 228.125C979.5 223.125 985.708 219.292 992.625 216.625C999.625 213.875 1006.92 212.5 1014.5 212.5C1022.67 212.5 1030.38 214.083 1037.62 217.25C1044.88 220.333 1051.21 224.625 1056.62 230.125C1062.04 235.542 1066.29 241.917 1069.38 249.25C1072.54 256.5 1074.12 264.25 1074.12 272.5V349H1040V272.5C1040 269 1039.33 265.708 1038 262.625C1036.67 259.458 1034.83 256.708 1032.5 254.375C1030.17 252.042 1027.46 250.208 1024.38 248.875C1021.29 247.542 1018 246.875 1014.5 246.875C1010.92 246.875 1007.54 247.542 1004.38 248.875C1001.21 250.208 998.458 252.042 996.125 254.375C993.792 256.708 991.958 259.458 990.625 262.625C989.292 265.708 988.625 269 988.625 272.5V349ZM1163.88 349C1155.62 349 1147.88 347.458 1140.62 344.375C1133.38 341.208 1127 336.917 1121.5 331.5C1116.08 326 1111.79 319.625 1108.62 312.375C1105.54 305.125 1104 297.375 1104 289.125V249.375H1087.38V215.375H1104V161.875H1138V215.375H1189.75V249.375H1138V289.125C1138 292.708 1138.67 296.083 1140 299.25C1141.33 302.333 1143.17 305.042 1145.5 307.375C1147.83 309.708 1150.58 311.583 1153.75 313C1156.92 314.333 1160.29 315 1163.88 315H1189.75V349H1163.88ZM1243.12 349H1209V215.125H1217.25L1228.5 231C1234 226 1240.25 222.167 1247.25 219.5C1254.25 216.75 1261.5 215.375 1269 215.375H1299.12V249.375H1269C1265.42 249.375 1262.04 250.042 1258.88 251.375C1255.71 252.708 1252.96 254.542 1250.62 256.875C1248.29 259.208 1246.46 261.958 1245.12 265.125C1243.79 268.292 1243.12 271.667 1243.12 275.25V349ZM1355.25 178.75C1355.25 181.917 1354.62 184.875 1353.38 187.625C1352.21 190.375 1350.58 192.792 1348.5 194.875C1346.42 196.875 1343.96 198.5 1341.12 199.75C1338.38 200.917 1335.42 201.5 1332.25 201.5C1329.08 201.5 1326.08 200.917 1323.25 199.75C1320.5 198.5 1318.08 196.875 1316 194.875C1314 192.792 1312.38 190.375 1311.12 187.625C1309.96 184.875 1309.38 181.917 1309.38 178.75C1309.38 175.667 1309.96 172.75 1311.12 170C1312.38 167.167 1314 164.75 1316 162.75C1318.08 160.667 1320.5 159.042 1323.25 157.875C1326.08 156.625 1329.08 156 1332.25 156C1335.42 156 1338.38 156.625 1341.12 157.875C1343.96 159.042 1346.42 160.667 1348.5 162.75C1350.58 164.75 1352.21 167.167 1353.38 170C1354.62 172.75 1355.25 175.667 1355.25 178.75ZM1349.38 349H1315V215.125H1349.38V349ZM1509.5 280.875C1509.5 291.375 1507.71 300.958 1504.12 309.625C1500.54 318.292 1495.67 325.75 1489.5 332C1483.33 338.167 1476.08 342.958 1467.75 346.375C1459.5 349.792 1450.62 351.5 1441.12 351.5C1431.71 351.5 1422.83 349.75 1414.5 346.25C1406.25 342.75 1399 337.875 1392.75 331.625C1386.58 325.375 1381.71 317.958 1378.12 309.375C1374.54 300.708 1372.75 291.208 1372.75 280.875V161.875H1407V224.375C1408.83 222.042 1411.04 219.958 1413.62 218.125C1416.29 216.292 1419.12 214.792 1422.12 213.625C1425.21 212.458 1428.38 211.583 1431.62 211C1434.88 210.333 1438.04 210 1441.12 210C1450.62 210 1459.5 211.792 1467.75 215.375C1476.08 218.875 1483.33 223.792 1489.5 230.125C1495.67 236.458 1500.54 243.958 1504.12 252.625C1507.71 261.208 1509.5 270.625 1509.5 280.875ZM1475.12 280.875C1475.12 275.708 1474.21 270.917 1472.38 266.5C1470.62 262 1468.21 258.125 1465.12 254.875C1462.04 251.625 1458.42 249.083 1454.25 247.25C1450.17 245.417 1445.79 244.5 1441.12 244.5C1436.46 244.5 1432.04 245.542 1427.88 247.625C1423.79 249.625 1420.21 252.333 1417.12 255.75C1414.04 259.083 1411.62 262.958 1409.88 267.375C1408.12 271.708 1407.25 276.208 1407.25 280.875C1407.25 286.042 1408.12 290.833 1409.88 295.25C1411.62 299.667 1414.04 303.5 1417.12 306.75C1420.21 310 1423.79 312.583 1427.88 314.5C1432.04 316.333 1436.46 317.25 1441.12 317.25C1445.79 317.25 1450.17 316.333 1454.25 314.5C1458.42 312.583 1462.04 310 1465.12 306.75C1468.21 303.5 1470.62 299.667 1472.38 295.25C1474.21 290.833 1475.12 286.042 1475.12 280.875ZM1626.88 333.375C1624.12 335.875 1621.17 338.25 1618 340.5C1614.92 342.667 1611.67 344.583 1608.25 346.25C1604.83 347.833 1601.29 349.083 1597.62 350C1594.04 351 1590.38 351.5 1586.62 351.5C1578.38 351.5 1570.62 350.042 1563.38 347.125C1556.12 344.208 1549.75 340.083 1544.25 334.75C1538.83 329.333 1534.54 322.792 1531.38 315.125C1528.29 307.375 1526.75 298.708 1526.75 289.125V215.125H1560.75V289.125C1560.75 293.625 1561.42 297.667 1562.75 301.25C1564.17 304.75 1566.04 307.708 1568.38 310.125C1570.71 312.542 1573.42 314.375 1576.5 315.625C1579.67 316.875 1583.04 317.5 1586.62 317.5C1590.12 317.5 1593.42 316.708 1596.5 315.125C1599.67 313.458 1602.42 311.292 1604.75 308.625C1607.08 305.958 1608.92 302.958 1610.25 299.625C1611.58 296.208 1612.25 292.708 1612.25 289.125V215.125H1646.38V349H1638.12L1626.88 333.375ZM1739.62 349C1731.38 349 1723.62 347.458 1716.38 344.375C1709.12 341.208 1702.75 336.917 1697.25 331.5C1691.83 326 1687.54 319.625 1684.38 312.375C1681.29 305.125 1679.75 297.375 1679.75 289.125V249.375H1663.12V215.375H1679.75V161.875H1713.75V215.375H1765.5V249.375H1713.75V289.125C1713.75 292.708 1714.42 296.083 1715.75 299.25C1717.08 302.333 1718.92 305.042 1721.25 307.375C1723.58 309.708 1726.33 311.583 1729.5 313C1732.67 314.333 1736.04 315 1739.62 315H1765.5V349H1739.62ZM1825 178.75C1825 181.917 1824.38 184.875 1823.12 187.625C1821.96 190.375 1820.33 192.792 1818.25 194.875C1816.17 196.875 1813.71 198.5 1810.88 199.75C1808.12 200.917 1805.17 201.5 1802 201.5C1798.83 201.5 1795.83 200.917 1793 199.75C1790.25 198.5 1787.83 196.875 1785.75 194.875C1783.75 192.792 1782.12 190.375 1780.88 187.625C1779.71 184.875 1779.12 181.917 1779.12 178.75C1779.12 175.667 1779.71 172.75 1780.88 170C1782.12 167.167 1783.75 164.75 1785.75 162.75C1787.83 160.667 1790.25 159.042 1793 157.875C1795.83 156.625 1798.83 156 1802 156C1805.17 156 1808.12 156.625 1810.88 157.875C1813.71 159.042 1816.17 160.667 1818.25 162.75C1820.33 164.75 1821.96 167.167 1823.12 170C1824.38 172.75 1825 175.667 1825 178.75ZM1819.12 349H1784.75V215.125H1819.12V349ZM1879.38 349H1845.25V215.125H1853.5L1864.75 228.125C1870.25 223.125 1876.46 219.292 1883.38 216.625C1890.38 213.875 1897.67 212.5 1905.25 212.5C1913.42 212.5 1921.12 214.083 1928.38 217.25C1935.62 220.333 1941.96 224.625 1947.38 230.125C1952.79 235.542 1957.04 241.917 1960.12 249.25C1963.29 256.5 1964.88 264.25 1964.88 272.5V349H1930.75V272.5C1930.75 269 1930.08 265.708 1928.75 262.625C1927.42 259.458 1925.58 256.708 1923.25 254.375C1920.92 252.042 1918.21 250.208 1915.12 248.875C1912.04 247.542 1908.75 246.875 1905.25 246.875C1901.67 246.875 1898.29 247.542 1895.12 248.875C1891.96 250.208 1889.21 252.042 1886.88 254.375C1884.54 256.708 1882.71 259.458 1881.38 262.625C1880.04 265.708 1879.38 269 1879.38 272.5V349ZM2084.5 280.875C2084.5 276.208 2083.58 271.708 2081.75 267.375C2080 262.958 2077.58 259.083 2074.5 255.75C2071.42 252.333 2067.79 249.625 2063.62 247.625C2059.54 245.542 2055.17 244.5 2050.5 244.5C2045.83 244.5 2041.42 245.292 2037.25 246.875C2033.17 248.458 2029.58 250.792 2026.5 253.875C2023.5 256.958 2021.12 260.792 2019.38 265.375C2017.62 269.875 2016.75 275.042 2016.75 280.875C2016.75 286.458 2017.62 291.5 2019.38 296C2021.12 300.417 2023.5 304.208 2026.5 307.375C2029.58 310.542 2033.17 313 2037.25 314.75C2041.42 316.417 2045.83 317.25 2050.5 317.25C2055.17 317.25 2059.54 316.25 2063.62 314.25C2067.79 312.167 2071.42 309.458 2074.5 306.125C2077.58 302.708 2080 298.833 2081.75 294.5C2083.58 290.083 2084.5 285.542 2084.5 280.875ZM2118.88 332.125C2118.88 341.542 2117.08 350.375 2113.5 358.625C2109.92 366.875 2105 374.083 2098.75 380.25C2092.58 386.417 2085.33 391.292 2077 394.875C2068.75 398.458 2059.92 400.25 2050.5 400.25L2033.38 400V365.875L2050.25 366.125C2055.58 366.125 2060.12 365.417 2063.88 364C2067.62 362.667 2070.79 360.792 2073.38 358.375C2075.96 356.042 2078 353.333 2079.5 350.25C2081.08 347.167 2082.33 343.917 2083.25 340.5C2081.92 342.667 2080 344.458 2077.5 345.875C2075 347.208 2072.21 348.292 2069.12 349.125C2066.12 350.042 2062.96 350.667 2059.62 351C2056.38 351.333 2053.33 351.5 2050.5 351.5C2041.08 351.5 2032.21 349.875 2023.88 346.625C2015.62 343.375 2008.38 338.75 2002.12 332.75C1995.96 326.667 1991.08 319.25 1987.5 310.5C1983.92 301.75 1982.12 291.875 1982.12 280.875C1982.12 270.792 1983.92 261.417 1987.5 252.75C1991.08 244.083 1995.96 236.583 2002.12 230.25C2008.38 223.917 2015.62 218.958 2023.88 215.375C2032.21 211.792 2041.08 210 2050.5 210C2054.83 210 2059.12 210.542 2063.38 211.625C2067.62 212.708 2071.75 214.208 2075.75 216.125C2079.75 218.042 2083.54 220.292 2087.12 222.875C2090.79 225.458 2094.21 228.25 2097.38 231.25L2110.62 215.375H2118.88V332.125Z" fill="#A6E3A1"/>
<path d="M793.75 330.625L798.966 336.69C801.934 334.138 802.619 329.813 800.586 326.469L793.75 330.625ZM765.75 347.125L762.968 339.624L765.75 347.125ZM709 349.5L711.187 341.805C711.169 341.8 711.151 341.795 711.133 341.79L709 349.5ZM686.875 340.25L682.771 347.117C682.804 347.137 682.837 347.156 682.87 347.175L686.875 340.25ZM653.5 306.875L646.575 310.88C646.594 310.913 646.613 310.946 646.633 310.979L653.5 306.875ZM644.125 284.75L636.409 286.862C636.418 286.894 636.427 286.926 636.436 286.959L644.125 284.75ZM644.125 235.5L636.43 233.313C636.423 233.338 636.416 233.363 636.409 233.388L644.125 235.5ZM653.5 213.375L646.611 209.308C646.606 209.316 646.601 209.325 646.596 209.334L653.5 213.375ZM686.875 180L690.916 186.904C690.925 186.899 690.934 186.894 690.942 186.889L686.875 180ZM709 170.625L711.133 178.335C711.151 178.33 711.169 178.325 711.187 178.32L709 170.625ZM765.75 173L762.968 180.501C762.985 180.507 763.003 180.514 763.021 180.52L765.75 173ZM793.75 189.5L800.586 193.656C802.61 190.326 801.941 186.022 799.001 183.464L793.75 189.5ZM774.75 220.75L768.882 226.187C770.587 228.027 773.056 228.961 775.553 228.71C778.049 228.458 780.282 227.05 781.586 224.906L774.75 220.75ZM756.125 207.75L752.963 215.099C752.987 215.109 753.012 215.119 753.036 215.13L756.125 207.75ZM693.25 219.875L698.861 225.578C698.876 225.562 698.892 225.547 698.907 225.532L693.25 219.875ZM681 238L688.339 241.183C688.344 241.173 688.349 241.162 688.353 241.151L681 238ZM681 282.25L673.661 285.433C673.665 285.444 673.67 285.455 673.675 285.466L681 282.25ZM693.25 300.25L687.593 305.907L693.25 300.25ZM756.125 312.5L759.214 319.88C759.238 319.869 759.263 319.859 759.287 319.849L756.125 312.5ZM774.75 299.375L781.586 295.219C780.282 293.075 778.049 291.667 775.553 291.415C773.056 291.164 770.587 292.098 768.882 293.938L774.75 299.375ZM788.534 324.56C780.922 331.105 772.413 336.12 762.968 339.624L768.532 354.626C779.753 350.463 789.911 344.478 798.966 336.69L788.534 324.56ZM762.968 339.624C753.53 343.126 743.764 344.875 733.625 344.875V360.875C745.653 360.875 757.304 358.791 768.532 354.626L762.968 339.624ZM733.625 344.875C725.84 344.875 718.369 343.846 711.187 341.805L706.813 357.195C715.464 359.654 724.41 360.875 733.625 360.875V344.875ZM711.133 341.79C703.943 339.801 697.198 336.979 690.88 333.325L682.87 347.175C690.385 351.521 698.39 354.866 706.867 357.21L711.133 341.79ZM690.979 333.383C684.715 329.64 678.986 325.172 673.782 319.968L662.468 331.282C668.598 337.411 675.369 342.694 682.771 347.117L690.979 333.383ZM673.782 319.968C668.578 314.764 664.11 309.035 660.367 302.771L646.633 310.979C651.056 318.381 656.339 325.152 662.468 331.282L673.782 319.968ZM660.425 302.87C656.759 296.53 653.887 289.76 651.814 282.541L636.436 286.959C638.863 295.407 642.241 303.387 646.575 310.88L660.425 302.87ZM651.841 282.638C649.87 275.434 648.875 267.937 648.875 260.125H632.875C632.875 269.313 634.047 278.233 636.409 286.862L651.841 282.638ZM648.875 260.125C648.875 252.313 649.87 244.816 651.841 237.612L636.409 233.388C634.047 242.017 632.875 250.937 632.875 260.125H648.875ZM651.82 237.687C653.893 230.394 656.758 223.645 660.404 217.416L646.596 209.334C642.242 216.772 638.857 224.773 636.43 233.313L651.82 237.687ZM660.389 217.442C664.131 211.104 668.592 205.346 673.782 200.157L662.468 188.843C656.324 194.987 651.036 201.813 646.611 209.308L660.389 217.442ZM673.782 200.157C678.971 194.967 684.68 190.555 690.916 186.904L682.834 173.096C675.404 177.445 668.612 182.699 662.468 188.843L673.782 200.157ZM690.942 186.889C697.246 183.168 703.969 180.317 711.133 178.335L706.867 162.915C698.364 165.266 690.338 168.666 682.808 173.111L690.942 186.889ZM711.187 178.32C718.369 176.279 725.84 175.25 733.625 175.25V159.25C724.41 159.25 715.464 160.471 706.813 162.93L711.187 178.32ZM733.625 175.25C743.764 175.25 753.53 176.999 762.968 180.501L768.532 165.499C757.304 161.334 745.653 159.25 733.625 159.25V175.25ZM763.021 180.52C772.425 183.933 780.904 188.928 788.499 195.536L799.001 183.464C789.929 175.572 779.742 169.567 768.479 165.48L763.021 180.52ZM786.914 185.344L767.914 216.594L781.586 224.906L800.586 193.656L786.914 185.344ZM780.618 215.313C774.587 208.803 767.429 203.809 759.214 200.37L753.036 215.13C759.154 217.691 764.413 221.364 768.882 226.187L780.618 215.313ZM759.287 200.401C751.117 196.886 742.541 195.125 733.625 195.125V211.125C740.376 211.125 746.8 212.447 752.963 215.099L759.287 200.401ZM733.625 195.125C724.669 195.125 716.163 196.828 708.192 200.286L714.558 214.964C720.42 212.422 726.748 211.125 733.625 211.125V195.125ZM708.192 200.286C700.382 203.673 693.494 208.317 687.593 214.218L698.907 225.532C703.339 221.099 708.535 217.577 714.558 214.964L708.192 200.286ZM687.639 214.172C681.694 220.021 677.035 226.942 673.647 234.849L688.353 241.151C690.965 235.058 694.472 229.895 698.861 225.578L687.639 214.172ZM673.661 234.817C670.208 242.777 668.5 251.24 668.5 260.125H684.5C684.5 253.343 685.792 247.056 688.339 241.183L673.661 234.817ZM668.5 260.125C668.5 269.01 670.208 277.473 673.661 285.433L688.339 279.067C685.792 273.194 684.5 266.907 684.5 260.125H668.5ZM673.675 285.466C677.066 293.19 681.708 300.022 687.593 305.907L698.907 294.593C694.458 290.145 690.934 284.977 688.325 279.034L673.675 285.466ZM687.593 305.907C693.494 311.808 700.382 316.452 708.192 319.839L714.558 305.161C708.535 302.548 703.339 299.026 698.907 294.593L687.593 305.907ZM708.192 319.839C716.163 323.297 724.669 325 733.625 325V309C726.748 309 720.42 307.703 714.558 305.161L708.192 319.839ZM733.625 325C742.51 325 751.061 323.293 759.214 319.88L753.036 305.12C746.856 307.707 740.407 309 733.625 309V325ZM759.287 319.849C767.469 316.329 774.602 311.306 780.618 304.812L768.882 293.938C764.398 298.777 759.115 302.505 752.963 305.151L759.287 319.849ZM767.914 303.531L786.914 334.781L800.586 326.469L781.586 295.219L767.914 303.531ZM930.25 308.875L937.632 311.957C937.636 311.949 937.64 311.94 937.643 311.932L930.25 308.875ZM915.625 331.25L921.32 336.869C921.332 336.856 921.344 336.844 921.357 336.831L915.625 331.25ZM893.875 346.125L897.062 353.463C897.074 353.458 897.085 353.453 897.097 353.448L893.875 346.125ZM840.625 346.125L837.376 353.435C837.405 353.449 837.435 353.462 837.465 353.474L840.625 346.125ZM818.875 331.25L813.143 336.831C813.168 336.856 813.193 336.882 813.218 336.907L818.875 331.25ZM804.25 308.875L796.857 311.932C796.86 311.94 796.864 311.949 796.868 311.957L804.25 308.875ZM804.25 252.625L796.857 249.568L804.25 252.625ZM818.875 230.25L813.181 224.631L813.18 224.631L818.875 230.25ZM840.625 215.375L837.465 208.026C837.456 208.03 837.447 208.033 837.438 208.037L840.625 215.375ZM893.875 215.125L890.814 222.516C890.844 222.529 890.874 222.541 890.904 222.553L893.875 215.125ZM915.625 229.5L909.93 235.119C909.943 235.132 909.955 235.144 909.968 235.157L915.625 229.5ZM930.25 251.875L922.847 254.907C922.85 254.915 922.854 254.923 922.857 254.932L930.25 251.875ZM898.5 266L891.044 268.9C891.066 268.956 891.088 269.011 891.111 269.067L898.5 266ZM891.25 254.5L885.446 260.006C885.47 260.031 885.494 260.056 885.518 260.081L891.25 254.5ZM880.375 247.125L877.224 254.478C877.283 254.504 877.343 254.529 877.404 254.553L880.375 247.125ZM854 247.125L857.023 254.532C857.048 254.522 857.073 254.511 857.098 254.501L854 247.125ZM843.25 254.5L837.446 248.994L837.442 248.998L843.25 254.5ZM836.125 266L843.562 268.947C843.569 268.931 843.575 268.915 843.581 268.9L836.125 266ZM843.25 306.75L837.372 312.176C837.396 312.203 837.421 312.23 837.446 312.256L843.25 306.75ZM854 314.5L850.601 321.742C850.66 321.769 850.719 321.796 850.778 321.823L854 314.5ZM880.375 314.625L877.277 307.249C877.259 307.257 877.241 307.264 877.224 307.272L880.375 314.625ZM898.5 295.75L891.091 292.732C891.075 292.771 891.059 292.811 891.044 292.85L898.5 295.75ZM927.625 280.875C927.625 289.897 926.014 298.184 922.857 305.818L937.643 311.932C941.653 302.233 943.625 291.853 943.625 280.875H927.625ZM922.868 305.793C919.652 313.496 915.321 320.095 909.893 325.669L921.357 336.831C928.262 329.739 933.682 321.421 937.632 311.957L922.868 305.793ZM909.93 325.631C904.499 331.136 898.097 335.527 890.653 338.802L897.097 353.448C906.32 349.389 914.418 343.864 921.32 336.869L909.93 325.631ZM890.688 338.787C883.5 341.909 875.716 343.5 867.25 343.5V359.5C877.784 359.5 887.75 357.507 897.062 353.463L890.688 338.787ZM867.25 343.5C858.878 343.5 851.082 341.913 843.785 338.776L837.465 353.474C846.835 357.503 856.789 359.5 867.25 359.5V343.5ZM843.874 338.815C836.502 335.538 830.073 331.134 824.532 325.593L813.218 336.907C820.177 343.866 828.248 349.379 837.376 353.435L843.874 338.815ZM824.607 325.669C819.179 320.095 814.848 313.496 811.632 305.793L796.868 311.957C800.818 321.421 806.238 329.739 813.143 336.831L824.607 325.669ZM811.643 305.818C808.486 298.184 806.875 289.897 806.875 280.875H790.875C790.875 291.853 792.847 302.233 796.857 311.932L811.643 305.818ZM806.875 280.875C806.875 271.668 808.493 263.3 811.643 255.682L796.857 249.568C792.84 259.283 790.875 269.748 790.875 280.875H806.875ZM811.643 255.682C814.858 247.905 819.178 241.333 824.57 235.869L813.18 224.631C806.239 231.667 800.808 240.012 796.857 249.568L811.643 255.682ZM824.569 235.869C830.093 230.272 836.489 225.893 843.812 222.713L837.438 208.037C828.261 212.023 820.157 217.562 813.181 224.631L824.569 235.869ZM843.785 222.724C851.082 219.587 858.878 218 867.25 218V202C856.789 202 846.835 203.997 837.465 208.026L843.785 222.724ZM867.25 218C875.768 218 883.595 219.527 890.814 222.516L896.936 207.734C887.655 203.89 877.732 202 867.25 202V218ZM890.904 222.553C898.238 225.486 904.555 229.671 909.93 235.119L921.32 223.881C914.362 216.829 906.179 211.43 896.846 207.697L890.904 222.553ZM909.968 235.157C915.323 240.512 919.631 247.056 922.847 254.907L937.653 248.843C933.702 239.194 928.26 230.822 921.282 223.843L909.968 235.157ZM922.857 254.932C925.988 262.505 927.625 271.114 927.625 280.875H943.625C943.625 269.303 941.678 258.578 937.643 248.818L922.857 254.932ZM909.25 280.875C909.25 274.479 908.182 268.457 905.889 262.933L891.111 269.067C892.485 272.377 893.25 276.271 893.25 280.875H909.25ZM905.956 263.1C903.853 257.693 900.881 252.923 896.982 248.919L885.518 260.081C887.786 262.41 889.647 265.307 891.044 268.9L905.956 263.1ZM897.054 248.994C893.174 244.905 888.583 241.792 883.346 239.697L877.404 254.553C880.501 255.792 883.159 257.595 885.446 260.006L897.054 248.994ZM883.526 239.772C878.397 237.574 872.944 236.5 867.25 236.5V252.5C870.889 252.5 874.186 253.176 877.224 254.478L883.526 239.772ZM867.25 236.5C861.555 236.5 856.082 237.574 850.902 239.749L857.098 254.501C860.252 253.176 863.612 252.5 867.25 252.5V236.5ZM850.977 239.718C845.825 241.821 841.298 244.934 837.446 248.994L849.054 260.006C851.368 257.566 854.008 255.762 857.023 254.532L850.977 239.718ZM837.442 248.998C833.657 252.994 830.754 257.738 828.669 263.1L843.581 268.9C844.996 265.262 846.843 262.34 849.058 260.002L837.442 248.998ZM828.688 263.053C826.512 268.543 825.5 274.523 825.5 280.875H841.5C841.5 276.227 842.238 272.29 843.562 268.947L828.688 263.053ZM825.5 280.875C825.5 286.962 826.535 292.763 828.688 298.197L843.562 292.303C842.215 288.904 841.5 285.121 841.5 280.875H825.5ZM828.688 298.197C830.773 303.461 833.656 308.151 837.372 312.176L849.128 301.324C846.844 298.849 844.977 295.873 843.562 292.303L828.688 298.197ZM837.446 312.256C841.221 316.235 845.621 319.405 850.601 321.742L857.399 307.258C854.212 305.762 851.446 303.765 849.054 301.244L837.446 312.256ZM850.778 321.823C855.986 324.114 861.503 325.25 867.25 325.25V309.25C863.664 309.25 860.347 308.553 857.222 307.177L850.778 321.823ZM867.25 325.25C872.944 325.25 878.397 324.176 883.526 321.978L877.224 307.272C874.186 308.574 870.889 309.25 867.25 309.25V325.25ZM883.473 322.001C888.606 319.845 893.133 316.784 896.982 312.831L885.518 301.669C883.201 304.049 880.477 305.905 877.277 307.249L883.473 322.001ZM896.982 312.831C900.881 308.827 903.853 304.057 905.956 298.65L891.044 292.85C889.647 296.443 887.786 299.34 885.518 301.669L896.982 312.831ZM905.909 298.768C908.175 293.206 909.25 287.208 909.25 280.875H893.25C893.25 285.375 892.492 289.294 891.091 292.732L905.909 298.768ZM988.625 349V357C993.043 357 996.625 353.418 996.625 349H988.625ZM954.5 349H946.5C946.5 353.418 950.082 357 954.5 357V349ZM954.5 215.125V207.125C950.082 207.125 946.5 210.707 946.5 215.125H954.5ZM962.75 215.125L968.799 209.89C967.28 208.134 965.072 207.125 962.75 207.125V215.125ZM974 228.125L967.951 233.36C969.361 234.99 971.37 235.982 973.522 236.111C975.674 236.24 977.786 235.495 979.381 234.045L974 228.125ZM992.625 216.625L995.503 224.089C995.519 224.083 995.534 224.077 995.55 224.071L992.625 216.625ZM1037.62 217.25L1034.42 224.581C1034.45 224.592 1034.47 224.602 1034.49 224.612L1037.62 217.25ZM1056.62 230.125L1050.93 235.739C1050.94 235.753 1050.95 235.767 1050.97 235.782L1056.62 230.125ZM1069.38 249.25L1062 252.351C1062.01 252.385 1062.03 252.418 1062.04 252.452L1069.38 249.25ZM1074.12 349V357C1078.54 357 1082.12 353.418 1082.12 349H1074.12ZM1040 349H1032C1032 353.418 1035.58 357 1040 357V349ZM1038 262.625L1030.63 265.729C1030.64 265.753 1030.65 265.777 1030.66 265.8L1038 262.625ZM1004.38 248.875L1001.27 241.502L1004.38 248.875ZM990.625 262.625L997.968 265.8C997.978 265.777 997.988 265.753 997.998 265.729L990.625 262.625ZM988.625 341H954.5V357H988.625V341ZM962.5 349V215.125H946.5V349H962.5ZM954.5 223.125H962.75V207.125H954.5V223.125ZM956.701 220.36L967.951 233.36L980.049 222.89L968.799 209.89L956.701 220.36ZM979.381 234.045C984.152 229.708 989.512 226.399 995.503 224.089L989.747 209.161C981.905 212.184 974.848 216.542 968.619 222.205L979.381 234.045ZM995.55 224.071C1001.61 221.69 1007.91 220.5 1014.5 220.5V204.5C1005.92 204.5 997.64 206.06 989.7 209.179L995.55 224.071ZM1014.5 220.5C1021.6 220.5 1028.22 221.87 1034.42 224.581L1040.83 209.919C1032.53 206.297 1023.73 204.5 1014.5 204.5V220.5ZM1034.49 224.612C1040.8 227.295 1046.26 230.999 1050.93 235.739L1062.32 224.511C1056.16 218.251 1048.95 213.372 1040.76 209.888L1034.49 224.612ZM1050.97 235.782C1055.62 240.438 1059.3 245.935 1062 252.351L1076.75 246.149C1073.28 237.898 1068.46 230.646 1062.28 224.468L1050.97 235.782ZM1062.04 252.452C1064.75 258.649 1066.12 265.304 1066.12 272.5H1082.12C1082.12 263.196 1080.33 254.351 1076.71 246.048L1062.04 252.452ZM1066.12 272.5V349H1082.12V272.5H1066.12ZM1074.12 341H1040V357H1074.12V341ZM1048 349V272.5H1032V349H1048ZM1048 272.5C1048 267.955 1047.13 263.578 1045.34 259.45L1030.66 265.8C1031.54 267.839 1032 270.045 1032 272.5H1048ZM1045.37 259.521C1043.66 255.44 1041.25 251.813 1038.16 248.718L1026.84 260.032C1028.41 261.603 1029.68 263.477 1030.63 265.729L1045.37 259.521ZM1038.16 248.718C1035.1 245.658 1031.54 243.259 1027.55 241.532L1021.2 256.218C1023.37 257.158 1025.24 258.425 1026.84 260.032L1038.16 248.718ZM1027.55 241.532C1023.42 239.747 1019.05 238.875 1014.5 238.875V254.875C1016.95 254.875 1019.16 255.336 1021.2 256.218L1027.55 241.532ZM1014.5 238.875C1009.9 238.875 1005.46 239.737 1001.27 241.502L1007.48 256.248C1009.62 255.346 1011.94 254.875 1014.5 254.875V238.875ZM1001.27 241.502C997.19 243.22 993.563 245.623 990.468 248.718L1001.78 260.032C1003.35 258.46 1005.23 257.197 1007.48 256.248L1001.27 241.502ZM990.468 248.718C987.373 251.813 984.97 255.44 983.252 259.521L997.998 265.729C998.947 263.477 1000.21 261.603 1001.78 260.032L990.468 248.718ZM983.282 259.45C981.497 263.578 980.625 267.955 980.625 272.5H996.625C996.625 270.045 997.086 267.839 997.968 265.8L983.282 259.45ZM980.625 272.5V349H996.625V272.5H980.625ZM1140.62 344.375L1137.42 351.706C1137.45 351.717 1137.47 351.727 1137.49 351.737L1140.62 344.375ZM1121.5 331.5L1115.8 337.114C1115.83 337.143 1115.86 337.171 1115.89 337.2L1121.5 331.5ZM1108.62 312.375L1101.26 315.506C1101.27 315.53 1101.28 315.553 1101.29 315.577L1108.62 312.375ZM1104 249.375H1112C1112 244.957 1108.42 241.375 1104 241.375V249.375ZM1087.38 249.375H1079.38C1079.38 253.793 1082.96 257.375 1087.38 257.375V249.375ZM1087.38 215.375V207.375C1082.96 207.375 1079.38 210.957 1079.38 215.375H1087.38ZM1104 215.375V223.375C1108.42 223.375 1112 219.793 1112 215.375H1104ZM1104 161.875V153.875C1099.58 153.875 1096 157.457 1096 161.875H1104ZM1138 161.875H1146C1146 157.457 1142.42 153.875 1138 153.875V161.875ZM1138 215.375H1130C1130 219.793 1133.58 223.375 1138 223.375V215.375ZM1189.75 215.375H1197.75C1197.75 210.957 1194.17 207.375 1189.75 207.375V215.375ZM1189.75 249.375V257.375C1194.17 257.375 1197.75 253.793 1197.75 249.375H1189.75ZM1138 249.375V241.375C1133.58 241.375 1130 244.957 1130 249.375H1138ZM1140 299.25L1132.63 302.354C1132.64 302.378 1132.65 302.402 1132.66 302.425L1140 299.25ZM1145.5 307.375L1151.16 301.718L1145.5 307.375ZM1153.75 313L1150.48 320.303C1150.54 320.327 1150.59 320.35 1150.65 320.373L1153.75 313ZM1189.75 315H1197.75C1197.75 310.582 1194.17 307 1189.75 307V315ZM1189.75 349V357C1194.17 357 1197.75 353.418 1197.75 349H1189.75ZM1163.88 341C1156.65 341 1149.97 339.656 1143.76 337.013L1137.49 351.737C1145.78 355.261 1154.6 357 1163.88 357V341ZM1143.83 337.044C1137.45 334.259 1131.9 330.513 1127.11 325.8L1115.89 337.2C1122.1 343.32 1129.3 348.158 1137.42 351.706L1143.83 337.044ZM1127.2 325.886C1122.49 321.101 1118.74 315.549 1115.96 309.173L1101.29 315.577C1104.84 323.701 1109.68 330.899 1115.8 337.114L1127.2 325.886ZM1115.99 309.244C1113.34 303.031 1112 296.351 1112 289.125H1096C1096 298.399 1097.74 307.219 1101.26 315.506L1115.99 309.244ZM1112 289.125V249.375H1096V289.125H1112ZM1104 241.375H1087.38V257.375H1104V241.375ZM1095.38 249.375V215.375H1079.38V249.375H1095.38ZM1087.38 223.375H1104V207.375H1087.38V223.375ZM1112 215.375V161.875H1096V215.375H1112ZM1104 169.875H1138V153.875H1104V169.875ZM1130 161.875V215.375H1146V161.875H1130ZM1138 223.375H1189.75V207.375H1138V223.375ZM1181.75 215.375V249.375H1197.75V215.375H1181.75ZM1189.75 241.375H1138V257.375H1189.75V241.375ZM1130 249.375V289.125H1146V249.375H1130ZM1130 289.125C1130 293.728 1130.86 298.163 1132.63 302.354L1147.37 296.146C1146.47 294.004 1146 291.689 1146 289.125H1130ZM1132.66 302.425C1134.38 306.418 1136.78 309.972 1139.84 313.032L1151.16 301.718C1149.55 300.111 1148.28 298.249 1147.34 296.075L1132.66 302.425ZM1139.84 313.032C1142.9 316.09 1146.47 318.508 1150.48 320.303L1157.02 305.697C1154.69 304.658 1152.77 303.327 1151.16 301.718L1139.84 313.032ZM1150.65 320.373C1154.84 322.138 1159.27 323 1163.88 323V307C1161.31 307 1159 306.529 1156.85 305.627L1150.65 320.373ZM1163.88 323H1189.75V307H1163.88V323ZM1181.75 315V349H1197.75V315H1181.75ZM1189.75 341H1163.88V357H1189.75V341ZM1243.12 349V357C1247.54 357 1251.12 353.418 1251.12 349H1243.12ZM1209 349H1201C1201 353.418 1204.58 357 1209 357V349ZM1209 215.125V207.125C1204.58 207.125 1201 210.707 1201 215.125H1209ZM1217.25 215.125L1223.78 210.499C1222.28 208.383 1219.84 207.125 1217.25 207.125V215.125ZM1228.5 231L1221.97 235.626C1223.3 237.494 1225.36 238.706 1227.64 238.953C1229.91 239.201 1232.19 238.46 1233.88 236.92L1228.5 231ZM1247.25 219.5L1250.1 226.976C1250.12 226.966 1250.15 226.956 1250.18 226.946L1247.25 219.5ZM1299.12 215.375H1307.12C1307.12 210.957 1303.54 207.375 1299.12 207.375V215.375ZM1299.12 249.375V257.375C1303.54 257.375 1307.12 253.793 1307.12 249.375H1299.12ZM1258.88 251.375L1255.77 244.002L1258.88 251.375ZM1243.12 341H1209V357H1243.12V341ZM1217 349V215.125H1201V349H1217ZM1209 223.125H1217.25V207.125H1209V223.125ZM1210.72 219.751L1221.97 235.626L1235.03 226.374L1223.78 210.499L1210.72 219.751ZM1233.88 236.92C1238.64 232.597 1244.02 229.289 1250.1 226.976L1244.4 212.024C1236.48 215.044 1229.36 219.403 1223.12 225.08L1233.88 236.92ZM1250.18 226.946C1256.25 224.561 1262.5 223.375 1269 223.375V207.375C1260.5 207.375 1252.25 208.939 1244.32 212.054L1250.18 226.946ZM1269 223.375H1299.12V207.375H1269V223.375ZM1291.12 215.375V249.375H1307.12V215.375H1291.12ZM1299.12 241.375H1269V257.375H1299.12V241.375ZM1269 241.375C1264.4 241.375 1259.96 242.237 1255.77 244.002L1261.98 258.748C1264.12 257.846 1266.44 257.375 1269 257.375V241.375ZM1255.77 244.002C1251.69 245.72 1248.06 248.123 1244.97 251.218L1256.28 262.532C1257.85 260.96 1259.73 259.697 1261.98 258.748L1255.77 244.002ZM1244.97 251.218C1241.87 254.313 1239.47 257.94 1237.75 262.021L1252.5 268.229C1253.45 265.977 1254.71 264.103 1256.28 262.532L1244.97 251.218ZM1237.75 262.021C1235.99 266.212 1235.12 270.647 1235.12 275.25H1251.12C1251.12 272.686 1251.6 270.371 1252.5 268.229L1237.75 262.021ZM1235.12 275.25V349H1251.12V275.25H1235.12ZM1353.38 187.625L1346.09 184.315C1346.06 184.376 1346.04 184.438 1346.01 184.501L1353.38 187.625ZM1348.5 194.875L1354.04 200.646C1354.08 200.608 1354.12 200.57 1354.16 200.532L1348.5 194.875ZM1341.12 199.75L1344.25 207.115C1344.28 207.1 1344.32 207.085 1344.35 207.069L1341.12 199.75ZM1323.25 199.75L1319.94 207.033C1320.03 207.073 1320.12 207.111 1320.2 207.147L1323.25 199.75ZM1316 194.875L1310.23 200.415C1310.3 200.494 1310.38 200.571 1310.46 200.646L1316 194.875ZM1311.12 187.625L1303.76 190.749C1303.79 190.812 1303.81 190.874 1303.84 190.935L1311.12 187.625ZM1311.12 170L1303.81 166.771C1303.79 166.806 1303.78 166.841 1303.76 166.876L1311.12 170ZM1316 162.75L1321.66 168.407L1316 162.75ZM1323.25 157.875L1326.37 165.24C1326.41 165.225 1326.44 165.21 1326.48 165.194L1323.25 157.875ZM1341.12 157.875L1337.81 165.158C1337.9 165.198 1337.99 165.236 1338.08 165.272L1341.12 157.875ZM1348.5 162.75L1342.84 168.407C1342.88 168.445 1342.92 168.483 1342.96 168.521L1348.5 162.75ZM1353.38 170L1345.98 173.046C1346.01 173.135 1346.05 173.223 1346.09 173.31L1353.38 170ZM1349.38 349V357C1353.79 357 1357.38 353.418 1357.38 349H1349.38ZM1315 349H1307C1307 353.418 1310.58 357 1315 357V349ZM1315 215.125V207.125C1310.58 207.125 1307 210.707 1307 215.125H1315ZM1349.38 215.125H1357.38C1357.38 210.707 1353.79 207.125 1349.38 207.125V215.125ZM1347.25 178.75C1347.25 180.831 1346.85 182.654 1346.09 184.315L1360.66 190.935C1362.4 187.096 1363.25 183.002 1363.25 178.75H1347.25ZM1346.01 184.501C1345.24 186.318 1344.19 187.872 1342.84 189.218L1354.16 200.532C1356.98 197.712 1359.18 194.432 1360.74 190.749L1346.01 184.501ZM1342.96 189.104C1341.6 190.411 1339.94 191.53 1337.9 192.431L1344.35 207.069C1347.98 205.47 1351.24 203.339 1354.04 200.646L1342.96 189.104ZM1338 192.385C1336.3 193.108 1334.41 193.5 1332.25 193.5V209.5C1336.42 209.5 1340.45 208.725 1344.25 207.115L1338 192.385ZM1332.25 193.5C1330.09 193.5 1328.13 193.108 1326.3 192.353L1320.2 207.147C1324.04 208.725 1328.07 209.5 1332.25 209.5V193.5ZM1326.56 192.467C1324.6 191.574 1322.94 190.449 1321.54 189.104L1310.46 200.646C1313.23 203.301 1316.4 205.426 1319.94 207.033L1326.56 192.467ZM1321.77 189.335C1320.43 187.934 1319.3 186.279 1318.41 184.315L1303.84 190.935C1305.45 194.471 1307.57 197.65 1310.23 200.415L1321.77 189.335ZM1318.49 184.501C1317.77 182.797 1317.38 180.909 1317.38 178.75H1301.38C1301.38 182.925 1302.15 186.953 1303.76 190.749L1318.49 184.501ZM1317.38 178.75C1317.38 176.705 1317.76 174.854 1318.49 173.124L1303.76 166.876C1302.16 170.646 1301.38 174.628 1301.38 178.75H1317.38ZM1318.44 173.229C1319.33 171.215 1320.42 169.644 1321.66 168.407L1310.34 157.093C1307.58 159.856 1305.42 163.119 1303.81 166.771L1318.44 173.229ZM1321.66 168.407C1323 167.06 1324.56 166.011 1326.37 165.24L1320.13 150.51C1316.44 152.073 1313.16 154.273 1310.34 157.093L1321.66 168.407ZM1326.48 165.194C1328.27 164.403 1330.17 164 1332.25 164V148C1328 148 1323.89 148.847 1320.02 150.556L1326.48 165.194ZM1332.25 164C1334.33 164 1336.15 164.403 1337.81 165.158L1344.44 150.592C1340.6 148.847 1336.5 148 1332.25 148V164ZM1338.08 165.272C1339.98 166.053 1341.54 167.1 1342.84 168.407L1354.16 157.093C1351.3 154.233 1347.94 152.03 1344.17 150.478L1338.08 165.272ZM1342.96 168.521C1344.19 169.705 1345.21 171.176 1345.98 173.046L1360.77 166.954C1359.21 163.157 1356.97 159.795 1354.04 156.979L1342.96 168.521ZM1346.09 173.31C1346.86 174.999 1347.25 176.784 1347.25 178.75H1363.25C1363.25 174.549 1362.39 170.501 1360.66 166.69L1346.09 173.31ZM1349.38 341H1315V357H1349.38V341ZM1323 349V215.125H1307V349H1323ZM1315 223.125H1349.38V207.125H1315V223.125ZM1341.38 215.125V349H1357.38V215.125H1341.38ZM1504.12 309.625L1496.73 306.568L1504.12 309.625ZM1489.5 332L1495.16 337.657C1495.17 337.644 1495.18 337.632 1495.19 337.619L1489.5 332ZM1467.75 346.375L1464.72 338.973C1464.71 338.977 1464.7 338.98 1464.69 338.984L1467.75 346.375ZM1414.5 346.25L1411.38 353.615C1411.38 353.618 1411.39 353.622 1411.4 353.626L1414.5 346.25ZM1392.75 331.625L1387.06 337.244C1387.07 337.257 1387.08 337.269 1387.09 337.282L1392.75 331.625ZM1378.12 309.375L1370.73 312.432C1370.74 312.44 1370.74 312.449 1370.74 312.457L1378.12 309.375ZM1372.75 161.875V153.875C1368.33 153.875 1364.75 157.457 1364.75 161.875H1372.75ZM1407 161.875H1415C1415 157.457 1411.42 153.875 1407 153.875V161.875ZM1407 224.375H1399C1399 227.785 1401.16 230.821 1404.39 231.936C1407.61 233.05 1411.18 231.999 1413.29 229.318L1407 224.375ZM1413.62 218.125L1409.09 211.533C1409.06 211.555 1409.03 211.578 1409 211.601L1413.62 218.125ZM1422.12 213.625L1419.29 206.143C1419.27 206.151 1419.25 206.16 1419.23 206.169L1422.12 213.625ZM1431.62 211L1433.04 218.874C1433.1 218.863 1433.17 218.85 1433.23 218.837L1431.62 211ZM1467.75 215.375L1464.56 222.713C1464.59 222.726 1464.62 222.738 1464.65 222.751L1467.75 215.375ZM1489.5 230.125L1495.23 224.544L1489.5 230.125ZM1504.12 252.625L1496.73 255.682C1496.74 255.69 1496.74 255.699 1496.74 255.707L1504.12 252.625ZM1472.38 266.5L1464.92 269.4C1464.94 269.456 1464.96 269.511 1464.99 269.567L1472.38 266.5ZM1454.25 247.25L1450.97 254.548C1450.99 254.556 1451.01 254.564 1451.03 254.573L1454.25 247.25ZM1427.88 247.625L1431.39 254.81C1431.41 254.8 1431.43 254.79 1431.45 254.78L1427.88 247.625ZM1417.12 255.75L1423 261.182C1423.02 261.158 1423.04 261.134 1423.06 261.11L1417.12 255.75ZM1409.88 267.375L1417.29 270.371C1417.3 270.354 1417.31 270.338 1417.31 270.322L1409.88 267.375ZM1427.88 314.5L1424.48 321.742C1424.53 321.769 1424.59 321.796 1424.65 321.823L1427.88 314.5ZM1454.25 314.5L1457.53 321.798C1457.55 321.788 1457.57 321.778 1457.59 321.768L1454.25 314.5ZM1472.38 295.25L1464.99 292.183C1464.97 292.223 1464.95 292.263 1464.94 292.303L1472.38 295.25ZM1501.5 280.875C1501.5 290.451 1499.87 298.98 1496.73 306.568L1511.52 312.682C1515.55 302.936 1517.5 292.299 1517.5 280.875H1501.5ZM1496.73 306.568C1493.52 314.345 1489.2 320.917 1483.81 326.381L1495.19 337.619C1502.14 330.583 1507.57 322.238 1511.52 312.682L1496.73 306.568ZM1483.84 326.343C1478.45 331.735 1472.1 335.945 1464.72 338.973L1470.78 353.777C1480.07 349.972 1488.22 344.598 1495.16 337.657L1483.84 326.343ZM1464.69 338.984C1457.47 341.973 1449.64 343.5 1441.12 343.5V359.5C1451.61 359.5 1461.53 357.61 1470.81 353.766L1464.69 338.984ZM1441.12 343.5C1432.73 343.5 1424.91 341.945 1417.6 338.874L1411.4 353.626C1420.76 357.555 1430.69 359.5 1441.12 359.5V343.5ZM1417.62 338.885C1410.31 335.781 1403.92 331.481 1398.41 325.968L1387.09 337.282C1394.08 344.269 1402.19 349.719 1411.38 353.615L1417.62 338.885ZM1398.44 326.006C1393.04 320.529 1388.72 313.987 1385.51 306.293L1370.74 312.457C1374.7 321.929 1380.13 330.221 1387.06 337.244L1398.44 326.006ZM1385.52 306.318C1382.37 298.715 1380.75 290.267 1380.75 280.875H1364.75C1364.75 292.15 1366.71 302.701 1370.73 312.432L1385.52 306.318ZM1380.75 280.875V161.875H1364.75V280.875H1380.75ZM1372.75 169.875H1407V153.875H1372.75V169.875ZM1399 161.875V224.375H1415V161.875H1399ZM1413.29 229.318C1414.62 227.628 1416.26 226.068 1418.25 224.649L1409 211.601C1405.83 213.849 1403.05 216.456 1400.71 219.432L1413.29 229.318ZM1418.16 224.717C1420.32 223.232 1422.6 222.023 1425.02 221.081L1419.23 206.169C1415.65 207.561 1412.27 209.351 1409.09 211.533L1418.16 224.717ZM1424.96 221.107C1427.58 220.115 1430.27 219.371 1433.04 218.874L1430.21 203.126C1426.48 203.796 1422.84 204.802 1419.29 206.143L1424.96 221.107ZM1433.23 218.837C1435.99 218.271 1438.62 218 1441.12 218V202C1437.46 202 1433.76 202.396 1430.02 203.163L1433.23 218.837ZM1441.12 218C1449.59 218 1457.37 219.591 1464.56 222.713L1470.94 208.037C1461.63 203.993 1451.66 202 1441.12 202V218ZM1464.65 222.751C1472.02 225.845 1478.37 230.159 1483.77 235.706L1495.23 224.544C1488.3 217.424 1480.15 211.905 1470.85 207.999L1464.65 222.751ZM1483.77 235.706C1489.18 241.267 1493.51 247.896 1496.73 255.682L1511.52 249.568C1507.57 240.02 1502.15 231.649 1495.23 224.544L1483.77 235.706ZM1496.74 255.707C1499.88 263.219 1501.5 271.575 1501.5 280.875H1517.5C1517.5 269.675 1515.54 259.198 1511.51 249.543L1496.74 255.707ZM1483.12 280.875C1483.12 274.741 1482.03 268.898 1479.76 263.433L1464.99 269.567C1466.38 272.936 1467.12 276.676 1467.12 280.875H1483.12ZM1479.83 263.6C1477.73 258.209 1474.78 253.429 1470.93 249.369L1459.32 260.381C1461.64 262.821 1463.52 265.791 1464.92 269.4L1479.83 263.6ZM1470.93 249.369C1467.1 245.335 1462.6 242.182 1457.47 239.927L1451.03 254.573C1454.24 255.985 1456.98 257.915 1459.32 260.381L1470.93 249.369ZM1457.53 239.952C1452.37 237.636 1446.87 236.5 1441.12 236.5V252.5C1444.71 252.5 1447.96 253.197 1450.97 254.548L1457.53 239.952ZM1441.12 236.5C1435.22 236.5 1429.58 237.83 1424.3 240.47L1431.45 254.78C1434.51 253.254 1437.7 252.5 1441.12 252.5V236.5ZM1424.36 240.44C1419.35 242.895 1414.94 246.226 1411.19 250.39L1423.06 261.11C1425.47 258.441 1428.24 256.355 1431.39 254.81L1424.36 240.44ZM1411.25 250.318C1407.47 254.409 1404.53 259.137 1402.44 264.428L1417.31 270.322C1418.72 266.78 1420.62 263.758 1423 261.182L1411.25 250.318ZM1402.46 264.379C1400.32 269.663 1399.25 275.18 1399.25 280.875H1415.25C1415.25 277.237 1415.93 273.753 1417.29 270.371L1402.46 264.379ZM1399.25 280.875C1399.25 286.962 1400.28 292.763 1402.44 298.197L1417.31 292.303C1415.97 288.904 1415.25 285.121 1415.25 280.875H1399.25ZM1402.44 298.197C1404.54 303.505 1407.49 308.221 1411.32 312.256L1422.93 301.244C1420.59 298.779 1418.71 295.828 1417.31 292.303L1402.44 298.197ZM1411.32 312.256C1415.1 316.235 1419.5 319.405 1424.48 321.742L1431.27 307.258C1428.09 305.762 1425.32 303.765 1422.93 301.244L1411.32 312.256ZM1424.65 321.823C1429.86 324.114 1435.38 325.25 1441.12 325.25V309.25C1437.54 309.25 1434.22 308.553 1431.1 307.177L1424.65 321.823ZM1441.12 325.25C1446.87 325.25 1452.37 324.114 1457.53 321.798L1450.97 307.202C1447.96 308.553 1444.71 309.25 1441.12 309.25V325.25ZM1457.59 321.768C1462.66 319.436 1467.13 316.262 1470.93 312.256L1459.32 301.244C1456.96 303.738 1454.17 305.73 1450.91 307.232L1457.59 321.768ZM1470.93 312.256C1474.76 308.221 1477.71 303.505 1479.81 298.197L1464.94 292.303C1463.54 295.828 1461.66 298.779 1459.32 301.244L1470.93 312.256ZM1479.76 298.317C1482.03 292.852 1483.12 287.009 1483.12 280.875H1467.12C1467.12 285.074 1466.38 288.814 1464.99 292.183L1479.76 298.317ZM1626.88 333.375L1633.37 328.701C1632.04 326.85 1629.98 325.656 1627.71 325.419C1625.44 325.181 1623.18 325.922 1621.49 327.455L1626.88 333.375ZM1618 340.5L1622.6 347.046C1622.61 347.038 1622.62 347.03 1622.63 347.021L1618 340.5ZM1608.25 346.25L1611.61 353.508C1611.66 353.486 1611.71 353.463 1611.76 353.44L1608.25 346.25ZM1597.62 350L1595.68 342.239C1595.61 342.256 1595.54 342.275 1595.47 342.294L1597.62 350ZM1544.25 334.75L1538.59 340.407C1538.62 340.436 1538.65 340.465 1538.68 340.493L1544.25 334.75ZM1531.38 315.125L1523.94 318.082C1523.95 318.115 1523.97 318.147 1523.98 318.179L1531.38 315.125ZM1526.75 215.125V207.125C1522.33 207.125 1518.75 210.707 1518.75 215.125H1526.75ZM1560.75 215.125H1568.75C1568.75 210.707 1565.17 207.125 1560.75 207.125V215.125ZM1562.75 301.25L1555.25 304.04C1555.28 304.111 1555.31 304.181 1555.33 304.252L1562.75 301.25ZM1576.5 315.625L1573.49 323.039C1573.52 323.048 1573.54 323.057 1573.56 323.066L1576.5 315.625ZM1596.5 315.125L1600.15 322.242C1600.18 322.229 1600.2 322.217 1600.23 322.204L1596.5 315.125ZM1610.25 299.625L1617.68 302.596C1617.69 302.575 1617.69 302.554 1617.7 302.533L1610.25 299.625ZM1612.25 215.125V207.125C1607.83 207.125 1604.25 210.707 1604.25 215.125H1612.25ZM1646.38 215.125H1654.38C1654.38 210.707 1650.79 207.125 1646.38 207.125V215.125ZM1646.38 349V357C1650.79 357 1654.38 353.418 1654.38 349H1646.38ZM1638.12 349L1631.63 353.674C1633.14 355.762 1635.55 357 1638.12 357V349ZM1621.49 327.455C1618.99 329.731 1616.28 331.906 1613.37 333.979L1622.63 347.021C1626.05 344.594 1629.26 342.019 1632.26 339.295L1621.49 327.455ZM1613.4 333.954C1610.67 335.876 1607.78 337.577 1604.74 339.06L1611.76 353.44C1615.55 351.589 1619.17 349.458 1622.6 347.046L1613.4 333.954ZM1604.89 338.992C1601.93 340.362 1598.86 341.444 1595.68 342.239L1599.57 357.761C1603.72 356.723 1607.74 355.305 1611.61 353.508L1604.89 338.992ZM1595.47 342.294C1592.6 343.097 1589.65 343.5 1586.62 343.5V359.5C1591.1 359.5 1595.49 358.903 1599.78 357.706L1595.47 342.294ZM1586.62 343.5C1579.34 343.5 1572.61 342.217 1566.36 339.703L1560.39 354.547C1568.64 357.866 1577.41 359.5 1586.62 359.5V343.5ZM1566.36 339.703C1560.05 337.165 1554.56 333.604 1549.82 329.007L1538.68 340.493C1544.94 346.563 1552.2 351.251 1560.39 354.547L1566.36 339.703ZM1549.91 329.093C1545.29 324.481 1541.57 318.845 1538.77 312.071L1523.98 318.179C1527.52 326.738 1532.37 334.186 1538.59 340.407L1549.91 329.093ZM1538.81 312.168C1536.15 305.488 1534.75 297.845 1534.75 289.125H1518.75C1518.75 299.572 1520.43 309.262 1523.94 318.082L1538.81 312.168ZM1534.75 289.125V215.125H1518.75V289.125H1534.75ZM1526.75 223.125H1560.75V207.125H1526.75V223.125ZM1552.75 215.125V289.125H1568.75V215.125H1552.75ZM1552.75 289.125C1552.75 294.412 1553.53 299.421 1555.25 304.04L1570.25 298.46C1569.3 295.912 1568.75 292.838 1568.75 289.125H1552.75ZM1555.33 304.252C1557.09 308.584 1559.49 312.442 1562.62 315.682L1574.13 304.568C1572.59 302.975 1571.25 300.916 1570.17 298.248L1555.33 304.252ZM1562.62 315.682C1565.72 318.895 1569.36 321.365 1573.49 323.039L1579.51 308.211C1577.47 307.385 1575.69 306.189 1574.13 304.568L1562.62 315.682ZM1573.56 323.066C1577.71 324.705 1582.09 325.5 1586.62 325.5V309.5C1583.99 309.5 1581.62 309.045 1579.44 308.184L1573.56 323.066ZM1586.62 325.5C1591.38 325.5 1595.93 324.411 1600.15 322.242L1592.85 308.008C1590.9 309.005 1588.87 309.5 1586.62 309.5V325.5ZM1600.23 322.204C1604.25 320.085 1607.78 317.307 1610.77 313.893L1598.73 303.357C1597.05 305.277 1595.08 306.832 1592.77 308.046L1600.23 322.204ZM1610.77 313.893C1613.71 310.537 1616.01 306.758 1617.68 302.596L1602.82 296.654C1601.82 299.159 1600.46 301.38 1598.73 303.357L1610.77 313.893ZM1617.7 302.533C1619.39 298.212 1620.25 293.727 1620.25 289.125H1604.25C1604.25 291.69 1603.78 294.205 1602.8 296.717L1617.7 302.533ZM1620.25 289.125V215.125H1604.25V289.125H1620.25ZM1612.25 223.125H1646.38V207.125H1612.25V223.125ZM1638.38 215.125V349H1654.38V215.125H1638.38ZM1646.38 341H1638.12V357H1646.38V341ZM1644.62 344.326L1633.37 328.701L1620.38 338.049L1631.63 353.674L1644.62 344.326ZM1716.38 344.375L1713.17 351.706C1713.2 351.717 1713.22 351.727 1713.24 351.737L1716.38 344.375ZM1697.25 331.5L1691.55 337.114C1691.58 337.143 1691.61 337.171 1691.64 337.2L1697.25 331.5ZM1684.38 312.375L1677.01 315.506C1677.02 315.53 1677.03 315.553 1677.04 315.577L1684.38 312.375ZM1679.75 249.375H1687.75C1687.75 244.957 1684.17 241.375 1679.75 241.375V249.375ZM1663.12 249.375H1655.12C1655.12 253.793 1658.71 257.375 1663.12 257.375V249.375ZM1663.12 215.375V207.375C1658.71 207.375 1655.12 210.957 1655.12 215.375H1663.12ZM1679.75 215.375V223.375C1684.17 223.375 1687.75 219.793 1687.75 215.375H1679.75ZM1679.75 161.875V153.875C1675.33 153.875 1671.75 157.457 1671.75 161.875H1679.75ZM1713.75 161.875H1721.75C1721.75 157.457 1718.17 153.875 1713.75 153.875V161.875ZM1713.75 215.375H1705.75C1705.75 219.793 1709.33 223.375 1713.75 223.375V215.375ZM1765.5 215.375H1773.5C1773.5 210.957 1769.92 207.375 1765.5 207.375V215.375ZM1765.5 249.375V257.375C1769.92 257.375 1773.5 253.793 1773.5 249.375H1765.5ZM1713.75 249.375V241.375C1709.33 241.375 1705.75 244.957 1705.75 249.375H1713.75ZM1715.75 299.25L1708.38 302.354C1708.39 302.378 1708.4 302.402 1708.41 302.425L1715.75 299.25ZM1721.25 307.375L1726.91 301.718L1721.25 307.375ZM1729.5 313L1726.23 320.303C1726.29 320.327 1726.34 320.35 1726.4 320.373L1729.5 313ZM1765.5 315H1773.5C1773.5 310.582 1769.92 307 1765.5 307V315ZM1765.5 349V357C1769.92 357 1773.5 353.418 1773.5 349H1765.5ZM1739.62 341C1732.4 341 1725.72 339.656 1719.51 337.013L1713.24 351.737C1721.53 355.261 1730.35 357 1739.62 357V341ZM1719.58 337.044C1713.2 334.259 1707.65 330.513 1702.86 325.8L1691.64 337.2C1697.85 343.32 1705.05 348.158 1713.17 351.706L1719.58 337.044ZM1702.95 325.886C1698.24 321.101 1694.49 315.549 1691.71 309.173L1677.04 315.577C1680.59 323.701 1685.43 330.899 1691.55 337.114L1702.95 325.886ZM1691.74 309.244C1689.09 303.031 1687.75 296.351 1687.75 289.125H1671.75C1671.75 298.399 1673.49 307.219 1677.01 315.506L1691.74 309.244ZM1687.75 289.125V249.375H1671.75V289.125H1687.75ZM1679.75 241.375H1663.12V257.375H1679.75V241.375ZM1671.12 249.375V215.375H1655.12V249.375H1671.12ZM1663.12 223.375H1679.75V207.375H1663.12V223.375ZM1687.75 215.375V161.875H1671.75V215.375H1687.75ZM1679.75 169.875H1713.75V153.875H1679.75V169.875ZM1705.75 161.875V215.375H1721.75V161.875H1705.75ZM1713.75 223.375H1765.5V207.375H1713.75V223.375ZM1757.5 215.375V249.375H1773.5V215.375H1757.5ZM1765.5 241.375H1713.75V257.375H1765.5V241.375ZM1705.75 249.375V289.125H1721.75V249.375H1705.75ZM1705.75 289.125C1705.75 293.728 1706.61 298.163 1708.38 302.354L1723.12 296.146C1722.22 294.004 1721.75 291.689 1721.75 289.125H1705.75ZM1708.41 302.425C1710.13 306.418 1712.53 309.972 1715.59 313.032L1726.91 301.718C1725.3 300.111 1724.03 298.249 1723.09 296.075L1708.41 302.425ZM1715.59 313.032C1718.65 316.09 1722.22 318.508 1726.23 320.303L1732.77 305.697C1730.44 304.658 1728.52 303.327 1726.91 301.718L1715.59 313.032ZM1726.4 320.373C1730.59 322.138 1735.02 323 1739.62 323V307C1737.06 307 1734.75 306.529 1732.6 305.627L1726.4 320.373ZM1739.62 323H1765.5V307H1739.62V323ZM1757.5 315V349H1773.5V315H1757.5ZM1765.5 341H1739.62V357H1765.5V341ZM1823.12 187.625L1815.84 184.315C1815.81 184.376 1815.79 184.438 1815.76 184.501L1823.12 187.625ZM1818.25 194.875L1823.79 200.646C1823.83 200.608 1823.87 200.57 1823.91 200.532L1818.25 194.875ZM1810.88 199.75L1814 207.115C1814.03 207.1 1814.07 207.085 1814.1 207.069L1810.88 199.75ZM1793 199.75L1789.69 207.033C1789.78 207.073 1789.87 207.111 1789.95 207.147L1793 199.75ZM1785.75 194.875L1779.98 200.415C1780.05 200.494 1780.13 200.571 1780.21 200.646L1785.75 194.875ZM1780.88 187.625L1773.51 190.749C1773.54 190.812 1773.56 190.874 1773.59 190.935L1780.88 187.625ZM1780.88 170L1773.56 166.771C1773.54 166.806 1773.53 166.841 1773.51 166.876L1780.88 170ZM1785.75 162.75L1791.41 168.407L1785.75 162.75ZM1793 157.875L1796.12 165.24C1796.16 165.225 1796.19 165.21 1796.23 165.194L1793 157.875ZM1810.88 157.875L1807.56 165.158C1807.65 165.198 1807.74 165.236 1807.83 165.272L1810.88 157.875ZM1818.25 162.75L1812.59 168.407C1812.63 168.445 1812.67 168.483 1812.71 168.521L1818.25 162.75ZM1823.12 170L1815.73 173.046C1815.76 173.135 1815.8 173.223 1815.84 173.31L1823.12 170ZM1819.12 349V357C1823.54 357 1827.12 353.418 1827.12 349H1819.12ZM1784.75 349H1776.75C1776.75 353.418 1780.33 357 1784.75 357V349ZM1784.75 215.125V207.125C1780.33 207.125 1776.75 210.707 1776.75 215.125H1784.75ZM1819.12 215.125H1827.12C1827.12 210.707 1823.54 207.125 1819.12 207.125V215.125ZM1817 178.75C1817 180.831 1816.6 182.654 1815.84 184.315L1830.41 190.935C1832.15 187.096 1833 183.002 1833 178.75H1817ZM1815.76 184.501C1814.99 186.318 1813.94 187.872 1812.59 189.218L1823.91 200.532C1826.73 197.712 1828.93 194.432 1830.49 190.749L1815.76 184.501ZM1812.71 189.104C1811.35 190.411 1809.69 191.53 1807.65 192.431L1814.1 207.069C1817.73 205.47 1820.99 203.339 1823.79 200.646L1812.71 189.104ZM1807.75 192.385C1806.05 193.108 1804.16 193.5 1802 193.5V209.5C1806.17 209.5 1810.2 208.725 1814 207.115L1807.75 192.385ZM1802 193.5C1799.84 193.5 1797.88 193.108 1796.05 192.353L1789.95 207.147C1793.79 208.725 1797.82 209.5 1802 209.5V193.5ZM1796.31 192.467C1794.35 191.574 1792.69 190.449 1791.29 189.104L1780.21 200.646C1782.98 203.301 1786.15 205.426 1789.69 207.033L1796.31 192.467ZM1791.52 189.335C1790.18 187.934 1789.05 186.279 1788.16 184.315L1773.59 190.935C1775.2 194.471 1777.32 197.65 1779.98 200.415L1791.52 189.335ZM1788.24 184.501C1787.52 182.797 1787.12 180.909 1787.12 178.75H1771.12C1771.12 182.925 1771.9 186.953 1773.51 190.749L1788.24 184.501ZM1787.12 178.75C1787.12 176.705 1787.51 174.854 1788.24 173.124L1773.51 166.876C1771.91 170.646 1771.12 174.628 1771.12 178.75H1787.12ZM1788.19 173.229C1789.08 171.215 1790.17 169.644 1791.41 168.407L1780.09 157.093C1777.33 159.856 1775.17 163.119 1773.56 166.771L1788.19 173.229ZM1791.41 168.407C1792.75 167.06 1794.31 166.011 1796.12 165.24L1789.88 150.51C1786.19 152.073 1782.91 154.273 1780.09 157.093L1791.41 168.407ZM1796.23 165.194C1798.02 164.403 1799.92 164 1802 164V148C1797.75 148 1793.64 148.847 1789.77 150.556L1796.23 165.194ZM1802 164C1804.08 164 1805.9 164.403 1807.56 165.158L1814.19 150.592C1810.35 148.847 1806.25 148 1802 148V164ZM1807.83 165.272C1809.73 166.053 1811.29 167.1 1812.59 168.407L1823.91 157.093C1821.05 154.233 1817.69 152.03 1813.92 150.478L1807.83 165.272ZM1812.71 168.521C1813.94 169.705 1814.96 171.176 1815.73 173.046L1830.52 166.954C1828.96 163.157 1826.72 159.795 1823.79 156.979L1812.71 168.521ZM1815.84 173.31C1816.61 174.999 1817 176.784 1817 178.75H1833C1833 174.549 1832.14 170.501 1830.41 166.69L1815.84 173.31ZM1819.12 341H1784.75V357H1819.12V341ZM1792.75 349V215.125H1776.75V349H1792.75ZM1784.75 223.125H1819.12V207.125H1784.75V223.125ZM1811.12 215.125V349H1827.12V215.125H1811.12ZM1879.38 349V357C1883.79 357 1887.38 353.418 1887.38 349H1879.38ZM1845.25 349H1837.25C1837.25 353.418 1840.83 357 1845.25 357V349ZM1845.25 215.125V207.125C1840.83 207.125 1837.25 210.707 1837.25 215.125H1845.25ZM1853.5 215.125L1859.55 209.89C1858.03 208.134 1855.82 207.125 1853.5 207.125V215.125ZM1864.75 228.125L1858.7 233.36C1860.11 234.99 1862.12 235.982 1864.27 236.111C1866.42 236.24 1868.54 235.495 1870.13 234.045L1864.75 228.125ZM1883.38 216.625L1886.25 224.089C1886.27 224.083 1886.28 224.077 1886.3 224.071L1883.38 216.625ZM1928.38 217.25L1925.17 224.581C1925.2 224.592 1925.22 224.602 1925.24 224.612L1928.38 217.25ZM1947.38 230.125L1941.68 235.739C1941.69 235.753 1941.7 235.767 1941.72 235.782L1947.38 230.125ZM1960.12 249.25L1952.75 252.351C1952.76 252.385 1952.78 252.418 1952.79 252.452L1960.12 249.25ZM1964.88 349V357C1969.29 357 1972.88 353.418 1972.88 349H1964.88ZM1930.75 349H1922.75C1922.75 353.418 1926.33 357 1930.75 357V349ZM1928.75 262.625L1921.38 265.729C1921.39 265.753 1921.4 265.777 1921.41 265.8L1928.75 262.625ZM1895.12 248.875L1892.02 241.502L1895.12 248.875ZM1881.38 262.625L1888.72 265.8C1888.73 265.777 1888.74 265.753 1888.75 265.729L1881.38 262.625ZM1879.38 341H1845.25V357H1879.38V341ZM1853.25 349V215.125H1837.25V349H1853.25ZM1845.25 223.125H1853.5V207.125H1845.25V223.125ZM1847.45 220.36L1858.7 233.36L1870.8 222.89L1859.55 209.89L1847.45 220.36ZM1870.13 234.045C1874.9 229.708 1880.26 226.399 1886.25 224.089L1880.5 209.161C1872.66 212.184 1865.6 216.542 1859.37 222.205L1870.13 234.045ZM1886.3 224.071C1892.36 221.69 1898.66 220.5 1905.25 220.5V204.5C1896.67 204.5 1888.39 206.06 1880.45 209.179L1886.3 224.071ZM1905.25 220.5C1912.35 220.5 1918.97 221.87 1925.17 224.581L1931.58 209.919C1923.28 206.297 1914.48 204.5 1905.25 204.5V220.5ZM1925.24 224.612C1931.55 227.295 1937.01 230.999 1941.68 235.739L1953.07 224.511C1946.91 218.251 1939.7 213.372 1931.51 209.888L1925.24 224.612ZM1941.72 235.782C1946.37 240.438 1950.05 245.935 1952.75 252.351L1967.5 246.149C1964.03 237.898 1959.21 230.646 1953.03 224.468L1941.72 235.782ZM1952.79 252.452C1955.5 258.649 1956.88 265.304 1956.88 272.5H1972.88C1972.88 263.196 1971.08 254.351 1967.46 246.048L1952.79 252.452ZM1956.88 272.5V349H1972.88V272.5H1956.88ZM1964.88 341H1930.75V357H1964.88V341ZM1938.75 349V272.5H1922.75V349H1938.75ZM1938.75 272.5C1938.75 267.955 1937.88 263.578 1936.09 259.45L1921.41 265.8C1922.29 267.839 1922.75 270.045 1922.75 272.5H1938.75ZM1936.12 259.521C1934.41 255.44 1932 251.813 1928.91 248.718L1917.59 260.032C1919.16 261.603 1920.43 263.477 1921.38 265.729L1936.12 259.521ZM1928.91 248.718C1925.85 245.658 1922.29 243.259 1918.3 241.532L1911.95 256.218C1914.12 257.158 1915.99 258.425 1917.59 260.032L1928.91 248.718ZM1918.3 241.532C1914.17 239.747 1909.8 238.875 1905.25 238.875V254.875C1907.7 254.875 1909.91 255.336 1911.95 256.218L1918.3 241.532ZM1905.25 238.875C1900.65 238.875 1896.21 239.737 1892.02 241.502L1898.23 256.248C1900.37 255.346 1902.69 254.875 1905.25 254.875V238.875ZM1892.02 241.502C1887.94 243.22 1884.31 245.623 1881.22 248.718L1892.53 260.032C1894.1 258.46 1895.98 257.197 1898.23 256.248L1892.02 241.502ZM1881.22 248.718C1878.12 251.813 1875.72 255.44 1874 259.521L1888.75 265.729C1889.7 263.477 1890.96 261.603 1892.53 260.032L1881.22 248.718ZM1874.03 259.45C1872.25 263.578 1871.38 267.955 1871.38 272.5H1887.38C1887.38 270.045 1887.84 267.839 1888.72 265.8L1874.03 259.45ZM1871.38 272.5V349H1887.38V272.5H1871.38ZM2081.75 267.375L2074.31 270.322C2074.34 270.379 2074.36 270.436 2074.38 270.492L2081.75 267.375ZM2074.5 255.75L2068.56 261.11C2068.58 261.134 2068.6 261.158 2068.63 261.182L2074.5 255.75ZM2063.62 247.625L2059.99 254.751C2060.05 254.78 2060.1 254.809 2060.16 254.837L2063.62 247.625ZM2037.25 246.875L2034.41 239.397C2034.39 239.403 2034.37 239.41 2034.36 239.416L2037.25 246.875ZM2026.5 253.875L2020.84 248.218C2020.82 248.244 2020.79 248.27 2020.77 248.296L2026.5 253.875ZM2019.38 265.375L2026.83 268.275C2026.84 268.259 2026.84 268.244 2026.85 268.229L2019.38 265.375ZM2019.38 296L2011.92 298.9C2011.93 298.915 2011.93 298.931 2011.94 298.947L2019.38 296ZM2026.5 307.375L2020.69 312.877C2020.72 312.903 2020.74 312.93 2020.77 312.956L2026.5 307.375ZM2037.25 314.75L2034.1 322.103C2034.16 322.129 2034.22 322.154 2034.28 322.178L2037.25 314.75ZM2063.62 314.25L2067.14 321.435C2067.16 321.425 2067.18 321.415 2067.2 321.405L2063.62 314.25ZM2074.5 306.125L2080.37 311.557C2080.4 311.533 2080.42 311.509 2080.44 311.485L2074.5 306.125ZM2081.75 294.5L2074.36 291.433C2074.35 291.457 2074.34 291.48 2074.33 291.504L2081.75 294.5ZM2098.75 380.25L2093.13 374.555C2093.12 374.568 2093.11 374.58 2093.09 374.593L2098.75 380.25ZM2077 394.875L2073.84 387.526C2073.83 387.53 2073.82 387.533 2073.81 387.537L2077 394.875ZM2050.5 400.25L2050.38 408.249C2050.42 408.25 2050.46 408.25 2050.5 408.25V400.25ZM2033.38 400H2025.38C2025.38 404.373 2028.89 407.935 2033.26 407.999L2033.38 400ZM2033.38 365.875L2033.49 357.876C2031.35 357.844 2029.29 358.673 2027.76 360.176C2026.23 361.68 2025.38 363.733 2025.38 365.875H2033.38ZM2050.25 366.125L2050.13 374.124C2050.17 374.125 2050.21 374.125 2050.25 374.125V366.125ZM2063.88 364L2061.19 356.462C2061.15 356.48 2061.1 356.498 2061.05 356.516L2063.88 364ZM2073.38 358.375L2068.01 352.438C2067.98 352.469 2067.94 352.501 2067.91 352.533L2073.38 358.375ZM2079.5 350.25L2072.38 346.596C2072.36 346.647 2072.33 346.698 2072.31 346.75L2079.5 350.25ZM2083.25 340.5L2090.98 342.573C2092.01 338.736 2090.06 334.725 2086.42 333.153C2082.77 331.581 2078.52 332.924 2076.44 336.307L2083.25 340.5ZM2077.5 345.875L2081.26 352.934C2081.32 352.902 2081.38 352.869 2081.44 352.835L2077.5 345.875ZM2069.12 349.125L2067.04 341.402C2066.95 341.425 2066.87 341.449 2066.79 341.474L2069.12 349.125ZM2059.62 351L2058.83 343.04C2058.82 343.04 2058.82 343.041 2058.81 343.042L2059.62 351ZM2023.88 346.625L2020.94 354.068C2020.95 354.072 2020.96 354.075 2020.97 354.078L2023.88 346.625ZM2002.12 332.75L1996.51 338.445C1996.53 338.471 1996.56 338.496 1996.58 338.521L2002.12 332.75ZM1987.5 252.75L1980.11 249.693L1987.5 252.75ZM2002.12 230.25L1996.43 224.631C1996.42 224.643 1996.41 224.656 1996.39 224.669L2002.12 230.25ZM2023.88 215.375L2020.71 208.026C2020.71 208.03 2020.7 208.033 2020.69 208.037L2023.88 215.375ZM2087.12 222.875L2082.45 229.364C2082.47 229.381 2082.49 229.398 2082.52 229.415L2087.12 222.875ZM2097.38 231.25L2091.87 237.058C2093.48 238.577 2095.64 239.365 2097.84 239.236C2100.05 239.107 2102.1 238.072 2103.52 236.376L2097.38 231.25ZM2110.62 215.375V207.375C2108.25 207.375 2106 208.428 2104.48 210.249L2110.62 215.375ZM2118.88 215.375H2126.88C2126.88 210.957 2123.29 207.375 2118.88 207.375V215.375ZM2092.5 280.875C2092.5 275.128 2091.36 269.569 2089.12 264.258L2074.38 270.492C2075.8 273.848 2076.5 277.288 2076.5 280.875H2092.5ZM2089.19 264.428C2087.09 259.137 2084.16 254.409 2080.37 250.318L2068.63 261.182C2071.01 263.758 2072.91 266.78 2074.31 270.322L2089.19 264.428ZM2080.44 250.39C2076.66 246.197 2072.19 242.861 2067.09 240.413L2060.16 254.837C2063.4 256.389 2066.18 258.469 2068.56 261.11L2080.44 250.39ZM2067.26 240.499C2062.03 237.83 2056.41 236.5 2050.5 236.5V252.5C2053.93 252.5 2057.05 253.253 2059.99 254.751L2067.26 240.499ZM2050.5 236.5C2044.91 236.5 2039.52 237.452 2034.41 239.397L2040.09 254.353C2043.31 253.131 2046.76 252.5 2050.5 252.5V236.5ZM2034.36 239.416C2029.24 241.4 2024.72 244.345 2020.84 248.218L2032.16 259.532C2034.45 257.238 2037.09 255.517 2040.14 254.334L2034.36 239.416ZM2020.77 248.296C2016.91 252.262 2013.99 257.063 2011.9 262.521L2026.85 268.229C2028.26 264.52 2030.09 261.654 2032.23 259.454L2020.77 248.296ZM2011.92 262.475C2009.74 268.07 2008.75 274.251 2008.75 280.875H2024.75C2024.75 275.833 2025.51 271.68 2026.83 268.275L2011.92 262.475ZM2008.75 280.875C2008.75 287.297 2009.76 293.343 2011.92 298.9L2026.83 293.1C2025.49 289.657 2024.75 285.619 2024.75 280.875H2008.75ZM2011.94 298.947C2014.03 304.226 2016.93 308.907 2020.69 312.877L2032.31 301.873C2030.07 299.51 2028.22 296.607 2026.81 293.053L2011.94 298.947ZM2020.77 312.956C2024.59 316.881 2029.05 319.94 2034.1 322.103L2040.4 307.397C2037.28 306.06 2034.58 304.202 2032.23 301.794L2020.77 312.956ZM2034.28 322.178C2039.43 324.238 2044.86 325.25 2050.5 325.25V309.25C2046.81 309.25 2043.41 308.596 2040.22 307.322L2034.28 322.178ZM2050.5 325.25C2056.35 325.25 2061.94 323.985 2067.14 321.435L2060.11 307.065C2057.15 308.515 2053.98 309.25 2050.5 309.25V325.25ZM2067.2 321.405C2072.21 318.902 2076.62 315.617 2080.37 311.557L2068.63 300.693C2066.22 303.3 2063.37 305.431 2060.05 307.095L2067.2 321.405ZM2080.44 311.485C2084.16 307.362 2087.07 302.684 2089.17 297.496L2074.33 291.504C2072.93 294.983 2071.01 298.055 2068.56 300.765L2080.44 311.485ZM2089.14 297.567C2091.37 292.203 2092.5 286.621 2092.5 280.875H2076.5C2076.5 284.463 2075.8 287.964 2074.36 291.433L2089.14 297.567ZM2110.88 332.125C2110.88 340.498 2109.29 348.241 2106.16 355.438L2120.84 361.812C2124.88 352.509 2126.88 342.586 2126.88 332.125H2110.88ZM2106.16 355.438C2102.98 362.773 2098.64 369.125 2093.13 374.555L2104.37 385.945C2111.36 379.042 2116.86 370.977 2120.84 361.812L2106.16 355.438ZM2093.09 374.593C2087.67 380.014 2081.28 384.327 2073.84 387.526L2080.16 402.224C2089.39 398.257 2097.49 392.82 2104.41 385.907L2093.09 374.593ZM2073.81 387.537C2066.62 390.663 2058.87 392.25 2050.5 392.25V408.25C2060.96 408.25 2070.88 406.253 2080.19 402.213L2073.81 387.537ZM2050.62 392.251L2033.49 392.001L2033.26 407.999L2050.38 408.249L2050.62 392.251ZM2041.38 400V365.875H2025.38V400H2041.38ZM2033.26 373.874L2050.13 374.124L2050.37 358.126L2033.49 357.876L2033.26 373.874ZM2050.25 374.125C2056.25 374.125 2061.8 373.334 2066.7 371.484L2061.05 356.516C2058.45 357.499 2054.92 358.125 2050.25 358.125V374.125ZM2066.56 371.538C2071.21 369.882 2075.36 367.473 2078.84 364.217L2067.91 352.533C2066.22 354.111 2064.04 355.451 2061.19 356.462L2066.56 371.538ZM2078.74 364.312C2082.07 361.302 2084.74 357.77 2086.69 353.75L2072.31 346.75C2071.26 348.897 2069.85 350.782 2068.01 352.438L2078.74 364.312ZM2086.62 353.904C2088.46 350.307 2089.92 346.526 2090.98 342.573L2075.52 338.427C2074.75 341.308 2073.7 344.027 2072.38 346.596L2086.62 353.904ZM2076.44 336.307C2075.9 337.182 2075.04 338.076 2073.56 338.915L2081.44 352.835C2084.96 350.84 2087.93 348.151 2090.06 344.693L2076.44 336.307ZM2073.74 338.816C2071.83 339.832 2069.61 340.707 2067.04 341.402L2071.21 356.848C2074.81 355.877 2078.17 354.584 2081.26 352.934L2073.74 338.816ZM2066.79 341.474C2064.32 342.227 2061.67 342.755 2058.83 343.04L2060.42 358.96C2064.24 358.578 2067.93 357.856 2071.46 356.776L2066.79 341.474ZM2058.81 343.042C2055.79 343.351 2053.02 343.5 2050.5 343.5V359.5C2053.64 359.5 2056.96 359.315 2060.44 358.958L2058.81 343.042ZM2050.5 343.5C2042.02 343.5 2034.14 342.042 2026.78 339.172L2020.97 354.078C2030.28 357.708 2040.14 359.5 2050.5 359.5V343.5ZM2026.81 339.182C2019.5 336.305 2013.15 332.24 2007.67 326.979L1996.58 338.521C2003.6 345.26 2011.75 350.445 2020.94 354.068L2026.81 339.182ZM2007.74 327.055C2002.41 321.797 1998.12 315.311 1994.9 307.468L1980.1 313.532C1984.05 323.189 1989.5 331.537 1996.51 338.445L2007.74 327.055ZM1994.9 307.468C1991.77 299.824 1990.12 291.003 1990.12 280.875H1974.12C1974.12 292.747 1976.06 303.676 1980.1 313.532L1994.9 307.468ZM1990.12 280.875C1990.12 271.761 1991.74 263.433 1994.89 255.807L1980.11 249.693C1976.09 259.4 1974.12 269.822 1974.12 280.875H1990.12ZM1994.89 255.807C1998.11 248.021 2002.44 241.392 2007.86 235.831L1996.39 224.669C1989.48 231.774 1984.05 240.145 1980.11 249.693L1994.89 255.807ZM2007.82 235.869C2013.34 230.272 2019.74 225.893 2027.06 222.713L2020.69 208.037C2011.51 212.023 2003.41 217.562 1996.43 224.631L2007.82 235.869ZM2027.04 222.724C2034.33 219.587 2042.13 218 2050.5 218V202C2040.04 202 2030.08 203.997 2020.71 208.026L2027.04 222.724ZM2050.5 218C2054.16 218 2057.79 218.456 2061.4 219.377L2065.35 203.873C2060.46 202.627 2055.51 202 2050.5 202V218ZM2061.4 219.377C2065.13 220.329 2068.76 221.648 2072.29 223.34L2079.21 208.91C2074.74 206.769 2070.12 205.088 2065.35 203.873L2061.4 219.377ZM2072.29 223.34C2075.87 225.052 2079.25 227.06 2082.45 229.364L2091.8 216.386C2087.83 213.524 2083.63 211.031 2079.21 208.91L2072.29 223.34ZM2082.52 229.415C2085.88 231.782 2088.99 234.33 2091.87 237.058L2102.88 225.442C2099.42 222.17 2095.71 219.134 2091.73 216.335L2082.52 229.415ZM2103.52 236.376L2116.77 220.501L2104.48 210.249L2091.23 226.124L2103.52 236.376ZM2110.62 223.375H2118.88V207.375H2110.62V223.375ZM2110.88 215.375V332.125H2126.88V215.375H2110.88Z" fill="#11111B"/>
<path opacity="0.986" fill-rule="evenodd" clip-rule="evenodd" d="M79 0C113 0 147 0 181 0C195.558 6.28181 200.891 17.1151 197 32.5C213.003 29.5807 224.169 35.414 230.5 50C233.666 65.0016 228.333 75.6683 214.5 82C214.992 86.9494 214.992 91.9494 214.5 97C213.033 100.258 211.867 103.592 211 107C228.335 112.994 243.335 122.661 256 136C268.585 122.544 283.585 112.877 301 107C300.133 103.592 298.967 100.258 297.5 97C297.008 91.9494 297.008 86.9494 297.5 82C283.667 75.6683 278.334 65.0016 281.5 50C287.831 35.414 298.997 29.5807 315 32.5C311.109 17.1151 316.442 6.28181 331 0C365 0 399 0 433 0C439.103 1.76898 444.769 4.60231 450 8.5C457.167 15.6667 464.333 22.8333 471.5 30C475.117 26.9419 479.284 25.1085 484 24.5C493.327 24.0002 502.661 23.8335 512 24C512 57.3333 512 90.6667 512 124C501.661 124.166 491.328 124 481 123.5C477.339 122.671 474.005 121.171 471 119C464.542 125.959 457.875 132.792 451 139.5C447.239 142.265 443.239 144.598 439 146.5C460.69 177.105 467.857 210.938 460.5 248C457.025 263.435 451.025 277.769 442.5 291C424.356 313.112 405.856 334.945 387 356.5C391.861 359.677 397.195 361.677 403 362.5C412.333 362.833 421.667 363.167 431 363.5C438.429 364.883 445.096 367.883 451 372.5C457.875 379.208 464.542 386.041 471 393C473.746 391.027 476.746 389.527 480 388.5C490.661 388 501.328 387.833 512 388C512 421.333 512 454.667 512 488C500.945 488.379 489.945 487.879 479 486.5C476.251 485.377 473.751 483.877 471.5 482C464.333 489.167 457.167 496.333 450 503.5C444.769 507.398 439.103 510.231 433 512C399 512 365 512 331 512C316.442 505.718 311.109 494.885 315 479.5C309.333 479.167 303.667 478.833 298 478.5C294.336 477.498 291.169 475.664 288.5 473C283.667 478.5 278.833 484 274 489.5C262 498.167 250 498.167 238 489.5C233.167 484 228.333 478.5 223.5 473C220.831 475.664 217.664 477.498 214 478.5C208.333 478.833 202.667 479.167 197 479.5C200.889 494.889 195.555 505.722 181 512C147 512 113 512 79 512C72.8975 510.231 67.2308 507.398 62 503.5C54.8333 496.333 47.6667 489.167 40.5 482C36.8827 485.058 32.716 486.891 28 487.5C18.6726 488 9.33928 488.166 0 488C0 454.667 0 421.333 0 388C10.3387 387.834 20.672 388 31 388.5C34.6612 389.329 37.9946 390.829 41 393C47.4579 386.041 54.1246 379.208 61 372.5C66.9044 367.883 73.571 364.883 81 363.5C90.3333 363.167 99.6667 362.833 109 362.5C114.805 361.677 120.139 359.677 125 356.5C106.144 334.945 87.6439 313.112 69.5 291C46.414 252.853 42.7473 212.853 58.5 171C62.5366 162.312 67.37 154.145 73 146.5C68.7608 144.598 64.7608 142.265 61 139.5C54.1246 132.792 47.4579 125.959 41 119C37.9946 121.171 34.6612 122.671 31 123.5C20.672 124 10.3387 124.166 0 124C0 90.6667 0 57.3333 0 24C11.0549 23.6209 22.0549 24.1209 33 25.5C35.7487 26.6227 38.2487 28.1227 40.5 30C47.6667 22.8333 54.8333 15.6667 62 8.5C67.2308 4.60231 72.8975 1.76898 79 0Z" fill="#11111B"/>
<path fill-rule="evenodd" clip-rule="evenodd" d="M116 33C115.011 38.4753 114.678 44.142 115 50C146 50 177 50 208 50C214.43 51.8616 216.263 55.8616 213.5 62C212.286 63.5488 210.786 64.7155 209 65.5C178.002 66 147.002 66.1666 116 66C115.011 71.4753 114.678 77.142 115 83C140.667 83 166.333 83 192 83C198.079 85.5757 199.579 89.9091 196.5 96C195.597 97.2014 194.431 98.0348 193 98.5C161.668 99 130.335 99.1666 99 99C99 104.667 99 110.333 99 116C111.005 115.833 123.005 116 135 116.5C149.946 120.765 157.112 130.599 156.5 146C155.149 147.51 153.482 148.51 151.5 149C141.394 144.03 131.227 139.197 121 134.5C108.109 132.399 95.1091 131.399 82 131.5C77.8847 130.277 74.218 128.277 71 125.5C64.1981 117.697 57.0314 110.197 49.5 103C48.8333 84 48.8333 65 49.5 46C56.969 37.53 64.8023 29.3634 73 21.5C75.3877 19.6395 78.0544 18.3061 81 17.5C113 16.8333 145 16.8333 177 17.5C183.811 22.83 183.477 27.83 176 32.5C156.003 33 136.003 33.1666 116 33Z" fill="#F5E0DC"/>
<path fill-rule="evenodd" clip-rule="evenodd" d="M320 83C345.667 83 371.333 83 397 83C397.322 77.142 396.989 71.4753 396 66C364.665 66.1666 333.332 66 302 65.5C294.852 59.1037 295.519 53.937 304 50C335 50 366 50 397 50C397.322 44.142 396.989 38.4753 396 33C375.664 33.1666 355.331 33 335 32.5C328.41 27.318 328.41 22.318 335 17.5C366.667 16.8333 398.333 16.8333 430 17.5C433.118 18.5587 436.118 19.8921 439 21.5C447.198 29.3634 455.031 37.53 462.5 46C463.167 65 463.167 84 462.5 103C454.969 110.197 447.802 117.697 441 125.5C437.558 128.554 433.558 130.554 429 131.5C419 131.833 409 132.167 399 132.5C396.333 133.167 393.667 133.833 391 134.5C380.773 139.197 370.606 144.03 360.5 149C356.341 148.178 354.508 145.678 355 141.5C356.799 129.359 363.465 121.026 375 116.5C387.662 116 400.329 115.833 413 116C413 110.333 413 104.667 413 99C381.665 99.1666 350.332 99 319 98.5C314.431 95.9586 312.931 92.1253 314.5 87C315.951 85.0359 317.784 83.7026 320 83Z" fill="#F5E0DC"/>
<path fill-rule="evenodd" clip-rule="evenodd" d="M27 42C23.6667 42 20.3333 42 17 42C17 63.6667 17 85.3333 17 107C16.0026 85.173 15.6693 63.173 16 41C19.8714 40.685 23.5381 41.0184 27 42Z" fill="#B4BEFE"/>
<path fill-rule="evenodd" clip-rule="evenodd" d="M27 42C29.2157 42.7026 31.049 44.0359 32.5 46C33.1667 64.6667 33.1667 83.3333 32.5 102C31.6667 104.167 30.1667 105.667 28 106.5C24.3484 106.999 20.6817 107.165 17 107C17 85.3333 17 63.6667 17 42C20.3333 42 23.6667 42 27 42Z" fill="#B4BEFE"/>
<path fill-rule="evenodd" clip-rule="evenodd" d="M485 42C488.333 42 491.667 42 495 42C495 63.6667 495 85.3333 495 107C490.986 107.166 486.986 106.999 483 106.5C481.451 105.286 480.285 103.786 479.5 102C478.833 83.3333 478.833 64.6667 479.5 46C480.951 44.0359 482.784 42.7026 485 42Z" fill="#F38BA8"/>
<path fill-rule="evenodd" clip-rule="evenodd" d="M485 42C488.462 41.0184 492.129 40.685 496 41C496.331 63.173 495.997 85.173 495 107C495 85.3333 495 63.6667 495 42C491.667 42 488.333 42 485 42Z" fill="#F38BA8"/>
<path fill-rule="evenodd" clip-rule="evenodd" d="M116 33C116 38.3333 116 43.6667 116 49C146.838 48.6685 177.505 49.0019 208 50C177 50 146 50 115 50C114.678 44.142 115.011 38.4753 116 33Z" fill="#F5E0DC"/>
<path fill-rule="evenodd" clip-rule="evenodd" d="M396 33C396.989 38.4753 397.322 44.142 397 50C366 50 335 50 304 50C334.495 49.0019 365.162 48.6685 396 49C396 43.6667 396 38.3333 396 33Z" fill="#F5E0DC"/>
<path fill-rule="evenodd" clip-rule="evenodd" d="M116 66C116 71.3333 116 76.6667 116 82C141.505 81.6689 166.839 82.0023 192 83C166.333 83 140.667 83 115 83C114.678 77.142 115.011 71.4753 116 66Z" fill="#F5E0DC"/>
<path fill-rule="evenodd" clip-rule="evenodd" d="M396 66C396.989 71.4753 397.322 77.142 397 83C371.333 83 345.667 83 320 83C345.161 82.0023 370.495 81.6689 396 82C396 76.6667 396 71.3333 396 66Z" fill="#F5E0DC"/>
<path fill-rule="evenodd" clip-rule="evenodd" d="M248 215C247.003 236.494 246.669 258.16 247 280C228 280 209 280 190 280C186.382 256.559 172.715 246.059 149 248.5C133.254 253.734 124.921 264.567 124 281C110.317 281.333 96.6504 280.999 83 280C66.3214 252.252 61.8214 222.585 69.5 191C73.8605 175.103 81.6939 161.269 93 149.5C99.3333 148.833 105.667 148.833 112 149.5C123.558 153.945 134.892 158.945 146 164.5C166.809 165.013 175.643 154.846 172.5 134C170.596 127.692 167.762 121.859 164 116.5C197.556 114.907 225.389 126.74 247.5 152C248 161.994 248.166 171.994 248 182C256.085 181.599 264.085 182.099 272 183.5C283.608 192.724 283.942 202.391 273 212.5C271.254 212.971 269.587 213.638 268 214.5C261.342 215 254.675 215.166 248 215Z" fill="#A6E3A1"/>
<path fill-rule="evenodd" clip-rule="evenodd" d="M339 300C339 293.333 339 286.667 339 280C314.333 280 289.667 280 265 280C265 263.667 265 247.333 265 231C285.012 228.836 295.679 217.669 297 197.5C294.798 177.798 283.798 166.965 264 165C263.834 160.654 264.001 156.321 264.5 152C286.537 126.565 314.371 114.732 348 116.5C338.372 128.628 336.539 141.795 342.5 156C348.544 163.772 356.378 166.605 366 164.5C376.651 159.292 387.318 154.292 398 149.5C405 148.833 412 148.833 419 149.5C442.025 175.415 450.525 205.582 444.5 240C441.843 254.313 436.676 267.647 429 280C410.012 281 391.012 281.333 372 281C372.166 287.675 372 294.342 371.5 301C367.249 312.209 359.416 316.042 348 312.5C342.853 309.857 339.853 305.69 339 300Z" fill="#A6E3A1"/>
<path fill-rule="evenodd" clip-rule="evenodd" d="M405 160C406.871 160.359 408.371 161.359 409.5 163C411.877 166.588 414.377 170.088 417 173.5C412.756 176.744 408.256 179.578 403.5 182C400.5 178.495 397.667 174.829 395 171C398.355 167.313 401.689 163.647 405 160Z" fill="#11111B"/>
<path fill-rule="evenodd" clip-rule="evenodd" d="M428 204C428 205.333 428 206.667 428 208C426.709 207.763 425.709 208.096 425 209C420.643 209.086 416.31 209.42 412 210C411.815 204.93 411.148 199.93 410 195C414.988 193.498 419.988 192.331 425 191.5C426.231 195.591 427.231 199.757 428 204Z" fill="#11111B"/>
<path fill-rule="evenodd" clip-rule="evenodd" d="M428 204C428.951 205.419 429.284 207.085 429 209C427.667 209 426.333 209 425 209C425.709 208.096 426.709 207.763 428 208C428 206.667 428 205.333 428 204Z" fill="#A6E3A1"/>
<path fill-rule="evenodd" clip-rule="evenodd" d="M413 226C418.333 226 423.667 226 429 226C429.232 232.122 428.565 238.122 427 244C421.97 242.826 416.97 241.492 412 240C411.667 239.5 411.333 239 411 238.5C412.458 234.457 413.125 230.291 413 226Z" fill="#11111B"/>
<path fill-rule="evenodd" clip-rule="evenodd" d="M173 278C173 284.667 173 291.333 173 298C197.667 298 222.333 298 247 298C247 314.333 247 330.667 247 347C227.436 349.064 216.77 359.897 215 379.5C216.635 399.302 227.302 410.468 247 413C247.33 432.84 246.997 452.507 246 472C241.032 466.862 236.199 461.529 231.5 456C231.477 446.451 227.643 438.951 220 433.5C217.85 432.089 215.516 431.255 213 431C217.633 412.925 210.967 401.592 193 397C183.333 396.333 173.667 395.667 164 395C173.561 383.092 175.394 370.092 169.5 356C161.964 347.324 152.798 344.991 142 349C126.499 332.328 111.499 315.161 97 297.5C111.329 297 125.663 296.833 140 297C139.834 290.325 140 283.658 140.5 277C144.44 266.114 151.94 262.28 163 265.5C168.768 267.763 172.101 271.93 173 278Z" fill="#A6E3A1"/>
<path fill-rule="evenodd" clip-rule="evenodd" d="M248 215C248 237 248 259 248 281C228.493 281.33 209.159 280.997 190 280C209 280 228 280 247 280C246.669 258.16 247.003 236.494 248 215Z" fill="#A6E3A1"/>
<path fill-rule="evenodd" clip-rule="evenodd" d="M265 231C265 247.333 265 263.667 265 280C289.667 280 314.333 280 339 280C339 286.667 339 293.333 339 300C338.01 293.855 337.677 287.522 338 281C313.333 281 288.667 281 264 281C263.67 264.158 264.003 247.492 265 231Z" fill="#A6E3A1"/>
<path fill-rule="evenodd" clip-rule="evenodd" d="M173 278C173.99 284.145 174.323 290.478 174 297C198.667 297 223.333 297 248 297C248.33 313.842 247.997 330.508 247 347C247 330.667 247 314.333 247 298C222.333 298 197.667 298 173 298C173 291.333 173 284.667 173 278Z" fill="#A6E3A1"/>
<path fill-rule="evenodd" clip-rule="evenodd" d="M322 298C303 298 284 298 265 298C265.331 319.84 264.997 341.506 264 363C264 341 264 319 264 297C283.507 296.67 302.841 297.003 322 298Z" fill="#A6E3A1"/>
<path fill-rule="evenodd" clip-rule="evenodd" d="M348 395C337.667 395.667 327.333 396.333 317 397C300.464 402.739 294.464 414.072 299 431C287.035 434.827 280.868 443.161 280.5 456C275.467 461.862 270.301 467.529 265 473C265 447.333 265 421.667 265 396C258.333 396 251.667 396 245 396C236.251 394.077 231.585 388.577 231 379.5C232.009 371.489 236.343 366.155 244 363.5C250.658 363 257.325 362.834 264 363C264.997 341.506 265.331 319.84 265 298C284 298 303 298 322 298C326.807 324.237 342.14 334.071 368 327.5C381.047 321.584 387.714 311.417 388 297C397.006 296.834 406.006 297 415 297.5C400.501 315.161 385.501 332.328 370 349C355.926 344.119 345.759 348.453 339.5 362C337.769 374.286 340.603 385.286 348 395Z" fill="#A6E3A1"/>
<path fill-rule="evenodd" clip-rule="evenodd" d="M192 429C166.333 429 140.667 429 115 429C114.678 434.858 115.011 440.525 116 446C147.002 445.833 178.002 446 209 446.5C215.251 449.768 216.418 454.268 212.5 460C211.17 461.082 209.67 461.749 208 462C177 462 146 462 115 462C114.678 467.858 115.011 473.525 116 479C136.003 478.833 156.003 479 176 479.5C183.477 484.17 183.811 489.17 177 494.5C145 495.167 113 495.167 81 494.5C78.0544 493.694 75.3877 492.361 73 490.5C65.1355 482.97 57.6355 475.136 50.5 467C49.8333 447.333 49.8333 427.667 50.5 408C58.7208 399.779 66.8874 391.613 75 383.5C77.2173 382.225 79.5506 381.225 82 380.5C91.6667 380.167 101.333 379.833 111 379.5C115 378.5 119 377.5 123 376.5C132.561 372.136 142.061 367.636 151.5 363C156.727 364.849 158.394 368.515 156.5 374C153.917 383.585 148.084 390.418 139 394.5C125.727 395.925 112.394 396.425 99 396C99 401.667 99 407.333 99 413C130.335 412.833 161.668 413 193 413.5C198.035 416.513 199.202 420.68 196.5 426C195.371 427.641 193.871 428.641 192 429Z" fill="#F5E0DC"/>
<path fill-rule="evenodd" clip-rule="evenodd" d="M396 479C396.989 473.525 397.322 467.858 397 462C366 462 335 462 304 462C295.519 458.063 294.852 452.896 302 446.5C333.332 446 364.665 445.833 396 446C396.989 440.525 397.322 434.858 397 429C371.333 429 345.667 429 320 429C314.095 426.313 312.595 421.98 315.5 416C316.403 414.799 317.569 413.965 319 413.5C350.332 413 381.665 412.833 413 413C413 407.333 413 401.667 413 396C400.329 396.167 387.662 396 375 395.5C361.574 390.126 355.074 380.293 355.5 366C356.851 364.49 358.518 363.49 360.5 363C370.606 367.97 380.773 372.803 391 377.5C393.667 378.167 396.333 378.833 399 379.5C409 379.833 419 380.167 429 380.5C433.558 381.446 437.558 383.446 441 386.5C447.468 393.97 454.302 401.136 461.5 408C462.167 427.667 462.167 447.333 461.5 467C454.365 475.136 446.865 482.97 439 490.5C436.118 492.108 433.118 493.441 430 494.5C398.333 495.167 366.667 495.167 335 494.5C328.41 489.682 328.41 484.682 335 479.5C355.331 479 375.664 478.833 396 479Z" fill="#F5E0DC"/>
<path fill-rule="evenodd" clip-rule="evenodd" d="M164 395C173.667 395.667 183.333 396.333 193 397C182.978 397.332 172.978 396.999 163 396C163.124 395.393 163.457 395.06 164 395Z" fill="#A6E3A1"/>
<path fill-rule="evenodd" clip-rule="evenodd" d="M348 395C348.543 395.06 348.876 395.393 349 396C338.354 396.999 327.687 397.332 317 397C327.333 396.333 337.667 395.667 348 395Z" fill="#A6E3A1"/>
<path fill-rule="evenodd" clip-rule="evenodd" d="M245 396C251.667 396 258.333 396 265 396C265 421.667 265 447.333 265 473C264.001 448.408 263.667 423.075 264 397C257.478 397.323 251.145 396.99 245 396Z" fill="#A6E3A1"/>
<path fill-rule="evenodd" clip-rule="evenodd" d="M17 405C17 426.667 17 448.333 17 470C20.3333 470 23.6667 470 27 470C23.5381 470.982 19.8714 471.315 16 471C15.6693 448.827 16.0026 426.827 17 405Z" fill="#B4BEFE"/>
<path fill-rule="evenodd" clip-rule="evenodd" d="M17 405C20.6817 404.835 24.3484 405.001 28 405.5C30.1667 406.333 31.6667 407.833 32.5 410C33.1667 428.333 33.1667 446.667 32.5 465C31.4243 467.579 29.591 469.246 27 470C23.6667 470 20.3333 470 17 470C17 448.333 17 426.667 17 405Z" fill="#B4BEFE"/>
<path fill-rule="evenodd" clip-rule="evenodd" d="M495 405C495 426.667 495 448.333 495 470C491.667 470 488.333 470 485 470C482.409 469.246 480.576 467.579 479.5 465C478.833 446.667 478.833 428.333 479.5 410C480.285 408.214 481.451 406.714 483 405.5C486.986 405.001 490.986 404.834 495 405Z" fill="#F38BA8"/>
<path fill-rule="evenodd" clip-rule="evenodd" d="M495 405C495.997 426.827 496.331 448.827 496 471C492.129 471.315 488.462 470.982 485 470C488.333 470 491.667 470 495 470C495 448.333 495 426.667 495 405Z" fill="#F38BA8"/>
<path fill-rule="evenodd" clip-rule="evenodd" d="M247 413C248.163 433.163 248.329 453.496 247.5 474C246.783 473.456 246.283 472.789 246 472C246.997 452.507 247.33 432.84 247 413Z" fill="#A6E3A1"/>
<path fill-rule="evenodd" clip-rule="evenodd" d="M192 429C166.839 429.998 141.505 430.331 116 430C116 435.333 116 440.667 116 446C115.011 440.525 114.678 434.858 115 429C140.667 429 166.333 429 192 429Z" fill="#F5E0DC"/>
<path fill-rule="evenodd" clip-rule="evenodd" d="M320 429C345.667 429 371.333 429 397 429C397.322 434.858 396.989 440.525 396 446C396 440.667 396 435.333 396 430C370.495 430.331 345.161 429.998 320 429Z" fill="#F5E0DC"/>
<path fill-rule="evenodd" clip-rule="evenodd" d="M208 462C177.505 462.998 146.838 463.331 116 463C116 468.333 116 473.667 116 479C115.011 473.525 114.678 467.858 115 462C146 462 177 462 208 462Z" fill="#F5E0DC"/>
<path fill-rule="evenodd" clip-rule="evenodd" d="M304 462C335 462 366 462 397 462C397.322 467.858 396.989 473.525 396 479C396 473.667 396 468.333 396 463C365.162 463.331 334.495 462.998 304 462Z" fill="#F5E0DC"/>
</svg>
