<svg width="1560" height="512" viewBox="0 0 1560 512" fill="none" xmlns="http://www.w3.org/2000/svg">
<g clip-path="url(#clip0_5_13)">
<rect x="36" y="35" width="242" height="449" fill="#CBA6F7"/>
<rect x="230" y="137" width="130" height="341" fill="#CBA6F7"/>
<path opacity="0.993" fill-rule="evenodd" clip-rule="evenodd" d="M393.659 153.73C393.659 248.857 393.659 343.985 393.659 439.112C389.961 470.05 374.052 492.182 345.933 505.507C337.664 508.922 329.112 511.033 320.284 511.838C238.035 511.838 155.786 511.838 73.5371 511.838C45.6281 508.955 24.4705 495.536 10.0647 471.579C4.66019 461.751 1.41353 451.252 0.324687 440.086C0.108242 317.362 0.108242 194.638 0.324687 71.9138C3.11984 47.3183 14.5373 27.8924 34.5771 13.636C46.0849 5.97584 58.7469 1.53873 72.5631 0.324687C128.514 0.108242 184.465 0.108242 240.416 0.324687C245.673 1.10288 250.651 2.72621 255.351 5.19469C264.634 10.5798 273.183 16.9649 280.999 24.3501C309.291 52.3166 337.482 80.4003 365.575 108.601C373.172 116.448 379.99 124.89 386.029 133.925C389.896 140.064 392.438 146.665 393.659 153.73ZM105.679 39.4471C144.639 39.3929 183.599 39.4471 222.559 39.6094C227.618 41.0967 231.135 44.2892 233.111 49.1871C235.112 55.1876 236.086 61.3563 236.033 67.6931C236.141 92.1513 236.25 116.61 236.358 141.068C238.397 150.142 243.97 155.607 253.078 157.464C276.995 157.572 300.912 157.68 324.829 157.788C330.206 157.86 335.508 158.51 340.738 159.736C348.02 161.608 352.403 166.207 353.887 173.535C354.105 261.627 354.105 349.722 353.887 437.814C351.189 454.472 341.826 465.459 325.803 470.767C323.672 471.368 321.508 471.8 319.31 472.066C237.711 472.284 156.111 472.284 74.5111 472.066C58.332 469.689 47.3475 460.868 41.5574 445.606C40.4909 442.223 39.8415 438.758 39.6094 435.216C39.2867 314.651 39.3948 194.091 39.9341 73.5371C42.8587 56.8168 52.4363 45.9404 68.6671 40.9081C70.3752 40.4584 72.1066 40.1337 73.8618 39.9341C84.5225 39.8795 95.1284 39.7172 105.679 39.4471Z" fill="#11111B"/>
<circle cx="197.5" cy="293.5" r="37.5" fill="#11111B"/>
</g>
<rect x="545" y="386" width="1007" height="41" rx="20.5" fill="#CBA6F7" stroke="#11111B" stroke-width="16" stroke-linejoin="round"/>
<path d="M611 332.25C611 335.25 610.458 338.083 609.375 340.75C608.292 343.333 606.792 345.583 604.875 347.5C602.958 349.417 600.708 350.917 598.125 352C595.542 353.167 592.75 353.75 589.75 353.75C586.833 353.75 584.042 353.167 581.375 352C578.792 350.917 576.5 349.417 574.5 347.5C572.583 345.583 571.042 343.333 569.875 340.75C568.792 338.083 568.25 335.25 568.25 332.25C568.25 329.333 568.792 326.583 569.875 324C571.042 321.417 572.583 319.167 574.5 317.25C576.5 315.333 578.792 313.833 581.375 312.75C584.042 311.583 586.833 311 589.75 311C592.75 311 595.542 311.583 598.125 312.75C600.708 313.833 602.958 315.333 604.875 317.25C606.792 319.167 608.292 321.417 609.375 324C610.458 326.583 611 329.333 611 332.25ZM783.75 255.375C783.75 263.625 782.667 271.583 780.5 279.25C778.417 286.833 775.417 293.958 771.5 300.625C767.583 307.208 762.917 313.25 757.5 318.75C752.083 324.167 746.042 328.833 739.375 332.75C732.708 336.667 725.542 339.708 717.875 341.875C710.292 343.958 702.375 345 694.125 345H640.125V165.75H694.125C702.375 165.75 710.292 166.833 717.875 169C725.542 171.083 732.708 174.083 739.375 178C746.042 181.917 752.083 186.625 757.5 192.125C762.917 197.542 767.583 203.583 771.5 210.25C775.417 216.833 778.417 223.958 780.5 231.625C782.667 239.208 783.75 247.125 783.75 255.375ZM747.875 255.375C747.875 247.958 746.458 241 743.625 234.5C740.875 228 737.042 222.333 732.125 217.5C727.292 212.583 721.583 208.708 715 205.875C708.5 203.042 701.542 201.625 694.125 201.625H676.25V309.125H694.125C701.542 309.125 708.5 307.75 715 305C721.583 302.167 727.292 298.333 732.125 293.5C737.042 288.583 740.875 282.875 743.625 276.375C746.458 269.792 747.875 262.792 747.875 255.375ZM933.375 276.875C933.375 286.875 931.583 296.208 928 304.875C924.417 313.458 919.542 320.917 913.375 327.25C907.208 333.5 899.958 338.458 891.625 342.125C883.375 345.708 874.5 347.5 865 347.5C855.583 347.5 846.708 345.708 838.375 342.125C830.125 338.458 822.875 333.5 816.625 327.25C810.458 320.917 805.583 313.458 802 304.875C798.417 296.208 796.625 286.875 796.625 276.875C796.625 266.708 798.417 257.292 802 248.625C805.583 239.958 810.458 232.5 816.625 226.25C822.875 219.917 830.125 214.958 838.375 211.375C846.708 207.792 855.583 206 865 206C874.5 206 883.375 207.708 891.625 211.125C899.958 214.458 907.208 219.25 913.375 225.5C919.542 231.667 924.417 239.125 928 247.875C931.583 256.542 933.375 266.208 933.375 276.875ZM899 276.875C899 271.375 898.083 266.417 896.25 262C894.5 257.5 892.083 253.667 889 250.5C885.917 247.25 882.292 244.792 878.125 243.125C874.042 241.375 869.667 240.5 865 240.5C860.333 240.5 855.917 241.375 851.75 243.125C847.667 244.792 844.083 247.25 841 250.5C838 253.667 835.625 257.5 833.875 262C832.125 266.417 831.25 271.375 831.25 276.875C831.25 282.042 832.125 286.833 833.875 291.25C835.625 295.667 838 299.5 841 302.75C844.083 306 847.667 308.583 851.75 310.5C855.917 312.333 860.333 313.25 865 313.25C869.667 313.25 874.042 312.375 878.125 310.625C882.292 308.875 885.917 306.417 889 303.25C892.083 300.083 894.5 296.25 896.25 291.75C898.083 287.25 899 282.292 899 276.875ZM1018.38 345C1010.12 345 1002.38 343.458 995.125 340.375C987.875 337.208 981.5 332.917 976 327.5C970.583 322 966.292 315.625 963.125 308.375C960.042 301.125 958.5 293.375 958.5 285.125V245.375H941.875V211.375H958.5V157.875H992.5V211.375H1044.25V245.375H992.5V285.125C992.5 288.708 993.167 292.083 994.5 295.25C995.833 298.333 997.667 301.042 1000 303.375C1002.33 305.708 1005.08 307.583 1008.25 309C1011.42 310.333 1014.79 311 1018.38 311H1044.25V345H1018.38ZM1106.88 345H1072.75V245.125H1056.12V211.125H1072.75V204.75C1072.75 196.5 1074.29 188.75 1077.38 181.5C1080.54 174.25 1084.83 167.958 1090.25 162.625C1095.75 157.208 1102.12 152.958 1109.38 149.875C1116.62 146.708 1124.38 145.125 1132.62 145.125H1158.25V179.125H1132.62C1128.96 179.125 1125.54 179.792 1122.38 181.125C1119.29 182.375 1116.58 184.167 1114.25 186.5C1112 188.75 1110.21 191.458 1108.88 194.625C1107.54 197.708 1106.88 201.083 1106.88 204.75V211.125H1148.75V245.125H1106.88V345ZM1210.25 174.75C1210.25 177.917 1209.62 180.875 1208.38 183.625C1207.21 186.375 1205.58 188.792 1203.5 190.875C1201.42 192.875 1198.96 194.5 1196.12 195.75C1193.38 196.917 1190.42 197.5 1187.25 197.5C1184.08 197.5 1181.08 196.917 1178.25 195.75C1175.5 194.5 1173.08 192.875 1171 190.875C1169 188.792 1167.38 186.375 1166.12 183.625C1164.96 180.875 1164.38 177.917 1164.38 174.75C1164.38 171.667 1164.96 168.75 1166.12 166C1167.38 163.167 1169 160.75 1171 158.75C1173.08 156.667 1175.5 155.042 1178.25 153.875C1181.08 152.625 1184.08 152 1187.25 152C1190.42 152 1193.38 152.625 1196.12 153.875C1198.96 155.042 1201.42 156.667 1203.5 158.75C1205.58 160.75 1207.21 163.167 1208.38 166C1209.62 168.75 1210.25 171.667 1210.25 174.75ZM1204.38 345H1170V211.125H1204.38V345ZM1264.88 345H1230.5V157.875H1264.88V345ZM1344.25 312.25C1345.58 312.667 1346.92 312.958 1348.25 313.125C1349.58 313.208 1350.92 313.25 1352.25 313.25C1355.58 313.25 1358.79 312.792 1361.88 311.875C1364.96 310.958 1367.83 309.667 1370.5 308C1373.25 306.25 1375.67 304.167 1377.75 301.75C1379.92 299.25 1381.67 296.5 1383 293.5L1408 318.625C1404.83 323.125 1401.17 327.167 1397 330.75C1392.92 334.333 1388.46 337.375 1383.62 339.875C1378.88 342.375 1373.83 344.25 1368.5 345.5C1363.25 346.833 1357.83 347.5 1352.25 347.5C1342.83 347.5 1333.96 345.75 1325.62 342.25C1317.38 338.75 1310.12 333.875 1303.88 327.625C1297.71 321.375 1292.83 313.958 1289.25 305.375C1285.67 296.708 1283.88 287.208 1283.88 276.875C1283.88 266.292 1285.67 256.625 1289.25 247.875C1292.83 239.125 1297.71 231.667 1303.88 225.5C1310.12 219.333 1317.38 214.542 1325.62 211.125C1333.96 207.708 1342.83 206 1352.25 206C1357.83 206 1363.29 206.667 1368.62 208C1373.96 209.333 1379 211.25 1383.75 213.75C1388.58 216.25 1393.08 219.333 1397.25 223C1401.42 226.583 1405.08 230.625 1408.25 235.125L1344.25 312.25ZM1361.75 241.875C1360.17 241.292 1358.58 240.917 1357 240.75C1355.5 240.583 1353.92 240.5 1352.25 240.5C1347.58 240.5 1343.17 241.375 1339 243.125C1334.92 244.792 1331.33 247.208 1328.25 250.375C1325.25 253.542 1322.88 257.375 1321.12 261.875C1319.38 266.292 1318.5 271.292 1318.5 276.875C1318.5 278.125 1318.54 279.542 1318.62 281.125C1318.79 282.708 1319 284.333 1319.25 286C1319.58 287.583 1319.96 289.125 1320.38 290.625C1320.79 292.125 1321.33 293.458 1322 294.625L1361.75 241.875ZM1499 345H1421V311H1499C1501.33 311 1503.33 310.167 1505 308.5C1506.67 306.833 1507.5 304.833 1507.5 302.5C1507.5 300.083 1506.67 298.5 1505 297.75C1503.33 297 1501.33 296.625 1499 296.625H1463.5C1457.58 296.625 1452.04 295.5 1446.88 293.25C1441.71 291 1437.21 287.958 1433.38 284.125C1429.54 280.208 1426.5 275.667 1424.25 270.5C1422.08 265.333 1421 259.792 1421 253.875C1421 247.958 1422.08 242.417 1424.25 237.25C1426.5 232.083 1429.54 227.583 1433.38 223.75C1437.21 219.917 1441.71 216.917 1446.88 214.75C1452.04 212.5 1457.58 211.375 1463.5 211.375H1532.62V245.375H1463.5C1461.17 245.375 1459.17 246.208 1457.5 247.875C1455.83 249.542 1455 251.542 1455 253.875C1455 256.292 1455.83 258.375 1457.5 260.125C1459.17 261.792 1461.17 262.625 1463.5 262.625H1499C1504.83 262.625 1510.33 263.625 1515.5 265.625C1520.67 267.542 1525.17 270.25 1529 273.75C1532.83 277.25 1535.88 281.458 1538.12 286.375C1540.38 291.292 1541.5 296.667 1541.5 302.5C1541.5 308.417 1540.38 313.958 1538.12 319.125C1535.88 324.208 1532.83 328.708 1529 332.625C1525.17 336.458 1520.67 339.5 1515.5 341.75C1510.33 343.917 1504.83 345 1499 345Z" fill="#CBA6F7"/>
<path d="M609.375 340.75L616.753 343.844C616.764 343.816 616.775 343.789 616.787 343.761L609.375 340.75ZM598.125 352L595.031 344.622C594.965 344.65 594.898 344.679 594.832 344.709L598.125 352ZM581.375 352L584.582 344.671C584.544 344.654 584.507 344.638 584.469 344.622L581.375 352ZM574.5 347.5L568.843 353.157C568.883 353.197 568.924 353.237 568.965 353.276L574.5 347.5ZM569.875 340.75L562.463 343.761C562.502 343.856 562.542 343.95 562.584 344.043L569.875 340.75ZM569.875 324L562.584 320.707C562.554 320.773 562.525 320.84 562.497 320.906L569.875 324ZM574.5 317.25L568.965 311.474C568.924 311.513 568.883 311.553 568.843 311.593L574.5 317.25ZM581.375 312.75L584.469 320.128C584.507 320.112 584.544 320.096 584.582 320.079L581.375 312.75ZM598.125 312.75L594.832 320.041C594.898 320.071 594.965 320.1 595.031 320.128L598.125 312.75ZM603 332.25C603 334.262 602.642 336.069 601.963 337.739L616.787 343.761C618.275 340.098 619 336.238 619 332.25H603ZM601.997 337.656C601.302 339.314 600.376 340.686 599.218 341.843L610.532 353.157C613.208 350.481 615.281 347.352 616.753 343.844L601.997 337.656ZM599.218 341.843C598.061 343.001 596.689 343.927 595.031 344.622L601.219 359.378C604.727 357.906 607.856 355.833 610.532 353.157L599.218 341.843ZM594.832 344.709C593.344 345.381 591.682 345.75 589.75 345.75V361.75C593.818 361.75 597.74 360.952 601.418 359.291L594.832 344.709ZM589.75 345.75C587.935 345.75 586.235 345.394 584.582 344.671L578.168 359.329C581.848 360.939 585.732 361.75 589.75 361.75V345.75ZM584.469 344.622C582.78 343.914 581.318 342.954 580.035 341.724L568.965 353.276C571.682 355.879 574.803 357.919 578.281 359.378L584.469 344.622ZM580.157 341.843C578.954 340.64 577.954 339.201 577.166 337.457L562.584 344.043C564.13 347.465 566.213 350.526 568.843 353.157L580.157 341.843ZM577.287 337.739C576.608 336.069 576.25 334.262 576.25 332.25H560.25C560.25 336.238 560.975 340.098 562.463 343.761L577.287 337.739ZM576.25 332.25C576.25 330.351 576.597 328.657 577.253 327.094L562.497 320.906C560.986 324.51 560.25 328.316 560.25 332.25H576.25ZM577.166 327.293C577.954 325.549 578.954 324.11 580.157 322.907L568.843 311.593C566.213 314.224 564.13 317.285 562.584 320.707L577.166 327.293ZM580.035 323.026C581.318 321.796 582.78 320.836 584.469 320.128L578.281 305.372C574.803 306.831 571.682 308.871 568.965 311.474L580.035 323.026ZM584.582 320.079C586.235 319.356 587.935 319 589.75 319V303C585.732 303 581.848 303.811 578.168 305.421L584.582 320.079ZM589.75 319C591.682 319 593.344 319.369 594.832 320.041L601.418 305.459C597.74 303.798 593.818 303 589.75 303V319ZM595.031 320.128C596.689 320.823 598.061 321.749 599.218 322.907L610.532 311.593C607.856 308.917 604.727 306.844 601.219 305.372L595.031 320.128ZM599.218 322.907C600.376 324.064 601.302 325.436 601.997 327.094L616.753 320.906C615.281 317.398 613.208 314.269 610.532 311.593L599.218 322.907ZM601.997 327.094C602.653 328.657 603 330.351 603 332.25H619C619 328.316 618.264 324.51 616.753 320.906L601.997 327.094ZM780.5 279.25L772.802 277.074C772.796 277.093 772.791 277.112 772.786 277.131L780.5 279.25ZM771.5 300.625L778.375 304.715C778.383 304.703 778.39 304.69 778.398 304.677L771.5 300.625ZM757.5 318.75L763.157 324.407C763.171 324.392 763.186 324.378 763.2 324.364L757.5 318.75ZM717.875 341.875L719.994 349.589C720.013 349.584 720.032 349.579 720.051 349.573L717.875 341.875ZM640.125 345H632.125C632.125 349.418 635.707 353 640.125 353V345ZM640.125 165.75V157.75C635.707 157.75 632.125 161.332 632.125 165.75H640.125ZM717.875 169L715.677 176.692C715.71 176.702 715.744 176.711 715.777 176.72L717.875 169ZM757.5 192.125L751.8 197.739C751.814 197.753 751.829 197.767 751.843 197.782L757.5 192.125ZM771.5 210.25L764.602 214.302C764.61 214.315 764.617 214.328 764.625 214.34L771.5 210.25ZM780.5 231.625L772.78 233.723C772.789 233.756 772.798 233.79 772.808 233.823L780.5 231.625ZM743.625 234.5L736.257 237.617C736.269 237.644 736.28 237.67 736.291 237.697L743.625 234.5ZM732.125 217.5L726.42 223.108C726.452 223.141 726.484 223.173 726.517 223.205L732.125 217.5ZM715 205.875L711.803 213.209C711.815 213.214 711.826 213.218 711.837 213.223L715 205.875ZM676.25 201.625V193.625C671.832 193.625 668.25 197.207 668.25 201.625H676.25ZM676.25 309.125H668.25C668.25 313.543 671.832 317.125 676.25 317.125V309.125ZM715 305L718.117 312.368C718.132 312.361 718.147 312.355 718.163 312.348L715 305ZM732.125 293.5L726.468 287.843L732.125 293.5ZM743.625 276.375L736.277 273.212C736.27 273.228 736.264 273.243 736.257 273.258L743.625 276.375ZM775.75 255.375C775.75 262.916 774.761 270.14 772.802 277.074L788.198 281.426C790.572 273.026 791.75 264.334 791.75 255.375H775.75ZM772.786 277.131C770.885 284.048 768.157 290.522 764.602 296.573L778.398 304.677C782.676 297.395 785.948 289.618 788.214 281.369L772.786 277.131ZM764.625 296.535C761.04 302.561 756.769 308.092 751.8 313.136L763.2 324.364C769.065 318.408 774.127 311.856 778.375 304.715L764.625 296.535ZM751.843 313.093C746.911 318.025 741.41 322.276 735.323 325.852L743.427 339.648C750.674 335.39 757.256 330.308 763.157 324.407L751.843 313.093ZM735.323 325.852C729.262 329.413 722.729 332.19 715.699 334.177L720.051 349.573C728.354 347.227 736.154 343.921 743.427 339.648L735.323 325.852ZM715.756 334.161C708.896 336.045 701.694 337 694.125 337V353C703.056 353 711.687 351.871 719.994 349.589L715.756 334.161ZM694.125 337H640.125V353H694.125V337ZM648.125 345V165.75H632.125V345H648.125ZM640.125 173.75H694.125V157.75H640.125V173.75ZM694.125 173.75C701.666 173.75 708.841 174.739 715.677 176.692L720.073 161.308C711.742 158.928 703.084 157.75 694.125 157.75V173.75ZM715.777 176.72C722.778 178.622 729.285 181.35 735.323 184.898L743.427 171.102C736.132 166.816 728.306 163.544 719.973 161.28L715.777 176.72ZM735.323 184.898C741.387 188.461 746.875 192.738 751.8 197.739L763.2 186.511C757.292 180.512 750.696 175.373 743.427 171.102L735.323 184.898ZM751.843 197.782C756.775 202.714 761.026 208.215 764.602 214.302L778.398 206.198C774.14 198.951 769.058 192.369 763.157 186.468L751.843 197.782ZM764.625 214.34C768.157 220.278 770.88 226.729 772.78 233.723L788.22 229.527C785.954 221.187 782.676 213.389 778.375 206.16L764.625 214.34ZM772.808 233.823C774.761 240.659 775.75 247.834 775.75 255.375H791.75C791.75 246.416 790.572 237.758 788.192 229.427L772.808 233.823ZM755.875 255.375C755.875 246.91 754.252 238.858 750.959 231.303L736.291 237.697C738.665 243.142 739.875 249.007 739.875 255.375H755.875ZM750.993 231.383C747.842 223.936 743.419 217.384 737.733 211.795L726.517 223.205C730.664 227.282 733.908 232.064 736.257 237.617L750.993 231.383ZM737.83 211.892C732.241 206.207 725.66 201.753 718.163 198.527L711.837 213.223C717.507 215.663 722.342 218.96 726.42 223.108L737.83 211.892ZM718.197 198.541C710.642 195.248 702.59 193.625 694.125 193.625V209.625C700.493 209.625 706.358 210.835 711.803 213.209L718.197 198.541ZM694.125 193.625H676.25V209.625H694.125V193.625ZM668.25 201.625V309.125H684.25V201.625H668.25ZM676.25 317.125H694.125V301.125H676.25V317.125ZM694.125 317.125C702.557 317.125 710.581 315.556 718.117 312.368L711.883 297.632C706.419 299.944 700.526 301.125 694.125 301.125V317.125ZM718.163 312.348C725.631 309.134 732.197 304.741 737.782 299.157L726.468 287.843C722.386 291.925 717.536 295.199 711.837 297.652L718.163 312.348ZM737.782 299.157C743.438 293.501 747.847 286.926 750.993 279.492L736.257 273.258C733.903 278.824 730.645 283.666 726.468 287.843L737.782 299.157ZM750.973 279.538C754.252 271.92 755.875 263.84 755.875 255.375H739.875C739.875 261.743 738.665 267.663 736.277 273.212L750.973 279.538ZM928 304.875L935.382 307.957C935.386 307.949 935.39 307.94 935.393 307.932L928 304.875ZM913.375 327.25L919.07 332.869C919.082 332.856 919.094 332.844 919.107 332.831L913.375 327.25ZM891.625 342.125L894.812 349.463C894.824 349.458 894.835 349.453 894.847 349.448L891.625 342.125ZM838.375 342.125L835.126 349.435C835.155 349.449 835.185 349.462 835.215 349.474L838.375 342.125ZM816.625 327.25L810.893 332.831C810.918 332.856 810.943 332.882 810.968 332.907L816.625 327.25ZM802 304.875L794.607 307.932C794.61 307.94 794.614 307.949 794.618 307.957L802 304.875ZM802 248.625L794.607 245.568L802 248.625ZM816.625 226.25L810.931 220.631L810.93 220.631L816.625 226.25ZM838.375 211.375L835.215 204.026C835.206 204.03 835.197 204.033 835.188 204.037L838.375 211.375ZM891.625 211.125L888.564 218.516C888.594 218.529 888.624 218.541 888.654 218.553L891.625 211.125ZM913.375 225.5L907.68 231.119C907.693 231.132 907.705 231.144 907.718 231.157L913.375 225.5ZM928 247.875L920.597 250.907C920.6 250.915 920.604 250.923 920.607 250.932L928 247.875ZM896.25 262L888.794 264.9C888.816 264.956 888.838 265.011 888.861 265.067L896.25 262ZM889 250.5L883.196 256.006C883.22 256.031 883.244 256.056 883.268 256.081L889 250.5ZM878.125 243.125L874.974 250.478C875.033 250.504 875.093 250.529 875.154 250.553L878.125 243.125ZM851.75 243.125L854.773 250.532C854.798 250.522 854.823 250.511 854.848 250.501L851.75 243.125ZM841 250.5L835.196 244.994L835.192 244.998L841 250.5ZM833.875 262L841.312 264.947C841.319 264.931 841.325 264.915 841.331 264.9L833.875 262ZM841 302.75L835.122 308.176C835.146 308.203 835.171 308.23 835.196 308.256L841 302.75ZM851.75 310.5L848.351 317.742C848.41 317.769 848.469 317.796 848.528 317.823L851.75 310.5ZM878.125 310.625L875.027 303.249C875.009 303.257 874.991 303.264 874.974 303.272L878.125 310.625ZM896.25 291.75L888.841 288.732C888.825 288.771 888.809 288.811 888.794 288.85L896.25 291.75ZM925.375 276.875C925.375 285.897 923.764 294.184 920.607 301.818L935.393 307.932C939.403 298.233 941.375 287.853 941.375 276.875H925.375ZM920.618 301.793C917.402 309.496 913.071 316.095 907.643 321.669L919.107 332.831C926.012 325.739 931.432 317.421 935.382 307.957L920.618 301.793ZM907.68 321.631C902.249 327.136 895.847 331.527 888.403 334.802L894.847 349.448C904.07 345.389 912.168 339.864 919.07 332.869L907.68 321.631ZM888.438 334.787C881.25 337.909 873.466 339.5 865 339.5V355.5C875.534 355.5 885.5 353.507 894.812 349.463L888.438 334.787ZM865 339.5C856.628 339.5 848.832 337.913 841.535 334.776L835.215 349.474C844.585 353.503 854.539 355.5 865 355.5V339.5ZM841.624 334.815C834.252 331.538 827.823 327.134 822.282 321.593L810.968 332.907C817.927 339.866 825.998 345.379 835.126 349.435L841.624 334.815ZM822.357 321.669C816.929 316.095 812.598 309.496 809.382 301.793L794.618 307.957C798.568 317.421 803.988 325.739 810.893 332.831L822.357 321.669ZM809.393 301.818C806.236 294.184 804.625 285.897 804.625 276.875H788.625C788.625 287.853 790.597 298.233 794.607 307.932L809.393 301.818ZM804.625 276.875C804.625 267.668 806.243 259.3 809.393 251.682L794.607 245.568C790.59 255.283 788.625 265.748 788.625 276.875H804.625ZM809.393 251.682C812.608 243.905 816.928 237.333 822.32 231.869L810.93 220.631C803.989 227.667 798.558 236.012 794.607 245.568L809.393 251.682ZM822.319 231.869C827.843 226.272 834.239 221.893 841.562 218.713L835.188 204.037C826.011 208.023 817.907 213.562 810.931 220.631L822.319 231.869ZM841.535 218.724C848.832 215.587 856.628 214 865 214V198C854.539 198 844.585 199.997 835.215 204.026L841.535 218.724ZM865 214C873.518 214 881.345 215.527 888.564 218.516L894.686 203.734C885.405 199.89 875.482 198 865 198V214ZM888.654 218.553C895.988 221.486 902.305 225.671 907.68 231.119L919.07 219.881C912.112 212.829 903.929 207.43 894.596 203.697L888.654 218.553ZM907.718 231.157C913.073 236.512 917.381 243.056 920.597 250.907L935.403 244.843C931.452 235.194 926.01 226.822 919.032 219.843L907.718 231.157ZM920.607 250.932C923.738 258.505 925.375 267.114 925.375 276.875H941.375C941.375 265.303 939.428 254.578 935.393 244.818L920.607 250.932ZM907 276.875C907 270.479 905.932 264.457 903.639 258.933L888.861 265.067C890.235 268.377 891 272.271 891 276.875H907ZM903.706 259.1C901.603 253.693 898.631 248.923 894.732 244.919L883.268 256.081C885.536 258.41 887.397 261.307 888.794 264.9L903.706 259.1ZM894.804 244.994C890.924 240.905 886.333 237.792 881.096 235.697L875.154 250.553C878.251 251.792 880.909 253.595 883.196 256.006L894.804 244.994ZM881.276 235.772C876.147 233.574 870.694 232.5 865 232.5V248.5C868.639 248.5 871.936 249.176 874.974 250.478L881.276 235.772ZM865 232.5C859.305 232.5 853.832 233.574 848.652 235.749L854.848 250.501C858.002 249.176 861.362 248.5 865 248.5V232.5ZM848.727 235.718C843.575 237.821 839.048 240.934 835.196 244.994L846.804 256.006C849.118 253.566 851.758 251.762 854.773 250.532L848.727 235.718ZM835.192 244.998C831.407 248.994 828.504 253.738 826.419 259.1L841.331 264.9C842.746 261.262 844.593 258.34 846.808 256.002L835.192 244.998ZM826.438 259.053C824.262 264.543 823.25 270.523 823.25 276.875H839.25C839.25 272.227 839.988 268.29 841.312 264.947L826.438 259.053ZM823.25 276.875C823.25 282.962 824.285 288.763 826.438 294.197L841.312 288.303C839.965 284.904 839.25 281.121 839.25 276.875H823.25ZM826.438 294.197C828.523 299.461 831.406 304.151 835.122 308.176L846.878 297.324C844.594 294.849 842.727 291.873 841.312 288.303L826.438 294.197ZM835.196 308.256C838.971 312.235 843.371 315.405 848.351 317.742L855.149 303.258C851.962 301.762 849.196 299.765 846.804 297.244L835.196 308.256ZM848.528 317.823C853.736 320.114 859.253 321.25 865 321.25V305.25C861.414 305.25 858.097 304.553 854.972 303.177L848.528 317.823ZM865 321.25C870.694 321.25 876.147 320.176 881.276 317.978L874.974 303.272C871.936 304.574 868.639 305.25 865 305.25V321.25ZM881.223 318.001C886.356 315.845 890.883 312.784 894.732 308.831L883.268 297.669C880.951 300.049 878.227 301.905 875.027 303.249L881.223 318.001ZM894.732 308.831C898.631 304.827 901.603 300.057 903.706 294.65L888.794 288.85C887.397 292.443 885.536 295.34 883.268 297.669L894.732 308.831ZM903.659 294.768C905.925 289.206 907 283.208 907 276.875H891C891 281.375 890.242 285.294 888.841 288.732L903.659 294.768ZM995.125 340.375L991.923 347.706C991.947 347.717 991.97 347.727 991.994 347.737L995.125 340.375ZM976 327.5L970.3 333.114C970.329 333.143 970.357 333.171 970.386 333.2L976 327.5ZM963.125 308.375L955.763 311.506C955.773 311.53 955.783 311.553 955.794 311.577L963.125 308.375ZM958.5 245.375H966.5C966.5 240.957 962.918 237.375 958.5 237.375V245.375ZM941.875 245.375H933.875C933.875 249.793 937.457 253.375 941.875 253.375V245.375ZM941.875 211.375V203.375C937.457 203.375 933.875 206.957 933.875 211.375H941.875ZM958.5 211.375V219.375C962.918 219.375 966.5 215.793 966.5 211.375H958.5ZM958.5 157.875V149.875C954.082 149.875 950.5 153.457 950.5 157.875H958.5ZM992.5 157.875H1000.5C1000.5 153.457 996.918 149.875 992.5 149.875V157.875ZM992.5 211.375H984.5C984.5 215.793 988.082 219.375 992.5 219.375V211.375ZM1044.25 211.375H1052.25C1052.25 206.957 1048.67 203.375 1044.25 203.375V211.375ZM1044.25 245.375V253.375C1048.67 253.375 1052.25 249.793 1052.25 245.375H1044.25ZM992.5 245.375V237.375C988.082 237.375 984.5 240.957 984.5 245.375H992.5ZM994.5 295.25L987.127 298.354C987.137 298.378 987.147 298.402 987.157 298.425L994.5 295.25ZM1000 303.375L1005.66 297.718L1000 303.375ZM1008.25 309L1004.98 316.303C1005.04 316.327 1005.09 316.35 1005.15 316.373L1008.25 309ZM1044.25 311H1052.25C1052.25 306.582 1048.67 303 1044.25 303V311ZM1044.25 345V353C1048.67 353 1052.25 349.418 1052.25 345H1044.25ZM1018.38 337C1011.15 337 1004.47 335.656 998.256 333.013L991.994 347.737C1000.28 351.261 1009.1 353 1018.38 353V337ZM998.327 333.044C991.951 330.259 986.399 326.513 981.614 321.8L970.386 333.2C976.601 339.32 983.799 344.158 991.923 347.706L998.327 333.044ZM981.7 321.886C976.987 317.101 973.241 311.549 970.456 305.173L955.794 311.577C959.342 319.701 964.18 326.899 970.3 333.114L981.7 321.886ZM970.487 305.244C967.844 299.031 966.5 292.351 966.5 285.125H950.5C950.5 294.399 952.239 303.219 955.763 311.506L970.487 305.244ZM966.5 285.125V245.375H950.5V285.125H966.5ZM958.5 237.375H941.875V253.375H958.5V237.375ZM949.875 245.375V211.375H933.875V245.375H949.875ZM941.875 219.375H958.5V203.375H941.875V219.375ZM966.5 211.375V157.875H950.5V211.375H966.5ZM958.5 165.875H992.5V149.875H958.5V165.875ZM984.5 157.875V211.375H1000.5V157.875H984.5ZM992.5 219.375H1044.25V203.375H992.5V219.375ZM1036.25 211.375V245.375H1052.25V211.375H1036.25ZM1044.25 237.375H992.5V253.375H1044.25V237.375ZM984.5 245.375V285.125H1000.5V245.375H984.5ZM984.5 285.125C984.5 289.728 985.362 294.163 987.127 298.354L1001.87 292.146C1000.97 290.004 1000.5 287.689 1000.5 285.125H984.5ZM987.157 298.425C988.884 302.418 991.283 305.972 994.343 309.032L1005.66 297.718C1004.05 296.111 1002.78 294.249 1001.84 292.075L987.157 298.425ZM994.343 309.032C997.401 312.09 1000.97 314.508 1004.98 316.303L1011.52 301.697C1009.19 300.658 1007.27 299.327 1005.66 297.718L994.343 309.032ZM1005.15 316.373C1009.34 318.138 1013.77 319 1018.38 319V303C1015.81 303 1013.5 302.529 1011.35 301.627L1005.15 316.373ZM1018.38 319H1044.25V303H1018.38V319ZM1036.25 311V345H1052.25V311H1036.25ZM1044.25 337H1018.38V353H1044.25V337ZM1106.88 345V353C1111.29 353 1114.88 349.418 1114.88 345H1106.88ZM1072.75 345H1064.75C1064.75 349.418 1068.33 353 1072.75 353V345ZM1072.75 245.125H1080.75C1080.75 240.707 1077.17 237.125 1072.75 237.125V245.125ZM1056.12 245.125H1048.12C1048.12 249.543 1051.71 253.125 1056.12 253.125V245.125ZM1056.12 211.125V203.125C1051.71 203.125 1048.12 206.707 1048.12 211.125H1056.12ZM1072.75 211.125V219.125C1077.17 219.125 1080.75 215.543 1080.75 211.125H1072.75ZM1077.38 181.5L1070.04 178.298C1070.03 178.322 1070.02 178.345 1070.01 178.369L1077.38 181.5ZM1090.25 162.625L1095.86 168.326L1095.86 168.325L1090.25 162.625ZM1109.38 149.875L1112.51 157.237C1112.53 157.227 1112.55 157.217 1112.58 157.206L1109.38 149.875ZM1158.25 145.125H1166.25C1166.25 140.707 1162.67 137.125 1158.25 137.125V145.125ZM1158.25 179.125V187.125C1162.67 187.125 1166.25 183.543 1166.25 179.125H1158.25ZM1122.38 181.125L1125.38 188.539C1125.41 188.526 1125.45 188.512 1125.48 188.498L1122.38 181.125ZM1114.25 186.5L1119.91 192.157L1114.25 186.5ZM1108.88 194.625L1116.22 197.8C1116.23 197.777 1116.24 197.753 1116.25 197.729L1108.88 194.625ZM1106.88 211.125H1098.88C1098.88 215.543 1102.46 219.125 1106.88 219.125V211.125ZM1148.75 211.125H1156.75C1156.75 206.707 1153.17 203.125 1148.75 203.125V211.125ZM1148.75 245.125V253.125C1153.17 253.125 1156.75 249.543 1156.75 245.125H1148.75ZM1106.88 245.125V237.125C1102.46 237.125 1098.88 240.707 1098.88 245.125H1106.88ZM1106.88 337H1072.75V353H1106.88V337ZM1080.75 345V245.125H1064.75V345H1080.75ZM1072.75 237.125H1056.12V253.125H1072.75V237.125ZM1064.12 245.125V211.125H1048.12V245.125H1064.12ZM1056.12 219.125H1072.75V203.125H1056.12V219.125ZM1080.75 211.125V204.75H1064.75V211.125H1080.75ZM1080.75 204.75C1080.75 197.524 1082.09 190.844 1084.74 184.631L1070.01 178.369C1066.49 186.656 1064.75 195.476 1064.75 204.75H1080.75ZM1084.71 184.702C1087.48 178.348 1091.2 172.914 1095.86 168.326L1084.64 156.924C1078.46 163.003 1073.6 170.152 1070.04 178.298L1084.71 184.702ZM1095.86 168.325C1100.63 163.628 1106.16 159.935 1112.51 157.237L1106.24 142.513C1098.09 145.981 1090.87 150.789 1084.64 156.925L1095.86 168.325ZM1112.58 157.206C1118.77 154.5 1125.43 153.125 1132.62 153.125V137.125C1123.32 137.125 1114.48 138.917 1106.17 142.544L1112.58 157.206ZM1132.62 153.125H1158.25V137.125H1132.62V153.125ZM1150.25 145.125V179.125H1166.25V145.125H1150.25ZM1158.25 171.125H1132.62V187.125H1158.25V171.125ZM1132.62 171.125C1127.96 171.125 1123.48 171.978 1119.27 173.752L1125.48 188.498C1127.6 187.606 1129.95 187.125 1132.62 187.125V171.125ZM1119.37 173.711C1115.3 175.36 1111.69 177.746 1108.59 180.843L1119.91 192.157C1121.48 190.587 1123.28 189.39 1125.38 188.539L1119.37 173.711ZM1108.59 180.843C1105.55 183.882 1103.2 187.477 1101.5 191.521L1116.25 197.729C1117.21 195.44 1118.45 193.618 1119.91 192.157L1108.59 180.843ZM1101.53 191.45C1099.73 195.624 1098.88 200.092 1098.88 204.75H1114.88C1114.88 202.075 1115.36 199.793 1116.22 197.8L1101.53 191.45ZM1098.88 204.75V211.125H1114.88V204.75H1098.88ZM1106.88 219.125H1148.75V203.125H1106.88V219.125ZM1140.75 211.125V245.125H1156.75V211.125H1140.75ZM1148.75 237.125H1106.88V253.125H1148.75V237.125ZM1098.88 245.125V345H1114.88V245.125H1098.88ZM1208.38 183.625L1201.09 180.315C1201.06 180.376 1201.04 180.438 1201.01 180.501L1208.38 183.625ZM1203.5 190.875L1209.04 196.646C1209.08 196.608 1209.12 196.57 1209.16 196.532L1203.5 190.875ZM1196.12 195.75L1199.25 203.115C1199.28 203.1 1199.32 203.085 1199.35 203.069L1196.12 195.75ZM1178.25 195.75L1174.94 203.033C1175.03 203.073 1175.12 203.111 1175.2 203.147L1178.25 195.75ZM1171 190.875L1165.23 196.415C1165.3 196.494 1165.38 196.571 1165.46 196.646L1171 190.875ZM1166.12 183.625L1158.76 186.749C1158.79 186.812 1158.81 186.874 1158.84 186.935L1166.12 183.625ZM1166.12 166L1158.81 162.771C1158.79 162.806 1158.78 162.841 1158.76 162.876L1166.12 166ZM1171 158.75L1176.66 164.407L1171 158.75ZM1178.25 153.875L1181.37 161.24C1181.41 161.225 1181.44 161.21 1181.48 161.194L1178.25 153.875ZM1196.12 153.875L1192.81 161.158C1192.9 161.198 1192.99 161.236 1193.08 161.272L1196.12 153.875ZM1203.5 158.75L1197.84 164.407C1197.88 164.445 1197.92 164.483 1197.96 164.521L1203.5 158.75ZM1208.38 166L1200.98 169.046C1201.01 169.135 1201.05 169.223 1201.09 169.31L1208.38 166ZM1204.38 345V353C1208.79 353 1212.38 349.418 1212.38 345H1204.38ZM1170 345H1162C1162 349.418 1165.58 353 1170 353V345ZM1170 211.125V203.125C1165.58 203.125 1162 206.707 1162 211.125H1170ZM1204.38 211.125H1212.38C1212.38 206.707 1208.79 203.125 1204.38 203.125V211.125ZM1202.25 174.75C1202.25 176.831 1201.85 178.654 1201.09 180.315L1215.66 186.935C1217.4 183.096 1218.25 179.002 1218.25 174.75H1202.25ZM1201.01 180.501C1200.24 182.318 1199.19 183.872 1197.84 185.218L1209.16 196.532C1211.98 193.712 1214.18 190.432 1215.74 186.749L1201.01 180.501ZM1197.96 185.104C1196.6 186.411 1194.94 187.53 1192.9 188.431L1199.35 203.069C1202.98 201.47 1206.24 199.339 1209.04 196.646L1197.96 185.104ZM1193 188.385C1191.3 189.108 1189.41 189.5 1187.25 189.5V205.5C1191.42 205.5 1195.45 204.725 1199.25 203.115L1193 188.385ZM1187.25 189.5C1185.09 189.5 1183.13 189.108 1181.3 188.353L1175.2 203.147C1179.04 204.725 1183.07 205.5 1187.25 205.5V189.5ZM1181.56 188.467C1179.6 187.574 1177.94 186.449 1176.54 185.104L1165.46 196.646C1168.23 199.301 1171.4 201.426 1174.94 203.033L1181.56 188.467ZM1176.77 185.335C1175.43 183.934 1174.3 182.279 1173.41 180.315L1158.84 186.935C1160.45 190.471 1162.57 193.65 1165.23 196.415L1176.77 185.335ZM1173.49 180.501C1172.77 178.797 1172.38 176.909 1172.38 174.75H1156.38C1156.38 178.925 1157.15 182.953 1158.76 186.749L1173.49 180.501ZM1172.38 174.75C1172.38 172.705 1172.76 170.854 1173.49 169.124L1158.76 162.876C1157.16 166.646 1156.38 170.628 1156.38 174.75H1172.38ZM1173.44 169.229C1174.33 167.215 1175.42 165.644 1176.66 164.407L1165.34 153.093C1162.58 155.856 1160.42 159.119 1158.81 162.771L1173.44 169.229ZM1176.66 164.407C1178 163.06 1179.56 162.011 1181.37 161.24L1175.13 146.51C1171.44 148.073 1168.16 150.273 1165.34 153.093L1176.66 164.407ZM1181.48 161.194C1183.27 160.403 1185.17 160 1187.25 160V144C1183 144 1178.89 144.847 1175.02 146.556L1181.48 161.194ZM1187.25 160C1189.33 160 1191.15 160.403 1192.81 161.158L1199.44 146.592C1195.6 144.847 1191.5 144 1187.25 144V160ZM1193.08 161.272C1194.98 162.053 1196.54 163.1 1197.84 164.407L1209.16 153.093C1206.3 150.233 1202.94 148.03 1199.17 146.478L1193.08 161.272ZM1197.96 164.521C1199.19 165.705 1200.21 167.176 1200.98 169.046L1215.77 162.954C1214.21 159.157 1211.97 155.795 1209.04 152.979L1197.96 164.521ZM1201.09 169.31C1201.86 170.999 1202.25 172.784 1202.25 174.75H1218.25C1218.25 170.549 1217.39 166.501 1215.66 162.69L1201.09 169.31ZM1204.38 337H1170V353H1204.38V337ZM1178 345V211.125H1162V345H1178ZM1170 219.125H1204.38V203.125H1170V219.125ZM1196.38 211.125V345H1212.38V211.125H1196.38ZM1264.88 345V353C1269.29 353 1272.88 349.418 1272.88 345H1264.88ZM1230.5 345H1222.5C1222.5 349.418 1226.08 353 1230.5 353V345ZM1230.5 157.875V149.875C1226.08 149.875 1222.5 153.457 1222.5 157.875H1230.5ZM1264.88 157.875H1272.88C1272.88 153.457 1269.29 149.875 1264.88 149.875V157.875ZM1264.88 337H1230.5V353H1264.88V337ZM1238.5 345V157.875H1222.5V345H1238.5ZM1230.5 165.875H1264.88V149.875H1230.5V165.875ZM1256.88 157.875V345H1272.88V157.875H1256.88ZM1344.25 312.25L1338.09 307.141C1336.39 309.194 1335.82 311.961 1336.58 314.519C1337.34 317.078 1339.32 319.09 1341.86 319.886L1344.25 312.25ZM1348.25 313.125L1347.26 321.063C1347.42 321.084 1347.59 321.099 1347.75 321.109L1348.25 313.125ZM1370.5 308L1374.74 314.784C1374.76 314.772 1374.78 314.761 1374.8 314.749L1370.5 308ZM1377.75 301.75L1371.7 296.511C1371.7 296.516 1371.7 296.521 1371.69 296.526L1377.75 301.75ZM1383 293.5L1388.67 287.857C1386.81 285.986 1384.14 285.154 1381.55 285.633C1378.95 286.111 1376.76 287.839 1375.69 290.251L1383 293.5ZM1408 318.625L1414.54 323.229C1416.78 320.054 1416.41 315.734 1413.67 312.982L1408 318.625ZM1397 330.75L1391.78 324.685C1391.76 324.702 1391.74 324.719 1391.72 324.737L1397 330.75ZM1383.62 339.875L1379.95 332.769C1379.93 332.778 1379.92 332.787 1379.9 332.796L1383.62 339.875ZM1368.5 345.5L1366.67 337.711C1366.63 337.722 1366.58 337.734 1366.53 337.746L1368.5 345.5ZM1325.62 342.25L1322.5 349.615C1322.51 349.618 1322.52 349.622 1322.53 349.626L1325.62 342.25ZM1303.88 327.625L1298.18 333.244C1298.19 333.257 1298.21 333.269 1298.22 333.282L1303.88 327.625ZM1289.25 305.375L1281.86 308.432C1281.86 308.44 1281.86 308.449 1281.87 308.457L1289.25 305.375ZM1303.88 225.5L1298.26 219.805C1298.24 219.818 1298.23 219.83 1298.22 219.843L1303.88 225.5ZM1325.62 211.125L1322.59 203.723C1322.58 203.727 1322.57 203.73 1322.56 203.734L1325.62 211.125ZM1383.75 213.75L1380.02 220.829C1380.04 220.838 1380.06 220.847 1380.07 220.856L1383.75 213.75ZM1397.25 223L1391.96 229.006C1391.99 229.026 1392.01 229.046 1392.03 229.065L1397.25 223ZM1408.25 235.125L1414.41 240.234C1416.71 237.454 1416.87 233.475 1414.79 230.521L1408.25 235.125ZM1361.75 241.875L1368.14 246.69C1369.66 244.668 1370.14 242.046 1369.43 239.618C1368.71 237.19 1366.89 235.243 1364.52 234.368L1361.75 241.875ZM1357 240.75L1356.12 248.701C1356.13 248.703 1356.15 248.704 1356.16 248.706L1357 240.75ZM1339 243.125L1342.02 250.532C1342.05 250.522 1342.07 250.511 1342.1 250.501L1339 243.125ZM1328.25 250.375L1322.52 244.794C1322.49 244.82 1322.47 244.847 1322.44 244.873L1328.25 250.375ZM1321.12 261.875L1328.56 264.822C1328.57 264.806 1328.57 264.79 1328.58 264.775L1321.12 261.875ZM1318.62 281.125L1310.64 281.545C1310.64 281.685 1310.65 281.824 1310.67 281.962L1318.62 281.125ZM1319.25 286L1311.34 287.187C1311.36 287.341 1311.39 287.495 1311.42 287.648L1319.25 286ZM1322 294.625L1315.05 298.594C1316.39 300.93 1318.81 302.439 1321.49 302.609C1324.18 302.779 1326.77 301.588 1328.39 299.44L1322 294.625ZM1341.86 319.886C1343.63 320.439 1345.43 320.835 1347.26 321.063L1349.24 305.187C1348.4 305.081 1347.53 304.894 1346.64 304.614L1341.86 319.886ZM1347.75 321.109C1349.25 321.203 1350.75 321.25 1352.25 321.25V305.25C1351.08 305.25 1349.92 305.214 1348.75 305.141L1347.75 321.109ZM1352.25 321.25C1356.33 321.25 1360.3 320.688 1364.15 319.543L1359.6 304.207C1357.28 304.896 1354.84 305.25 1352.25 305.25V321.25ZM1364.15 319.543C1367.91 318.426 1371.45 316.841 1374.74 314.784L1366.26 301.216C1364.22 302.492 1362 303.491 1359.6 304.207L1364.15 319.543ZM1374.8 314.749C1378.19 312.589 1381.2 309.995 1383.81 306.974L1371.69 296.526C1370.13 298.338 1368.31 299.911 1366.2 301.251L1374.8 314.749ZM1383.8 306.989C1386.48 303.897 1388.65 300.477 1390.31 296.749L1375.69 290.251C1374.68 292.523 1373.36 294.603 1371.7 296.511L1383.8 306.989ZM1377.33 299.143L1402.33 324.268L1413.67 312.982L1388.67 287.857L1377.33 299.143ZM1401.46 314.021C1398.67 317.982 1395.45 321.532 1391.78 324.685L1402.22 336.815C1406.88 332.801 1411 328.268 1414.54 323.229L1401.46 314.021ZM1391.72 324.737C1388.13 327.892 1384.21 330.567 1379.95 332.769L1387.3 346.981C1392.71 344.183 1397.71 340.775 1402.28 336.763L1391.72 324.737ZM1379.9 332.796C1375.76 334.973 1371.36 336.613 1366.67 337.711L1370.33 353.289C1376.31 351.887 1381.99 349.777 1387.35 346.954L1379.9 332.796ZM1366.53 337.746C1361.94 338.911 1357.19 339.5 1352.25 339.5V355.5C1358.48 355.5 1364.56 354.756 1370.47 353.254L1366.53 337.746ZM1352.25 339.5C1343.85 339.5 1336.03 337.945 1328.72 334.874L1322.53 349.626C1331.88 353.555 1341.81 355.5 1352.25 355.5V339.5ZM1328.75 334.885C1321.43 331.781 1315.04 327.481 1309.53 321.968L1298.22 333.282C1305.21 340.269 1313.32 345.719 1322.5 349.615L1328.75 334.885ZM1309.57 322.006C1304.16 316.529 1299.84 309.987 1296.63 302.293L1281.87 308.457C1285.82 317.929 1291.25 326.221 1298.18 333.244L1309.57 322.006ZM1296.64 302.318C1293.5 294.715 1291.88 286.267 1291.88 276.875H1275.88C1275.88 288.15 1277.83 298.701 1281.86 308.432L1296.64 302.318ZM1291.88 276.875C1291.88 267.208 1293.51 258.586 1296.65 250.907L1281.85 244.843C1277.83 254.664 1275.88 265.376 1275.88 276.875H1291.88ZM1296.65 250.907C1299.87 243.056 1304.18 236.512 1309.53 231.157L1298.22 219.843C1291.24 226.822 1285.8 235.194 1281.85 244.843L1296.65 250.907ZM1309.49 231.195C1315 225.766 1321.37 221.545 1328.69 218.516L1322.56 203.734C1313.38 207.539 1305.25 212.901 1298.26 219.805L1309.49 231.195ZM1328.66 218.527C1335.99 215.523 1343.83 214 1352.25 214V198C1341.84 198 1331.93 199.894 1322.59 203.723L1328.66 218.527ZM1352.25 214C1357.19 214 1362 214.589 1366.68 215.761L1370.57 200.239C1364.59 198.744 1358.48 198 1352.25 198V214ZM1366.68 215.761C1371.41 216.943 1375.85 218.634 1380.02 220.829L1387.48 206.671C1382.15 203.866 1376.5 201.724 1370.57 200.239L1366.68 215.761ZM1380.07 220.856C1384.32 223.05 1388.28 225.761 1391.96 229.006L1402.54 216.994C1397.89 212.905 1392.85 209.45 1387.43 206.644L1380.07 220.856ZM1392.03 229.065C1395.7 232.218 1398.92 235.768 1401.71 239.729L1414.79 230.521C1411.25 225.482 1407.13 220.949 1402.47 216.935L1392.03 229.065ZM1402.09 230.016L1338.09 307.141L1350.41 317.359L1414.41 240.234L1402.09 230.016ZM1364.52 234.368C1362.35 233.57 1360.12 233.034 1357.84 232.794L1356.16 248.706C1357.05 248.799 1357.99 249.014 1358.98 249.382L1364.52 234.368ZM1357.88 232.799C1356.06 232.597 1354.18 232.5 1352.25 232.5V248.5C1353.65 248.5 1354.94 248.57 1356.12 248.701L1357.88 232.799ZM1352.25 232.5C1346.55 232.5 1341.08 233.574 1335.9 235.749L1342.1 250.501C1345.25 249.176 1348.61 248.5 1352.25 248.5V232.5ZM1335.98 235.718C1330.87 237.802 1326.37 240.841 1322.52 244.794L1333.98 255.956C1336.3 253.576 1338.96 251.782 1342.02 250.532L1335.98 235.718ZM1322.44 244.873C1318.66 248.869 1315.75 253.613 1313.67 258.975L1328.58 264.775C1330 261.137 1331.84 258.215 1334.06 255.877L1322.44 244.873ZM1313.69 258.928C1311.51 264.432 1310.5 270.456 1310.5 276.875H1326.5C1326.5 272.127 1327.24 268.152 1328.56 264.822L1313.69 258.928ZM1310.5 276.875C1310.5 278.296 1310.55 279.857 1310.64 281.545L1326.61 280.705C1326.54 279.226 1326.5 277.954 1326.5 276.875H1310.5ZM1310.67 281.962C1310.85 283.669 1311.07 285.411 1311.34 287.187L1327.16 284.813C1326.93 283.256 1326.73 281.748 1326.58 280.288L1310.67 281.962ZM1311.42 287.648C1311.79 289.391 1312.2 291.097 1312.67 292.766L1328.08 288.484C1327.71 287.153 1327.38 285.776 1327.08 284.352L1311.42 287.648ZM1312.67 292.766C1313.23 294.806 1314.01 296.77 1315.05 298.594L1328.95 290.656C1328.66 290.147 1328.35 289.444 1328.08 288.484L1312.67 292.766ZM1328.39 299.44L1368.14 246.69L1355.36 237.06L1315.61 289.81L1328.39 299.44ZM1421 345H1413C1413 349.418 1416.58 353 1421 353V345ZM1421 311V303C1416.58 303 1413 306.582 1413 311H1421ZM1433.38 284.125L1427.66 289.721C1427.68 289.741 1427.7 289.762 1427.72 289.782L1433.38 284.125ZM1424.25 270.5L1416.87 273.594C1416.89 273.627 1416.9 273.661 1416.92 273.694L1424.25 270.5ZM1424.25 237.25L1416.92 234.056C1416.9 234.089 1416.89 234.123 1416.87 234.156L1424.25 237.25ZM1446.88 214.75L1449.97 222.128C1450 222.113 1450.04 222.099 1450.07 222.085L1446.88 214.75ZM1532.62 211.375H1540.62C1540.62 206.957 1537.04 203.375 1532.62 203.375V211.375ZM1532.62 245.375V253.375C1537.04 253.375 1540.62 249.793 1540.62 245.375H1532.62ZM1457.5 260.125L1451.71 265.642C1451.75 265.689 1451.8 265.736 1451.84 265.782L1457.5 260.125ZM1515.5 265.625L1512.61 273.086C1512.65 273.099 1512.68 273.112 1512.72 273.126L1515.5 265.625ZM1538.12 319.125L1545.44 322.363C1545.45 322.348 1545.45 322.334 1545.46 322.319L1538.12 319.125ZM1529 332.625L1534.66 338.282C1534.68 338.262 1534.7 338.241 1534.72 338.221L1529 332.625ZM1515.5 341.75L1518.59 349.128C1518.63 349.113 1518.66 349.099 1518.69 349.085L1515.5 341.75ZM1499 337H1421V353H1499V337ZM1429 345V311H1413V345H1429ZM1421 319H1499V303H1421V319ZM1499 319C1503.48 319 1507.51 317.307 1510.66 314.157L1499.34 302.843C1499.26 302.929 1499.2 302.969 1499.18 302.984C1499.16 302.998 1499.16 302.996 1499.17 302.99C1499.19 302.985 1499.19 302.985 1499.18 302.988C1499.16 302.991 1499.11 303 1499 303V319ZM1510.66 314.157C1513.81 311.007 1515.5 306.979 1515.5 302.5H1499.5C1499.5 302.605 1499.49 302.661 1499.49 302.677C1499.48 302.691 1499.48 302.687 1499.49 302.673C1499.5 302.659 1499.5 302.661 1499.48 302.681C1499.47 302.702 1499.43 302.758 1499.34 302.843L1510.66 314.157ZM1515.5 302.5C1515.5 298.149 1513.78 292.93 1508.28 290.455L1501.72 305.045C1501.39 304.898 1501.01 304.664 1500.64 304.317C1500.26 303.969 1499.99 303.586 1499.8 303.226C1499.43 302.537 1499.5 302.155 1499.5 302.5H1515.5ZM1508.28 290.455C1505.34 289.131 1502.16 288.625 1499 288.625V304.625C1500.5 304.625 1501.33 304.869 1501.72 305.045L1508.28 290.455ZM1499 288.625H1463.5V304.625H1499V288.625ZM1463.5 288.625C1458.63 288.625 1454.18 287.705 1450.07 285.915L1443.68 300.585C1449.91 303.295 1456.54 304.625 1463.5 304.625V288.625ZM1450.07 285.915C1445.78 284.049 1442.13 281.565 1439.03 278.468L1427.72 289.782C1432.29 294.352 1437.63 297.951 1443.68 300.585L1450.07 285.915ZM1439.09 278.529C1435.96 275.328 1433.46 271.606 1431.58 267.306L1416.92 273.694C1419.54 279.727 1423.12 285.089 1427.66 289.721L1439.09 278.529ZM1431.63 267.406C1429.89 263.274 1429 258.79 1429 253.875H1413C1413 260.794 1414.27 267.393 1416.87 273.594L1431.63 267.406ZM1429 253.875C1429 248.96 1429.89 244.476 1431.63 240.344L1416.87 234.156C1414.27 240.357 1413 246.956 1413 253.875H1429ZM1431.58 240.444C1433.45 236.159 1435.94 232.504 1439.03 229.407L1427.72 218.093C1423.15 222.663 1419.55 228.007 1416.92 234.056L1431.58 240.444ZM1439.03 229.407C1442.11 226.333 1445.73 223.906 1449.97 222.128L1443.78 207.372C1437.69 209.927 1432.31 213.501 1427.72 218.093L1439.03 229.407ZM1450.07 222.085C1454.18 220.295 1458.63 219.375 1463.5 219.375V203.375C1456.54 203.375 1449.91 204.705 1443.68 207.415L1450.07 222.085ZM1463.5 219.375H1532.62V203.375H1463.5V219.375ZM1524.62 211.375V245.375H1540.62V211.375H1524.62ZM1532.62 237.375H1463.5V253.375H1532.62V237.375ZM1463.5 237.375C1459.02 237.375 1454.99 239.068 1451.84 242.218L1463.16 253.532C1463.24 253.446 1463.3 253.406 1463.32 253.391C1463.34 253.377 1463.34 253.379 1463.33 253.385C1463.31 253.39 1463.31 253.39 1463.32 253.387C1463.34 253.384 1463.39 253.375 1463.5 253.375V237.375ZM1451.84 242.218C1448.69 245.368 1447 249.396 1447 253.875H1463C1463 253.77 1463.01 253.714 1463.01 253.698C1463.02 253.684 1463.02 253.688 1463.01 253.702C1463 253.716 1463 253.714 1463.02 253.694C1463.03 253.673 1463.07 253.617 1463.16 253.532L1451.84 242.218ZM1447 253.875C1447 258.346 1448.62 262.405 1451.71 265.642L1463.29 254.608C1463.11 254.413 1463.06 254.305 1463.05 254.279C1463.04 254.253 1463 254.145 1463 253.875H1447ZM1451.84 265.782C1454.99 268.932 1459.02 270.625 1463.5 270.625V254.625C1463.39 254.625 1463.34 254.616 1463.32 254.613C1463.31 254.61 1463.31 254.61 1463.33 254.615C1463.34 254.621 1463.34 254.623 1463.32 254.609C1463.3 254.594 1463.24 254.554 1463.16 254.468L1451.84 265.782ZM1463.5 270.625H1499V254.625H1463.5V270.625ZM1499 270.625C1503.9 270.625 1508.41 271.461 1512.61 273.086L1518.39 258.164C1512.25 255.789 1505.77 254.625 1499 254.625V270.625ZM1512.72 273.126C1516.98 274.707 1520.58 276.894 1523.61 279.658L1534.39 267.842C1529.75 263.606 1524.35 260.377 1518.28 258.124L1512.72 273.126ZM1523.61 279.658C1526.61 282.403 1529.03 285.723 1530.85 289.704L1545.4 283.046C1542.72 277.194 1539.05 272.097 1534.39 267.842L1523.61 279.658ZM1530.85 289.704C1532.59 293.495 1533.5 297.724 1533.5 302.5H1549.5C1549.5 295.61 1548.16 289.088 1545.4 283.046L1530.85 289.704ZM1533.5 302.5C1533.5 307.373 1532.58 311.822 1530.79 315.931L1545.46 322.319C1548.17 316.095 1549.5 309.46 1549.5 302.5H1533.5ZM1530.81 315.887C1528.94 320.108 1526.44 323.807 1523.28 327.029L1534.72 338.221C1539.23 333.61 1542.81 328.309 1545.44 322.363L1530.81 315.887ZM1523.34 326.968C1520.25 330.065 1516.59 332.549 1512.31 334.415L1518.69 349.085C1524.74 346.451 1530.09 342.852 1534.66 338.282L1523.34 326.968ZM1512.41 334.372C1508.26 336.111 1503.82 337 1499 337V353C1505.85 353 1512.41 351.722 1518.59 349.128L1512.41 334.372Z" fill="#11111B"/>
<defs>
<clipPath id="clip0_5_13">
<rect width="393.821" height="512" fill="white"/>
</clipPath>
</defs>
</svg>
