<svg width="1520" height="447" viewBox="0 0 1520 447" fill="none" xmlns="http://www.w3.org/2000/svg">
<path fill-rule="evenodd" clip-rule="evenodd" d="M42.67 8H485.33C504.42 8 520 23.58 520 42.67V343.07C520 362.11 504.42 377.74 485.33 377.74H415.53C412.07 370.46 408.43 363.23 404.71 356.03H487.16C492.5 356.03 496.75 351.79 496.75 346.44V105.04H496.92H32.67V346.44C32.67 351.78 36.92 356.03 42.25 356.03H123.43L114.13 373.98L112.39 377.74H42.67C23.58 377.74 8 362.11 8 343.07V42.67C8 23.58 23.58 8 42.67 8ZM271.58 158.99C276.66 160.74 280.95 164.13 284.95 167.62L285.11 167.77C294.21 175.48 295.42 176.82 307.49 177.41C312.14 177.58 316.99 177.76 321.49 179.24C329.65 181.92 334.69 189.11 337.18 196.99C339.46 204.19 338.27 211.42 340.7 218.3C343.02 225.1 348.06 230.34 351.76 236.35C354.65 241.04 356.52 245.31 357.41 249.32C359.46 258.57 356.31 266.8 349.85 273.17C347.67 275.34 341.74 279.79 340.77 281.98C339.14 285.78 339.06 289.29 339.06 292.94C338.98 297.92 338.9 303.04 335.64 309.57L335.56 309.73C331.35 317.84 324.93 323.41 316.2 326.21C309.77 328.27 302.04 325.63 297.7 327.45L297.47 327.53C288.78 331.23 282.26 340.22 273.6 343C270.509 343.984 267.284 344.483 264.04 344.48C260.85 344.48 257.66 344.01 254.48 343L254.32 342.92C250.04 341.6 246.24 338.49 242.19 335.23C238.54 332.27 234.65 329.17 230.38 327.38C228.35 326.52 225.71 326.75 222.83 326.91C219.42 327.14 215.76 327.38 211.8 326.13L211.57 326.06C207.29 324.65 203.56 322.56 200.29 319.84C197.11 317.04 194.38 313.62 192.36 309.49C189.1 302.96 189.02 297.83 188.94 292.86C188.75 283.74 188.6 282.23 182.18 276.69C173.47 269.29 167.7 261.5 170.44 249.17C171.77 243.18 175.33 236.65 181.17 228.95C184.36 224.83 186.14 221.34 187.23 218.15C189.49 211.68 188.56 204.82 190.34 198.15C192.38 190.54 197.27 182.77 204.81 179.71C209.72 177.7 215.17 177.52 220.35 177.34C232.15 176.94 234.05 175.25 242.82 167.62C247 163.98 251.03 160.75 256.34 158.91C261.01 157.55 266.95 157.44 271.58 158.99ZM358.8 416.16L335.41 411.96L323.67 433.03C323.59 433.18 323.51 433.34 323.36 433.41C318.46 439.48 313.95 439.32 310.06 436.14C305.87 432.72 303.06 425.41 301.27 420.59L300.58 418.8L275.78 372C275 370.53 275.55 368.74 277.02 368.04C277.18 367.96 277.33 367.88 277.41 367.88C279.98 367.02 282.85 365.24 285.96 362.91C289.22 360.49 292.64 357.46 296.15 354.35C296.77 353.81 297.55 353.5 298.4 353.58C305.09 353.73 311.62 353.19 317.45 351.24C323.2 349.3 328.48 345.88 333 340.12C334 338.8 335.87 338.57 337.11 339.58C337.43 339.9 337.74 340.2 337.89 340.59L366.58 395.94C368.86 400.86 372.04 406.74 369.22 412.19C367.66 415.22 364.64 416.78 359.51 416.39C359.35 416.31 359.04 416.24 358.8 416.16ZM192.67 411.96L169.27 416.16C169.04 416.24 168.8 416.24 168.49 416.24C163.37 416.62 160.33 415.07 158.78 412.04C157.65 409.91 157.59 407.18 158.21 404C158.85 400.75 159.99 398.87 161.42 395.79L190.11 340.44C190.27 340.05 190.58 339.74 190.89 339.43C192.21 338.42 194 338.65 195.01 339.97C199.44 345.64 204.72 349.07 210.55 351.09C216.46 353.11 222.91 353.58 229.6 353.42C230.38 353.34 231.15 353.58 231.85 354.2C235.35 357.31 238.77 360.34 242.04 362.75C245.15 365.08 248.03 366.87 250.59 367.73L250.98 367.88C252.45 368.66 253 370.45 252.22 371.85L227.42 418.65L226.72 420.43C224.93 425.25 222.14 432.56 217.94 435.98C214.06 439.09 209.62 439.32 204.64 433.26C204.56 433.1 204.41 433.03 204.33 432.87L192.67 411.96ZM292.67 208.75C284.228 203.008 274.25 199.945 264.04 199.96C249.9 199.96 237.14 205.71 227.89 214.96C218.64 224.21 212.89 236.96 212.89 251.11C212.89 265.26 218.64 278.01 227.89 287.26C237.14 296.51 249.9 302.27 264.04 302.27C278.19 302.27 290.94 296.51 300.19 287.26C309.44 278.01 315.19 265.26 315.19 251.11C315.153 241.949 312.682 232.962 308.03 225.07C304.173 218.567 298.928 212.994 292.67 208.75ZM452.33 46.96C461.79 46.96 469.46 54.62 469.46 64.08C469.46 73.54 461.79 81.21 452.33 81.21C442.88 81.21 435.21 73.54 435.21 64.08C435.25 54.62 442.92 46.96 452.33 46.96ZM336.33 46.96C345.79 46.96 353.46 54.62 353.46 64.08C353.46 73.54 345.79 81.21 336.33 81.21C326.88 81.21 319.21 73.54 319.21 64.08C319.21 54.62 326.88 46.96 336.33 46.96ZM394.33 46.96C403.79 46.96 411.46 54.62 411.46 64.08C411.46 73.54 403.79 81.21 394.33 81.21C384.87 81.21 377.21 73.54 377.21 64.08C377.21 54.62 384.87 46.96 394.33 46.96Z" fill="#FAB387" stroke="#11111B" stroke-width="16" stroke-linejoin="round"/>
<rect x="612" y="316" width="900" height="41" rx="20.5" fill="#FAB387" stroke="#11111B" stroke-width="16" stroke-linejoin="round"/>
<path d="M762.125 275H636.625V95.75H672.5V239.125H762.125V275ZM817.5 104.75C817.5 107.917 816.875 110.875 815.625 113.625C814.458 116.375 812.833 118.792 810.75 120.875C808.667 122.875 806.208 124.5 803.375 125.75C800.625 126.917 797.667 127.5 794.5 127.5C791.333 127.5 788.333 126.917 785.5 125.75C782.75 124.5 780.333 122.875 778.25 120.875C776.25 118.792 774.625 116.375 773.375 113.625C772.208 110.875 771.625 107.917 771.625 104.75C771.625 101.667 772.208 98.75 773.375 96C774.625 93.1667 776.25 90.75 778.25 88.75C780.333 86.6667 782.75 85.0417 785.5 83.875C788.333 82.625 791.333 82 794.5 82C797.667 82 800.625 82.625 803.375 83.875C806.208 85.0417 808.667 86.6667 810.75 88.75C812.833 90.75 814.458 93.1667 815.625 96C816.875 98.75 817.5 101.667 817.5 104.75ZM811.625 275H777.25V141.125H811.625V275ZM954.75 167.75L929.75 192.875C928.5 189.375 926.792 186.25 924.625 183.5C922.458 180.667 920 178.292 917.25 176.375C914.583 174.458 911.667 173 908.5 172C905.333 171 902.083 170.5 898.75 170.5C894.083 170.5 889.667 171.458 885.5 173.375C881.417 175.292 877.833 178 874.75 181.5C871.75 184.917 869.375 189 867.625 193.75C865.875 198.5 865 203.75 865 209.5C865 214.167 865.875 218.542 867.625 222.625C869.375 226.708 871.75 230.292 874.75 233.375C877.833 236.458 881.417 238.875 885.5 240.625C889.667 242.375 894.083 243.25 898.75 243.25C902.083 243.25 905.292 242.792 908.375 241.875C911.458 240.958 914.333 239.667 917 238C919.75 236.25 922.167 234.167 924.25 231.75C926.417 229.25 928.167 226.5 929.5 223.5L954.5 248.625C951.333 253.125 947.667 257.167 943.5 260.75C939.417 264.333 934.958 267.375 930.125 269.875C925.375 272.375 920.333 274.25 915 275.5C909.75 276.833 904.333 277.5 898.75 277.5C889.333 277.5 880.458 275.75 872.125 272.25C863.875 268.667 856.625 263.792 850.375 257.625C844.208 251.458 839.333 244.25 835.75 236C832.167 227.75 830.375 218.917 830.375 209.5C830.375 199.25 832.167 189.667 835.75 180.75C839.333 171.833 844.208 164.083 850.375 157.5C856.625 150.833 863.875 145.583 872.125 141.75C880.458 137.917 889.333 136 898.75 136C904.333 136 909.792 136.708 915.125 138.125C920.542 139.542 925.667 141.625 930.5 144.375C935.417 147.042 939.917 150.333 944 154.25C948.167 158.167 951.75 162.667 954.75 167.75ZM1022.75 242.25C1024.08 242.667 1025.42 242.958 1026.75 243.125C1028.08 243.208 1029.42 243.25 1030.75 243.25C1034.08 243.25 1037.29 242.792 1040.38 241.875C1043.46 240.958 1046.33 239.667 1049 238C1051.75 236.25 1054.17 234.167 1056.25 231.75C1058.42 229.25 1060.17 226.5 1061.5 223.5L1086.5 248.625C1083.33 253.125 1079.67 257.167 1075.5 260.75C1071.42 264.333 1066.96 267.375 1062.12 269.875C1057.38 272.375 1052.33 274.25 1047 275.5C1041.75 276.833 1036.33 277.5 1030.75 277.5C1021.33 277.5 1012.46 275.75 1004.12 272.25C995.875 268.75 988.625 263.875 982.375 257.625C976.208 251.375 971.333 243.958 967.75 235.375C964.167 226.708 962.375 217.208 962.375 206.875C962.375 196.292 964.167 186.625 967.75 177.875C971.333 169.125 976.208 161.667 982.375 155.5C988.625 149.333 995.875 144.542 1004.12 141.125C1012.46 137.708 1021.33 136 1030.75 136C1036.33 136 1041.79 136.667 1047.12 138C1052.46 139.333 1057.5 141.25 1062.25 143.75C1067.08 146.25 1071.58 149.333 1075.75 153C1079.92 156.583 1083.58 160.625 1086.75 165.125L1022.75 242.25ZM1040.25 171.875C1038.67 171.292 1037.08 170.917 1035.5 170.75C1034 170.583 1032.42 170.5 1030.75 170.5C1026.08 170.5 1021.67 171.375 1017.5 173.125C1013.42 174.792 1009.83 177.208 1006.75 180.375C1003.75 183.542 1001.38 187.375 999.625 191.875C997.875 196.292 997 201.292 997 206.875C997 208.125 997.042 209.542 997.125 211.125C997.292 212.708 997.5 214.333 997.75 216C998.083 217.583 998.458 219.125 998.875 220.625C999.292 222.125 999.833 223.458 1000.5 224.625L1040.25 171.875ZM1138.12 275H1104V141.125H1112.25L1123.5 154.125C1129 149.125 1135.21 145.292 1142.12 142.625C1149.12 139.875 1156.42 138.5 1164 138.5C1172.17 138.5 1179.88 140.083 1187.12 143.25C1194.38 146.333 1200.71 150.625 1206.12 156.125C1211.54 161.542 1215.79 167.917 1218.88 175.25C1222.04 182.5 1223.62 190.25 1223.62 198.5V275H1189.5V198.5C1189.5 195 1188.83 191.708 1187.5 188.625C1186.17 185.458 1184.33 182.708 1182 180.375C1179.67 178.042 1176.96 176.208 1173.88 174.875C1170.79 173.542 1167.5 172.875 1164 172.875C1160.42 172.875 1157.04 173.542 1153.88 174.875C1150.71 176.208 1147.96 178.042 1145.62 180.375C1143.29 182.708 1141.46 185.458 1140.12 188.625C1138.79 191.708 1138.12 195 1138.12 198.5V275ZM1321.5 275H1243.5V241H1321.5C1323.83 241 1325.83 240.167 1327.5 238.5C1329.17 236.833 1330 234.833 1330 232.5C1330 230.083 1329.17 228.5 1327.5 227.75C1325.83 227 1323.83 226.625 1321.5 226.625H1286C1280.08 226.625 1274.54 225.5 1269.38 223.25C1264.21 221 1259.71 217.958 1255.88 214.125C1252.04 210.208 1249 205.667 1246.75 200.5C1244.58 195.333 1243.5 189.792 1243.5 183.875C1243.5 177.958 1244.58 172.417 1246.75 167.25C1249 162.083 1252.04 157.583 1255.88 153.75C1259.71 149.917 1264.21 146.917 1269.38 144.75C1274.54 142.5 1280.08 141.375 1286 141.375H1355.12V175.375H1286C1283.67 175.375 1281.67 176.208 1280 177.875C1278.33 179.542 1277.5 181.542 1277.5 183.875C1277.5 186.292 1278.33 188.375 1280 190.125C1281.67 191.792 1283.67 192.625 1286 192.625H1321.5C1327.33 192.625 1332.83 193.625 1338 195.625C1343.17 197.542 1347.67 200.25 1351.5 203.75C1355.33 207.25 1358.38 211.458 1360.62 216.375C1362.88 221.292 1364 226.667 1364 232.5C1364 238.417 1362.88 243.958 1360.62 249.125C1358.38 254.208 1355.33 258.708 1351.5 262.625C1347.67 266.458 1343.17 269.5 1338 271.75C1332.83 273.917 1327.33 275 1321.5 275ZM1435.5 242.25C1436.83 242.667 1438.17 242.958 1439.5 243.125C1440.83 243.208 1442.17 243.25 1443.5 243.25C1446.83 243.25 1450.04 242.792 1453.12 241.875C1456.21 240.958 1459.08 239.667 1461.75 238C1464.5 236.25 1466.92 234.167 1469 231.75C1471.17 229.25 1472.92 226.5 1474.25 223.5L1499.25 248.625C1496.08 253.125 1492.42 257.167 1488.25 260.75C1484.17 264.333 1479.71 267.375 1474.88 269.875C1470.12 272.375 1465.08 274.25 1459.75 275.5C1454.5 276.833 1449.08 277.5 1443.5 277.5C1434.08 277.5 1425.21 275.75 1416.88 272.25C1408.62 268.75 1401.38 263.875 1395.12 257.625C1388.96 251.375 1384.08 243.958 1380.5 235.375C1376.92 226.708 1375.12 217.208 1375.12 206.875C1375.12 196.292 1376.92 186.625 1380.5 177.875C1384.08 169.125 1388.96 161.667 1395.12 155.5C1401.38 149.333 1408.62 144.542 1416.88 141.125C1425.21 137.708 1434.08 136 1443.5 136C1449.08 136 1454.54 136.667 1459.88 138C1465.21 139.333 1470.25 141.25 1475 143.75C1479.83 146.25 1484.33 149.333 1488.5 153C1492.67 156.583 1496.33 160.625 1499.5 165.125L1435.5 242.25ZM1453 171.875C1451.42 171.292 1449.83 170.917 1448.25 170.75C1446.75 170.583 1445.17 170.5 1443.5 170.5C1438.83 170.5 1434.42 171.375 1430.25 173.125C1426.17 174.792 1422.58 177.208 1419.5 180.375C1416.5 183.542 1414.12 187.375 1412.38 191.875C1410.62 196.292 1409.75 201.292 1409.75 206.875C1409.75 208.125 1409.79 209.542 1409.88 211.125C1410.04 212.708 1410.25 214.333 1410.5 216C1410.83 217.583 1411.21 219.125 1411.62 220.625C1412.04 222.125 1412.58 223.458 1413.25 224.625L1453 171.875Z" fill="#FAB387"/>
<path d="M762.125 275V283C766.543 283 770.125 279.418 770.125 275H762.125ZM636.625 275H628.625C628.625 279.418 632.207 283 636.625 283V275ZM636.625 95.75V87.75C632.207 87.75 628.625 91.3317 628.625 95.75H636.625ZM672.5 95.75H680.5C680.5 91.3317 676.918 87.75 672.5 87.75V95.75ZM672.5 239.125H664.5C664.5 243.543 668.082 247.125 672.5 247.125V239.125ZM762.125 239.125H770.125C770.125 234.707 766.543 231.125 762.125 231.125V239.125ZM762.125 267H636.625V283H762.125V267ZM644.625 275V95.75H628.625V275H644.625ZM636.625 103.75H672.5V87.75H636.625V103.75ZM664.5 95.75V239.125H680.5V95.75H664.5ZM672.5 247.125H762.125V231.125H672.5V247.125ZM754.125 239.125V275H770.125V239.125H754.125ZM815.625 113.625L808.342 110.315C808.314 110.376 808.287 110.438 808.26 110.501L815.625 113.625ZM810.75 120.875L816.29 126.646C816.33 126.608 816.368 126.57 816.407 126.532L810.75 120.875ZM803.375 125.75L806.499 133.115C806.534 133.1 806.569 133.085 806.604 133.069L803.375 125.75ZM785.5 125.75L782.19 133.033C782.277 133.073 782.365 133.111 782.454 133.147L785.5 125.75ZM778.25 120.875L772.479 126.415C772.554 126.494 772.631 126.571 772.71 126.646L778.25 120.875ZM773.375 113.625L766.01 116.749C766.037 116.812 766.064 116.874 766.092 116.935L773.375 113.625ZM773.375 96L766.056 92.7709C766.04 92.8057 766.025 92.8406 766.01 92.8756L773.375 96ZM778.25 88.75L783.907 94.4069L778.25 88.75ZM785.5 83.875L788.624 91.2397C788.659 91.2248 788.694 91.2097 788.729 91.1943L785.5 83.875ZM803.375 83.875L800.065 91.1579C800.152 91.1977 800.24 91.2359 800.329 91.2724L803.375 83.875ZM810.75 88.75L805.093 94.4069C805.132 94.4453 805.17 94.4834 805.21 94.5211L810.75 88.75ZM815.625 96L808.228 99.046C808.264 99.1348 808.302 99.223 808.342 99.3104L815.625 96ZM811.625 275V283C816.043 283 819.625 279.418 819.625 275H811.625ZM777.25 275H769.25C769.25 279.418 772.832 283 777.25 283V275ZM777.25 141.125V133.125C772.832 133.125 769.25 136.707 769.25 141.125H777.25ZM811.625 141.125H819.625C819.625 136.707 816.043 133.125 811.625 133.125V141.125ZM809.5 104.75C809.5 106.831 809.097 108.654 808.342 110.315L822.908 116.935C824.653 113.096 825.5 109.002 825.5 104.75H809.5ZM808.26 110.501C807.489 112.318 806.44 113.872 805.093 115.218L816.407 126.532C819.227 123.712 821.427 120.432 822.99 116.749L808.26 110.501ZM805.21 115.104C803.848 116.411 802.186 117.53 800.146 118.431L806.604 133.069C810.23 131.47 813.486 129.339 816.29 126.646L805.21 115.104ZM800.251 118.385C798.547 119.108 796.659 119.5 794.5 119.5V135.5C798.675 135.5 802.703 134.725 806.499 133.115L800.251 118.385ZM794.5 119.5C792.343 119.5 790.381 119.108 788.546 118.353L782.454 133.147C786.286 134.725 790.324 135.5 794.5 135.5V119.5ZM788.81 118.467C786.846 117.574 785.191 116.449 783.79 115.104L772.71 126.646C775.475 129.301 778.654 131.426 782.19 133.033L788.81 118.467ZM784.021 115.335C782.676 113.934 781.551 112.279 780.658 110.315L766.092 116.935C767.699 120.471 769.824 123.65 772.479 126.415L784.021 115.335ZM780.74 110.501C780.017 108.797 779.625 106.909 779.625 104.75H763.625C763.625 108.925 764.4 112.953 766.01 116.749L780.74 110.501ZM779.625 104.75C779.625 102.705 780.006 100.854 780.74 99.1244L766.01 92.8756C764.411 96.6459 763.625 100.628 763.625 104.75H779.625ZM780.694 99.2291C781.583 97.2148 782.67 95.6438 783.907 94.4069L772.593 83.0931C769.83 85.8562 767.667 89.1185 766.056 92.7709L780.694 99.2291ZM783.907 94.4069C785.253 93.0604 786.807 92.0107 788.624 91.2397L782.376 76.5103C778.693 78.0726 775.413 80.2729 772.593 83.0931L783.907 94.4069ZM788.729 91.1943C790.522 90.4035 792.42 90 794.5 90V74C790.247 74 786.145 74.8465 782.271 76.5557L788.729 91.1943ZM794.5 90C796.581 90 798.404 90.4033 800.065 91.1579L806.685 76.5921C802.846 74.8467 798.752 74 794.5 74V90ZM800.329 91.2724C802.226 92.0533 803.787 93.1002 805.093 94.4069L816.407 83.0931C813.547 80.2331 810.191 78.03 806.421 76.4776L800.329 91.2724ZM805.21 94.5211C806.443 95.7052 807.458 97.1764 808.228 99.046L823.022 92.954C821.459 89.157 819.223 85.7948 816.29 82.9789L805.21 94.5211ZM808.342 99.3104C809.11 100.999 809.5 102.784 809.5 104.75H825.5C825.5 100.549 824.64 96.5012 822.908 92.6896L808.342 99.3104ZM811.625 267H777.25V283H811.625V267ZM785.25 275V141.125H769.25V275H785.25ZM777.25 149.125H811.625V133.125H777.25V149.125ZM803.625 141.125V275H819.625V141.125H803.625ZM954.75 167.75L960.421 173.393C962.99 170.811 963.491 166.82 961.64 163.684L954.75 167.75ZM929.75 192.875L922.216 195.566C923.14 198.152 925.325 200.083 928.005 200.682C930.684 201.281 933.484 200.464 935.421 198.518L929.75 192.875ZM924.625 183.5L918.27 188.36C918.294 188.39 918.317 188.421 918.341 188.451L924.625 183.5ZM917.25 176.375L912.581 182.871C912.612 182.894 912.644 182.916 912.676 182.938L917.25 176.375ZM885.5 173.375L882.157 166.107C882.138 166.116 882.119 166.124 882.101 166.133L885.5 173.375ZM874.75 181.5L868.747 176.212L868.738 176.222L874.75 181.5ZM874.75 233.375L869.016 238.954C869.042 238.98 869.067 239.006 869.093 239.032L874.75 233.375ZM885.5 240.625L882.349 247.978C882.366 247.986 882.384 247.993 882.402 248.001L885.5 240.625ZM917 238L921.24 244.784C921.258 244.772 921.277 244.761 921.295 244.749L917 238ZM924.25 231.75L918.204 226.511C918.2 226.516 918.195 226.521 918.191 226.526L924.25 231.75ZM929.5 223.5L935.171 217.857C933.309 215.986 930.645 215.154 928.049 215.633C925.454 216.111 923.261 217.839 922.19 220.251L929.5 223.5ZM954.5 248.625L961.042 253.229C963.276 250.054 962.909 245.734 960.171 242.982L954.5 248.625ZM943.5 260.75L938.284 254.685C938.263 254.702 938.243 254.719 938.223 254.737L943.5 260.75ZM930.125 269.875L926.45 262.769C926.433 262.778 926.416 262.787 926.399 262.796L930.125 269.875ZM915 275.5L913.174 267.711C913.126 267.722 913.079 267.734 913.031 267.746L915 275.5ZM872.125 272.25L868.938 279.588C868.968 279.601 868.997 279.613 869.027 279.626L872.125 272.25ZM850.375 257.625L844.718 263.282C844.731 263.295 844.743 263.307 844.756 263.32L850.375 257.625ZM835.75 236L843.088 232.813L835.75 236ZM835.75 180.75L828.327 177.767L835.75 180.75ZM850.375 157.5L844.539 152.028L844.536 152.031L850.375 157.5ZM872.125 141.75L868.782 134.482C868.772 134.486 868.763 134.491 868.754 134.495L872.125 141.75ZM915.125 138.125L913.071 145.857C913.081 145.859 913.091 145.862 913.101 145.865L915.125 138.125ZM930.5 144.375L926.544 151.328C926.591 151.355 926.638 151.381 926.686 151.407L930.5 144.375ZM944 154.25L938.462 160.023C938.482 160.042 938.501 160.061 938.521 160.079L944 154.25ZM949.079 162.107L924.079 187.232L935.421 198.518L960.421 173.393L949.079 162.107ZM937.284 190.184C935.76 185.919 933.644 182.021 930.909 178.549L918.341 188.451C919.939 190.479 921.24 192.831 922.216 195.566L937.284 190.184ZM930.98 178.64C928.343 175.193 925.294 172.23 921.824 169.812L912.676 182.938C914.706 184.353 916.573 186.141 918.27 188.36L930.98 178.64ZM921.919 169.879C918.556 167.462 914.875 165.624 910.909 164.371L906.091 179.629C908.458 180.376 910.611 181.455 912.581 182.871L921.919 169.879ZM910.909 164.371C906.96 163.124 902.897 162.5 898.75 162.5V178.5C901.269 178.5 903.707 178.876 906.091 179.629L910.909 164.371ZM898.75 162.5C892.95 162.5 887.391 163.699 882.157 166.107L888.843 180.643C891.943 179.217 895.217 178.5 898.75 178.5V162.5ZM882.101 166.133C876.991 168.532 872.53 171.918 868.747 176.212L880.753 186.788C883.137 184.082 885.843 182.052 888.899 180.617L882.101 166.133ZM868.738 176.222C865.02 180.456 862.17 185.416 860.118 190.984L875.132 196.516C876.58 192.584 878.48 189.377 880.762 186.778L868.738 176.222ZM860.118 190.984C858.001 196.732 857 202.933 857 209.5H873C873 204.567 873.749 200.268 875.132 196.516L860.118 190.984ZM857 209.5C857 215.194 858.074 220.647 860.272 225.776L874.978 219.474C873.676 216.436 873 213.139 873 209.5H857ZM860.272 225.776C862.395 230.731 865.31 235.144 869.016 238.954L880.484 227.796C878.19 225.439 876.355 222.685 874.978 219.474L860.272 225.776ZM869.093 239.032C872.91 242.849 877.348 245.835 882.349 247.978L888.651 233.272C885.485 231.915 882.757 230.068 880.407 227.718L869.093 239.032ZM882.402 248.001C887.582 250.176 893.055 251.25 898.75 251.25V235.25C895.112 235.25 891.752 234.574 888.598 233.249L882.402 248.001ZM898.75 251.25C902.827 251.25 906.805 250.688 910.655 249.543L906.095 234.207C903.778 234.896 901.34 235.25 898.75 235.25V251.25ZM910.655 249.543C914.412 248.426 917.949 246.841 921.24 244.784L912.76 231.216C910.718 232.492 908.504 233.491 906.095 234.207L910.655 249.543ZM921.295 244.749C924.69 242.589 927.705 239.995 930.309 236.974L918.191 226.526C916.629 228.338 914.81 229.911 912.705 231.251L921.295 244.749ZM930.296 236.989C932.976 233.897 935.154 230.477 936.81 226.749L922.19 220.251C921.18 222.523 919.858 224.603 918.204 226.511L930.296 236.989ZM923.829 229.143L948.829 254.268L960.171 242.982L935.171 217.857L923.829 229.143ZM947.958 244.021C945.17 247.982 941.949 251.532 938.284 254.685L948.716 266.815C953.384 262.801 957.496 258.268 961.042 253.229L947.958 244.021ZM938.223 254.737C934.628 257.892 930.708 260.567 926.45 262.769L933.8 276.981C939.209 274.183 944.205 270.775 948.777 266.763L938.223 254.737ZM926.399 262.796C922.262 264.973 917.86 266.613 913.174 267.711L916.826 283.289C922.806 281.887 928.488 279.777 933.851 276.954L926.399 262.796ZM913.031 267.746C908.444 268.911 903.69 269.5 898.75 269.5V285.5C904.977 285.5 911.056 284.756 916.969 283.254L913.031 267.746ZM898.75 269.5C890.352 269.5 882.534 267.945 875.223 264.874L869.027 279.626C878.382 283.555 888.315 285.5 898.75 285.5V269.5ZM875.312 264.912C867.944 261.712 861.524 257.387 855.994 251.93L844.756 263.32C851.726 270.196 859.806 275.621 868.938 279.588L875.312 264.912ZM856.032 251.968C850.598 246.534 846.284 240.171 843.088 232.813L828.412 239.187C832.383 248.329 837.819 256.382 844.718 263.282L856.032 251.968ZM843.088 232.813C839.962 225.616 838.375 217.873 838.375 209.5H822.375C822.375 219.961 824.372 229.884 828.412 239.187L843.088 232.813ZM838.375 209.5C838.375 200.203 839.996 191.64 843.173 183.733L828.327 177.767C824.338 187.694 822.375 198.297 822.375 209.5H838.375ZM843.173 183.733C846.411 175.675 850.768 168.783 856.214 162.969L844.536 152.031C837.649 159.384 832.256 167.991 828.327 177.767L843.173 183.733ZM856.211 162.972C861.764 157.048 868.179 152.405 875.496 149.005L868.754 134.495C859.571 138.762 851.486 144.619 844.539 152.028L856.211 162.972ZM875.468 149.018C882.725 145.68 890.456 144 898.75 144V128C888.211 128 878.192 130.153 868.782 134.482L875.468 149.018ZM898.75 144C903.648 144 908.416 144.62 913.071 145.857L917.179 130.393C911.167 128.796 905.018 128 898.75 128V144ZM913.101 145.865C917.847 147.106 922.322 148.926 926.544 151.328L934.456 137.422C929.012 134.324 923.237 131.977 917.149 130.385L913.101 145.865ZM926.686 151.407C930.967 153.729 934.889 156.596 938.462 160.023L949.538 148.477C944.945 144.071 939.866 140.354 934.314 137.343L926.686 151.407ZM938.521 160.079C942.119 163.461 945.232 167.363 947.86 171.816L961.64 163.684C958.268 157.97 954.215 152.872 949.479 148.421L938.521 160.079ZM1022.75 242.25L1016.59 237.141C1014.89 239.194 1014.32 241.961 1015.08 244.519C1015.84 247.078 1017.82 249.09 1020.36 249.886L1022.75 242.25ZM1026.75 243.125L1025.76 251.063C1025.92 251.084 1026.09 251.099 1026.25 251.109L1026.75 243.125ZM1049 238L1053.24 244.784C1053.26 244.772 1053.28 244.761 1053.3 244.749L1049 238ZM1056.25 231.75L1050.2 226.511C1050.2 226.516 1050.2 226.521 1050.19 226.526L1056.25 231.75ZM1061.5 223.5L1067.17 217.857C1065.31 215.986 1062.64 215.154 1060.05 215.633C1057.45 216.111 1055.26 217.839 1054.19 220.251L1061.5 223.5ZM1086.5 248.625L1093.04 253.229C1095.28 250.054 1094.91 245.734 1092.17 242.982L1086.5 248.625ZM1075.5 260.75L1070.28 254.685C1070.26 254.702 1070.24 254.719 1070.22 254.737L1075.5 260.75ZM1062.12 269.875L1058.45 262.769C1058.43 262.778 1058.42 262.787 1058.4 262.796L1062.12 269.875ZM1047 275.5L1045.17 267.711C1045.13 267.722 1045.08 267.734 1045.03 267.746L1047 275.5ZM1004.12 272.25L1001 279.615C1001.01 279.618 1001.02 279.622 1001.03 279.626L1004.12 272.25ZM982.375 257.625L976.68 263.244C976.693 263.257 976.705 263.269 976.718 263.282L982.375 257.625ZM967.75 235.375L960.357 238.432C960.36 238.44 960.364 238.449 960.368 238.457L967.75 235.375ZM982.375 155.5L976.756 149.805C976.743 149.818 976.731 149.83 976.718 149.843L982.375 155.5ZM1004.12 141.125L1001.09 133.723C1001.08 133.727 1001.07 133.73 1001.06 133.734L1004.12 141.125ZM1062.25 143.75L1058.52 150.829C1058.54 150.838 1058.56 150.847 1058.57 150.856L1062.25 143.75ZM1075.75 153L1070.46 159.006C1070.49 159.026 1070.51 159.046 1070.53 159.065L1075.75 153ZM1086.75 165.125L1092.91 170.234C1095.21 167.454 1095.37 163.475 1093.29 160.521L1086.75 165.125ZM1040.25 171.875L1046.64 176.69C1048.16 174.668 1048.64 172.046 1047.93 169.618C1047.21 167.19 1045.39 165.243 1043.02 164.368L1040.25 171.875ZM1035.5 170.75L1034.62 178.701C1034.63 178.703 1034.65 178.704 1034.66 178.706L1035.5 170.75ZM1017.5 173.125L1020.52 180.532C1020.55 180.522 1020.57 180.511 1020.6 180.501L1017.5 173.125ZM1006.75 180.375L1001.02 174.794C1000.99 174.82 1000.97 174.847 1000.94 174.873L1006.75 180.375ZM999.625 191.875L1007.06 194.822C1007.07 194.806 1007.07 194.79 1007.08 194.775L999.625 191.875ZM997.125 211.125L989.136 211.545C989.143 211.685 989.154 211.824 989.169 211.962L997.125 211.125ZM997.75 216L989.839 217.187C989.862 217.341 989.889 217.495 989.922 217.648L997.75 216ZM1000.5 224.625L993.554 228.594C994.889 230.93 997.309 232.439 999.994 232.609C1002.68 232.779 1005.27 231.588 1006.89 229.44L1000.5 224.625ZM1020.36 249.886C1022.13 250.439 1023.93 250.835 1025.76 251.063L1027.74 235.187C1026.9 235.081 1026.03 234.894 1025.14 234.614L1020.36 249.886ZM1026.25 251.109C1027.75 251.203 1029.25 251.25 1030.75 251.25V235.25C1029.58 235.25 1028.42 235.214 1027.25 235.141L1026.25 251.109ZM1030.75 251.25C1034.83 251.25 1038.8 250.688 1042.65 249.543L1038.1 234.207C1035.78 234.896 1033.34 235.25 1030.75 235.25V251.25ZM1042.65 249.543C1046.41 248.426 1049.95 246.841 1053.24 244.784L1044.76 231.216C1042.72 232.492 1040.5 233.491 1038.1 234.207L1042.65 249.543ZM1053.3 244.749C1056.69 242.589 1059.7 239.995 1062.31 236.974L1050.19 226.526C1048.63 228.338 1046.81 229.911 1044.7 231.251L1053.3 244.749ZM1062.3 236.989C1064.98 233.897 1067.15 230.477 1068.81 226.749L1054.19 220.251C1053.18 222.523 1051.86 224.603 1050.2 226.511L1062.3 236.989ZM1055.83 229.143L1080.83 254.268L1092.17 242.982L1067.17 217.857L1055.83 229.143ZM1079.96 244.021C1077.17 247.982 1073.95 251.532 1070.28 254.685L1080.72 266.815C1085.38 262.801 1089.5 258.268 1093.04 253.229L1079.96 244.021ZM1070.22 254.737C1066.63 257.892 1062.71 260.567 1058.45 262.769L1065.8 276.981C1071.21 274.183 1076.21 270.775 1080.78 266.763L1070.22 254.737ZM1058.4 262.796C1054.26 264.973 1049.86 266.613 1045.17 267.711L1048.83 283.289C1054.81 281.887 1060.49 279.777 1065.85 276.954L1058.4 262.796ZM1045.03 267.746C1040.44 268.911 1035.69 269.5 1030.75 269.5V285.5C1036.98 285.5 1043.06 284.756 1048.97 283.254L1045.03 267.746ZM1030.75 269.5C1022.35 269.5 1014.53 267.945 1007.22 264.874L1001.03 279.626C1010.38 283.555 1020.31 285.5 1030.75 285.5V269.5ZM1007.25 264.885C999.932 261.781 993.545 257.481 988.032 251.968L976.718 263.282C983.705 270.269 991.818 275.719 1001 279.615L1007.25 264.885ZM988.07 252.006C982.665 246.529 978.345 239.987 975.132 232.293L960.368 238.457C964.322 247.929 969.752 256.221 976.68 263.244L988.07 252.006ZM975.143 232.318C971.999 224.715 970.375 216.267 970.375 206.875H954.375C954.375 218.15 956.334 228.701 960.357 238.432L975.143 232.318ZM970.375 206.875C970.375 197.208 972.008 188.586 975.153 180.907L960.347 174.843C956.325 184.664 954.375 195.376 954.375 206.875H970.375ZM975.153 180.907C978.369 173.056 982.677 166.512 988.032 161.157L976.718 149.843C969.74 156.822 964.298 165.194 960.347 174.843L975.153 180.907ZM987.994 161.195C993.496 155.766 999.873 151.545 1007.19 148.516L1001.06 133.734C991.877 137.539 983.754 142.901 976.756 149.805L987.994 161.195ZM1007.16 148.527C1014.49 145.523 1022.33 144 1030.75 144V128C1020.34 128 1010.43 129.894 1001.09 133.723L1007.16 148.527ZM1030.75 144C1035.69 144 1040.5 144.589 1045.18 145.761L1049.07 130.239C1043.09 128.744 1036.98 128 1030.75 128V144ZM1045.18 145.761C1049.91 146.943 1054.35 148.634 1058.52 150.829L1065.98 136.671C1060.65 133.866 1055 131.724 1049.07 130.239L1045.18 145.761ZM1058.57 150.856C1062.82 153.05 1066.78 155.761 1070.46 159.006L1081.04 146.994C1076.39 142.905 1071.35 139.45 1065.93 136.644L1058.57 150.856ZM1070.53 159.065C1074.2 162.218 1077.42 165.768 1080.21 169.729L1093.29 160.521C1089.75 155.482 1085.63 150.949 1080.97 146.935L1070.53 159.065ZM1080.59 160.016L1016.59 237.141L1028.91 247.359L1092.91 170.234L1080.59 160.016ZM1043.02 164.368C1040.85 163.57 1038.62 163.034 1036.34 162.794L1034.66 178.706C1035.55 178.799 1036.49 179.014 1037.48 179.382L1043.02 164.368ZM1036.38 162.799C1034.56 162.597 1032.68 162.5 1030.75 162.5V178.5C1032.15 178.5 1033.44 178.57 1034.62 178.701L1036.38 162.799ZM1030.75 162.5C1025.05 162.5 1019.58 163.574 1014.4 165.749L1020.6 180.501C1023.75 179.176 1027.11 178.5 1030.75 178.5V162.5ZM1014.48 165.718C1009.37 167.802 1004.87 170.841 1001.02 174.794L1012.48 185.956C1014.8 183.576 1017.46 181.782 1020.52 180.532L1014.48 165.718ZM1000.94 174.873C997.157 178.869 994.254 183.613 992.169 188.975L1007.08 194.775C1008.5 191.137 1010.34 188.215 1012.56 185.877L1000.94 174.873ZM992.188 188.928C990.007 194.432 989 200.456 989 206.875H1005C1005 202.127 1005.74 198.152 1007.06 194.822L992.188 188.928ZM989 206.875C989 208.296 989.047 209.857 989.136 211.545L1005.11 210.705C1005.04 209.226 1005 207.954 1005 206.875H989ZM989.169 211.962C989.349 213.669 989.572 215.411 989.839 217.187L1005.66 214.813C1005.43 213.256 1005.23 211.748 1005.08 210.288L989.169 211.962ZM989.922 217.648C990.288 219.391 990.703 221.097 991.167 222.766L1006.58 218.484C1006.21 217.153 1005.88 215.776 1005.58 214.352L989.922 217.648ZM991.167 222.766C991.734 224.806 992.512 226.77 993.554 228.594L1007.45 220.656C1007.16 220.147 1006.85 219.444 1006.58 218.484L991.167 222.766ZM1006.89 229.44L1046.64 176.69L1033.86 167.06L994.111 219.81L1006.89 229.44ZM1138.12 275V283C1142.54 283 1146.12 279.418 1146.12 275H1138.12ZM1104 275H1096C1096 279.418 1099.58 283 1104 283V275ZM1104 141.125V133.125C1099.58 133.125 1096 136.707 1096 141.125H1104ZM1112.25 141.125L1118.3 135.89C1116.78 134.134 1114.57 133.125 1112.25 133.125V141.125ZM1123.5 154.125L1117.45 159.36C1118.86 160.99 1120.87 161.982 1123.02 162.111C1125.17 162.24 1127.29 161.495 1128.88 160.045L1123.5 154.125ZM1142.12 142.625L1145 150.089C1145.02 150.083 1145.03 150.077 1145.05 150.071L1142.12 142.625ZM1187.12 143.25L1183.92 150.581C1183.95 150.592 1183.97 150.602 1183.99 150.612L1187.12 143.25ZM1206.12 156.125L1200.43 161.739C1200.44 161.753 1200.45 161.767 1200.47 161.782L1206.12 156.125ZM1218.88 175.25L1211.5 178.351C1211.51 178.385 1211.53 178.418 1211.54 178.452L1218.88 175.25ZM1223.62 275V283C1228.04 283 1231.62 279.418 1231.62 275H1223.62ZM1189.5 275H1181.5C1181.5 279.418 1185.08 283 1189.5 283V275ZM1187.5 188.625L1180.13 191.729C1180.14 191.753 1180.15 191.777 1180.16 191.8L1187.5 188.625ZM1153.88 174.875L1150.77 167.502L1153.88 174.875ZM1140.12 188.625L1147.47 191.8C1147.48 191.777 1147.49 191.753 1147.5 191.729L1140.12 188.625ZM1138.12 267H1104V283H1138.12V267ZM1112 275V141.125H1096V275H1112ZM1104 149.125H1112.25V133.125H1104V149.125ZM1106.2 146.36L1117.45 159.36L1129.55 148.89L1118.3 135.89L1106.2 146.36ZM1128.88 160.045C1133.65 155.708 1139.01 152.399 1145 150.089L1139.25 135.161C1131.41 138.184 1124.35 142.542 1118.12 148.205L1128.88 160.045ZM1145.05 150.071C1151.11 147.69 1157.41 146.5 1164 146.5V130.5C1155.42 130.5 1147.14 132.06 1139.2 135.179L1145.05 150.071ZM1164 146.5C1171.1 146.5 1177.72 147.87 1183.92 150.581L1190.33 135.919C1182.03 132.297 1173.23 130.5 1164 130.5V146.5ZM1183.99 150.612C1190.3 153.295 1195.76 156.999 1200.43 161.739L1211.82 150.511C1205.66 144.251 1198.45 139.372 1190.26 135.888L1183.99 150.612ZM1200.47 161.782C1205.12 166.438 1208.8 171.935 1211.5 178.351L1226.25 172.149C1222.78 163.898 1217.96 156.646 1211.78 150.468L1200.47 161.782ZM1211.54 178.452C1214.25 184.649 1215.62 191.304 1215.62 198.5H1231.62C1231.62 189.196 1229.83 180.351 1226.21 172.048L1211.54 178.452ZM1215.62 198.5V275H1231.62V198.5H1215.62ZM1223.62 267H1189.5V283H1223.62V267ZM1197.5 275V198.5H1181.5V275H1197.5ZM1197.5 198.5C1197.5 193.955 1196.63 189.578 1194.84 185.45L1180.16 191.8C1181.04 193.839 1181.5 196.045 1181.5 198.5H1197.5ZM1194.87 185.521C1193.16 181.44 1190.75 177.813 1187.66 174.718L1176.34 186.032C1177.91 187.603 1179.18 189.477 1180.13 191.729L1194.87 185.521ZM1187.66 174.718C1184.6 171.658 1181.04 169.259 1177.05 167.532L1170.7 182.218C1172.87 183.158 1174.74 184.425 1176.34 186.032L1187.66 174.718ZM1177.05 167.532C1172.92 165.747 1168.55 164.875 1164 164.875V180.875C1166.45 180.875 1168.66 181.336 1170.7 182.218L1177.05 167.532ZM1164 164.875C1159.4 164.875 1154.96 165.737 1150.77 167.502L1156.98 182.248C1159.12 181.346 1161.44 180.875 1164 180.875V164.875ZM1150.77 167.502C1146.69 169.22 1143.06 171.623 1139.97 174.718L1151.28 186.032C1152.85 184.46 1154.73 183.197 1156.98 182.248L1150.77 167.502ZM1139.97 174.718C1136.87 177.813 1134.47 181.44 1132.75 185.521L1147.5 191.729C1148.45 189.477 1149.71 187.603 1151.28 186.032L1139.97 174.718ZM1132.78 185.45C1131 189.578 1130.12 193.955 1130.12 198.5H1146.12C1146.12 196.045 1146.59 193.839 1147.47 191.8L1132.78 185.45ZM1130.12 198.5V275H1146.12V198.5H1130.12ZM1243.5 275H1235.5C1235.5 279.418 1239.08 283 1243.5 283V275ZM1243.5 241V233C1239.08 233 1235.5 236.582 1235.5 241H1243.5ZM1255.88 214.125L1250.16 219.721C1250.18 219.741 1250.2 219.762 1250.22 219.782L1255.88 214.125ZM1246.75 200.5L1239.37 203.594C1239.39 203.627 1239.4 203.661 1239.42 203.694L1246.75 200.5ZM1246.75 167.25L1239.42 164.056C1239.4 164.089 1239.39 164.123 1239.37 164.156L1246.75 167.25ZM1269.38 144.75L1272.47 152.128C1272.5 152.113 1272.54 152.099 1272.57 152.085L1269.38 144.75ZM1355.12 141.375H1363.12C1363.12 136.957 1359.54 133.375 1355.12 133.375V141.375ZM1355.12 175.375V183.375C1359.54 183.375 1363.12 179.793 1363.12 175.375H1355.12ZM1280 190.125L1274.21 195.642C1274.25 195.689 1274.3 195.736 1274.34 195.782L1280 190.125ZM1338 195.625L1335.11 203.086C1335.15 203.099 1335.18 203.112 1335.22 203.126L1338 195.625ZM1360.62 249.125L1367.94 252.363C1367.95 252.348 1367.95 252.334 1367.96 252.319L1360.62 249.125ZM1351.5 262.625L1357.16 268.282C1357.18 268.262 1357.2 268.241 1357.22 268.221L1351.5 262.625ZM1338 271.75L1341.09 279.128C1341.13 279.113 1341.16 279.099 1341.19 279.085L1338 271.75ZM1321.5 267H1243.5V283H1321.5V267ZM1251.5 275V241H1235.5V275H1251.5ZM1243.5 249H1321.5V233H1243.5V249ZM1321.5 249C1325.98 249 1330.01 247.307 1333.16 244.157L1321.84 232.843C1321.76 232.929 1321.7 232.969 1321.68 232.984C1321.66 232.998 1321.66 232.996 1321.67 232.99C1321.69 232.985 1321.69 232.985 1321.68 232.988C1321.66 232.991 1321.61 233 1321.5 233V249ZM1333.16 244.157C1336.31 241.007 1338 236.979 1338 232.5H1322C1322 232.605 1321.99 232.661 1321.99 232.677C1321.98 232.691 1321.98 232.687 1321.99 232.673C1322 232.659 1322 232.661 1321.98 232.681C1321.97 232.702 1321.93 232.758 1321.84 232.843L1333.16 244.157ZM1338 232.5C1338 228.149 1336.28 222.93 1330.78 220.455L1324.22 235.045C1323.89 234.898 1323.51 234.664 1323.14 234.317C1322.76 233.969 1322.49 233.586 1322.3 233.226C1321.93 232.537 1322 232.155 1322 232.5H1338ZM1330.78 220.455C1327.84 219.131 1324.66 218.625 1321.5 218.625V234.625C1323 234.625 1323.83 234.869 1324.22 235.045L1330.78 220.455ZM1321.5 218.625H1286V234.625H1321.5V218.625ZM1286 218.625C1281.13 218.625 1276.68 217.705 1272.57 215.915L1266.18 230.585C1272.41 233.295 1279.04 234.625 1286 234.625V218.625ZM1272.57 215.915C1268.28 214.049 1264.63 211.565 1261.53 208.468L1250.22 219.782C1254.79 224.352 1260.13 227.951 1266.18 230.585L1272.57 215.915ZM1261.59 208.529C1258.46 205.328 1255.96 201.606 1254.08 197.306L1239.42 203.694C1242.04 209.727 1245.62 215.089 1250.16 219.721L1261.59 208.529ZM1254.13 197.406C1252.39 193.274 1251.5 188.79 1251.5 183.875H1235.5C1235.5 190.794 1236.77 197.393 1239.37 203.594L1254.13 197.406ZM1251.5 183.875C1251.5 178.96 1252.39 174.476 1254.13 170.344L1239.37 164.156C1236.77 170.357 1235.5 176.956 1235.5 183.875H1251.5ZM1254.08 170.444C1255.95 166.159 1258.44 162.504 1261.53 159.407L1250.22 148.093C1245.65 152.663 1242.05 158.007 1239.42 164.056L1254.08 170.444ZM1261.53 159.407C1264.61 156.333 1268.23 153.906 1272.47 152.128L1266.28 137.372C1260.19 139.927 1254.81 143.501 1250.22 148.093L1261.53 159.407ZM1272.57 152.085C1276.68 150.295 1281.13 149.375 1286 149.375V133.375C1279.04 133.375 1272.41 134.705 1266.18 137.415L1272.57 152.085ZM1286 149.375H1355.12V133.375H1286V149.375ZM1347.12 141.375V175.375H1363.12V141.375H1347.12ZM1355.12 167.375H1286V183.375H1355.12V167.375ZM1286 167.375C1281.52 167.375 1277.49 169.068 1274.34 172.218L1285.66 183.532C1285.74 183.446 1285.8 183.406 1285.82 183.391C1285.84 183.377 1285.84 183.379 1285.83 183.385C1285.81 183.39 1285.81 183.39 1285.82 183.387C1285.84 183.384 1285.89 183.375 1286 183.375V167.375ZM1274.34 172.218C1271.19 175.368 1269.5 179.396 1269.5 183.875H1285.5C1285.5 183.77 1285.51 183.714 1285.51 183.698C1285.52 183.684 1285.52 183.688 1285.51 183.702C1285.5 183.716 1285.5 183.714 1285.52 183.694C1285.53 183.673 1285.57 183.617 1285.66 183.532L1274.34 172.218ZM1269.5 183.875C1269.5 188.346 1271.12 192.405 1274.21 195.642L1285.79 184.608C1285.61 184.413 1285.56 184.305 1285.55 184.279C1285.54 184.253 1285.5 184.145 1285.5 183.875H1269.5ZM1274.34 195.782C1277.49 198.932 1281.52 200.625 1286 200.625V184.625C1285.89 184.625 1285.84 184.616 1285.82 184.613C1285.81 184.61 1285.81 184.61 1285.83 184.615C1285.84 184.621 1285.84 184.623 1285.82 184.609C1285.8 184.594 1285.74 184.554 1285.66 184.468L1274.34 195.782ZM1286 200.625H1321.5V184.625H1286V200.625ZM1321.5 200.625C1326.4 200.625 1330.91 201.461 1335.11 203.086L1340.89 188.164C1334.75 185.789 1328.27 184.625 1321.5 184.625V200.625ZM1335.22 203.126C1339.48 204.707 1343.08 206.894 1346.11 209.658L1356.89 197.842C1352.25 193.606 1346.85 190.377 1340.78 188.124L1335.22 203.126ZM1346.11 209.658C1349.11 212.403 1351.53 215.723 1353.35 219.704L1367.9 213.046C1365.22 207.194 1361.55 202.097 1356.89 197.842L1346.11 209.658ZM1353.35 219.704C1355.09 223.495 1356 227.724 1356 232.5H1372C1372 225.61 1370.66 219.088 1367.9 213.046L1353.35 219.704ZM1356 232.5C1356 237.373 1355.08 241.822 1353.29 245.931L1367.96 252.319C1370.67 246.095 1372 239.46 1372 232.5H1356ZM1353.31 245.887C1351.44 250.108 1348.94 253.807 1345.78 257.029L1357.22 268.221C1361.73 263.61 1365.31 258.309 1367.94 252.363L1353.31 245.887ZM1345.84 256.968C1342.75 260.065 1339.09 262.549 1334.81 264.415L1341.19 279.085C1347.24 276.451 1352.59 272.852 1357.16 268.282L1345.84 256.968ZM1334.91 264.372C1330.76 266.111 1326.32 267 1321.5 267V283C1328.35 283 1334.91 281.722 1341.09 279.128L1334.91 264.372ZM1435.5 242.25L1429.34 237.141C1427.64 239.194 1427.07 241.961 1427.83 244.519C1428.59 247.078 1430.57 249.09 1433.11 249.886L1435.5 242.25ZM1439.5 243.125L1438.51 251.063C1438.67 251.084 1438.84 251.099 1439 251.109L1439.5 243.125ZM1461.75 238L1465.99 244.784C1466.01 244.772 1466.03 244.761 1466.05 244.749L1461.75 238ZM1469 231.75L1462.95 226.511C1462.95 226.516 1462.95 226.521 1462.94 226.526L1469 231.75ZM1474.25 223.5L1479.92 217.857C1478.06 215.986 1475.39 215.154 1472.8 215.633C1470.2 216.111 1468.01 217.839 1466.94 220.251L1474.25 223.5ZM1499.25 248.625L1505.79 253.229C1508.03 250.054 1507.66 245.734 1504.92 242.982L1499.25 248.625ZM1488.25 260.75L1483.03 254.685C1483.01 254.702 1482.99 254.719 1482.97 254.737L1488.25 260.75ZM1474.88 269.875L1471.2 262.769C1471.18 262.778 1471.17 262.787 1471.15 262.796L1474.88 269.875ZM1459.75 275.5L1457.92 267.711C1457.88 267.722 1457.83 267.734 1457.78 267.746L1459.75 275.5ZM1416.88 272.25L1413.75 279.615C1413.76 279.618 1413.77 279.622 1413.78 279.626L1416.88 272.25ZM1395.12 257.625L1389.43 263.244C1389.44 263.257 1389.46 263.269 1389.47 263.282L1395.12 257.625ZM1380.5 235.375L1373.11 238.432C1373.11 238.44 1373.11 238.449 1373.12 238.457L1380.5 235.375ZM1395.12 155.5L1389.51 149.805C1389.49 149.818 1389.48 149.83 1389.47 149.843L1395.12 155.5ZM1416.88 141.125L1413.84 133.723C1413.83 133.727 1413.82 133.73 1413.81 133.734L1416.88 141.125ZM1475 143.75L1471.27 150.829C1471.29 150.838 1471.31 150.847 1471.32 150.856L1475 143.75ZM1488.5 153L1483.21 159.006C1483.24 159.026 1483.26 159.046 1483.28 159.065L1488.5 153ZM1499.5 165.125L1505.66 170.234C1507.96 167.454 1508.12 163.475 1506.04 160.521L1499.5 165.125ZM1453 171.875L1459.39 176.69C1460.91 174.668 1461.39 172.046 1460.68 169.618C1459.96 167.19 1458.14 165.243 1455.77 164.368L1453 171.875ZM1448.25 170.75L1447.37 178.701C1447.38 178.703 1447.4 178.704 1447.41 178.706L1448.25 170.75ZM1430.25 173.125L1433.27 180.532C1433.3 180.522 1433.32 180.511 1433.35 180.501L1430.25 173.125ZM1419.5 180.375L1413.77 174.794C1413.74 174.82 1413.72 174.847 1413.69 174.873L1419.5 180.375ZM1412.38 191.875L1419.81 194.822C1419.82 194.806 1419.82 194.79 1419.83 194.775L1412.38 191.875ZM1409.88 211.125L1401.89 211.545C1401.89 211.685 1401.9 211.824 1401.92 211.962L1409.88 211.125ZM1410.5 216L1402.59 217.187C1402.61 217.341 1402.64 217.495 1402.67 217.648L1410.5 216ZM1413.25 224.625L1406.3 228.594C1407.64 230.93 1410.06 232.439 1412.74 232.609C1415.43 232.779 1418.02 231.588 1419.64 229.44L1413.25 224.625ZM1433.11 249.886C1434.88 250.439 1436.68 250.835 1438.51 251.063L1440.49 235.187C1439.65 235.081 1438.78 234.894 1437.89 234.614L1433.11 249.886ZM1439 251.109C1440.5 251.203 1442 251.25 1443.5 251.25V235.25C1442.33 235.25 1441.17 235.214 1440 235.141L1439 251.109ZM1443.5 251.25C1447.58 251.25 1451.55 250.688 1455.4 249.543L1450.85 234.207C1448.53 234.896 1446.09 235.25 1443.5 235.25V251.25ZM1455.4 249.543C1459.16 248.426 1462.7 246.841 1465.99 244.784L1457.51 231.216C1455.47 232.492 1453.25 233.491 1450.85 234.207L1455.4 249.543ZM1466.05 244.749C1469.44 242.589 1472.45 239.995 1475.06 236.974L1462.94 226.526C1461.38 228.338 1459.56 229.911 1457.45 231.251L1466.05 244.749ZM1475.05 236.989C1477.73 233.897 1479.9 230.477 1481.56 226.749L1466.94 220.251C1465.93 222.523 1464.61 224.603 1462.95 226.511L1475.05 236.989ZM1468.58 229.143L1493.58 254.268L1504.92 242.982L1479.92 217.857L1468.58 229.143ZM1492.71 244.021C1489.92 247.982 1486.7 251.532 1483.03 254.685L1493.47 266.815C1498.13 262.801 1502.25 258.268 1505.79 253.229L1492.71 244.021ZM1482.97 254.737C1479.38 257.892 1475.46 260.567 1471.2 262.769L1478.55 276.981C1483.96 274.183 1488.96 270.775 1493.53 266.763L1482.97 254.737ZM1471.15 262.796C1467.01 264.973 1462.61 266.613 1457.92 267.711L1461.58 283.289C1467.56 281.887 1473.24 279.777 1478.6 276.954L1471.15 262.796ZM1457.78 267.746C1453.19 268.911 1448.44 269.5 1443.5 269.5V285.5C1449.73 285.5 1455.81 284.756 1461.72 283.254L1457.78 267.746ZM1443.5 269.5C1435.1 269.5 1427.28 267.945 1419.97 264.874L1413.78 279.626C1423.13 283.555 1433.06 285.5 1443.5 285.5V269.5ZM1420 264.885C1412.68 261.781 1406.29 257.481 1400.78 251.968L1389.47 263.282C1396.46 270.269 1404.57 275.719 1413.75 279.615L1420 264.885ZM1400.82 252.006C1395.41 246.529 1391.09 239.987 1387.88 232.293L1373.12 238.457C1377.07 247.929 1382.5 256.221 1389.43 263.244L1400.82 252.006ZM1387.89 232.318C1384.75 224.715 1383.12 216.267 1383.12 206.875H1367.12C1367.12 218.15 1369.08 228.701 1373.11 238.432L1387.89 232.318ZM1383.12 206.875C1383.12 197.208 1384.76 188.586 1387.9 180.907L1373.1 174.843C1369.08 184.664 1367.12 195.376 1367.12 206.875H1383.12ZM1387.9 180.907C1391.12 173.056 1395.43 166.512 1400.78 161.157L1389.47 149.843C1382.49 156.822 1377.05 165.194 1373.1 174.843L1387.9 180.907ZM1400.74 161.195C1406.25 155.766 1412.62 151.545 1419.94 148.516L1413.81 133.734C1404.63 137.539 1396.5 142.901 1389.51 149.805L1400.74 161.195ZM1419.91 148.527C1427.24 145.523 1435.08 144 1443.5 144V128C1433.09 128 1423.18 129.894 1413.84 133.723L1419.91 148.527ZM1443.5 144C1448.44 144 1453.25 144.589 1457.93 145.761L1461.82 130.239C1455.84 128.744 1449.73 128 1443.5 128V144ZM1457.93 145.761C1462.66 146.943 1467.1 148.634 1471.27 150.829L1478.73 136.671C1473.4 133.866 1467.75 131.724 1461.82 130.239L1457.93 145.761ZM1471.32 150.856C1475.57 153.05 1479.53 155.761 1483.21 159.006L1493.79 146.994C1489.14 142.905 1484.1 139.45 1478.68 136.644L1471.32 150.856ZM1483.28 159.065C1486.95 162.218 1490.17 165.768 1492.96 169.729L1506.04 160.521C1502.5 155.482 1498.38 150.949 1493.72 146.935L1483.28 159.065ZM1493.34 160.016L1429.34 237.141L1441.66 247.359L1505.66 170.234L1493.34 160.016ZM1455.77 164.368C1453.6 163.57 1451.37 163.034 1449.09 162.794L1447.41 178.706C1448.3 178.799 1449.24 179.014 1450.23 179.382L1455.77 164.368ZM1449.13 162.799C1447.31 162.597 1445.43 162.5 1443.5 162.5V178.5C1444.9 178.5 1446.19 178.57 1447.37 178.701L1449.13 162.799ZM1443.5 162.5C1437.8 162.5 1432.33 163.574 1427.15 165.749L1433.35 180.501C1436.5 179.176 1439.86 178.5 1443.5 178.5V162.5ZM1427.23 165.718C1422.12 167.802 1417.62 170.841 1413.77 174.794L1425.23 185.956C1427.55 183.576 1430.21 181.782 1433.27 180.532L1427.23 165.718ZM1413.69 174.873C1409.91 178.869 1407 183.613 1404.92 188.975L1419.83 194.775C1421.25 191.137 1423.09 188.215 1425.31 185.877L1413.69 174.873ZM1404.94 188.928C1402.76 194.432 1401.75 200.456 1401.75 206.875H1417.75C1417.75 202.127 1418.49 198.152 1419.81 194.822L1404.94 188.928ZM1401.75 206.875C1401.75 208.296 1401.8 209.857 1401.89 211.545L1417.86 210.705C1417.79 209.226 1417.75 207.954 1417.75 206.875H1401.75ZM1401.92 211.962C1402.1 213.669 1402.32 215.411 1402.59 217.187L1418.41 214.813C1418.18 213.256 1417.98 211.748 1417.83 210.288L1401.92 211.962ZM1402.67 217.648C1403.04 219.391 1403.45 221.097 1403.92 222.766L1419.33 218.484C1418.96 217.153 1418.63 215.776 1418.33 214.352L1402.67 217.648ZM1403.92 222.766C1404.48 224.806 1405.26 226.77 1406.3 228.594L1420.2 220.656C1419.91 220.147 1419.6 219.444 1419.33 218.484L1403.92 222.766ZM1419.64 229.44L1459.39 176.69L1446.61 167.06L1406.86 219.81L1419.64 229.44Z" fill="#11111B"/>
</svg>
