<svg width="1540" height="447" viewBox="0 0 1540 447" fill="none" xmlns="http://www.w3.org/2000/svg">
<path fill-rule="evenodd" clip-rule="evenodd" d="M42.67 8H485.33C504.42 8 520 23.58 520 42.67V343.07C520 362.11 504.42 377.74 485.33 377.74H415.53C412.07 370.46 408.43 363.23 404.71 356.03H487.16C492.5 356.03 496.75 351.79 496.75 346.44V105.04H496.92H32.67V346.44C32.67 351.78 36.92 356.03 42.25 356.03H123.43L114.13 373.98L112.39 377.74H42.67C23.58 377.74 8 362.11 8 343.07V42.67C8 23.58 23.58 8 42.67 8ZM271.58 158.99C276.66 160.74 280.95 164.13 284.95 167.62L285.11 167.77C294.21 175.48 295.42 176.82 307.49 177.41C312.14 177.58 316.99 177.76 321.49 179.24C329.65 181.92 334.69 189.11 337.18 196.99C339.46 204.19 338.27 211.42 340.7 218.3C343.02 225.1 348.06 230.34 351.76 236.35C354.65 241.04 356.52 245.31 357.41 249.32C359.46 258.57 356.31 266.8 349.85 273.17C347.67 275.34 341.74 279.79 340.77 281.98C339.14 285.78 339.06 289.29 339.06 292.94C338.98 297.92 338.9 303.04 335.64 309.57L335.56 309.73C331.35 317.84 324.93 323.41 316.2 326.21C309.77 328.27 302.04 325.63 297.7 327.45L297.47 327.53C288.78 331.23 282.26 340.22 273.6 343C270.509 343.984 267.284 344.483 264.04 344.48C260.85 344.48 257.66 344.01 254.48 343L254.32 342.92C250.04 341.6 246.24 338.49 242.19 335.23C238.54 332.27 234.65 329.17 230.38 327.38C228.35 326.52 225.71 326.75 222.83 326.91C219.42 327.14 215.76 327.38 211.8 326.13L211.57 326.06C207.29 324.65 203.56 322.56 200.29 319.84C197.11 317.04 194.38 313.62 192.36 309.49C189.1 302.96 189.02 297.83 188.94 292.86C188.75 283.74 188.6 282.23 182.18 276.69C173.47 269.29 167.7 261.5 170.44 249.17C171.77 243.18 175.33 236.65 181.17 228.95C184.36 224.83 186.14 221.34 187.23 218.15C189.49 211.68 188.56 204.82 190.34 198.15C192.38 190.54 197.27 182.77 204.81 179.71C209.72 177.7 215.17 177.52 220.35 177.34C232.15 176.94 234.05 175.25 242.82 167.62C247 163.98 251.03 160.75 256.34 158.91C261.01 157.55 266.95 157.44 271.58 158.99ZM358.8 416.16L335.41 411.96L323.67 433.03C323.59 433.18 323.51 433.34 323.36 433.41C318.46 439.48 313.95 439.32 310.06 436.14C305.87 432.72 303.06 425.41 301.27 420.59L300.58 418.8L275.78 372C275 370.53 275.55 368.74 277.02 368.04C277.18 367.96 277.33 367.88 277.41 367.88C279.98 367.02 282.85 365.24 285.96 362.91C289.22 360.49 292.64 357.46 296.15 354.35C296.77 353.81 297.55 353.5 298.4 353.58C305.09 353.73 311.62 353.19 317.45 351.24C323.2 349.3 328.48 345.88 333 340.12C334 338.8 335.87 338.57 337.11 339.58C337.43 339.9 337.74 340.2 337.89 340.59L366.58 395.94C368.86 400.86 372.04 406.74 369.22 412.19C367.66 415.22 364.64 416.78 359.51 416.39C359.35 416.31 359.04 416.24 358.8 416.16ZM192.67 411.96L169.27 416.16C169.04 416.24 168.8 416.24 168.49 416.24C163.37 416.62 160.33 415.07 158.78 412.04C157.65 409.91 157.59 407.18 158.21 404C158.85 400.75 159.99 398.87 161.42 395.79L190.11 340.44C190.27 340.05 190.58 339.74 190.89 339.43C192.21 338.42 194 338.65 195.01 339.97C199.44 345.64 204.72 349.07 210.55 351.09C216.46 353.11 222.91 353.58 229.6 353.42C230.38 353.34 231.15 353.58 231.85 354.2C235.35 357.31 238.77 360.34 242.04 362.75C245.15 365.08 248.03 366.87 250.59 367.73L250.98 367.88C252.45 368.66 253 370.45 252.22 371.85L227.42 418.65L226.72 420.43C224.93 425.25 222.14 432.56 217.94 435.98C214.06 439.09 209.62 439.32 204.64 433.26C204.56 433.1 204.41 433.03 204.33 432.87L192.67 411.96ZM292.67 208.75C284.228 203.008 274.25 199.945 264.04 199.96C249.9 199.96 237.14 205.71 227.89 214.96C218.64 224.21 212.89 236.96 212.89 251.11C212.89 265.26 218.64 278.01 227.89 287.26C237.14 296.51 249.9 302.27 264.04 302.27C278.19 302.27 290.94 296.51 300.19 287.26C309.44 278.01 315.19 265.26 315.19 251.11C315.153 241.949 312.682 232.962 308.03 225.07C304.173 218.567 298.928 212.994 292.67 208.75ZM452.33 46.96C461.79 46.96 469.46 54.62 469.46 64.08C469.46 73.54 461.79 81.21 452.33 81.21C442.88 81.21 435.21 73.54 435.21 64.08C435.25 54.62 442.92 46.96 452.33 46.96ZM336.33 46.96C345.79 46.96 353.46 54.62 353.46 64.08C353.46 73.54 345.79 81.21 336.33 81.21C326.88 81.21 319.21 73.54 319.21 64.08C319.21 54.62 326.88 46.96 336.33 46.96ZM394.33 46.96C403.79 46.96 411.46 54.62 411.46 64.08C411.46 73.54 403.79 81.21 394.33 81.21C384.87 81.21 377.21 73.54 377.21 64.08C377.21 54.62 384.87 46.96 394.33 46.96Z" fill="#FAB387" stroke="#11111B" stroke-width="16" stroke-linejoin="round"/>
<rect x="612" y="316" width="649" height="41" rx="20.5" fill="#FAB387" stroke="#11111B" stroke-width="16" stroke-linejoin="round"/>
<rect x="1341" y="316" width="191" height="41" rx="20.5" fill="#FAB387" stroke="#11111B" stroke-width="16" stroke-linejoin="round"/>
<path d="M762.125 275H636.625V95.75H672.5V239.125H762.125V275ZM817.5 104.75C817.5 107.917 816.875 110.875 815.625 113.625C814.458 116.375 812.833 118.792 810.75 120.875C808.667 122.875 806.208 124.5 803.375 125.75C800.625 126.917 797.667 127.5 794.5 127.5C791.333 127.5 788.333 126.917 785.5 125.75C782.75 124.5 780.333 122.875 778.25 120.875C776.25 118.792 774.625 116.375 773.375 113.625C772.208 110.875 771.625 107.917 771.625 104.75C771.625 101.667 772.208 98.75 773.375 96C774.625 93.1667 776.25 90.75 778.25 88.75C780.333 86.6667 782.75 85.0417 785.5 83.875C788.333 82.625 791.333 82 794.5 82C797.667 82 800.625 82.625 803.375 83.875C806.208 85.0417 808.667 86.6667 810.75 88.75C812.833 90.75 814.458 93.1667 815.625 96C816.875 98.75 817.5 101.667 817.5 104.75ZM811.625 275H777.25V141.125H811.625V275ZM954.75 167.75L929.75 192.875C928.5 189.375 926.792 186.25 924.625 183.5C922.458 180.667 920 178.292 917.25 176.375C914.583 174.458 911.667 173 908.5 172C905.333 171 902.083 170.5 898.75 170.5C894.083 170.5 889.667 171.458 885.5 173.375C881.417 175.292 877.833 178 874.75 181.5C871.75 184.917 869.375 189 867.625 193.75C865.875 198.5 865 203.75 865 209.5C865 214.167 865.875 218.542 867.625 222.625C869.375 226.708 871.75 230.292 874.75 233.375C877.833 236.458 881.417 238.875 885.5 240.625C889.667 242.375 894.083 243.25 898.75 243.25C902.083 243.25 905.292 242.792 908.375 241.875C911.458 240.958 914.333 239.667 917 238C919.75 236.25 922.167 234.167 924.25 231.75C926.417 229.25 928.167 226.5 929.5 223.5L954.5 248.625C951.333 253.125 947.667 257.167 943.5 260.75C939.417 264.333 934.958 267.375 930.125 269.875C925.375 272.375 920.333 274.25 915 275.5C909.75 276.833 904.333 277.5 898.75 277.5C889.333 277.5 880.458 275.75 872.125 272.25C863.875 268.667 856.625 263.792 850.375 257.625C844.208 251.458 839.333 244.25 835.75 236C832.167 227.75 830.375 218.917 830.375 209.5C830.375 199.25 832.167 189.667 835.75 180.75C839.333 171.833 844.208 164.083 850.375 157.5C856.625 150.833 863.875 145.583 872.125 141.75C880.458 137.917 889.333 136 898.75 136C904.333 136 909.792 136.708 915.125 138.125C920.542 139.542 925.667 141.625 930.5 144.375C935.417 147.042 939.917 150.333 944 154.25C948.167 158.167 951.75 162.667 954.75 167.75ZM1022.75 242.25C1024.08 242.667 1025.42 242.958 1026.75 243.125C1028.08 243.208 1029.42 243.25 1030.75 243.25C1034.08 243.25 1037.29 242.792 1040.38 241.875C1043.46 240.958 1046.33 239.667 1049 238C1051.75 236.25 1054.17 234.167 1056.25 231.75C1058.42 229.25 1060.17 226.5 1061.5 223.5L1086.5 248.625C1083.33 253.125 1079.67 257.167 1075.5 260.75C1071.42 264.333 1066.96 267.375 1062.12 269.875C1057.38 272.375 1052.33 274.25 1047 275.5C1041.75 276.833 1036.33 277.5 1030.75 277.5C1021.33 277.5 1012.46 275.75 1004.12 272.25C995.875 268.75 988.625 263.875 982.375 257.625C976.208 251.375 971.333 243.958 967.75 235.375C964.167 226.708 962.375 217.208 962.375 206.875C962.375 196.292 964.167 186.625 967.75 177.875C971.333 169.125 976.208 161.667 982.375 155.5C988.625 149.333 995.875 144.542 1004.12 141.125C1012.46 137.708 1021.33 136 1030.75 136C1036.33 136 1041.79 136.667 1047.12 138C1052.46 139.333 1057.5 141.25 1062.25 143.75C1067.08 146.25 1071.58 149.333 1075.75 153C1079.92 156.583 1083.58 160.625 1086.75 165.125L1022.75 242.25ZM1040.25 171.875C1038.67 171.292 1037.08 170.917 1035.5 170.75C1034 170.583 1032.42 170.5 1030.75 170.5C1026.08 170.5 1021.67 171.375 1017.5 173.125C1013.42 174.792 1009.83 177.208 1006.75 180.375C1003.75 183.542 1001.38 187.375 999.625 191.875C997.875 196.292 997 201.292 997 206.875C997 208.125 997.042 209.542 997.125 211.125C997.292 212.708 997.5 214.333 997.75 216C998.083 217.583 998.458 219.125 998.875 220.625C999.292 222.125 999.833 223.458 1000.5 224.625L1040.25 171.875ZM1138.12 275H1104V141.125H1112.25L1123.5 154.125C1129 149.125 1135.21 145.292 1142.12 142.625C1149.12 139.875 1156.42 138.5 1164 138.5C1172.17 138.5 1179.88 140.083 1187.12 143.25C1194.38 146.333 1200.71 150.625 1206.12 156.125C1211.54 161.542 1215.79 167.917 1218.88 175.25C1222.04 182.5 1223.62 190.25 1223.62 198.5V275H1189.5V198.5C1189.5 195 1188.83 191.708 1187.5 188.625C1186.17 185.458 1184.33 182.708 1182 180.375C1179.67 178.042 1176.96 176.208 1173.88 174.875C1170.79 173.542 1167.5 172.875 1164 172.875C1160.42 172.875 1157.04 173.542 1153.88 174.875C1150.71 176.208 1147.96 178.042 1145.62 180.375C1143.29 182.708 1141.46 185.458 1140.12 188.625C1138.79 191.708 1138.12 195 1138.12 198.5V275ZM1299.25 332.625C1296.25 332.458 1293.38 331.833 1290.62 330.75C1287.88 329.667 1285.42 328.5 1283.25 327.25C1280.75 325.75 1278.42 324.125 1276.25 322.375L1283.12 303.625C1285.04 305.042 1286.96 306.25 1288.88 307.25C1290.54 308.167 1292.25 309 1294 309.75C1295.75 310.5 1297.33 310.875 1298.75 310.875C1300.58 310.875 1302.08 310.292 1303.25 309.125C1304.5 307.958 1305.12 306.417 1305.12 304.5C1305.12 302.167 1304.21 300.5 1302.38 299.5C1300.62 298.5 1298.75 298 1296.75 298C1294.08 298 1291.67 298.708 1289.5 300.125L1297.75 276.5C1289.67 275.25 1282.12 272.625 1275.12 268.625C1268.21 264.625 1262.17 259.667 1257 253.75C1251.92 247.833 1247.92 241.083 1245 233.5C1242.08 225.917 1240.62 217.917 1240.62 209.5C1240.62 199.25 1242.42 189.667 1246 180.75C1249.58 171.833 1254.46 164.083 1260.62 157.5C1266.88 150.833 1274.12 145.583 1282.38 141.75C1290.71 137.917 1299.58 136 1309 136C1314.58 136 1320.04 136.708 1325.38 138.125C1330.79 139.542 1335.92 141.625 1340.75 144.375C1345.67 147.042 1350.17 150.333 1354.25 154.25C1358.42 158.167 1362 162.667 1365 167.75L1340 192.875C1338.75 189.375 1337.04 186.25 1334.88 183.5C1332.71 180.667 1330.25 178.292 1327.5 176.375C1324.83 174.458 1321.92 173 1318.75 172C1315.58 171 1312.33 170.5 1309 170.5C1304.33 170.5 1299.92 171.458 1295.75 173.375C1291.67 175.292 1288.08 178 1285 181.5C1282 184.917 1279.62 189 1277.88 193.75C1276.12 198.5 1275.25 203.75 1275.25 209.5C1275.25 214.167 1276.12 218.542 1277.88 222.625C1279.62 226.708 1282 230.292 1285 233.375C1288.08 236.458 1291.67 238.875 1295.75 240.625C1299.92 242.375 1304.33 243.25 1309 243.25C1312.33 243.25 1315.54 242.792 1318.62 241.875C1321.71 240.958 1324.58 239.667 1327.25 238C1330 236.25 1332.42 234.167 1334.5 231.75C1336.67 229.25 1338.42 226.5 1339.75 223.5L1364.75 248.625C1361.75 252.875 1358.33 256.708 1354.5 260.125C1350.75 263.542 1346.67 266.458 1342.25 268.875C1337.83 271.292 1333.17 273.208 1328.25 274.625C1323.33 276.042 1318.29 276.917 1313.12 277.25L1310.5 284.75C1313.08 285.083 1315.54 285.833 1317.88 287C1320.21 288.167 1322.21 289.667 1323.88 291.5C1325.62 293.417 1327 295.625 1328 298.125C1329 300.708 1329.5 303.5 1329.5 306.5C1329.5 310.667 1328.79 314.375 1327.38 317.625C1325.96 320.875 1324 323.583 1321.5 325.75C1319 328 1316 329.708 1312.5 330.875C1309.08 332.042 1305.33 332.625 1301.25 332.625H1299.25ZM1511.38 275H1503.12L1489.88 256.625C1486.62 259.542 1483.17 262.292 1479.5 264.875C1475.92 267.375 1472.12 269.583 1468.12 271.5C1464.12 273.333 1460 274.792 1455.75 275.875C1451.58 276.958 1447.33 277.5 1443 277.5C1433.58 277.5 1424.71 275.917 1416.38 272.75C1408.12 269.583 1400.88 265 1394.62 259C1388.46 252.917 1383.58 245.5 1380 236.75C1376.42 228 1374.62 218.042 1374.62 206.875C1374.62 196.458 1376.42 186.917 1380 178.25C1383.58 169.5 1388.46 162 1394.62 155.75C1400.88 149.5 1408.12 144.667 1416.38 141.25C1424.71 137.75 1433.58 136 1443 136C1447.33 136 1451.62 136.542 1455.88 137.625C1460.12 138.708 1464.25 140.208 1468.25 142.125C1472.25 144.042 1476.04 146.292 1479.62 148.875C1483.29 151.458 1486.71 154.25 1489.88 157.25L1503.12 141.375H1511.38V275ZM1477 206.875C1477 202.208 1476.08 197.708 1474.25 193.375C1472.5 188.958 1470.08 185.083 1467 181.75C1463.92 178.333 1460.29 175.625 1456.12 173.625C1452.04 171.542 1447.67 170.5 1443 170.5C1438.33 170.5 1433.92 171.292 1429.75 172.875C1425.67 174.458 1422.08 176.792 1419 179.875C1416 182.958 1413.62 186.792 1411.88 191.375C1410.12 195.875 1409.25 201.042 1409.25 206.875C1409.25 212.708 1410.12 217.917 1411.88 222.5C1413.62 227 1416 230.792 1419 233.875C1422.08 236.958 1425.67 239.292 1429.75 240.875C1433.92 242.458 1438.33 243.25 1443 243.25C1447.67 243.25 1452.04 242.25 1456.12 240.25C1460.29 238.167 1463.92 235.458 1467 232.125C1470.08 228.708 1472.5 224.833 1474.25 220.5C1476.08 216.083 1477 211.542 1477 206.875Z" fill="#FAB387"/>
<path d="M762.125 275V283C766.543 283 770.125 279.418 770.125 275H762.125ZM636.625 275H628.625C628.625 279.418 632.207 283 636.625 283V275ZM636.625 95.75V87.75C632.207 87.75 628.625 91.3317 628.625 95.75H636.625ZM672.5 95.75H680.5C680.5 91.3317 676.918 87.75 672.5 87.75V95.75ZM672.5 239.125H664.5C664.5 243.543 668.082 247.125 672.5 247.125V239.125ZM762.125 239.125H770.125C770.125 234.707 766.543 231.125 762.125 231.125V239.125ZM762.125 267H636.625V283H762.125V267ZM644.625 275V95.75H628.625V275H644.625ZM636.625 103.75H672.5V87.75H636.625V103.75ZM664.5 95.75V239.125H680.5V95.75H664.5ZM672.5 247.125H762.125V231.125H672.5V247.125ZM754.125 239.125V275H770.125V239.125H754.125ZM815.625 113.625L808.342 110.315C808.314 110.376 808.287 110.438 808.26 110.501L815.625 113.625ZM810.75 120.875L816.29 126.646C816.33 126.608 816.368 126.57 816.407 126.532L810.75 120.875ZM803.375 125.75L806.499 133.115C806.534 133.1 806.569 133.085 806.604 133.069L803.375 125.75ZM785.5 125.75L782.19 133.033C782.277 133.073 782.365 133.111 782.454 133.147L785.5 125.75ZM778.25 120.875L772.479 126.415C772.554 126.494 772.631 126.571 772.71 126.646L778.25 120.875ZM773.375 113.625L766.01 116.749C766.037 116.812 766.064 116.874 766.092 116.935L773.375 113.625ZM773.375 96L766.056 92.7709C766.04 92.8057 766.025 92.8406 766.01 92.8756L773.375 96ZM778.25 88.75L783.907 94.4069L778.25 88.75ZM785.5 83.875L788.624 91.2397C788.659 91.2248 788.694 91.2097 788.729 91.1943L785.5 83.875ZM803.375 83.875L800.065 91.1579C800.152 91.1977 800.24 91.2359 800.329 91.2724L803.375 83.875ZM810.75 88.75L805.093 94.4069C805.132 94.4453 805.17 94.4834 805.21 94.5211L810.75 88.75ZM815.625 96L808.228 99.046C808.264 99.1348 808.302 99.223 808.342 99.3104L815.625 96ZM811.625 275V283C816.043 283 819.625 279.418 819.625 275H811.625ZM777.25 275H769.25C769.25 279.418 772.832 283 777.25 283V275ZM777.25 141.125V133.125C772.832 133.125 769.25 136.707 769.25 141.125H777.25ZM811.625 141.125H819.625C819.625 136.707 816.043 133.125 811.625 133.125V141.125ZM809.5 104.75C809.5 106.831 809.097 108.654 808.342 110.315L822.908 116.935C824.653 113.096 825.5 109.002 825.5 104.75H809.5ZM808.26 110.501C807.489 112.318 806.44 113.872 805.093 115.218L816.407 126.532C819.227 123.712 821.427 120.432 822.99 116.749L808.26 110.501ZM805.21 115.104C803.848 116.411 802.186 117.53 800.146 118.431L806.604 133.069C810.23 131.47 813.486 129.339 816.29 126.646L805.21 115.104ZM800.251 118.385C798.547 119.108 796.659 119.5 794.5 119.5V135.5C798.675 135.5 802.703 134.725 806.499 133.115L800.251 118.385ZM794.5 119.5C792.343 119.5 790.381 119.108 788.546 118.353L782.454 133.147C786.286 134.725 790.324 135.5 794.5 135.5V119.5ZM788.81 118.467C786.846 117.574 785.191 116.449 783.79 115.104L772.71 126.646C775.475 129.301 778.654 131.426 782.19 133.033L788.81 118.467ZM784.021 115.335C782.676 113.934 781.551 112.279 780.658 110.315L766.092 116.935C767.699 120.471 769.824 123.65 772.479 126.415L784.021 115.335ZM780.74 110.501C780.017 108.797 779.625 106.909 779.625 104.75H763.625C763.625 108.925 764.4 112.953 766.01 116.749L780.74 110.501ZM779.625 104.75C779.625 102.705 780.006 100.854 780.74 99.1244L766.01 92.8756C764.411 96.6459 763.625 100.628 763.625 104.75H779.625ZM780.694 99.2291C781.583 97.2148 782.67 95.6438 783.907 94.4069L772.593 83.0931C769.83 85.8562 767.667 89.1185 766.056 92.7709L780.694 99.2291ZM783.907 94.4069C785.253 93.0604 786.807 92.0107 788.624 91.2397L782.376 76.5103C778.693 78.0726 775.413 80.2729 772.593 83.0931L783.907 94.4069ZM788.729 91.1943C790.522 90.4035 792.42 90 794.5 90V74C790.247 74 786.145 74.8465 782.271 76.5557L788.729 91.1943ZM794.5 90C796.581 90 798.404 90.4033 800.065 91.1579L806.685 76.5921C802.846 74.8467 798.752 74 794.5 74V90ZM800.329 91.2724C802.226 92.0533 803.787 93.1002 805.093 94.4069L816.407 83.0931C813.547 80.2331 810.191 78.03 806.421 76.4776L800.329 91.2724ZM805.21 94.5211C806.443 95.7052 807.458 97.1764 808.228 99.046L823.022 92.954C821.459 89.157 819.223 85.7948 816.29 82.9789L805.21 94.5211ZM808.342 99.3104C809.11 100.999 809.5 102.784 809.5 104.75H825.5C825.5 100.549 824.64 96.5012 822.908 92.6896L808.342 99.3104ZM811.625 267H777.25V283H811.625V267ZM785.25 275V141.125H769.25V275H785.25ZM777.25 149.125H811.625V133.125H777.25V149.125ZM803.625 141.125V275H819.625V141.125H803.625ZM954.75 167.75L960.421 173.393C962.99 170.811 963.491 166.82 961.64 163.684L954.75 167.75ZM929.75 192.875L922.216 195.566C923.14 198.152 925.325 200.083 928.005 200.682C930.684 201.281 933.484 200.464 935.421 198.518L929.75 192.875ZM924.625 183.5L918.27 188.36C918.294 188.39 918.317 188.421 918.341 188.451L924.625 183.5ZM917.25 176.375L912.581 182.871C912.612 182.894 912.644 182.916 912.676 182.938L917.25 176.375ZM885.5 173.375L882.157 166.107C882.138 166.116 882.119 166.124 882.101 166.133L885.5 173.375ZM874.75 181.5L868.747 176.212L868.738 176.222L874.75 181.5ZM874.75 233.375L869.016 238.954C869.042 238.98 869.067 239.006 869.093 239.032L874.75 233.375ZM885.5 240.625L882.349 247.978C882.366 247.986 882.384 247.993 882.402 248.001L885.5 240.625ZM917 238L921.24 244.784C921.258 244.772 921.277 244.761 921.295 244.749L917 238ZM924.25 231.75L918.204 226.511C918.2 226.516 918.195 226.521 918.191 226.526L924.25 231.75ZM929.5 223.5L935.171 217.857C933.309 215.986 930.645 215.154 928.049 215.633C925.454 216.111 923.261 217.839 922.19 220.251L929.5 223.5ZM954.5 248.625L961.042 253.229C963.276 250.054 962.909 245.734 960.171 242.982L954.5 248.625ZM943.5 260.75L938.284 254.685C938.263 254.702 938.243 254.719 938.223 254.737L943.5 260.75ZM930.125 269.875L926.45 262.769C926.433 262.778 926.416 262.787 926.399 262.796L930.125 269.875ZM915 275.5L913.174 267.711C913.126 267.722 913.079 267.734 913.031 267.746L915 275.5ZM872.125 272.25L868.938 279.588C868.968 279.601 868.997 279.613 869.027 279.626L872.125 272.25ZM850.375 257.625L844.718 263.282C844.731 263.295 844.743 263.307 844.756 263.32L850.375 257.625ZM835.75 236L843.088 232.813L835.75 236ZM835.75 180.75L828.327 177.767L835.75 180.75ZM850.375 157.5L844.539 152.028L844.536 152.031L850.375 157.5ZM872.125 141.75L868.782 134.482C868.772 134.486 868.763 134.491 868.754 134.495L872.125 141.75ZM915.125 138.125L913.071 145.857C913.081 145.859 913.091 145.862 913.101 145.865L915.125 138.125ZM930.5 144.375L926.544 151.328C926.591 151.355 926.638 151.381 926.686 151.407L930.5 144.375ZM944 154.25L938.462 160.023C938.482 160.042 938.501 160.061 938.521 160.079L944 154.25ZM949.079 162.107L924.079 187.232L935.421 198.518L960.421 173.393L949.079 162.107ZM937.284 190.184C935.76 185.919 933.644 182.021 930.909 178.549L918.341 188.451C919.939 190.479 921.24 192.831 922.216 195.566L937.284 190.184ZM930.98 178.64C928.343 175.193 925.294 172.23 921.824 169.812L912.676 182.938C914.706 184.353 916.573 186.141 918.27 188.36L930.98 178.64ZM921.919 169.879C918.556 167.462 914.875 165.624 910.909 164.371L906.091 179.629C908.458 180.376 910.611 181.455 912.581 182.871L921.919 169.879ZM910.909 164.371C906.96 163.124 902.897 162.5 898.75 162.5V178.5C901.269 178.5 903.707 178.876 906.091 179.629L910.909 164.371ZM898.75 162.5C892.95 162.5 887.391 163.699 882.157 166.107L888.843 180.643C891.943 179.217 895.217 178.5 898.75 178.5V162.5ZM882.101 166.133C876.991 168.532 872.53 171.918 868.747 176.212L880.753 186.788C883.137 184.082 885.843 182.052 888.899 180.617L882.101 166.133ZM868.738 176.222C865.02 180.456 862.17 185.416 860.118 190.984L875.132 196.516C876.58 192.584 878.48 189.377 880.762 186.778L868.738 176.222ZM860.118 190.984C858.001 196.732 857 202.933 857 209.5H873C873 204.567 873.749 200.268 875.132 196.516L860.118 190.984ZM857 209.5C857 215.194 858.074 220.647 860.272 225.776L874.978 219.474C873.676 216.436 873 213.139 873 209.5H857ZM860.272 225.776C862.395 230.731 865.31 235.144 869.016 238.954L880.484 227.796C878.19 225.439 876.355 222.685 874.978 219.474L860.272 225.776ZM869.093 239.032C872.91 242.849 877.348 245.835 882.349 247.978L888.651 233.272C885.485 231.915 882.757 230.068 880.407 227.718L869.093 239.032ZM882.402 248.001C887.582 250.176 893.055 251.25 898.75 251.25V235.25C895.112 235.25 891.752 234.574 888.598 233.249L882.402 248.001ZM898.75 251.25C902.827 251.25 906.805 250.688 910.655 249.543L906.095 234.207C903.778 234.896 901.34 235.25 898.75 235.25V251.25ZM910.655 249.543C914.412 248.426 917.949 246.841 921.24 244.784L912.76 231.216C910.718 232.492 908.504 233.491 906.095 234.207L910.655 249.543ZM921.295 244.749C924.69 242.589 927.705 239.995 930.309 236.974L918.191 226.526C916.629 228.338 914.81 229.911 912.705 231.251L921.295 244.749ZM930.296 236.989C932.976 233.897 935.154 230.477 936.81 226.749L922.19 220.251C921.18 222.523 919.858 224.603 918.204 226.511L930.296 236.989ZM923.829 229.143L948.829 254.268L960.171 242.982L935.171 217.857L923.829 229.143ZM947.958 244.021C945.17 247.982 941.949 251.532 938.284 254.685L948.716 266.815C953.384 262.801 957.496 258.268 961.042 253.229L947.958 244.021ZM938.223 254.737C934.628 257.892 930.708 260.567 926.45 262.769L933.8 276.981C939.209 274.183 944.205 270.775 948.777 266.763L938.223 254.737ZM926.399 262.796C922.262 264.973 917.86 266.613 913.174 267.711L916.826 283.289C922.806 281.887 928.488 279.777 933.851 276.954L926.399 262.796ZM913.031 267.746C908.444 268.911 903.69 269.5 898.75 269.5V285.5C904.977 285.5 911.056 284.756 916.969 283.254L913.031 267.746ZM898.75 269.5C890.352 269.5 882.534 267.945 875.223 264.874L869.027 279.626C878.382 283.555 888.315 285.5 898.75 285.5V269.5ZM875.312 264.912C867.944 261.712 861.524 257.387 855.994 251.93L844.756 263.32C851.726 270.196 859.806 275.621 868.938 279.588L875.312 264.912ZM856.032 251.968C850.598 246.534 846.284 240.171 843.088 232.813L828.412 239.187C832.383 248.329 837.819 256.382 844.718 263.282L856.032 251.968ZM843.088 232.813C839.962 225.616 838.375 217.873 838.375 209.5H822.375C822.375 219.961 824.372 229.884 828.412 239.187L843.088 232.813ZM838.375 209.5C838.375 200.203 839.996 191.64 843.173 183.733L828.327 177.767C824.338 187.694 822.375 198.297 822.375 209.5H838.375ZM843.173 183.733C846.411 175.675 850.768 168.783 856.214 162.969L844.536 152.031C837.649 159.384 832.256 167.991 828.327 177.767L843.173 183.733ZM856.211 162.972C861.764 157.048 868.179 152.405 875.496 149.005L868.754 134.495C859.571 138.762 851.486 144.619 844.539 152.028L856.211 162.972ZM875.468 149.018C882.725 145.68 890.456 144 898.75 144V128C888.211 128 878.192 130.153 868.782 134.482L875.468 149.018ZM898.75 144C903.648 144 908.416 144.62 913.071 145.857L917.179 130.393C911.167 128.796 905.018 128 898.75 128V144ZM913.101 145.865C917.847 147.106 922.322 148.926 926.544 151.328L934.456 137.422C929.012 134.324 923.237 131.977 917.149 130.385L913.101 145.865ZM926.686 151.407C930.967 153.729 934.889 156.596 938.462 160.023L949.538 148.477C944.945 144.071 939.866 140.354 934.314 137.343L926.686 151.407ZM938.521 160.079C942.119 163.461 945.232 167.363 947.86 171.816L961.64 163.684C958.268 157.97 954.215 152.872 949.479 148.421L938.521 160.079ZM1022.75 242.25L1016.59 237.141C1014.89 239.194 1014.32 241.961 1015.08 244.519C1015.84 247.078 1017.82 249.09 1020.36 249.886L1022.75 242.25ZM1026.75 243.125L1025.76 251.063C1025.92 251.084 1026.09 251.099 1026.25 251.109L1026.75 243.125ZM1049 238L1053.24 244.784C1053.26 244.772 1053.28 244.761 1053.3 244.749L1049 238ZM1056.25 231.75L1050.2 226.511C1050.2 226.516 1050.2 226.521 1050.19 226.526L1056.25 231.75ZM1061.5 223.5L1067.17 217.857C1065.31 215.986 1062.64 215.154 1060.05 215.633C1057.45 216.111 1055.26 217.839 1054.19 220.251L1061.5 223.5ZM1086.5 248.625L1093.04 253.229C1095.28 250.054 1094.91 245.734 1092.17 242.982L1086.5 248.625ZM1075.5 260.75L1070.28 254.685C1070.26 254.702 1070.24 254.719 1070.22 254.737L1075.5 260.75ZM1062.12 269.875L1058.45 262.769C1058.43 262.778 1058.42 262.787 1058.4 262.796L1062.12 269.875ZM1047 275.5L1045.17 267.711C1045.13 267.722 1045.08 267.734 1045.03 267.746L1047 275.5ZM1004.12 272.25L1001 279.615C1001.01 279.618 1001.02 279.622 1001.03 279.626L1004.12 272.25ZM982.375 257.625L976.68 263.244C976.693 263.257 976.705 263.269 976.718 263.282L982.375 257.625ZM967.75 235.375L960.357 238.432C960.36 238.44 960.364 238.449 960.368 238.457L967.75 235.375ZM982.375 155.5L976.756 149.805C976.743 149.818 976.731 149.83 976.718 149.843L982.375 155.5ZM1004.12 141.125L1001.09 133.723C1001.08 133.727 1001.07 133.73 1001.06 133.734L1004.12 141.125ZM1062.25 143.75L1058.52 150.829C1058.54 150.838 1058.56 150.847 1058.57 150.856L1062.25 143.75ZM1075.75 153L1070.46 159.006C1070.49 159.026 1070.51 159.046 1070.53 159.065L1075.75 153ZM1086.75 165.125L1092.91 170.234C1095.21 167.454 1095.37 163.475 1093.29 160.521L1086.75 165.125ZM1040.25 171.875L1046.64 176.69C1048.16 174.668 1048.64 172.046 1047.93 169.618C1047.21 167.19 1045.39 165.243 1043.02 164.368L1040.25 171.875ZM1035.5 170.75L1034.62 178.701C1034.63 178.703 1034.65 178.704 1034.66 178.706L1035.5 170.75ZM1017.5 173.125L1020.52 180.532C1020.55 180.522 1020.57 180.511 1020.6 180.501L1017.5 173.125ZM1006.75 180.375L1001.02 174.794C1000.99 174.82 1000.97 174.847 1000.94 174.873L1006.75 180.375ZM999.625 191.875L1007.06 194.822C1007.07 194.806 1007.07 194.79 1007.08 194.775L999.625 191.875ZM997.125 211.125L989.136 211.545C989.143 211.685 989.154 211.824 989.169 211.962L997.125 211.125ZM997.75 216L989.839 217.187C989.862 217.341 989.889 217.495 989.922 217.648L997.75 216ZM1000.5 224.625L993.554 228.594C994.889 230.93 997.309 232.439 999.994 232.609C1002.68 232.779 1005.27 231.588 1006.89 229.44L1000.5 224.625ZM1020.36 249.886C1022.13 250.439 1023.93 250.835 1025.76 251.063L1027.74 235.187C1026.9 235.081 1026.03 234.894 1025.14 234.614L1020.36 249.886ZM1026.25 251.109C1027.75 251.203 1029.25 251.25 1030.75 251.25V235.25C1029.58 235.25 1028.42 235.214 1027.25 235.141L1026.25 251.109ZM1030.75 251.25C1034.83 251.25 1038.8 250.688 1042.65 249.543L1038.1 234.207C1035.78 234.896 1033.34 235.25 1030.75 235.25V251.25ZM1042.65 249.543C1046.41 248.426 1049.95 246.841 1053.24 244.784L1044.76 231.216C1042.72 232.492 1040.5 233.491 1038.1 234.207L1042.65 249.543ZM1053.3 244.749C1056.69 242.589 1059.7 239.995 1062.31 236.974L1050.19 226.526C1048.63 228.338 1046.81 229.911 1044.7 231.251L1053.3 244.749ZM1062.3 236.989C1064.98 233.897 1067.15 230.477 1068.81 226.749L1054.19 220.251C1053.18 222.523 1051.86 224.603 1050.2 226.511L1062.3 236.989ZM1055.83 229.143L1080.83 254.268L1092.17 242.982L1067.17 217.857L1055.83 229.143ZM1079.96 244.021C1077.17 247.982 1073.95 251.532 1070.28 254.685L1080.72 266.815C1085.38 262.801 1089.5 258.268 1093.04 253.229L1079.96 244.021ZM1070.22 254.737C1066.63 257.892 1062.71 260.567 1058.45 262.769L1065.8 276.981C1071.21 274.183 1076.21 270.775 1080.78 266.763L1070.22 254.737ZM1058.4 262.796C1054.26 264.973 1049.86 266.613 1045.17 267.711L1048.83 283.289C1054.81 281.887 1060.49 279.777 1065.85 276.954L1058.4 262.796ZM1045.03 267.746C1040.44 268.911 1035.69 269.5 1030.75 269.5V285.5C1036.98 285.5 1043.06 284.756 1048.97 283.254L1045.03 267.746ZM1030.75 269.5C1022.35 269.5 1014.53 267.945 1007.22 264.874L1001.03 279.626C1010.38 283.555 1020.31 285.5 1030.75 285.5V269.5ZM1007.25 264.885C999.932 261.781 993.545 257.481 988.032 251.968L976.718 263.282C983.705 270.269 991.818 275.719 1001 279.615L1007.25 264.885ZM988.07 252.006C982.665 246.529 978.345 239.987 975.132 232.293L960.368 238.457C964.322 247.929 969.752 256.221 976.68 263.244L988.07 252.006ZM975.143 232.318C971.999 224.715 970.375 216.267 970.375 206.875H954.375C954.375 218.15 956.334 228.701 960.357 238.432L975.143 232.318ZM970.375 206.875C970.375 197.208 972.008 188.586 975.153 180.907L960.347 174.843C956.325 184.664 954.375 195.376 954.375 206.875H970.375ZM975.153 180.907C978.369 173.056 982.677 166.512 988.032 161.157L976.718 149.843C969.74 156.822 964.298 165.194 960.347 174.843L975.153 180.907ZM987.994 161.195C993.496 155.766 999.873 151.545 1007.19 148.516L1001.06 133.734C991.877 137.539 983.754 142.901 976.756 149.805L987.994 161.195ZM1007.16 148.527C1014.49 145.523 1022.33 144 1030.75 144V128C1020.34 128 1010.43 129.894 1001.09 133.723L1007.16 148.527ZM1030.75 144C1035.69 144 1040.5 144.589 1045.18 145.761L1049.07 130.239C1043.09 128.744 1036.98 128 1030.75 128V144ZM1045.18 145.761C1049.91 146.943 1054.35 148.634 1058.52 150.829L1065.98 136.671C1060.65 133.866 1055 131.724 1049.07 130.239L1045.18 145.761ZM1058.57 150.856C1062.82 153.05 1066.78 155.761 1070.46 159.006L1081.04 146.994C1076.39 142.905 1071.35 139.45 1065.93 136.644L1058.57 150.856ZM1070.53 159.065C1074.2 162.218 1077.42 165.768 1080.21 169.729L1093.29 160.521C1089.75 155.482 1085.63 150.949 1080.97 146.935L1070.53 159.065ZM1080.59 160.016L1016.59 237.141L1028.91 247.359L1092.91 170.234L1080.59 160.016ZM1043.02 164.368C1040.85 163.57 1038.62 163.034 1036.34 162.794L1034.66 178.706C1035.55 178.799 1036.49 179.014 1037.48 179.382L1043.02 164.368ZM1036.38 162.799C1034.56 162.597 1032.68 162.5 1030.75 162.5V178.5C1032.15 178.5 1033.44 178.57 1034.62 178.701L1036.38 162.799ZM1030.75 162.5C1025.05 162.5 1019.58 163.574 1014.4 165.749L1020.6 180.501C1023.75 179.176 1027.11 178.5 1030.75 178.5V162.5ZM1014.48 165.718C1009.37 167.802 1004.87 170.841 1001.02 174.794L1012.48 185.956C1014.8 183.576 1017.46 181.782 1020.52 180.532L1014.48 165.718ZM1000.94 174.873C997.157 178.869 994.254 183.613 992.169 188.975L1007.08 194.775C1008.5 191.137 1010.34 188.215 1012.56 185.877L1000.94 174.873ZM992.188 188.928C990.007 194.432 989 200.456 989 206.875H1005C1005 202.127 1005.74 198.152 1007.06 194.822L992.188 188.928ZM989 206.875C989 208.296 989.047 209.857 989.136 211.545L1005.11 210.705C1005.04 209.226 1005 207.954 1005 206.875H989ZM989.169 211.962C989.349 213.669 989.572 215.411 989.839 217.187L1005.66 214.813C1005.43 213.256 1005.23 211.748 1005.08 210.288L989.169 211.962ZM989.922 217.648C990.288 219.391 990.703 221.097 991.167 222.766L1006.58 218.484C1006.21 217.153 1005.88 215.776 1005.58 214.352L989.922 217.648ZM991.167 222.766C991.734 224.806 992.512 226.77 993.554 228.594L1007.45 220.656C1007.16 220.147 1006.85 219.444 1006.58 218.484L991.167 222.766ZM1006.89 229.44L1046.64 176.69L1033.86 167.06L994.111 219.81L1006.89 229.44ZM1138.12 275V283C1142.54 283 1146.12 279.418 1146.12 275H1138.12ZM1104 275H1096C1096 279.418 1099.58 283 1104 283V275ZM1104 141.125V133.125C1099.58 133.125 1096 136.707 1096 141.125H1104ZM1112.25 141.125L1118.3 135.89C1116.78 134.134 1114.57 133.125 1112.25 133.125V141.125ZM1123.5 154.125L1117.45 159.36C1118.86 160.99 1120.87 161.982 1123.02 162.111C1125.17 162.24 1127.29 161.495 1128.88 160.045L1123.5 154.125ZM1142.12 142.625L1145 150.089C1145.02 150.083 1145.03 150.077 1145.05 150.071L1142.12 142.625ZM1187.12 143.25L1183.92 150.581C1183.95 150.592 1183.97 150.602 1183.99 150.612L1187.12 143.25ZM1206.12 156.125L1200.43 161.739C1200.44 161.753 1200.45 161.767 1200.47 161.782L1206.12 156.125ZM1218.88 175.25L1211.5 178.351C1211.51 178.385 1211.53 178.418 1211.54 178.452L1218.88 175.25ZM1223.62 275V283C1228.04 283 1231.62 279.418 1231.62 275H1223.62ZM1189.5 275H1181.5C1181.5 279.418 1185.08 283 1189.5 283V275ZM1187.5 188.625L1180.13 191.729C1180.14 191.753 1180.15 191.777 1180.16 191.8L1187.5 188.625ZM1153.88 174.875L1150.77 167.502L1153.88 174.875ZM1140.12 188.625L1147.47 191.8C1147.48 191.777 1147.49 191.753 1147.5 191.729L1140.12 188.625ZM1138.12 267H1104V283H1138.12V267ZM1112 275V141.125H1096V275H1112ZM1104 149.125H1112.25V133.125H1104V149.125ZM1106.2 146.36L1117.45 159.36L1129.55 148.89L1118.3 135.89L1106.2 146.36ZM1128.88 160.045C1133.65 155.708 1139.01 152.399 1145 150.089L1139.25 135.161C1131.41 138.184 1124.35 142.542 1118.12 148.205L1128.88 160.045ZM1145.05 150.071C1151.11 147.69 1157.41 146.5 1164 146.5V130.5C1155.42 130.5 1147.14 132.06 1139.2 135.179L1145.05 150.071ZM1164 146.5C1171.1 146.5 1177.72 147.87 1183.92 150.581L1190.33 135.919C1182.03 132.297 1173.23 130.5 1164 130.5V146.5ZM1183.99 150.612C1190.3 153.295 1195.76 156.999 1200.43 161.739L1211.82 150.511C1205.66 144.251 1198.45 139.372 1190.26 135.888L1183.99 150.612ZM1200.47 161.782C1205.12 166.438 1208.8 171.935 1211.5 178.351L1226.25 172.149C1222.78 163.898 1217.96 156.646 1211.78 150.468L1200.47 161.782ZM1211.54 178.452C1214.25 184.649 1215.62 191.304 1215.62 198.5H1231.62C1231.62 189.196 1229.83 180.351 1226.21 172.048L1211.54 178.452ZM1215.62 198.5V275H1231.62V198.5H1215.62ZM1223.62 267H1189.5V283H1223.62V267ZM1197.5 275V198.5H1181.5V275H1197.5ZM1197.5 198.5C1197.5 193.955 1196.63 189.578 1194.84 185.45L1180.16 191.8C1181.04 193.839 1181.5 196.045 1181.5 198.5H1197.5ZM1194.87 185.521C1193.16 181.44 1190.75 177.813 1187.66 174.718L1176.34 186.032C1177.91 187.603 1179.18 189.477 1180.13 191.729L1194.87 185.521ZM1187.66 174.718C1184.6 171.658 1181.04 169.259 1177.05 167.532L1170.7 182.218C1172.87 183.158 1174.74 184.425 1176.34 186.032L1187.66 174.718ZM1177.05 167.532C1172.92 165.747 1168.55 164.875 1164 164.875V180.875C1166.45 180.875 1168.66 181.336 1170.7 182.218L1177.05 167.532ZM1164 164.875C1159.4 164.875 1154.96 165.737 1150.77 167.502L1156.98 182.248C1159.12 181.346 1161.44 180.875 1164 180.875V164.875ZM1150.77 167.502C1146.69 169.22 1143.06 171.623 1139.97 174.718L1151.28 186.032C1152.85 184.46 1154.73 183.197 1156.98 182.248L1150.77 167.502ZM1139.97 174.718C1136.87 177.813 1134.47 181.44 1132.75 185.521L1147.5 191.729C1148.45 189.477 1149.71 187.603 1151.28 186.032L1139.97 174.718ZM1132.78 185.45C1131 189.578 1130.12 193.955 1130.12 198.5H1146.12C1146.12 196.045 1146.59 193.839 1147.47 191.8L1132.78 185.45ZM1130.12 198.5V275H1146.12V198.5H1130.12ZM1299.25 332.625L1298.81 340.613C1298.95 340.621 1299.1 340.625 1299.25 340.625V332.625ZM1283.25 327.25L1279.13 334.11C1279.17 334.133 1279.21 334.157 1279.25 334.179L1283.25 327.25ZM1276.25 322.375L1268.74 319.621C1267.56 322.837 1268.56 326.446 1271.22 328.599L1276.25 322.375ZM1283.12 303.625L1287.88 297.192C1285.85 295.694 1283.24 295.238 1280.83 295.962C1278.41 296.686 1276.48 298.505 1275.61 300.871L1283.12 303.625ZM1288.88 307.25L1292.73 300.24C1292.68 300.212 1292.63 300.184 1292.58 300.157L1288.88 307.25ZM1303.25 309.125L1297.79 303.277C1297.72 303.339 1297.66 303.403 1297.59 303.468L1303.25 309.125ZM1302.38 299.5L1298.41 306.446C1298.45 306.472 1298.5 306.498 1298.54 306.523L1302.38 299.5ZM1289.5 300.125L1281.95 297.488C1280.82 300.721 1281.87 304.315 1284.57 306.426C1287.27 308.537 1291.01 308.695 1293.88 306.821L1289.5 300.125ZM1297.75 276.5L1305.3 279.137C1306.09 276.894 1305.83 274.419 1304.61 272.382C1303.39 270.345 1301.32 268.957 1298.97 268.594L1297.75 276.5ZM1275.12 268.625L1271.12 275.55C1271.13 275.557 1271.14 275.564 1271.16 275.571L1275.12 268.625ZM1257 253.75L1250.93 258.963C1250.95 258.98 1250.96 258.996 1250.97 259.012L1257 253.75ZM1246 180.75L1238.58 177.767L1246 180.75ZM1260.62 157.5L1254.79 152.028L1254.79 152.031L1260.62 157.5ZM1282.38 141.75L1279.03 134.482C1279.02 134.486 1279.01 134.491 1279 134.495L1282.38 141.75ZM1325.38 138.125L1323.32 145.857C1323.33 145.859 1323.34 145.862 1323.35 145.865L1325.38 138.125ZM1340.75 144.375L1336.79 151.328C1336.84 151.355 1336.89 151.381 1336.94 151.407L1340.75 144.375ZM1354.25 154.25L1348.71 160.023C1348.73 160.042 1348.75 160.061 1348.77 160.079L1354.25 154.25ZM1365 167.75L1370.67 173.393C1373.24 170.811 1373.74 166.82 1371.89 163.684L1365 167.75ZM1340 192.875L1332.47 195.566C1333.39 198.152 1335.57 200.083 1338.25 200.682C1340.93 201.281 1343.73 200.464 1345.67 198.518L1340 192.875ZM1334.88 183.5L1328.52 188.36C1328.54 188.39 1328.57 188.421 1328.59 188.451L1334.88 183.5ZM1327.5 176.375L1322.83 182.871C1322.86 182.894 1322.89 182.916 1322.93 182.938L1327.5 176.375ZM1295.75 173.375L1292.41 166.107C1292.39 166.116 1292.37 166.124 1292.35 166.133L1295.75 173.375ZM1285 181.5L1279 176.212L1278.99 176.222L1285 181.5ZM1285 233.375L1279.27 238.954C1279.29 238.98 1279.32 239.006 1279.34 239.032L1285 233.375ZM1295.75 240.625L1292.6 247.978C1292.62 247.986 1292.63 247.993 1292.65 248.001L1295.75 240.625ZM1327.25 238L1331.49 244.784C1331.51 244.772 1331.53 244.761 1331.55 244.749L1327.25 238ZM1334.5 231.75L1328.45 226.511C1328.45 226.516 1328.45 226.521 1328.44 226.526L1334.5 231.75ZM1339.75 223.5L1345.42 217.857C1343.56 215.986 1340.89 215.154 1338.3 215.633C1335.7 216.111 1333.51 217.839 1332.44 220.251L1339.75 223.5ZM1364.75 248.625L1371.29 253.238C1373.53 250.063 1373.16 245.737 1370.42 242.982L1364.75 248.625ZM1354.5 260.125L1349.18 254.153C1349.16 254.172 1349.13 254.192 1349.11 254.211L1354.5 260.125ZM1342.25 268.875L1338.41 261.857L1342.25 268.875ZM1313.12 277.25L1312.61 269.267C1309.41 269.473 1306.63 271.576 1305.57 274.607L1313.12 277.25ZM1310.5 284.75L1302.95 282.107C1302.15 284.384 1302.43 286.899 1303.69 288.951C1304.96 291.004 1307.08 292.376 1309.48 292.684L1310.5 284.75ZM1323.88 291.5L1317.96 296.881C1317.96 296.886 1317.96 296.89 1317.97 296.894L1323.88 291.5ZM1328 298.125L1335.46 295.237C1335.45 295.209 1335.44 295.182 1335.43 295.154L1328 298.125ZM1321.5 325.75L1316.26 319.704C1316.22 319.737 1316.19 319.77 1316.15 319.804L1321.5 325.75ZM1312.5 330.875L1309.97 323.286C1309.95 323.292 1309.93 323.298 1309.91 323.304L1312.5 330.875ZM1299.69 324.637C1297.53 324.517 1295.5 324.072 1293.56 323.307L1287.69 338.193C1291.25 339.595 1294.97 340.399 1298.81 340.613L1299.69 324.637ZM1293.56 323.307C1291.11 322.343 1289.02 321.342 1287.25 320.321L1279.25 334.179C1281.82 335.658 1284.64 336.99 1287.69 338.193L1293.56 323.307ZM1287.37 320.39C1285.17 319.072 1283.14 317.658 1281.28 316.151L1271.22 328.599C1273.69 330.592 1276.33 332.428 1279.13 334.11L1287.37 320.39ZM1283.76 325.129L1290.64 306.379L1275.61 300.871L1268.74 319.621L1283.76 325.129ZM1278.37 310.058C1280.59 311.697 1282.85 313.132 1285.17 314.343L1292.58 300.157C1291.06 299.368 1289.5 298.386 1287.88 297.192L1278.37 310.058ZM1285.02 314.26C1286.92 315.302 1288.86 316.25 1290.85 317.103L1297.15 302.397C1295.64 301.75 1294.17 301.031 1292.73 300.24L1285.02 314.26ZM1290.85 317.103C1293.27 318.141 1295.95 318.875 1298.75 318.875V302.875C1298.72 302.875 1298.23 302.859 1297.15 302.397L1290.85 317.103ZM1298.75 318.875C1302.45 318.875 1306.07 317.622 1308.91 314.782L1297.59 303.468C1297.77 303.287 1298.04 303.102 1298.35 302.981C1298.64 302.867 1298.81 302.875 1298.75 302.875V318.875ZM1308.71 314.973C1311.78 312.103 1313.12 308.338 1313.12 304.5H1297.12C1297.12 304.583 1297.11 304.406 1297.24 304.088C1297.38 303.75 1297.59 303.465 1297.79 303.277L1308.71 314.973ZM1313.12 304.5C1313.12 299.658 1310.96 295.069 1306.21 292.477L1298.54 306.523C1298.26 306.366 1297.78 305.989 1297.43 305.355C1297.1 304.768 1297.12 304.379 1297.12 304.5H1313.12ZM1306.34 292.554C1303.4 290.869 1300.15 290 1296.75 290V306C1297.35 306 1297.85 306.131 1298.41 306.446L1306.34 292.554ZM1296.75 290C1292.58 290 1288.63 291.135 1285.12 293.429L1293.88 306.821C1294.7 306.282 1295.59 306 1296.75 306V290ZM1297.05 302.762L1305.3 279.137L1290.2 273.863L1281.95 297.488L1297.05 302.762ZM1298.97 268.594C1291.84 267.491 1285.23 265.187 1279.09 261.679L1271.16 275.571C1279.02 280.063 1287.49 283.009 1296.53 284.406L1298.97 268.594ZM1279.13 261.7C1272.96 258.132 1267.6 253.732 1263.03 248.488L1250.97 259.012C1256.73 265.602 1263.46 271.118 1271.12 275.55L1279.13 261.7ZM1263.07 248.537C1258.61 243.343 1255.07 237.393 1252.47 230.628L1237.53 236.372C1240.76 244.774 1245.23 252.323 1250.93 258.963L1263.07 248.537ZM1252.47 230.628C1249.92 223.994 1248.62 216.971 1248.62 209.5H1232.62C1232.62 218.863 1234.25 227.839 1237.53 236.372L1252.47 230.628ZM1248.62 209.5C1248.62 200.203 1250.25 191.64 1253.42 183.733L1238.58 177.767C1234.59 187.694 1232.62 198.297 1232.62 209.5H1248.62ZM1253.42 183.733C1256.66 175.675 1261.02 168.783 1266.46 162.969L1254.79 152.031C1247.9 159.384 1242.51 167.991 1238.58 177.767L1253.42 183.733ZM1266.46 162.972C1272.01 157.048 1278.43 152.405 1285.75 149.005L1279 134.495C1269.82 138.762 1261.74 144.619 1254.79 152.028L1266.46 162.972ZM1285.72 149.018C1292.97 145.68 1300.71 144 1309 144V128C1298.46 128 1288.44 130.153 1279.03 134.482L1285.72 149.018ZM1309 144C1313.9 144 1318.67 144.62 1323.32 145.857L1327.43 130.393C1321.42 128.796 1315.27 128 1309 128V144ZM1323.35 145.865C1328.1 147.106 1332.57 148.926 1336.79 151.328L1344.71 137.422C1339.26 134.324 1333.49 131.977 1327.4 130.385L1323.35 145.865ZM1336.94 151.407C1341.22 153.729 1345.14 156.596 1348.71 160.023L1359.79 148.477C1355.19 144.071 1350.12 140.354 1344.56 137.343L1336.94 151.407ZM1348.77 160.079C1352.37 163.461 1355.48 167.363 1358.11 171.816L1371.89 163.684C1368.52 157.97 1364.46 152.872 1359.73 148.421L1348.77 160.079ZM1359.33 162.107L1334.33 187.232L1345.67 198.518L1370.67 173.393L1359.33 162.107ZM1347.53 190.184C1346.01 185.919 1343.89 182.021 1341.16 178.549L1328.59 188.451C1330.19 190.479 1331.49 192.831 1332.47 195.566L1347.53 190.184ZM1341.23 178.64C1338.59 175.193 1335.54 172.23 1332.07 169.812L1322.93 182.938C1324.96 184.353 1326.82 186.141 1328.52 188.36L1341.23 178.64ZM1332.17 169.879C1328.81 167.462 1325.13 165.624 1321.16 164.371L1316.34 179.629C1318.71 180.376 1320.86 181.455 1322.83 182.871L1332.17 169.879ZM1321.16 164.371C1317.21 163.124 1313.15 162.5 1309 162.5V178.5C1311.52 178.5 1313.96 178.876 1316.34 179.629L1321.16 164.371ZM1309 162.5C1303.2 162.5 1297.64 163.699 1292.41 166.107L1299.09 180.643C1302.19 179.217 1305.47 178.5 1309 178.5V162.5ZM1292.35 166.133C1287.24 168.532 1282.78 171.918 1279 176.212L1291 186.788C1293.39 184.082 1296.09 182.052 1299.15 180.617L1292.35 166.133ZM1278.99 176.222C1275.27 180.456 1272.42 185.416 1270.37 190.984L1285.38 196.516C1286.83 192.584 1288.73 189.377 1291.01 186.778L1278.99 176.222ZM1270.37 190.984C1268.25 196.732 1267.25 202.933 1267.25 209.5H1283.25C1283.25 204.567 1284 200.268 1285.38 196.516L1270.37 190.984ZM1267.25 209.5C1267.25 215.194 1268.32 220.647 1270.52 225.776L1285.23 219.474C1283.93 216.436 1283.25 213.139 1283.25 209.5H1267.25ZM1270.52 225.776C1272.65 230.731 1275.56 235.144 1279.27 238.954L1290.73 227.796C1288.44 225.439 1286.6 222.685 1285.23 219.474L1270.52 225.776ZM1279.34 239.032C1283.16 242.849 1287.6 245.835 1292.6 247.978L1298.9 233.272C1295.74 231.915 1293.01 230.068 1290.66 227.718L1279.34 239.032ZM1292.65 248.001C1297.83 250.176 1303.3 251.25 1309 251.25V235.25C1305.36 235.25 1302 234.574 1298.85 233.249L1292.65 248.001ZM1309 251.25C1313.08 251.25 1317.05 250.688 1320.9 249.543L1316.35 234.207C1314.03 234.896 1311.59 235.25 1309 235.25V251.25ZM1320.9 249.543C1324.66 248.426 1328.2 246.841 1331.49 244.784L1323.01 231.216C1320.97 232.492 1318.75 233.491 1316.35 234.207L1320.9 249.543ZM1331.55 244.749C1334.94 242.589 1337.95 239.995 1340.56 236.974L1328.44 226.526C1326.88 228.338 1325.06 229.911 1322.95 231.251L1331.55 244.749ZM1340.55 236.989C1343.23 233.897 1345.4 230.477 1347.06 226.749L1332.44 220.251C1331.43 222.523 1330.11 224.603 1328.45 226.511L1340.55 236.989ZM1334.08 229.143L1359.08 254.268L1370.42 242.982L1345.42 217.857L1334.08 229.143ZM1358.21 244.012C1355.56 247.771 1352.55 251.147 1349.18 254.153L1359.82 266.097C1364.12 262.27 1367.94 257.979 1371.29 253.238L1358.21 244.012ZM1349.11 254.211C1345.83 257.203 1342.26 259.748 1338.41 261.857L1346.09 275.893C1351.07 273.169 1355.67 269.88 1359.89 266.039L1349.11 254.211ZM1338.41 261.857C1334.52 263.987 1330.4 265.681 1326.04 266.938L1330.46 282.312C1335.94 280.736 1341.15 278.596 1346.09 275.893L1338.41 261.857ZM1326.04 266.938C1321.68 268.193 1317.21 268.97 1312.61 269.267L1313.64 285.233C1319.38 284.863 1324.99 283.891 1330.46 282.312L1326.04 266.938ZM1305.57 274.607L1302.95 282.107L1318.05 287.393L1320.68 279.893L1305.57 274.607ZM1309.48 292.684C1311.17 292.903 1312.76 293.389 1314.3 294.155L1321.45 279.845C1318.32 278.278 1315 277.264 1311.52 276.816L1309.48 292.684ZM1314.3 294.155C1315.79 294.904 1316.99 295.817 1317.96 296.881L1329.79 286.119C1327.43 283.516 1324.62 281.429 1321.45 279.845L1314.3 294.155ZM1317.97 296.894C1319.04 298.075 1319.92 299.455 1320.57 301.096L1335.43 295.154C1334.08 291.795 1332.21 288.759 1329.78 286.106L1317.97 296.894ZM1320.54 301.013C1321.15 302.601 1321.5 304.405 1321.5 306.5H1337.5C1337.5 302.595 1336.85 298.815 1335.46 295.237L1320.54 301.013ZM1321.5 306.5C1321.5 309.757 1320.95 312.348 1320.04 314.428L1334.71 320.822C1336.63 316.402 1337.5 311.576 1337.5 306.5H1321.5ZM1320.04 314.428C1319.07 316.664 1317.8 318.375 1316.26 319.704L1326.74 331.796C1330.2 328.792 1332.85 325.086 1334.71 320.822L1320.04 314.428ZM1316.15 319.804C1314.54 321.249 1312.53 322.433 1309.97 323.286L1315.03 338.464C1319.47 336.984 1323.46 334.751 1326.85 331.696L1316.15 319.804ZM1309.91 323.304C1307.43 324.152 1304.57 324.625 1301.25 324.625V340.625C1306.1 340.625 1310.73 339.931 1315.09 338.446L1309.91 323.304ZM1301.25 324.625H1299.25V340.625H1301.25V324.625ZM1511.38 275V283C1515.79 283 1519.38 279.418 1519.38 275H1511.38ZM1503.12 275L1496.64 279.679C1498.14 281.764 1500.55 283 1503.12 283V275ZM1489.88 256.625L1496.36 251.946C1495.04 250.105 1492.99 248.914 1490.73 248.671C1488.48 248.428 1486.22 249.155 1484.53 250.671L1489.88 256.625ZM1479.5 264.875L1484.08 271.436C1484.09 271.429 1484.1 271.422 1484.11 271.415L1479.5 264.875ZM1468.12 271.5L1471.46 278.773C1471.5 278.754 1471.54 278.734 1471.58 278.715L1468.12 271.5ZM1455.75 275.875L1453.77 268.123C1453.76 268.126 1453.75 268.129 1453.74 268.132L1455.75 275.875ZM1416.38 272.75L1413.51 280.219C1413.52 280.222 1413.52 280.225 1413.53 280.228L1416.38 272.75ZM1394.62 259L1389.01 264.695C1389.03 264.721 1389.06 264.746 1389.08 264.771L1394.62 259ZM1380 178.25L1387.39 181.307C1387.4 181.298 1387.4 181.29 1387.4 181.282L1380 178.25ZM1394.62 155.75L1388.97 150.093C1388.96 150.106 1388.94 150.118 1388.93 150.131L1394.62 155.75ZM1416.38 141.25L1419.44 148.641C1419.45 148.636 1419.46 148.631 1419.47 148.626L1416.38 141.25ZM1479.62 148.875L1474.95 155.364C1474.97 155.381 1474.99 155.398 1475.02 155.415L1479.62 148.875ZM1489.88 157.25L1484.37 163.058C1485.98 164.577 1488.14 165.365 1490.34 165.236C1492.55 165.107 1494.6 164.072 1496.02 162.376L1489.88 157.25ZM1503.12 141.375V133.375C1500.75 133.375 1498.5 134.428 1496.98 136.249L1503.12 141.375ZM1511.38 141.375H1519.38C1519.38 136.957 1515.79 133.375 1511.38 133.375V141.375ZM1474.25 193.375L1466.81 196.322C1466.84 196.379 1466.86 196.436 1466.88 196.492L1474.25 193.375ZM1467 181.75L1461.06 187.11C1461.08 187.134 1461.1 187.158 1461.13 187.182L1467 181.75ZM1456.12 173.625L1452.49 180.751C1452.55 180.78 1452.6 180.809 1452.66 180.837L1456.12 173.625ZM1429.75 172.875L1426.91 165.397C1426.89 165.403 1426.87 165.41 1426.86 165.416L1429.75 172.875ZM1419 179.875L1413.34 174.218C1413.32 174.244 1413.29 174.27 1413.27 174.296L1419 179.875ZM1411.88 191.375L1419.33 194.275C1419.34 194.259 1419.34 194.244 1419.35 194.229L1411.88 191.375ZM1411.88 222.5L1404.4 225.354C1404.41 225.369 1404.41 225.384 1404.42 225.4L1411.88 222.5ZM1419 233.875L1413.27 239.454C1413.29 239.48 1413.32 239.506 1413.34 239.532L1419 233.875ZM1429.75 240.875L1426.86 248.334C1426.87 248.34 1426.89 248.347 1426.91 248.353L1429.75 240.875ZM1456.12 240.25L1459.64 247.435C1459.66 247.425 1459.68 247.415 1459.7 247.405L1456.12 240.25ZM1467 232.125L1472.87 237.557C1472.9 237.533 1472.92 237.509 1472.94 237.485L1467 232.125ZM1474.25 220.5L1466.86 217.433C1466.85 217.457 1466.84 217.48 1466.83 217.504L1474.25 220.5ZM1511.38 267H1503.12V283H1511.38V267ZM1509.61 270.321L1496.36 251.946L1483.39 261.304L1496.64 279.679L1509.61 270.321ZM1484.53 250.671C1481.52 253.373 1478.31 255.928 1474.89 258.335L1484.11 271.415C1488.02 268.656 1491.73 265.711 1495.22 262.579L1484.53 250.671ZM1474.92 258.314C1471.7 260.562 1468.28 262.553 1464.67 264.285L1471.58 278.715C1475.97 276.614 1480.13 274.188 1484.08 271.436L1474.92 258.314ZM1464.79 264.227C1461.23 265.861 1457.56 267.159 1453.77 268.123L1457.73 283.627C1462.44 282.425 1467.02 280.806 1471.46 278.773L1464.79 264.227ZM1453.74 268.132C1450.23 269.044 1446.66 269.5 1443 269.5V285.5C1448.01 285.5 1452.93 284.873 1457.76 283.618L1453.74 268.132ZM1443 269.5C1434.5 269.5 1426.59 268.074 1419.22 265.272L1413.53 280.228C1422.82 283.759 1432.67 285.5 1443 285.5V269.5ZM1419.24 265.281C1411.97 262.489 1405.63 258.476 1400.17 253.229L1389.08 264.771C1396.12 271.524 1404.28 276.678 1413.51 280.219L1419.24 265.281ZM1400.24 253.305C1394.91 248.047 1390.62 241.561 1387.4 233.718L1372.6 239.782C1376.55 249.439 1382 257.787 1389.01 264.695L1400.24 253.305ZM1387.4 233.718C1384.28 226.088 1382.62 217.187 1382.62 206.875H1366.62C1366.62 218.897 1368.55 229.912 1372.6 239.782L1387.4 233.718ZM1382.62 206.875C1382.62 197.391 1384.25 188.902 1387.39 181.307L1372.61 175.193C1368.58 184.931 1366.62 195.526 1366.62 206.875H1382.62ZM1387.4 181.282C1390.62 173.422 1394.94 166.821 1400.32 161.369L1388.93 150.131C1381.98 157.179 1376.54 165.578 1372.6 175.218L1387.4 181.282ZM1400.28 161.407C1405.78 155.908 1412.15 151.66 1419.44 148.641L1413.31 133.859C1404.1 137.673 1395.97 143.092 1388.97 150.093L1400.28 161.407ZM1419.47 148.626C1426.78 145.555 1434.6 144 1443 144V128C1432.56 128 1422.63 129.945 1413.28 133.874L1419.47 148.626ZM1443 144C1446.66 144 1450.29 144.456 1453.9 145.377L1457.85 129.873C1452.96 128.627 1448.01 128 1443 128V144ZM1453.9 145.377C1457.63 146.329 1461.26 147.648 1464.79 149.34L1471.71 134.91C1467.24 132.769 1462.62 131.088 1457.85 129.873L1453.9 145.377ZM1464.79 149.34C1468.37 151.052 1471.75 153.06 1474.95 155.364L1484.3 142.386C1480.33 139.524 1476.13 137.031 1471.71 134.91L1464.79 149.34ZM1475.02 155.415C1478.38 157.782 1481.49 160.33 1484.37 163.058L1495.38 151.442C1491.92 148.17 1488.21 145.134 1484.23 142.335L1475.02 155.415ZM1496.02 162.376L1509.27 146.501L1496.98 136.249L1483.73 152.124L1496.02 162.376ZM1503.12 149.375H1511.38V133.375H1503.12V149.375ZM1503.38 141.375V275H1519.38V141.375H1503.38ZM1485 206.875C1485 201.128 1483.86 195.569 1481.62 190.258L1466.88 196.492C1468.3 199.848 1469 203.288 1469 206.875H1485ZM1481.69 190.428C1479.59 185.137 1476.66 180.409 1472.87 176.318L1461.13 187.182C1463.51 189.758 1465.41 192.78 1466.81 196.322L1481.69 190.428ZM1472.94 176.39C1469.16 172.197 1464.69 168.861 1459.59 166.413L1452.66 180.837C1455.9 182.389 1458.68 184.469 1461.06 187.11L1472.94 176.39ZM1459.76 166.499C1454.53 163.83 1448.91 162.5 1443 162.5V178.5C1446.43 178.5 1449.55 179.253 1452.49 180.751L1459.76 166.499ZM1443 162.5C1437.41 162.5 1432.02 163.452 1426.91 165.397L1432.59 180.353C1435.81 179.131 1439.26 178.5 1443 178.5V162.5ZM1426.86 165.416C1421.74 167.4 1417.22 170.345 1413.34 174.218L1424.66 185.532C1426.95 183.238 1429.59 181.517 1432.64 180.334L1426.86 165.416ZM1413.27 174.296C1409.41 178.262 1406.49 183.063 1404.4 188.521L1419.35 194.229C1420.76 190.52 1422.59 187.654 1424.73 185.454L1413.27 174.296ZM1404.42 188.475C1402.24 194.07 1401.25 200.251 1401.25 206.875H1417.25C1417.25 201.833 1418.01 197.68 1419.33 194.275L1404.42 188.475ZM1401.25 206.875C1401.25 213.504 1402.24 219.705 1404.4 225.354L1419.35 219.646C1418.01 216.129 1417.25 211.913 1417.25 206.875H1401.25ZM1404.42 225.4C1406.51 230.777 1409.43 235.513 1413.27 239.454L1424.73 228.296C1422.57 226.07 1420.74 223.223 1419.33 219.6L1404.42 225.4ZM1413.34 239.532C1417.22 243.405 1421.74 246.35 1426.86 248.334L1432.64 233.416C1429.59 232.233 1426.95 230.512 1424.66 228.218L1413.34 239.532ZM1426.91 248.353C1432.02 250.298 1437.41 251.25 1443 251.25V235.25C1439.26 235.25 1435.81 234.619 1432.59 233.397L1426.91 248.353ZM1443 251.25C1448.85 251.25 1454.44 249.985 1459.64 247.435L1452.61 233.065C1449.65 234.515 1446.48 235.25 1443 235.25V251.25ZM1459.7 247.405C1464.71 244.902 1469.12 241.617 1472.87 237.557L1461.13 226.693C1458.72 229.3 1455.87 231.431 1452.55 233.095L1459.7 247.405ZM1472.94 237.485C1476.66 233.362 1479.57 228.684 1481.67 223.496L1466.83 217.504C1465.43 220.983 1463.51 224.055 1461.06 226.765L1472.94 237.485ZM1481.64 223.567C1483.87 218.203 1485 212.621 1485 206.875H1469C1469 210.463 1468.3 213.964 1466.86 217.433L1481.64 223.567Z" fill="#11111B"/>
</svg>
