<svg width="188" height="188" viewBox="0 0 188 188" fill="none" xmlns="http://www.w3.org/2000/svg">
<path d="M149.663 56.9219H149.663C147.873 56.9241 146.125 57.4598 144.641 58.4604C143.157 59.4611 142.006 60.8814 141.333 62.5398C140.66 64.1982 140.497 66.0195 140.865 67.771C141.232 69.5204 142.112 71.1208 143.392 72.3683C143.393 72.3698 143.395 72.3714 143.396 72.3729L156.023 85H85.7569C84.5668 84.9841 83.3853 85.2045 82.2808 85.6483C81.1741 86.093 80.1668 86.7532 79.3175 87.5906C78.4682 88.428 77.7938 89.4259 77.3334 90.5262C76.8731 91.6265 76.6361 92.8073 76.6361 94C76.6361 95.1927 76.8731 96.3735 77.3334 97.4738C77.7938 98.5741 78.4682 99.572 79.3175 100.409C80.1668 101.247 81.1741 101.907 82.2808 102.352C83.3853 102.796 84.5668 103.016 85.7569 103H156.023L143.401 115.622C143.399 115.625 143.396 115.627 143.394 115.63C142.533 116.458 141.846 117.448 141.373 118.544C140.898 119.643 140.647 120.826 140.635 122.024C140.622 123.221 140.849 124.409 141.302 125.517C141.754 126.626 142.424 127.633 143.27 128.48C144.117 129.326 145.124 129.996 146.233 130.448C147.341 130.901 148.529 131.128 149.726 131.115C150.924 131.103 152.107 130.852 153.206 130.377C154.302 129.904 155.293 129.217 156.12 128.356C156.123 128.354 156.125 128.351 156.128 128.349L183.356 101.121C184.438 100.285 185.317 99.2133 185.923 97.9868C186.54 96.7394 186.86 95.3659 186.856 93.9742C186.853 92.5825 186.527 91.2105 185.904 89.9661C185.291 88.7433 184.409 87.6764 183.323 86.8461L156.123 59.6465C156.121 59.6447 156.12 59.643 156.118 59.6413C155.279 58.7805 154.277 58.0964 153.169 57.6293C152.06 57.1613 150.867 56.9208 149.663 56.9219ZM94 1C42.7322 1 1 42.7322 1 94C1 145.268 42.7322 187 94 187C121.476 187 146.218 174.996 163.22 156.014C164.044 155.143 164.686 154.116 165.108 152.994C165.532 151.867 165.725 150.666 165.676 149.463C165.628 148.26 165.338 147.079 164.825 145.99C164.312 144.9 163.585 143.925 162.688 143.122C161.791 142.319 160.742 141.703 159.604 141.313C158.465 140.922 157.259 140.764 156.058 140.847C154.857 140.931 153.684 141.255 152.611 141.799C151.541 142.342 150.591 143.093 149.816 144.007C136.074 159.349 116.233 169 94 169C52.4838 169 19 135.516 19 94C19 52.4838 52.4838 19 94 19C116.229 19 136.07 28.6496 149.816 43.9928C150.591 44.9074 151.541 45.658 152.611 46.2005C153.684 46.7453 154.857 47.0691 156.058 47.1527C157.259 47.2363 158.465 47.0781 159.604 46.6874C160.742 46.2967 161.791 45.6815 162.688 44.8781C163.585 44.0747 164.312 43.0996 164.825 42.0103C165.338 40.9211 165.628 39.74 165.676 38.5369C165.725 37.3338 165.532 36.1332 165.108 35.0062C164.686 33.8838 164.044 32.8572 163.22 31.9864C146.215 13.0052 121.472 1 94 1Z" fill="#F9E2AF" stroke="#F9E2AF" stroke-width="2" stroke-linejoin="round"/>
</svg>
