<svg width="198" height="199" viewBox="0 0 198 199" fill="none" xmlns="http://www.w3.org/2000/svg">
<path d="M98.5577 0C90.0541 0 83.1731 6.88101 83.1731 15.3846V92.3077C83.1731 100.811 90.0541 107.692 98.5577 107.692C107.061 107.692 113.942 100.811 113.942 92.3077V15.3846C113.942 6.88101 107.061 0 98.5577 0ZM43.5096 19.9519C41.2861 20.2224 39.2127 21.1538 37.5 22.5962C14.6334 40.625 0 68.6599 0 100C0 154.297 44.2608 198.558 98.5577 198.558C152.855 198.558 197.115 154.297 197.115 100C197.115 68.6599 182.482 40.625 159.615 22.5962C154.627 18.5998 147.386 19.4111 143.389 24.399C139.393 29.387 140.204 36.6286 145.192 40.625C162.74 54.4471 174.038 75.8714 174.038 100C174.038 141.827 140.385 175.481 98.5577 175.481C56.7308 175.481 23.0769 141.827 23.0769 100C23.0769 75.8714 34.375 54.4471 51.9231 40.625C56.1298 37.47 57.6623 31.9111 55.6791 27.0433C53.6959 22.1755 48.7079 19.2909 43.5096 19.9519Z" fill="#F38BA8"/>
</svg>
