<svg width="192" height="192" viewBox="0 0 192 192" fill="none" xmlns="http://www.w3.org/2000/svg">
<path d="M21.9999 96.0004C21.9999 76.3908 29.5969 58.6277 41.9998 45.4058V55.9871C41.9831 57.3072 42.2279 58.6176 42.7202 59.8426C43.2143 61.0723 43.9479 62.1915 44.8784 63.1351C45.8088 64.0788 46.9175 64.8282 48.14 65.3396C49.3626 65.8511 50.6746 66.1145 51.9998 66.1145C53.325 66.1145 54.637 65.8511 55.8596 65.3396C57.0821 64.8282 58.1908 64.0788 59.1212 63.1351C60.0517 62.1915 60.7852 61.0723 61.2794 59.8426C61.7717 58.6176 62.0165 57.3072 61.9998 55.9871V12.0008C61.9998 10.8962 61.1043 10.0008 59.9998 10.0008H16.0133C14.6933 9.98407 13.3829 10.2289 12.1579 10.7212C10.9282 11.2153 9.80905 11.9489 8.86538 12.8793C7.9217 13.8097 7.17236 14.9184 6.66089 16.141C6.14943 17.3635 5.88604 18.6755 5.88604 20.0007C5.88604 21.326 6.14943 22.638 6.66089 23.8605C7.17236 25.083 7.9217 26.1917 8.86538 27.1222C9.80905 28.0526 10.9282 28.7862 12.1579 29.2803C13.3829 29.7726 14.6932 30.0174 16.0133 30.0007H29.135C12.3765 46.9816 2 70.3038 2 96.0004C2 147.82 44.1797 190 95.9996 190C147.819 190 189.999 147.82 189.999 96.0004C189.999 44.185 147.827 2.00808 96.013 2.0008C94.693 1.98409 93.3826 2.22891 92.1575 2.72119C90.9279 3.21532 89.8087 3.94891 88.865 4.87933C87.9214 5.80976 87.172 6.91846 86.6606 8.141C86.1491 9.36354 85.8857 10.6755 85.8857 12.0008C85.8857 13.326 86.1491 14.638 86.6606 15.8605C87.172 17.0831 87.9214 18.1918 88.865 19.1222C89.8087 20.0526 90.9279 20.7862 92.1575 21.2803C93.3825 21.7726 94.6928 22.0174 96.0128 22.0007C136.97 22.0078 169.999 55.0411 169.999 96.0004C169.999 136.964 136.963 170 95.9996 170C55.0359 170 21.9999 136.964 21.9999 96.0004Z" fill="#FAB387" stroke="#FAB387" stroke-width="4" stroke-linejoin="round"/>
</svg>
