<svg width="272" height="160" viewBox="0 0 272 160" fill="none" xmlns="http://www.w3.org/2000/svg">
<path d="M254.414 159.121C263.583 158.758 272 151.278 272 141.199V17.9335C272 4.49549 257.029 -4.3213 245.273 2.19127L134.039 63.8241C121.945 70.5252 121.945 88.6073 134.039 95.3085L245.273 156.941C248.212 158.569 251.358 159.242 254.414 159.121Z" fill="#A6E3A1"/>
<path d="M135.414 159.121C144.583 158.758 153 151.278 153 141.199L153 17.9335C153 4.49549 138.029 -4.3213 126.273 2.19127L15.0391 63.8241C2.9453 70.5252 2.9453 88.6073 15.0391 95.3085L126.273 156.941C129.212 158.569 132.358 159.242 135.414 159.121Z" fill="#A6E3A1"/>
<rect x="35" y="154.135" width="35" height="150" rx="17.5" transform="rotate(-180 35 154.135)" fill="#A6E3A1"/>
</svg>
