<svg width="272" height="160" viewBox="0 0 272 160" fill="none" xmlns="http://www.w3.org/2000/svg">
<path d="M17.5859 0.0137512C8.4168 0.376514 0 7.85715 0 17.9356V141.201C0 154.639 14.971 163.456 26.7266 156.943L137.961 95.3106C150.055 88.6095 150.055 70.5274 137.961 63.8263L26.7266 2.19344C23.7877 0.565298 20.6423 -0.10717 17.5859 0.0137512Z" fill="#A6E3A1"/>
<path d="M136.586 0.0137512C127.417 0.376514 119 7.85715 119 17.9356V141.201C119 154.639 133.971 163.456 145.727 156.943L256.961 95.3106C269.055 88.6095 269.055 70.5274 256.961 63.8263L145.727 2.19344C142.788 0.565298 139.642 -0.10717 136.586 0.0137512Z" fill="#A6E3A1"/>
<rect x="237" y="5" width="35" height="150" rx="17.5" fill="#A6E3A1"/>
</svg>
