<svg width="197" height="154" viewBox="0 0 197 154" fill="none" xmlns="http://www.w3.org/2000/svg">
<path d="M145.312 25C142.656 25 140.625 27.0312 140.625 29.6875C140.625 32.3438 142.656 34.375 145.312 34.375C168.594 34.375 187.5 53.2813 187.5 76.5625C187.5 99.8437 168.594 118.75 145.312 118.75H109.687L126.719 101.719C128.594 99.8437 128.594 96.875 126.719 95.1563C124.844 93.2813 121.875 93.2813 120.156 95.1563L95.1563 120.156C93.2813 122.031 93.2813 125 95.1563 126.719L120.156 151.719C121.094 152.656 122.344 153.125 123.438 153.125C124.531 153.125 125.781 152.656 126.719 151.719C128.594 149.844 128.594 146.875 126.719 145.156L109.687 128.125H145.312C173.75 128.125 196.875 105 196.875 76.5625C196.875 48.125 173.75 25 145.312 25ZM51.5625 128.125C54.2188 128.125 56.25 126.094 56.25 123.438C56.25 120.781 54.2188 118.75 51.5625 118.75C28.2813 118.75 9.375 99.8437 9.375 76.5625C9.375 53.2813 28.2813 34.375 51.5625 34.375H87.1875L70.1563 51.4063C68.2813 53.2813 68.2813 56.25 70.1563 57.9687C71.0938 58.9062 72.3438 59.375 73.4375 59.375C74.5312 59.375 75.7812 58.9062 76.7187 57.9687L101.719 32.9687C103.594 31.0937 103.594 28.125 101.719 26.4062L76.7187 1.40625C74.8437 -0.46875 71.875 -0.46875 70.1563 1.40625C68.2813 3.28125 68.2813 6.25 70.1563 7.96875L87.1875 25H51.5625C23.125 25 0 48.125 0 76.5625C0 105 23.125 128.125 51.5625 128.125Z" fill="#313244"/>
<rect x="134" y="5" width="10" height="160" rx="5" transform="rotate(30 134 5)" fill="#313244"/>
</svg>
