<svg width="78" height="80" viewBox="0 0 78 80" fill="none" xmlns="http://www.w3.org/2000/svg">
<path d="M39 39.988V47.3845L33.45 45.5354L7.846 20.1274H7.824C4.154 25.8687 2 32.6715 2 39.988C2 59.8986 17.778 76.1689 37.5 76.9705L53.8 47.3845L39 39.988Z" fill="#A6E3A1"/>
<path d="M38.0587 78.4936L38.367 78.5056L38.5159 78.2353L55.6139 47.2L55.8651 46.7441L55.3995 46.5114L38.2215 37.9275L37.498 37.566V38.3748V45.3074L34.2551 44.2264L8.90018 19.0668L8.89439 19.0611L8.88841 19.0555L8.57441 18.7636L8.43049 18.6299H8.234H7.274H7.00024L6.85276 18.8605L6.55876 19.3203L6.55865 19.3205C2.59563 25.5234 0.5 32.6714 0.5 39.988C0.5 60.7224 16.7255 77.6271 37.4377 78.4696L37.4387 78.4696L38.0587 78.4936ZM51.7329 48.0288L36.6388 75.4224C17.9823 74.1912 3.5 58.8023 3.5 39.988C3.5 33.859 5.09443 27.8605 8.1294 22.5216L32.3925 46.5987L32.3938 46.5999L32.5585 46.7646L32.642 46.848L32.754 46.8853L39.842 49.2462L40.5 49.4654V48.7718V42.4141L51.7329 48.0288Z" fill="#11111B" stroke="#11111B"/>
<path d="M39 3.006V39.9885L53.8 47.385L37.44 76.971H38.122C58.196 76.971 75.282 61.3564 75.978 41.3059C76.706 20.2658 59.5 3.25588 39 3.006Z" fill="#F9E2AF"/>
<path d="M35.3084 77.7281L34.8982 78.47H35.746H38.122C59.1041 78.47 76.766 61.8335 77.4757 41.3568C77.8344 31.0396 74.0676 21.2099 66.8737 13.6751C59.6135 6.06806 49.4616 1.63363 39.0181 1.50603L39.0179 1.50603L38.0079 1.49404L37.502 1.48803V1.994V40.6057V40.9148L37.7785 41.053L51.7322 48.0265L35.3084 77.7281ZM55.6156 47.1987L55.8678 46.7425L55.4016 46.5095L40.5 39.0612V4.55759C49.5979 5.06162 58.3484 9.08826 64.7003 15.7448L64.7004 15.7449C71.3345 22.6934 74.8056 31.7508 74.4763 41.2501C73.8439 59.489 58.5686 74.4627 40.009 75.4223L55.6156 47.1987Z" fill="#11111B" stroke="#11111B"/>
<path d="M72.004 23.4963H39V47.385L33.45 45.5359L7.80801 20.1299C14.358 9.82877 25.884 3.006 39 3.006C53.43 3.006 65.918 11.44 72.004 23.4963Z" fill="#F38BA8"/>
<path d="M39.842 49.2462L40.5 49.4654V48.7719V24.9953H73.628H74.4402L74.0744 24.2702L73.3425 22.8189L73.3424 22.8187C66.7087 9.6771 53.5497 1.506 39 1.506C25.7731 1.506 13.6359 8.16817 6.5421 19.3234L6.54204 19.3235L6.11004 20.0031L5.894 20.343L6.18008 20.6265L32.5601 46.7661L32.6431 46.8484L32.754 46.8853L39.842 49.2462ZM38 21.9963H37.5V22.4963V45.3055L34.257 44.2244L9.73628 19.928C16.3566 10.2458 27.2049 4.50505 39 4.50505C51.5868 4.50505 63.0497 11.143 69.4729 21.9963H38Z" fill="#11111B" stroke="#11111B"/>
<path d="M39 58.48C49.2138 58.48 57.5 50.1987 57.5 39.988C57.5 29.7773 49.2138 21.496 39 21.496C28.7862 21.496 20.5 29.7773 20.5 39.988C20.5 50.1987 28.7862 58.48 39 58.48Z" fill="#CDD6F4" stroke="#11111B" stroke-width="3"/>
<path d="M48.5 39.988C48.5 45.232 44.2482 49.4828 39 49.4828C33.7518 49.4828 29.5 45.232 29.5 39.988C29.5 34.744 33.7518 30.4932 39 30.4932C44.2482 30.4932 48.5 34.744 48.5 39.988Z" fill="#89B4FA" stroke="#11111B" stroke-width="3"/>
</svg>
