<svg width="120" height="120" viewBox="0 0 120 120" fill="none" xmlns="http://www.w3.org/2000/svg">
<path d="M41.67 89.61L34.5 100.5C29.55 100.35 11.07 96.9 4.5 85.5C4.5 61.23 14.31 32.76 19.02 28.47C28.74 20.76 43.5 19.5 43.5 19.5C43.5 19.5 45.36 23.49 46.68 26.67C52.5 25.68 57.42 25.5 60 25.5C62.58 25.5 67.5 25.68 73.32 26.67C74.64 23.49 76.5 19.5 76.5 19.5C76.5 19.5 91.26 20.76 100.98 28.47C105.69 32.76 115.5 60.84 115.5 85.14C108.93 96.51 90.45 100.35 85.5 100.5L78.33 89.61C73.26 90.72 67.17 91.5 60 91.5C52.83 91.5 46.74 90.72 41.67 89.61Z" fill="#B4BEFE"/>
<path d="M43.5 73.5C48.4706 73.5 52.5 68.799 52.5 63C52.5 57.201 48.4706 52.5 43.5 52.5C38.5294 52.5 34.5 57.201 34.5 63C34.5 68.799 38.5294 73.5 43.5 73.5Z" fill="#B4BEFE" stroke="#11111B" stroke-width="4"/>
<path d="M76.5 73.5C81.4706 73.5 85.5 68.799 85.5 63C85.5 57.201 81.4706 52.5 76.5 52.5C71.5294 52.5 67.5 57.201 67.5 63C67.5 68.799 71.5294 73.5 76.5 73.5Z" fill="#B4BEFE" stroke="#11111B" stroke-width="4"/>
<path d="M84.2592 102.291L84.4113 102.536L84.6996 102.527L85.5636 102.5C88.6171 102.405 94.7949 101.299 101.062 98.7418C107.324 96.1869 113.766 92.1468 117.235 86.1246L117.237 86.1223L117.435 85.7743L117.5 85.6593V85.527V85.125C117.5 72.5611 114.989 59.216 111.843 48.4337C110.27 43.0412 108.536 38.2803 106.872 34.5704C106.04 32.7157 105.223 31.1179 104.45 29.8328C103.68 28.5544 102.939 27.5586 102.25 26.9306L102.237 26.9191L102.224 26.9084C97.175 22.8998 90.9347 20.5664 85.9031 19.2276C80.8654 17.8871 76.9998 17.5334 76.6723 17.5049L76.6717 17.5048L75.6577 17.4178L75.3196 17.3888L75.1678 17.6924L74.7118 18.6044C74.6466 18.7348 73.1495 21.7349 71.8923 25.0591L71.7154 25.527L72.1833 25.7037L74.9943 26.7657L75.4623 26.9425L75.6388 26.4744C76.3434 24.6064 77.1497 22.8089 77.6878 21.6556C81.4912 22.1834 92.2824 24.1334 99.6473 29.9666C100.092 30.3767 100.653 31.1474 101.298 32.2739C101.944 33.4 102.654 34.8459 103.397 36.5629C104.884 39.9961 106.494 44.489 107.983 49.625C110.951 59.8597 113.428 72.6109 113.502 84.5772C110.6 89.2688 105.344 92.6109 100.001 94.8496C94.8001 97.0288 89.5901 98.1316 86.5691 98.4262L80.4528 88.5723L80.1893 88.1477L79.7645 88.411L77.2145 89.992L76.7894 90.2556L77.0532 90.6807L84.2592 102.291Z" fill="#11111B" stroke="#11111B"/>
<path d="M35.2882 102.527L35.5714 102.536L35.7246 102.297L42.9336 91.0834L43.204 90.6627L42.7833 90.3924L40.2573 88.7694L39.8367 88.4991L39.5664 88.9197L33.4529 98.4319C30.3463 98.155 25.1073 97.1095 19.9087 94.9972C14.5775 92.8309 9.36746 89.5746 6.50076 84.952C6.57469 72.8774 9.05271 60.0321 12.0114 49.7386C13.4961 44.5732 15.0993 40.0597 16.5749 36.6173C17.3128 34.8957 18.0163 33.4481 18.6542 32.3235C19.2926 31.1981 19.8447 30.4335 20.278 30.0324C27.7076 24.1435 38.5113 22.1835 42.3152 21.661C42.8526 22.8114 43.6569 24.6093 44.3644 26.478L44.5414 26.9455L45.0089 26.7687L47.8169 25.7067L48.2845 25.5298L48.1077 25.0621C46.8505 21.7379 45.3534 18.7378 45.2882 18.6074L44.8322 17.6954L44.6804 17.3918L44.3423 17.4208L43.3283 17.5078L43.3277 17.5079C43 17.5364 39.1342 17.8902 34.087 19.2393C29.0456 20.587 22.7869 22.9377 17.7009 26.9806L17.6876 26.9911L17.6751 27.0026C16.9855 27.6314 16.2452 28.6444 15.4794 29.9472C14.7091 31.2577 13.8959 32.8913 13.068 34.7867C11.4121 38.578 9.687 43.4416 8.12287 48.9153C4.99557 59.8591 2.5 73.2825 2.5 85.5V85.902V86.0343L2.56542 86.1493L2.76341 86.4973L2.76477 86.4996C6.41183 92.829 13.2359 96.7853 19.6402 99.1756C26.052 101.569 32.1386 102.427 34.4362 102.5L35.2882 102.527ZM3.19747 86.2503L3.198 86.25L3.19747 86.2503Z" fill="#11111B" stroke="#11111B"/>
<path d="M60 93C34.971 93 22.506 83.757 21.987 83.367L23.799 80.976C23.922 81.063 36.066 90 60 90C83.934 90 96.078 81.063 96.198 80.973L98.01 83.364C97.494 83.757 85.029 93 60 93Z" fill="#11111B" stroke="#11111B"/>
<path d="M92.706 34.557C79.554 27.366 63.153 27 60 27C56.847 27 40.446 27.366 27.294 34.557L25.854 31.926C39.648 24.381 56.718 24 60 24C63.282 24 80.352 24.381 94.149 31.926L92.706 34.557Z" fill="#11111B" stroke="#11111B"/>
</svg>
