<svg width="144" height="144" viewBox="0 0 144 144" fill="none" xmlns="http://www.w3.org/2000/svg">
<path d="M15.003 72C15.003 40.4259 40.4288 15 72.003 15C103.574 15 129.003 40.426 129.003 72C129.003 103.574 103.574 129 72.003 129C40.4288 129 15.003 103.574 15.003 72Z" fill="#A6E3A1" stroke="#11111B" stroke-width="6"/>
<path d="M95.241 101.745C94.365 101.745 93.486 101.31 92.61 100.869C84.279 96.048 74.193 93.417 63.234 93.417C57.093 93.417 50.955 94.29 45.255 95.607C44.379 95.607 43.062 96.045 42.624 96.045C40.431 96.045 39.117 94.287 39.117 92.535C39.117 90.345 40.431 89.025 42.186 88.593C49.2 86.835 56.217 85.962 63.669 85.962C75.948 85.962 87.348 89.025 96.993 94.734C98.307 95.607 99.186 96.486 99.186 98.676C98.748 100.434 96.993 101.745 95.241 101.745ZM101.379 86.835C100.065 86.835 99.189 86.403 98.31 85.962C89.106 80.262 76.386 76.749 61.92 76.749C54.903 76.749 48.327 77.628 43.503 78.948C42.186 79.38 41.748 79.38 40.872 79.38C38.241 79.38 36.486 77.19 36.486 74.997C36.486 72.366 37.803 71.049 39.993 70.176C46.569 68.424 53.148 67.107 62.355 67.107C77.265 67.107 91.734 70.617 103.134 77.628C104.886 78.501 105.765 80.259 105.765 82.011C105.765 84.645 104.01 86.835 101.379 86.835ZM108.396 69.303C107.082 69.303 106.641 68.865 105.327 68.43C94.803 62.289 79.02 58.779 63.672 58.779C55.779 58.779 47.886 59.658 40.872 61.41C39.993 61.41 39.117 61.848 37.803 61.848C34.734 62.286 32.541 59.658 32.541 56.586C32.541 53.517 34.296 51.765 36.486 51.324C44.817 48.693 53.586 47.814 63.672 47.814C80.334 47.814 97.872 51.324 111.027 58.776C112.779 59.655 114.093 61.407 114.093 64.038C113.658 67.107 111.462 69.303 108.396 69.303Z" fill="#11111B"/>
</svg>
