<svg width="148" height="118" viewBox="0 0 148 118" fill="none" xmlns="http://www.w3.org/2000/svg">
<path d="M6.07799 6.57799C1.97682 10.6792 1.97661 17.3128 6.07737 21.4142C6.07758 21.4144 6.07778 21.4146 6.07799 21.4148L43.6393 58.9984L6.07799 96.5819C6.07779 96.5821 6.07758 96.5823 6.07737 96.5825C1.97661 100.684 1.97682 107.341 6.07799 111.442C10.1794 115.544 16.8369 115.544 20.9383 111.442L65.9402 66.4402C70.0416 62.3389 70.0416 55.6813 65.9402 51.58L20.9383 6.57799C16.8369 2.47661 10.1794 2.47661 6.07799 6.57799ZM133.502 93.5H65.9987C60.1932 93.5 55.4984 98.1949 55.4984 104C55.4984 109.806 60.1932 114.501 65.9987 114.501H133.502C139.307 114.501 144.002 109.806 144.002 104C144.002 98.1949 139.307 93.5 133.502 93.5Z" fill="#F9E2AF" stroke="#11111B" stroke-width="6"/>
</svg>
