<svg width="97" height="97" viewBox="0 0 97 97" fill="none" xmlns="http://www.w3.org/2000/svg">
<path d="M2.89255 33.1619L2.83056 33.105L2.78055 33.0685C2.77811 33.0664 2.77482 33.0636 2.77079 33.0601C2.75012 33.042 2.71456 33.009 2.67404 32.9638C2.58542 32.8649 2.51765 32.7579 2.48637 32.6626C2.46401 32.5944 2.45172 32.5166 2.49986 32.3851C2.55667 32.2301 2.73545 31.9056 3.29322 31.4538L3.32486 31.4281L3.35507 31.4008L9.8896 25.4915L9.93471 25.4507L9.96688 25.4165C9.9706 25.4129 9.97764 25.406 9.98782 25.3966C10.0148 25.3716 10.0614 25.3303 10.1243 25.2817C10.2555 25.1803 10.4274 25.0702 10.615 24.9966C10.7983 24.9246 10.9615 24.9006 11.109 24.9193C11.2419 24.9361 11.4558 24.9982 11.7439 25.251L11.7817 25.2843L11.8218 25.3149L71.5589 71.0309V92.3994C71.5585 92.4058 71.5577 92.4153 71.5565 92.4277C71.5522 92.471 71.5424 92.5447 71.5217 92.6375C71.4787 92.8288 71.3974 93.0618 71.2523 93.275C71.0601 93.5574 70.5937 94.0639 69.2328 94.0521L2.89255 33.1619Z" fill="#89B4FA" stroke="#11111B" stroke-width="3"/>
<path d="M2.79436 64.0196C2.80296 64.0096 2.81025 64.0018 2.81547 63.9965L2.83869 63.979L2.89316 63.9289L17.4303 50.5718L27.4999 59.8155L12.4358 71.364L12.4108 71.3832L12.3866 71.4034C11.4633 72.175 10.8987 72.092 10.6629 72.0284C10.4995 71.9843 10.3649 71.909 10.2713 71.8428C10.226 71.8108 10.1956 71.7846 10.1821 71.7725C10.182 71.7724 10.1819 71.7722 10.1818 71.7721L10.1594 71.7478L10.1131 71.7052L3.00627 65.1738C2.56763 64.5389 2.67476 64.2448 2.6933 64.1938C2.6938 64.1925 2.69424 64.1912 2.6946 64.1902C2.71883 64.1212 2.75814 64.0621 2.79436 64.0196ZM32.1596 37.1258L68.6816 3.52872C69.418 3.0995 69.8691 3.07607 70.1041 3.10986C70.3534 3.14568 70.5912 3.2792 70.8351 3.54604C71.088 3.82259 71.2875 4.18107 71.4281 4.50676C71.4872 4.64376 71.531 4.76346 71.5608 4.85181L71.7372 25.9111L44.7247 46.7609L32.1596 37.1258ZM71.6069 5.00029C71.6071 5.00108 71.6071 5.00084 71.6067 4.99954L71.6069 5.00029Z" fill="#89B4FA" stroke="#11111B" stroke-width="3"/>
<path d="M74.1681 94.0847C74.4315 93.4263 74.5589 92.7256 74.5589 92.0246V4.62476V4.36609L74.4723 4.12236C74.3554 3.79348 74.2282 3.48505 74.0908 3.19692L93.349 12.5805L93.4332 12.6216L93.5127 12.6486C93.513 12.6488 93.5133 12.6489 93.5137 12.649C93.5208 12.6517 93.5372 12.658 93.5615 12.668C93.6104 12.6881 93.6896 12.7226 93.7888 12.7728C93.9906 12.8748 94.2561 13.0317 94.5154 13.2483C95.0257 13.6743 95.4476 14.2649 95.4476 15.1415V81.2417V81.3637L95.463 81.4577C95.4632 81.4594 95.4633 81.4613 95.4635 81.4635C95.4653 81.4869 95.468 81.5377 95.466 81.611C95.4619 81.7583 95.4389 81.9901 95.3544 82.2714C95.1971 82.7955 94.802 83.5791 93.7319 84.3415L74.1681 94.0847Z" fill="#89B4FA" stroke="#11111B" stroke-width="3"/>
</svg>
